<?xml version="1.0" encoding="UTF-8" standalone="no"?>
<svg
   viewBox="0 0 158.74 70.87"
   version="1.1"
   id="svg72"
   sodipodi:docname="calcullit2.svg"
   inkscape:export-filename="calcullit2.png"
   inkscape:export-xdpi="298.43"
   inkscape:export-ydpi="298.43"
   inkscape:version="1.2 (1:1.2.1+202207142221+cd75a1ee6d)"
   xmlns:inkscape="http://www.inkscape.org/namespaces/inkscape"
   xmlns:sodipodi="http://sodipodi.sourceforge.net/DTD/sodipodi-0.dtd"
   xmlns="http://www.w3.org/2000/svg"
   xmlns:svg="http://www.w3.org/2000/svg"
   xmlns:rdf="http://www.w3.org/1999/02/22-rdf-syntax-ns#"
   xmlns:cc="http://creativecommons.org/ns#"
   xmlns:dc="http://purl.org/dc/elements/1.1/">
  <sodipodi:namedview
     id="namedview74"
     pagecolor="#ffffff"
     bordercolor="#666666"
     borderopacity="1.0"
     inkscape:showpageshadow="2"
     inkscape:pageopacity="1"
     inkscape:pagecheckerboard="0"
     inkscape:deskcolor="#d1d1d1"
     showgrid="false"
     inkscape:zoom="9.8273904"
     inkscape:cx="79.420881"
     inkscape:cy="35.46211"
     inkscape:window-width="1920"
     inkscape:window-height="1009"
     inkscape:window-x="0"
     inkscape:window-y="34"
     inkscape:window-maximized="1"
     inkscape:current-layer="svg72" />
  <defs
     id="defs64">
    <style
       id="style62">.cls-1{fill:#2a2a29;}.cls-2{fill:#a176ac;}</style>
  </defs>
  <title
     id="title66">PC2.FMCOMP.INF24</title>
  <path
     d="M38.5 21.46l-.22.2a1.7 1.7 0 0 1-.3.2 2 2 0 0 1-.35.2 1.07 1.07 0 0 1-.4.07 1.12 1.12 0 0 1-.95-.44 1.8 1.8 0 0 1-.35-1.18 2.7 2.7 0 0 1 .2-1 3 3 0 0 1 .52-.87 2.6 2.6 0 0 1 .76-.6 1.84 1.84 0 0 1 .92-.22 2.1 2.1 0 0 1 .56.08 1.4 1.4 0 0 1 .42.2l.76-.2v.05l-.63 2.68c0 .1-.05.2-.07.32a2.2 2.2 0 0 0 0 .27.43.43 0 0 0 .1.32.58.58 0 0 0 .34.08h.22l.23-.06-.06.27-.57.2a1.18 1.18 0 0 1-.45.08.62.62 0 0 1-.66-.6zm.6-2.62a1.24 1.24 0 0 0 0-.27.57.57 0 0 0-.12-.23.56.56 0 0 0-.23-.16.82.82 0 0 0-.37-.07 1 1 0 0 0-.6.2 2 2 0 0 0-.5.55 2.82 2.82 0 0 0-.35.76 3.2 3.2 0 0 0-.14.92 3 3 0 0 0 0 .45 1.08 1.08 0 0 0 .1.36.5.5 0 0 0 .23.24.7.7 0 0 0 .37.1 1 1 0 0 0 .5-.14 2.56 2.56 0 0 0 .57-.46zM55.06 19.4a2.92 2.92 0 0 1-.73 1.93 2.52 2.52 0 0 1-.76.6 2 2 0 0 1-.9.2 3.06 3.06 0 0 1-.63-.05 2.22 2.22 0 0 1-.46-.17 1.16 1.16 0 0 1-.32-.23 1.33 1.33 0 0 1-.23-.3l1.07-4.7c0-.07 0-.12 0-.17a.6.6 0 0 0 0-.14.5.5 0 0 0 0-.23.44.44 0 0 0-.1-.13.6.6 0 0 0-.22-.05h-.26l.05-.25 1.54-.1v.07l-.62 2.75a2.58 2.58 0 0 1 .66-.45 1.26 1.26 0 0 1 .55-.13 1.2 1.2 0 0 1 1 .43 1.75 1.75 0 0 1 .36 1.14zm-.86 0a2.28 2.28 0 0 0 0-.44 1.24 1.24 0 0 0-.13-.37.7.7 0 0 0-.26-.26.86.86 0 0 0-.4-.1.87.87 0 0 0-.28.06l-.26.13a1.37 1.37 0 0 0-.24.18l-.2.2-.56 2.47a.6.6 0 0 0 .07.18.7.7 0 0 0 .16.18.94.94 0 0 0 .25.14 1.13 1.13 0 0 0 .32.05 1.08 1.08 0 0 0 .62-.2 1.9 1.9 0 0 0 .5-.5 3 3 0 0 0 .33-.8 4 4 0 0 0 .07-.9zM66.5 22.13a1.52 1.52 0 0 1-1.15-.43 1.62 1.62 0 0 1-.42-1.2 3 3 0 0 1 .16-1 2.94 2.94 0 0 1 .44-.84 2.25 2.25 0 0 1 .72-.6 2.1 2.1 0 0 1 1-.24 1.4 1.4 0 0 1 .9.25.8.8 0 0 1 .32.63 1 1 0 0 1-.14.5.44.44 0 0 1-.4.22.48.48 0 0 1-.34-.1.38.38 0 0 1-.1-.26 1 1 0 0 1 .08-.36c.06-.15.1-.28.14-.37a.28.28 0 0 0-.2-.16 1 1 0 0 0-.33-.06 1.15 1.15 0 0 0-1 .67 2.94 2.94 0 0 0-.42 1.6 1.54 1.54 0 0 0 .26.95.87.87 0 0 0 .7.35 1.28 1.28 0 0 0 .73-.22 2.5 2.5 0 0 0 .6-.6l.24.16a2.55 2.55 0 0 1-.77.8 1.82 1.82 0 0 1-1.03.33zM85.53 24.94a2.84 2.84 0 0 1-.2 1 2.7 2.7 0 0 1-.53.87 2.4 2.4 0 0 1-.76.6 2 2 0 0 1-.9.22 2.93 2.93 0 0 1-.62-.06 1.64 1.64 0 0 1-.46-.17 1.4 1.4 0 0 1-.33-.25 2.37 2.37 0 0 1-.23-.3l1.07-4.7v-.17a.6.6 0 0 0 0-.14.5.5 0 0 0-.05-.23.33.33 0 0 0-.14-.1 1 1 0 0 0-.22-.06h-.27l.05-.25 1.53-.1v.06l-.63 2.76a2.4 2.4 0 0 1 .66-.46 1.26 1.26 0 0 1 .56-.13 1.22 1.22 0 0 1 1 .43 1.75 1.75 0 0 1 .47 1.18zm-.86 0a3.15 3.15 0 0 0 0-.44 1.2 1.2 0 0 0-.14-.38.78.78 0 0 0-.26-.25.86.86 0 0 0-.4-.1.76.76 0 0 0-.28.06 1.74 1.74 0 0 0-.28.14 1.88 1.88 0 0 0-.24.18 1.68 1.68 0 0 1-.2.18l-.56 2.47a.55.55 0 0 0 .08.18.65.65 0 0 0 .15.18.87.87 0 0 0 .27.14.8.8 0 0 0 .32.05 1 1 0 0 0 .6-.2 1.66 1.66 0 0 0 .5-.5 2.72 2.72 0 0 0 .35-.8 3.36 3.36 0 0 0 .07-.85zM83.9 17.06a1.74 1.74 0 0 0-.22.2l-.3.2a1.92 1.92 0 0 1-.35.18 1 1 0 0 1-.4.08 1.13 1.13 0 0 1-.96-.43 1.84 1.84 0 0 1-.34-1.2 2.65 2.65 0 0 1 .2-1 2.75 2.75 0 0 1 .52-.86 2.35 2.35 0 0 1 .76-.6 1.94 1.94 0 0 1 .9-.23 2 2 0 0 1 .57.1 1.4 1.4 0 0 1 .42.17l.76-.2v.07l-.64 2.68c0 .08 0 .2-.07.3a2 2 0 0 0 0 .28c0 .16 0 .27.1.32a.5.5 0 0 0 .34.1h.2l.24-.06-.07.26-.56.22a1.37 1.37 0 0 1-.43.06.6.6 0 0 1-.47-.17.7.7 0 0 1-.2-.47zm.6-2.63a1.1 1.1 0 0 0 0-.26.57.57 0 0 0-.12-.23.54.54 0 0 0-.22-.17 1 1 0 0 0-.37-.06 1 1 0 0 0-.6.2 2 2 0 0 0-.5.54 2.62 2.62 0 0 0-.37.77 3.13 3.13 0 0 0-.13.92c0 .17 0 .32 0 .45a1 1 0 0 0 .12.35.54.54 0 0 0 .22.25.74.74 0 0 0 .38.1 1 1 0 0 0 .5-.15 2.26 2.26 0 0 0 .56-.45zM99.18 22.13A1.52 1.52 0 0 1 98 21.7a1.62 1.62 0 0 1-.42-1.2 3 3 0 0 1 .16-1 2.94 2.94 0 0 1 .45-.84 2.25 2.25 0 0 1 .7-.6 2.1 2.1 0 0 1 1-.24 1.4 1.4 0 0 1 .92.25.8.8 0 0 1 .3.63 1 1 0 0 1-.13.5.44.44 0 0 1-.4.22.48.48 0 0 1-.35-.1.38.38 0 0 1-.1-.26 1 1 0 0 1 .08-.36c.06-.15.1-.28.14-.37a.28.28 0 0 0-.2-.16 1 1 0 0 0-.33-.06 1.15 1.15 0 0 0-1 .67 2.94 2.94 0 0 0-.4 1.6 1.54 1.54 0 0 0 .25.95.87.87 0 0 0 .7.35 1.28 1.28 0 0 0 .72-.22 2.5 2.5 0 0 0 .6-.6l.28.15a2.55 2.55 0 0 1-.78.8 1.82 1.82 0 0 1-1.04.33zM38.75 54.1l-.22.18a2.43 2.43 0 0 1-.3.2 2 2 0 0 1-.35.2.9.9 0 0 1-.4.07 1.1 1.1 0 0 1-.95-.43 1.84 1.84 0 0 1-.35-1.18 2.66 2.66 0 0 1 .2-1 2.72 2.72 0 0 1 .52-.87 2.46 2.46 0 0 1 .76-.6 2 2 0 0 1 .9-.23 2.1 2.1 0 0 1 .57.08 1.7 1.7 0 0 1 .42.18l.76-.2v.07l-.62 2.68c0 .08-.05.2-.07.3s0 .23 0 .28a.42.42 0 0 0 .1.32.5.5 0 0 0 .35.1h.22a.9.9 0 0 0 .23-.06l-.06.25-.56.22a1.42 1.42 0 0 1-.45.07.63.63 0 0 1-.47-.18.62.62 0 0 1-.2-.47zm.6-2.64a1.1 1.1 0 0 0 0-.26.57.57 0 0 0-.15-.2.58.58 0 0 0-.2-.2 1 1 0 0 0-.37-.06 1 1 0 0 0-.6.2 2 2 0 0 0-.5.53 2.9 2.9 0 0 0-.35.77 3.14 3.14 0 0 0-.14.9 3 3 0 0 0 0 .46 1.08 1.08 0 0 0 .1.36.6.6 0 0 0 .24.24.7.7 0 0 0 .37.1 1.16 1.16 0 0 0 .5-.14 2.56 2.56 0 0 0 .57-.46zM54.18 52a2.74 2.74 0 0 1-.2 1.06 2.92 2.92 0 0 1-.52.87 2.83 2.83 0 0 1-.76.6 2 2 0 0 1-.9.2 2.93 2.93 0 0 1-.63-.06 1.77 1.77 0 0 1-.46-.16 1.42 1.42 0 0 1-.3-.24 1.76 1.76 0 0 1-.25-.3l1.07-4.7c0-.06 0-.12 0-.16a.7.7 0 0 0 0-.14.37.37 0 0 0-.05-.23.3.3 0 0 0-.14-.13 1 1 0 0 0-.22-.05h-.26l.06-.26 1.53-.1v.06L51.6 51a3 3 0 0 1 .66-.46 1.47 1.47 0 0 1 .56-.13 1.24 1.24 0 0 1 1 .44 1.77 1.77 0 0 1 .36 1.16zm-.85 0a2.18 2.18 0 0 0 0-.44 1.15 1.15 0 0 0-.13-.37.7.7 0 0 0-.3-.2.87.87 0 0 0-.42-.1.65.65 0 0 0-.27.06 1.1 1.1 0 0 0-.26.13 1.3 1.3 0 0 0-.23.17l-.2.2-.5 2.44a.4.4 0 0 0 .07.2.85.85 0 0 0 .16.17 1.1 1.1 0 0 0 .26.15 1.07 1.07 0 0 0 .3 0 1.1 1.1 0 0 0 .63-.2 1.78 1.78 0 0 0 .5-.52 2.88 2.88 0 0 0 .34-.8 3.82 3.82 0 0 0 .06-.85zM66.5 54.75a1.56 1.56 0 0 1-1.16-.42 1.65 1.65 0 0 1-.42-1.2 3.3 3.3 0 0 1 .16-1 3 3 0 0 1 .45-.86 2.22 2.22 0 0 1 .72-.6 2 2 0 0 1 1-.24 1.4 1.4 0 0 1 .9.26.75.75 0 0 1 .3.62.92.92 0 0 1-.13.5.45.45 0 0 1-.4.22.45.45 0 0 1-.34-.12.34.34 0 0 1-.1-.24 1.14 1.14 0 0 1 .08-.37c.06-.14.1-.26.14-.36a.33.33 0 0 0-.2-.16 1.26 1.26 0 0 0-.33 0 1.16 1.16 0 0 0-1 .66 3 3 0 0 0-.4 1.56 1.53 1.53 0 0 0 .26.93.85.85 0 0 0 .72.35 1.24 1.24 0 0 0 .7-.2 2.68 2.68 0 0 0 .6-.62l.25.17a2.63 2.63 0 0 1-.78.78 1.8 1.8 0 0 1-1.03.35zM82.62 54.1l-.2.18-.3.2a2.3 2.3 0 0 1-.36.2 1 1 0 0 1-.42.07 1.13 1.13 0 0 1-.94-.43 1.84 1.84 0 0 1-.4-1.18 2.65 2.65 0 0 1 .2-1 2.75 2.75 0 0 1 .52-.87 2.43 2.43 0 0 1 .75-.6 2 2 0 0 1 .9-.23 2.1 2.1 0 0 1 .57.08 1.7 1.7 0 0 1 .42.18l.76-.2v.07l-.63 2.68c0 .08 0 .2-.08.3a2.12 2.12 0 0 0 0 .28c0 .16 0 .27.1.32a.48.48 0 0 0 .33.1h.23a.9.9 0 0 0 .22-.06l-.06.25-.56.22a1.4 1.4 0 0 1-.44.07.65.65 0 0 1-.48-.18.66.66 0 0 1-.14-.47zm.6-2.64a1.1 1.1 0 0 0 0-.26.57.57 0 0 0-.12-.23.5.5 0 0 0-.23-.17.93.93 0 0 0-.36-.06 1 1 0 0 0-.58.2 2.2 2.2 0 0 0-.52.53 2.9 2.9 0 0 0-.35.77 3.14 3.14 0 0 0-.14.9 3 3 0 0 0 0 .46 1.37 1.37 0 0 0 .1.4.66.66 0 0 0 .23.24.74.74 0 0 0 .38.1 1.2 1.2 0 0 0 .5-.14 2.33 2.33 0 0 0 .57-.46zM99.2 52a2.93 2.93 0 0 1-.2 1.06 3.17 3.17 0 0 1-.54.87 2.7 2.7 0 0 1-.76.6 2 2 0 0 1-.9.2 2.9 2.9 0 0 1-.62-.06 1.72 1.72 0 0 1-.47-.16 1.42 1.42 0 0 1-.3-.24 1.33 1.33 0 0 1-.24-.3l1.07-4.7c0-.06 0-.12 0-.16a.78.78 0 0 0 0-.14.46.46 0 0 0 0-.23.32.32 0 0 0-.15-.13l-.2-.05h-.28l.05-.26 1.54-.1v.06L96.6 51a3 3 0 0 1 .66-.46 1.42 1.42 0 0 1 .55-.13 1.24 1.24 0 0 1 1 .44 1.72 1.72 0 0 1 .4 1.16zm-.87 0a2.18 2.18 0 0 0 0-.44 1.15 1.15 0 0 0-.13-.37.63.63 0 0 0-.3-.2.86.86 0 0 0-.4-.1.66.66 0 0 0-.3.06 1.26 1.26 0 0 0-.25.13l-.24.17-.2.2-.5 2.44a.56.56 0 0 0 .07.2.85.85 0 0 0 .16.17 1.35 1.35 0 0 0 .26.15 1.13 1.13 0 0 0 .3 0 1.1 1.1 0 0 0 .63-.2 1.78 1.78 0 0 0 .5-.52 2.88 2.88 0 0 0 .34-.8 3.82 3.82 0 0 0 .06-.85zM110.37 54.75a1.55 1.55 0 0 1-1.15-.42 1.65 1.65 0 0 1-.42-1.2 3 3 0 0 1 .16-1 2.74 2.74 0 0 1 .44-.86 2.37 2.37 0 0 1 .73-.6 2 2 0 0 1 1-.24 1.4 1.4 0 0 1 .9.26.77.77 0 0 1 .3.62.9.9 0 0 1-.12.5.47.47 0 0 1-.4.22.43.43 0 0 1-.33-.12.3.3 0 0 1-.1-.24 1.14 1.14 0 0 1 .08-.37l.14-.36a.33.33 0 0 0-.2-.16 1.26 1.26 0 0 0-.34 0 1.17 1.17 0 0 0-1 .66 3 3 0 0 0-.4 1.6 1.47 1.47 0 0 0 .26.94.83.83 0 0 0 .7.35 1.27 1.27 0 0 0 .73-.2 2.68 2.68 0 0 0 .6-.62l.24.18a2.63 2.63 0 0 1-.8.78 1.82 1.82 0 0 1-1.03.3zM73 21.45l-.3.3-1.64-1.65 1.65-1.64.3.3-.53.52h3.3l-.52-.53.28-.3 1.65 1.65-1.65 1.64-.28-.3.53-.53h-3.3zm3.16-.9l.45-.45-.44-.44h-4.08l-.44.44.44.44zM73 54.08l-.3.28-1.63-1.64 1.64-1.64.3.3-.53.53h3.3l-.52-.53.3-.3 1.64 1.65-1.66 1.64-.3-.28.54-.54h-3.32zm3.17-.9l.44-.46-.43-.44h-4.1l-.44.44.45.45zM60 19.77l-2 1.95-.3-.3 2-2-2-2 .3-.3 2 2 2-2 .3.3-1.95 1.95 1.95 2-.3.3zM43 18.47v-.4h5.05v.4zm0 1.65v-.4h5.05v.4zM89.73 18.47v-.4h5v.4zm0 1.65v-.4h5v.4zM42.73 51.92v-.4h5.05v.4zM57.05 51.1v-.4h5.05v.4zm0 1.64v-.4h5.05v.4zM87.17 51.1v-.4h5v.4zm0 1.64v-.4h5v.4zM103.8 54.25v-2.33h-2.3v-.4h2.3V49.2h.4v2.33h2.33v.4h-2.32v2.32zM79.74 18.88h7.44v.4h-7.44z"
     class="cls-1"
     id="path68" />
  <path
     d="M48.65 59.07c-4.26 0-7.73-3-7.73-6.74s3.47-6.74 7.73-6.74 7.74 3 7.74 6.73-3.48 6.74-7.75 6.74zm0-13c-4 0-7.23 2.8-7.23 6.24s3.24 6.25 7.23 6.25 7.24-2.8 7.24-6.24-3.26-6.2-7.25-6.2zM52.93 25.82c-1.94 0-3.46-3-3.46-6.74s1.52-6.73 3.46-6.73 3.46 3 3.46 6.73-1.53 6.74-3.47 6.74zm0-13c-1.6 0-3 2.85-3 6.23s1.35 6.24 3 6.24 3-2.86 3-6.25-1.4-6.2-3-6.2zM97.33 59.07c-1.94 0-3.46-3-3.46-6.74s1.52-6.74 3.46-6.74 3.46 3 3.46 6.73-1.53 6.74-3.47 6.74zm0-13c-1.6 0-3 2.86-3 6.24s1.36 6.25 3 6.25 3-2.86 3-6.24-1.4-6.2-3-6.2zM83.46 29.68c-1.9 0-3.46-2.38-3.46-5.32S81.55 19 83.46 19s3.46 2.4 3.46 5.32-1.55 5.36-3.46 5.36zm0-10.14c-1.63 0-3 2.16-3 4.82s1.33 4.82 3 4.82 3-2.16 3-4.82-1.37-4.82-3-4.82zM69 47.5c-3.33-5.42-12-4.67-16.6-3.37-2.5.7-3.52 1.46-3.52 1.7h-.5c0-1 3-1.92 3.87-2.18 4.75-1.34 13.75-2.1 17.2 3.6zM67.92 47.62L70 49l.16-2.5-2.24 1.12zM91.5 28.55a16.13 16.13 0 0 1-4.4-.55c-.8-.26-1.17-.58-1.17-1h.5c0 .08.17.3.82.5 3 1 11.9.77 14.36-2.64l.42.3c-1.76 2.5-6.62 3.4-10.52 3.4zM102.75 25.86l-.3-2.47-2 1.47 2.3 1zM47.85 27.54c-2.73 0-5.6-.93-6.34-3.67l.5-.14c.8 3 4.52 3.6 7.45 3.2 2.08-.28 3.23-1 3.23-1.36h.5c0 .94-1.9 1.62-3.66 1.86a13 13 0 0 1-1.67.1zM43.08 24l-1.5-2-.97 2.3 2.48-.3zM80.4 48.8l-.4-.3c3.1-4.63 9.8-4.07 12.9-3.13.63.2 2.72.9 2.72 1.86h-.5c0-.25-.64-.86-2.37-1.38-3-.9-9.4-1.45-12.35 2.94zM79.33 47.76l.04 2.5 2.14-1.3-2.17-1.2z"
     class="cls-2"
     id="path70" />
  <metadata
     id="metadata180">
    <rdf:RDF>
      <cc:Work
         rdf:about="">
        <dc:title>PC2.FMCOMP.INF24</dc:title>
      </cc:Work>
    </rdf:RDF>
  </metadata>
</svg>
