<?xml version="1.0" encoding="UTF-8" standalone="no"?>
<svg
   viewBox="0 0 113.56964 61.470479"
   enable-background="new 0 0 108.6 64.3"
   version="1.1"
   id="svg29"
   sodipodi:docname="CS.svg"
   width="113.56963"
   height="61.470482"
   inkscape:version="1.2 (1:1.2.1+202207142221+cd75a1ee6d)"
   inkscape:export-filename="CS.png"
   inkscape:export-xdpi="298.43"
   inkscape:export-ydpi="298.43"
   xmlns:inkscape="http://www.inkscape.org/namespaces/inkscape"
   xmlns:sodipodi="http://sodipodi.sourceforge.net/DTD/sodipodi-0.dtd"
   xmlns="http://www.w3.org/2000/svg"
   xmlns:svg="http://www.w3.org/2000/svg">
  <defs
     id="defs33" />
  <sodipodi:namedview
     id="namedview31"
     pagecolor="#ffffff"
     bordercolor="#666666"
     borderopacity="1.0"
     inkscape:showpageshadow="2"
     inkscape:pageopacity="0.0"
     inkscape:pagecheckerboard="0"
     inkscape:deskcolor="#d1d1d1"
     showgrid="false"
     inkscape:zoom="6.8038962"
     inkscape:cx="42.108226"
     inkscape:cy="25.500095"
     inkscape:window-width="1920"
     inkscape:window-height="1009"
     inkscape:window-x="0"
     inkscape:window-y="34"
     inkscape:window-maximized="1"
     inkscape:current-layer="svg29" />
  <style
     type="text/css"
     id="style2">.st0{fill:#1D1D1B;} .st1{font-family:'FiraSans-Regular';} .st2{font-size:23.5612px;} .st3{letter-spacing:-1;} .st4{fill:none;stroke:#F64300;stroke-width:0.75;stroke-miterlimit:10;} .st5{fill:none;stroke:#009CAD;stroke-width:0.75;stroke-miterlimit:10;} .st6{fill:none;stroke:#FC9E00;stroke-width:0.75;stroke-miterlimit:10;} .st7{fill:#009CAD;} .st8{font-size:7px;} .st9{fill:#FC9E00;} .st10{fill:#F64300;}</style>
  <text
     id="XMLID_2_"
     x="9.507988"
     y="41.155361"><tspan
       x="9.507988"
       y="41.155361"
       class="st0 st1 st2"
       id="tspan4">0,01900</tspan><tspan
       x="68.707993"
       y="41.155361"
       class="st0 st1 st2"
       id="tspan6" /></text>
  <g
     id="XMLID_1_"
     transform="matrix(1.2956676,0,0,0.99675452,-15.970679,-0.95141822)">
    <path
       id="XMLID_5_"
       d="m 47.3,47.4 c 0,0 0.6,4.4 3.8,4.4 3.2,0 15.5,0 15.5,0 0,0 3.5,0.3 3.5,3.9"
       class="st4" />
    <path
       id="XMLID_3_"
       d="m 93,47.4 c 0,0 -0.6,4.4 -3.8,4.4 -3.2,0 -15.5,0 -15.5,0 0,0 -3.5,0.3 -3.5,3.9"
       class="st4" />
  </g>
  <g
     id="XMLID_9_"
     transform="translate(-2.0800117,-1.1186406)">
    <path
       id="XMLID_11_"
       d="m 43,22.2 c 0,0 -0.4,-2.9 -2.6,-2.9 -2.2,0 -10.5,0 -10.5,0 0,0 -2.4,-0.2 -2.4,-2.6"
       class="st5" />
    <path
       id="XMLID_10_"
       d="m 12,22.2 c 0,0 0.4,-2.9 2.6,-2.9 2.2,0 10.5,0 10.5,0 0,0 2.4,-0.2 2.4,-2.6"
       class="st5" />
  </g>
  <g
     id="XMLID_6_"
     transform="translate(-2.0800117,-1.1186406)">
    <path
       id="XMLID_8_"
       d="m 97.2,22.2 c 0,0 -0.4,-2.9 -2.2,-2.9 -1.8,0 -8.8,0 -8.8,0 0,0 -2,-0.2 -2,-2.6"
       class="st6" />
    <path
       id="XMLID_7_"
       d="m 71.2,22.2 c 0,0 0.4,-2.9 2.2,-2.9 1.8,0 8.8,0 8.8,0 0,0 2,-0.2 2,-2.6"
       class="st6" />
  </g>
  <text
     id="XMLID_4_"
     class="st7 st1 st8"
     x="-0.68701172"
     y="11.64236">Ne pas compter</text>
  <text
     id="XMLID_13_"
     x="53.033989"
     y="5.3183594"><tspan
       x="53.033989"
       y="5.3183594"
       class="st9 st1 st8"
       id="tspan19">Deux chiffres ≠ 0</tspan><tspan
       x="57.933987"
       y="13.718359"
       class="st9 st1 st8"
       id="tspan21">à leur gauche</tspan></text>
  <text
     id="XMLID_14_"
     class="st10 st1 st8"
     x="61.37999"
     y="61.371361">4 CS</text>
  <path
     d="m 51.419988,58.981359 h 5.7"
     class="st4"
     id="path25" />
  <path
     d="m 56.519988,60.881359 3.3,-1.9 -3.3,-1.8 z"
     class="st10"
     id="path27" />
</svg>
