<?xml version="1.0" encoding="UTF-8" standalone="no"?>
<svg
   viewBox="0 0 436.5 70.9"
   enable-background="new 0 0 436.5 70.9"
   version="1.1"
   id="svg175"
   sodipodi:docname="pb2.svg"
   inkscape:export-filename="pb2.png"
   inkscape:export-xdpi="298.43"
   inkscape:export-ydpi="298.43"
   inkscape:version="1.2 (1:1.2.1+202207142221+cd75a1ee6d)"
   xmlns:inkscape="http://www.inkscape.org/namespaces/inkscape"
   xmlns:sodipodi="http://sodipodi.sourceforge.net/DTD/sodipodi-0.dtd"
   xmlns="http://www.w3.org/2000/svg"
   xmlns:svg="http://www.w3.org/2000/svg">
  <defs
     id="defs179" />
  <sodipodi:namedview
     id="namedview177"
     pagecolor="#ffffff"
     bordercolor="#666666"
     borderopacity="1.0"
     inkscape:showpageshadow="2"
     inkscape:pageopacity="1"
     inkscape:pagecheckerboard="0"
     inkscape:deskcolor="#d1d1d1"
     showgrid="false"
     inkscape:zoom="2.8155785"
     inkscape:cx="218.60516"
     inkscape:cy="35.694263"
     inkscape:window-width="1920"
     inkscape:window-height="1009"
     inkscape:window-x="0"
     inkscape:window-y="34"
     inkscape:window-maximized="1"
     inkscape:current-layer="svg175" />
  <style
     type="text/css"
     id="style142">.st0{fill:#FFFFFF;} .st1{fill:#7BD3CE;} .st2{fill:#3A3A39;} .st3{fill:#FF3932;}</style>
  <g
     id="Calque_1">
    <path
       d="M138.9 47.6H68.8c-2.9 0-5.2-2.3-5.2-5.2V26.3c0-2.9 2.3-5.2 5.2-5.2h70.1c2.9 0 5.2 2.3 5.2 5.2v16.1c0 2.9-2.3 5.2-5.2 5.2z"
       class="st0"
       id="path144" />
    <path
       d="M138.9 47.9H68.8c-3 0-5.4-2.4-5.4-5.4V26.3c0-3 2.4-5.4 5.4-5.4h70.1c3 0 5.4 2.4 5.4 5.4v16.1c0 3-2.4 5.5-5.4 5.5zM68.8 21.4c-2.7 0-4.9 2.2-4.9 4.9v16.1c0 2.7 2.2 4.9 4.9 4.9h70.1c2.7 0 4.9-2.2 4.9-4.9V26.3c0-2.7-2.2-4.9-4.9-4.9H68.8z"
       class="st1"
       id="path146" />
    <path
       d="M232.9 39.5h-55.4c-2.9 0-5.2-2.3-5.2-5.2v-8c0-2.9 2.3-5.2 5.2-5.2h55.4c2.9 0 5.2 2.3 5.2 5.2v8c0 2.9-2.3 5.2-5.2 5.2z"
       class="st0"
       id="path148" />
    <path
       d="M232.9 39.8h-55.4c-3 0-5.4-2.4-5.4-5.4v-8c0-3 2.4-5.4 5.4-5.4h55.4c3 0 5.4 2.4 5.4 5.4v8c.1 2.9-2.4 5.4-5.4 5.4zm-55.4-18.4c-2.7 0-4.9 2.2-4.9 4.9v8c0 2.7 2.2 4.9 4.9 4.9h55.4c2.7 0 4.9-2.2 4.9-4.9v-8c0-2.7-2.2-4.9-4.9-4.9h-55.4z"
       class="st1"
       id="path150" />
    <path
       d="M71.2 32.4c.1-.3.1-.5.1-.7s0-.3-.1-.4c0-.1-.1-.2-.2-.2s-.1-.1-.2-.1c-.2 0-.4.1-.6.2s-.3.3-.4.5c0 .2 0 .5-.1.7 0 .3-.1.5-.1.8 0 .1-.1.2-.1.2-.1 0-.2.1-.2.1s-.2 0-.2-.1c-.1 0-.1-.1-.1-.2.1-.5.2-.9.2-1.2s0-.5 0-.7-.1-.3-.2-.3-.1-.1-.2-.1-.2 0-.4.1-.2.1-.3.2c-.1.1-.2.2-.2.3s-.1.2-.1.4l-.2 1.2c0 .1-.1.2-.1.2-.1.1-.2.1-.2.1-.1 0-.2 0-.2-.1s-.1-.1-.1-.3l.5-2.6c0-.1.1-.2.1-.2.1 0 .2-.1.2-.1s.2 0 .2.1c.1 0 .1.1.1.2v.1c.1-.1.3-.2.5-.2s.3-.1.5-.1.4 0 .6.1c.1.1.2.2.3.4.1-.1.2-.2.3-.3.1-.1.2-.1.3-.2s.2-.1.3-.1c.1 0 .2 0 .3 0 .4 0 .7.2.8.5s.1.9 0 1.6c0 .1 0 .2 0 .3s0 .1 0 .1.1 0 .1 0 .1 0 .1 0 .1 0 .2-.1.1-.1.2-.2c.1 0 .1 0 .2 0s.1.1.2.1c0 .1.1.1.1.2s0 .2-.1.2c-.1.1-.2.2-.4.3s-.2.1-.4.1c0 0-.1 0-.2 0s-.2-.1-.3-.1-.2-.2-.2-.4-.4 0-.3-.3zm3.4 1.2c.1 0 .2.1.2.1 0 .1 0 .2 0 .2s-.1.2-.1.2-.2.1-.2.1c-.3-.1-.6-.2-.8-.4s-.4-.4-.5-.7c-.1-.3-.2-.6-.2-1s0-.8.1-1.3c.1-.4.2-.7.4-1.1s.3-.7.6-1 .5-.6.8-.8c.3-.2.6-.4 1-.5.1 0 .2 0 .2.1s.1.1.1.2 0 .2-.1.3-.1.1-.3.2c-.3.1-.6.2-.8.4s-.4.4-.6.7c-.2.2-.3.5-.4.8s-.2.6-.2.8c-.1.4-.1.7-.1 1s.1.6.1.8.2.4.3.6.4.3.5.3zm4.3-1.6c.1-.1.1-.2.2-.2s.2 0 .2 0c.1 0 .1.1.1.2s0 .2-.1.3c-.1.2-.2.4-.4.5-.1.2-.3.3-.5.4-.2.1-.3.2-.5.3s-.3.1-.5.1c-.3 0-.5-.1-.7-.2s-.4-.3-.5-.6-.1-.5-.2-.8 0-.7 0-1.1c.1-.4.2-.7.3-1.1s.4-.6.6-.9c.2-.3.5-.5.7-.6s.5-.2.8-.2c.4 0 .7.1.9.3s.4.5.5 1c0 .1 0 .1 0 .2s-.1.1-.2.2c-.1 0-.2.1-.3 0-.1 0-.1-.1-.2-.2-.1-.3-.2-.5-.3-.6s-.3-.2-.6-.2c-.2 0-.4.1-.5.2s-.3.3-.5.5c-.1.2-.3.4-.4.7-.1.3-.2.5-.2.8s-.1.5 0 .8c0 .2.1.4.2.6s.2.3.3.4.3.1.5.1.5-.1.7-.3.4-.3.6-.6zm3.6 1.1c-.3.2-.5.3-.7.4s-.4.1-.5.1c-.3 0-.5-.1-.7-.2s-.2-.3-.3-.6 0-.6 0-.9.1-.8.2-1.2c0-.1.1-.2.2-.2s.2-.1.3-.1.2 0 .2.1c.1 0 .1.1.1.2-.1.5-.2 1-.2 1.3 0 .3 0 .5 0 .7 0 .1.1.2.2.3s.1.1.2.1.2 0 .4-.1c.1 0 .2-.1.3-.2s.2-.2.2-.3.1-.2.1-.4l.4-1.4c0-.1.1-.2.1-.2.1 0 .2 0 .2 0s.1 0 .2.1.1.1 0 .2c0 0 0 .1 0 .2s-.1.3-.1.4-.1.4-.1.6-.1.4-.1.5c0 .2 0 .3 0 .4s0 .1.1.1c0 0 .1-.1.2-.1s.1-.1.2-.2c.1 0 .1 0 .2 0s.1.1.2.1c0 .1.1.1.1.2s0 .2-.1.2c-.1.1-.2.2-.4.3s-.3.1-.4.1c-.1 0-.2-.1-.3-.2-.3 0-.4-.1-.4-.3zm1.9.5c.2 0 .4-.1.5-.2s.4-.3.5-.6.3-.5.4-.8c.1-.3.2-.7.3-1 0-.3.1-.5.1-.8s0-.5-.1-.8c-.1-.2-.2-.5-.3-.7s-.4-.3-.7-.4c-.1 0-.2-.1-.2-.2s0-.2 0-.3c0-.1.1-.2.1-.2.1-.1.1-.1.2-.1.3.1.6.2.9.5.2.2.4.5.5.8s.2.6.2 1 0 .7 0 1.1c-.1.5-.2.9-.3 1.3-.1.4-.3.7-.6 1-.2.3-.5.5-.8.7s-.6.3-.9.4c-.1 0-.2 0-.2-.1s0-.1 0-.2 0-.2.1-.3.2-.1.3-.1zm7.4-1.9c.1 0 .2.1.2.1 0 .1 0 .2 0 .2 0 .1-.1.2-.1.2-.1.1-.1.1-.2.1h-2.1c-.1 0-.2 0-.2-.1s0-.1 0-.2.1-.2.1-.2.1-.1.2-.1h2.1zm.2-1.1c.1 0 .2.1.2.1 0 .1 0 .2 0 .2 0 .1-.1.1-.1.2-.1.1-.1.1-.2.1h-2.1c-.1 0-.2 0-.2-.1s0-.1 0-.2.1-.2.1-.2c.1-.1.1-.1.2-.1H92zm4.2-1l-.7 3.8c0 .1-.1.2-.1.2-.1 0-.2.1-.2.1s-.1 0-.2-.1c-.1 0-.1-.1-.1-.2l.8-5c0-.1 0-.1.1-.2s.1-.1.2-.1.1 0 .2 0 .1.1.2.1l1.3 2.1 2.1-2.2c.1-.1.1-.1.2-.1s.2 0 .2 0c.1 0 .1 0 .2.1 0 0 .1.1.1.2l-.8 4.9c0 .1-.1.2-.1.2-.1 0-.2.1-.2.1s-.2 0-.2-.1c-.1 0-.1-.1-.1-.2l.7-4-1.8 2.2c0 .1-.1.1-.2.1s-.1 0-.2 0-.1 0-.2-.1-.1-.1-.1-.1l-1.1-1.7zm6.6 4c.1 0 .2.1.2.1 0 .1 0 .2 0 .2s-.1.2-.1.2-.2.1-.2.1c-.3-.1-.6-.2-.8-.4s-.4-.4-.5-.7c-.1-.3-.2-.6-.2-1s0-.8.1-1.3c.1-.4.2-.7.4-1.1s.3-.7.6-1 .5-.6.8-.8c.3-.2.6-.4 1-.5.1 0 .2 0 .2.1s.1.1.1.2 0 .2-.1.3-.1.1-.3.2c-.3.1-.6.2-.8.4s-.4.4-.6.7c-.2.2-.3.5-.4.8s-.2.6-.2.8c-.1.4-.1.7-.1 1s.1.6.1.8.2.4.3.6.3.3.5.3zM107 32c.1-.1.1-.2.2-.2s.2 0 .2 0c.1 0 .1.1.1.2s0 .2-.1.3c-.1.2-.2.4-.4.5-.1.2-.3.3-.5.4-.2.1-.3.2-.5.3s-.3.1-.5.1c-.3 0-.5-.1-.7-.2s-.4-.3-.5-.6-.2-.5-.3-.9 0-.7 0-1.1c.1-.4.2-.7.3-1.1s.4-.6.6-.9c.2-.3.5-.5.7-.6s.5-.2.8-.2c.4 0 .7.1.9.3s.4.5.5 1c0 .1 0 .1 0 .2s-.1.1-.2.2c-.1 0-.2.1-.3 0-.1 0-.1-.1-.2-.2-.1-.3-.2-.5-.3-.6s-.3-.2-.6-.2c-.2 0-.4.1-.5.2s-.3.3-.5.5c-.1.2-.3.4-.4.7-.1.3-.2.5-.2.8s-.1.5 0 .8c0 .2.1.4.2.6s.2.3.3.4.3.1.5.1.5-.1.7-.3.6-.2.7-.5zm3.6 1.1c-.3.2-.5.3-.7.4s-.4.1-.5.1c-.3 0-.5-.1-.7-.2s-.2-.3-.3-.6 0-.6 0-.9.1-.8.2-1.2c0-.1.1-.2.2-.2s.2-.1.3-.1.2 0 .2.1c.1 0 .1.1.1.2-.1.5-.2 1-.2 1.3 0 .3 0 .5 0 .7 0 .1.1.2.2.3s.1.1.2.1.2 0 .4-.1c.1 0 .2-.1.3-.2s.2-.2.2-.3.1-.2.1-.4l.4-1.4c0-.1.1-.2.1-.2.1 0 .2 0 .2 0s.1 0 .2.1.1.1 0 .2c0 0 0 .1 0 .2s-.1.3-.1.4-.1.4-.1.6-.1.4-.1.5c0 .2 0 .3 0 .4s0 .1.1.1c0 0 .1-.1.2-.1s.1-.1.2-.2c.1 0 .1 0 .2 0s.1.1.2.1c0 .1.1.1.1.2s0 .2-.1.2c-.1.1-.2.2-.4.3s-.3.1-.4.1c-.1 0-.2-.1-.3-.2-.3 0-.3-.1-.4-.3zm1.9.5c.2 0 .4-.1.5-.2s.4-.3.5-.6.3-.5.4-.8c.1-.3.2-.7.3-1 0-.3.1-.5.1-.8s0-.5-.1-.8c-.1-.2-.2-.5-.3-.7s-.4-.3-.7-.4c-.1 0-.2-.1-.2-.2s0-.2 0-.3c0-.1.1-.2.1-.2.1-.1.1-.1.2-.1.3.1.6.2.9.5.2.2.4.5.5.8s.2.6.2 1 0 .7 0 1.1c-.1.5-.2.9-.3 1.3-.1.4-.3.7-.6 1-.2.3-.5.5-.8.7s-.6.3-.9.4c-.1 0-.2 0-.2-.1s-.1-.1-.1-.2 0-.2.1-.3.3-.1.4-.1zm6.4-3.3c.1.1.2.3.2.4s-.1.3-.2.4-.3.2-.5.2-.3-.1-.4-.2-.2-.3-.2-.4.1-.3.2-.4.3-.2.4-.2c.2 0 .4.1.5.2zm5 2.1c.1-.3.1-.5.1-.7s0-.3-.1-.4c0-.1-.1-.2-.2-.2s-.1-.1-.2-.1c-.2 0-.4.1-.6.2s-.3.3-.4.5l-.3 1.5c0 .1-.1.2-.1.2-.1.1-.1.1-.2.1s-.1 0-.2-.1-.1-.1-.1-.3l.5-2.6c0-.1.1-.2.1-.2.1 0 .2-.1.2-.1s.2 0 .2.1c.1 0 .1.1.1.2v.2c.2-.1.3-.2.5-.3s.3-.1.4-.1c.4 0 .7.2.8.5.1.3.1.9 0 1.6 0 .1 0 .2 0 .3 0 .1 0 .1 0 .1s.1 0 .1 0 .1 0 .1 0 .1 0 .2-.1.1-.1.2-.2c.1 0 .1 0 .2 0s.1.1.2.1c0 .1.1.1.1.2s0 .2-.1.2c-.1.1-.2.2-.4.3s-.2.1-.4.1c0 0-.1 0-.2 0s-.2-.1-.3-.1-.2-.2-.2-.4-.1-.2 0-.5zm3.5 1.2c.1 0 .2.1.2.1 0 .1 0 .2 0 .2 0 .1-.1.2-.2.2s-.2.1-.2.1c-.3-.1-.6-.2-.8-.4s-.4-.4-.5-.7c-.1-.3-.2-.6-.2-1s0-.8.1-1.3c.1-.4.2-.7.4-1.1.2-.4.3-.7.6-1s.5-.6.8-.8c.3-.2.6-.4 1-.5.1 0 .2 0 .2.1s.1.1.1.2 0 .2-.1.3c-.1.1-.1.1-.3.2-.3.1-.6.2-.8.4s-.4.4-.6.7c-.2.2-.3.5-.4.8s-.2.6-.2.8c-.1.4-.1.7-.1 1s.1.6.2.8c.1.2.2.4.3.6s.3.3.5.3zm4.2-1.6c.1-.1.1-.2.2-.2s.2 0 .2 0c.1 0 .1.1.1.2s0 .2-.1.3c-.1.2-.2.4-.4.5-.1.2-.3.3-.5.4-.2.1-.3.2-.5.3-.2.1-.3.1-.5.1-.3 0-.5-.1-.7-.2s-.4-.3-.5-.6-.2-.5-.3-.9c0-.3 0-.7 0-1.1.1-.4.2-.7.3-1.1s.4-.6.6-.9c.2-.3.5-.5.7-.6.3-.1.5-.2.8-.2.4 0 .7.1.9.3s.4.5.5 1c0 .1 0 .1 0 .2s-.1.1-.2.2c-.1 0-.2.1-.3 0-.1 0-.1-.1-.2-.2-.1-.3-.2-.5-.3-.6-.2-.1-.3-.2-.6-.2-.2 0-.4.1-.5.2s-.3.3-.5.5-.3.4-.4.7c-.1.3-.2.5-.2.8s-.1.5 0 .8c0 .2.1.4.2.6s.2.3.3.4.3.1.5.1.5-.1.7-.3.6-.2.7-.5zm3.6 1.1c-.3.2-.5.3-.7.4s-.4.1-.5.1c-.3 0-.5-.1-.7-.2s-.2-.3-.3-.6 0-.6 0-.9c0-.4.1-.8.2-1.2 0-.1.1-.2.2-.2s.2-.1.3-.1c.1 0 .2 0 .2.1.1 0 .1.1.1.2-.1.5-.2 1-.2 1.3 0 .3 0 .5 0 .7 0 .1.1.2.2.3s.1.1.2.1.2 0 .4-.1c.1 0 .2-.1.3-.2.1-.1.2-.2.2-.3s.1-.2.1-.4l.4-1.4c0-.1.1-.2.1-.2.1 0 .2 0 .2 0 .1 0 .1 0 .2.1s.1.1 0 .2c0 0 0 .1 0 .2s-.1.3-.1.4-.1.4-.1.6-.1.4-.1.5c0 .2 0 .3 0 .4 0 .1 0 .1.1.1 0 0 .1-.1.2-.1s.1-.1.2-.2c.1 0 .1 0 .2 0s.1.1.2.1c0 .1.1.1.1.2s0 .2-.1.2c-.1.1-.2.2-.4.3s-.3.1-.4.1c-.1 0-.2-.1-.3-.2-.3 0-.3-.1-.4-.3zm2 .5c.2 0 .4-.1.5-.2.2-.1.4-.3.5-.6s.3-.5.4-.8c.1-.3.2-.7.3-1 0-.3.1-.5.1-.8s0-.5-.1-.8c-.1-.2-.2-.5-.3-.7-.2-.2-.4-.3-.7-.4-.1 0-.2-.1-.2-.2s0-.2 0-.3c0-.1.1-.2.1-.2.1-.1.1-.1.2-.1.3.1.6.2.9.5.2.2.4.5.5.8.1.3.2.6.2 1s0 .7 0 1.1c-.1.5-.2.9-.3 1.3-.2.4-.3.7-.6 1-.2.3-.5.5-.8.7s-.6.3-.9.4c-.1 0-.2 0-.2-.1s-.1-.1-.1-.2 0-.2.1-.3c.1 0 .2-.1.4-.1zm46.4-1.2c.1-.3.1-.5.1-.7s0-.3-.1-.4c0-.1-.1-.2-.2-.2s-.1-.1-.2-.1c-.2 0-.4.1-.6.2s-.3.3-.4.5l-.3 1.5c0 .1-.1.2-.1.2-.1.1-.1.1-.2.1s-.1 0-.2-.1-.1-.1-.1-.3l.5-2.6c0-.1.1-.2.1-.2.1 0 .2-.1.2-.1s.2 0 .2.1c.1 0 .1.1.1.2v.2c.2-.1.3-.2.5-.3s.3-.1.4-.1c.4 0 .7.2.8.5s.1.9 0 1.6c0 .1 0 .2 0 .3s0 .1 0 .1.1 0 .1 0 .1 0 .1 0 .1 0 .2-.1.1-.1.2-.2c.1 0 .1 0 .2 0s.1.1.2.1c0 .1.1.1.1.2s0 .2-.1.2c-.1.1-.2.2-.4.3s-.2.1-.4.1c0 0-.1 0-.2 0s-.2-.1-.3-.1-.2-.2-.2-.4-.1-.2 0-.5zm3.6 1.2c.1 0 .2.1.2.1 0 .1 0 .2 0 .2s-.1.2-.1.2-.2.1-.2.1c-.3-.1-.6-.2-.8-.4s-.4-.4-.5-.7c-.1-.3-.2-.6-.2-1s0-.8.1-1.3c.1-.4.2-.7.4-1.1s.3-.7.6-1 .5-.6.8-.8c.3-.2.6-.4 1-.5.1 0 .2 0 .2.1s.1.1.1.2 0 .2-.1.3-.1.1-.3.2c-.3.1-.6.2-.8.4s-.4.4-.6.7c-.2.2-.3.5-.4.8s-.2.6-.2.8c-.1.4-.1.7-.1 1s.1.6.1.8.2.4.3.6.3.3.5.3zm4.2-1.6c.1-.1.1-.2.2-.2s.2 0 .2 0c.1 0 .1.1.1.2s0 .2-.1.3c-.1.2-.2.4-.4.5-.1.2-.3.3-.5.4-.2.1-.3.2-.5.3s-.3.1-.5.1c-.3 0-.5-.1-.7-.2s-.4-.3-.5-.6-.2-.5-.3-.9 0-.7 0-1.1c.1-.4.2-.7.3-1.1s.4-.6.6-.9c.2-.3.5-.5.7-.6s.5-.2.8-.2c.4 0 .7.1.9.3s.4.5.5 1c0 .1 0 .1 0 .2s-.1.1-.2.2c-.1 0-.2.1-.3 0-.1 0-.1-.1-.2-.2-.1-.3-.2-.5-.3-.6s-.3-.2-.6-.2c-.2 0-.4.1-.5.2s-.3.3-.5.5c-.1.2-.3.4-.4.7-.1.3-.2.5-.2.8s-.1.5 0 .8c0 .2.1.4.2.6s.2.3.3.4.3.1.5.1.5-.1.7-.3.5-.2.7-.5zm3.6 1.1c-.3.2-.5.3-.7.4s-.4.1-.5.1c-.3 0-.5-.1-.7-.2s-.2-.3-.3-.6 0-.6 0-.9.1-.8.2-1.2c0-.1.1-.2.2-.2s.2-.1.3-.1.2 0 .2.1c.1 0 .1.1.1.2-.1.5-.2 1-.2 1.3 0 .3 0 .5 0 .7 0 .1.1.2.2.3s.1.1.2.1.2 0 .4-.1c.1 0 .2-.1.3-.2s.2-.2.2-.3.1-.2.1-.4l.4-1.4c0-.1.1-.2.1-.2.1 0 .2 0 .2 0s.1 0 .2.1.1.1 0 .2c0 0 0 .1 0 .2s-.1.3-.1.4-.1.4-.1.6-.1.4-.1.5c0 .2 0 .3 0 .4s0 .1.1.1c0 0 .1-.1.2-.1s.1-.1.2-.2c.1 0 .1 0 .2 0s.1.1.2.1c0 .1.1.1.1.2s0 .2-.1.2c-.1.1-.2.2-.4.3s-.3.1-.4.1c-.1 0-.2-.1-.3-.2-.3 0-.4-.1-.4-.3zm1.9.5c.2 0 .4-.1.5-.2s.4-.3.5-.6.3-.5.4-.8c.1-.3.2-.7.3-1 0-.3.1-.5.1-.8s0-.5-.1-.8c-.1-.2-.2-.5-.3-.7s-.4-.3-.7-.4c-.1 0-.2-.1-.2-.2s0-.2 0-.3c0-.1.1-.2.1-.2.1-.1.1-.1.2-.1.3.1.6.2.9.5.2.2.4.5.5.8s.2.6.2 1 0 .7 0 1.1c-.1.5-.2.9-.3 1.3-.1.4-.3.7-.6 1-.2.3-.5.5-.8.7s-.6.3-.9.4c-.1 0-.2 0-.2-.1s-.1-.1-.1-.2 0-.2.1-.3.3-.1.4-.1zm7.5-1.9c.1 0 .2.1.2.1 0 .1 0 .2 0 .2 0 .1-.1.2-.1.2-.1.1-.1.1-.2.1h-2.1c-.1 0-.2 0-.2-.1s0-.1 0-.2.1-.2.1-.2.1-.1.2-.1h2.1zm.2-1.1c.1 0 .2.1.2.1 0 .1 0 .2 0 .2 0 .1-.1.1-.1.2-.1.1-.1.1-.2.1h-2.1c-.1 0-.2 0-.2-.1s0-.1 0-.2.1-.2.1-.2c.1-.1.1-.1.2-.1h2.1zm5 1.8c.1-.3.1-.5.1-.7s0-.3-.1-.4c0-.1-.1-.2-.2-.2s-.1-.1-.2-.1c-.2 0-.4.1-.6.2s-.3.3-.4.5l-.3 1.5c0 .1-.1.2-.1.2-.1.1-.1.1-.2.1s-.1 0-.2-.1-.1-.1-.1-.3l.5-2.6c0-.1.1-.2.1-.2.1 0 .2-.1.2-.1s.2 0 .2.1c.1 0 .1.1.1.2v.2c.2-.1.3-.2.5-.3s.3-.1.4-.1c.4 0 .7.2.8.5s.1.9 0 1.6c0 .1 0 .2 0 .3s0 .1 0 .1.1 0 .1 0 .1 0 .1 0 .1 0 .2-.1.1-.1.2-.2c.1 0 .1 0 .2 0s.1.1.2.1c0 .1.1.1.1.2s0 .2-.1.2c-.1.1-.2.2-.4.3s-.2.1-.4.1c0 0-.1 0-.2 0s-.2-.1-.3-.1-.2-.2-.2-.4-.1-.2 0-.5zm3.5 1.2c.1 0 .2.1.2.1 0 .1 0 .2 0 .2s-.1.2-.1.2-.2.1-.2.1c-.3-.1-.6-.2-.8-.4s-.4-.4-.5-.7c-.1-.3-.2-.6-.2-1s0-.8.1-1.3c.1-.4.2-.7.4-1.1s.3-.7.6-1 .5-.6.8-.8c.3-.2.6-.4 1-.5.1 0 .2 0 .2.1s.1.1.1.2 0 .2-.1.3-.1.1-.3.2c-.3.1-.6.2-.8.4s-.4.4-.6.7c-.2.2-.3.5-.4.8s-.2.6-.2.8c-.1.4-.1.7-.1 1s.1.6.1.8.2.4.3.6.4.3.5.3zm4.3-1.6c.1-.1.1-.2.2-.2s.2 0 .2 0c.1 0 .1.1.1.2s0 .2-.1.3c-.1.2-.2.4-.4.5-.1.2-.3.3-.5.4-.2.1-.3.2-.5.3s-.3.1-.5.1c-.3 0-.5-.1-.7-.2s-.4-.3-.5-.6-.2-.5-.3-.9 0-.7 0-1.1c.1-.4.2-.7.3-1.1s.4-.6.6-.9c.2-.3.5-.5.7-.6s.5-.2.8-.2c.4 0 .7.1.9.3s.4.5.5 1c0 .1 0 .1 0 .2s-.1.1-.2.2c-.1 0-.2.1-.3 0-.1 0-.1-.1-.2-.2-.1-.3-.2-.5-.3-.6s-.3-.2-.6-.2c-.2 0-.4.1-.5.2s-.3.3-.5.5c-.1.2-.3.4-.4.7-.1.3-.2.5-.2.8s-.1.5 0 .8c0 .2.1.4.2.6s.2.3.3.4.3.1.5.1.5-.1.7-.3.5-.2.7-.5zm3.6 1.1c-.3.2-.5.3-.7.4s-.4.1-.5.1c-.3 0-.5-.1-.7-.2s-.2-.3-.3-.6 0-.6 0-.9.1-.8.2-1.2c0-.1.1-.2.2-.2s.2-.1.3-.1.2 0 .2.1c.1 0 .1.1.1.2-.1.5-.2 1-.2 1.3 0 .3 0 .5 0 .7 0 .1.1.2.2.3.1 0 .1.1.2.1s.2 0 .4-.1c.1 0 .2-.1.3-.2s.2-.2.2-.3.1-.2.1-.4l.4-1.4c0-.1.1-.2.1-.2.1 0 .2 0 .2 0s.1 0 .2.1.1.1 0 .2c0 0 0 .1 0 .2s-.1.3-.1.4-.1.4-.1.6-.1.4-.1.5c0 .2 0 .3 0 .4s0 .1.1.1c0 0 .1-.1.2-.1s.1-.1.2-.2c.1 0 .1 0 .2 0s.1.1.2.1c0 .1.1.1.1.2s0 .2-.1.2c-.1.1-.2.2-.4.3s-.3.1-.4.1c-.1 0-.2-.1-.3-.2-.3 0-.4-.1-.4-.3zm1.8-2.8c-.1 0-.1 0-.1-.1 0 0 0-.1 0-.1s0-.1 0-.1.1-.1.1-.1c.2-.2.4-.4.6-.6s.4-.4.6-.6.3-.4.4-.6c.1-.2.2-.4.2-.5 0-.1 0-.3-.1-.3-.1-.1-.2-.1-.3-.2-.1 0-.1 0-.2 0s-.2 0-.2.1c-.1 0-.1.1-.2.2s-.1.1-.2.2c0 .1-.1.1-.1.1-.1 0-.1 0-.1 0s-.1 0-.1-.1 0-.1 0-.2c.1-.1.2-.3.3-.4s.2-.2.4-.2c.1-.1.3-.1.4-.1.1 0 .2 0 .4 0 .1 0 .2.1.3.1.1.1.2.1.2.2.1.1.1.2.1.3 0 .1 0 .2 0 .4s-.1.4-.2.6c-.1.2-.2.4-.4.6-.1.2-.3.4-.5.5s-.3.3-.5.5h1.1c.1 0 .1 0 .1.1 0 0 0 .1 0 .1s0 .1-.1.1c0 0-.1.1-.1 0l-1.8.1zm3.2-1.2h-.5c-.1 0-.1 0-.1-.1s0-.1 0-.1c0-.1 0-.1.1-.1s.1-.1.1-.1h.5l.1-.5c0-.1.1-.1.1-.1.1 0 .1 0 .2 0s.1 0 .1.1 0 .1 0 .1l-.1.5h.5c.1 0 .1 0 .1.1 0 0 0 .1 0 .2s0 .1-.1.1-.1.1-.1 0h-.5l-.1.5c0 .1 0 .1-.1.1 0 0-.1 0-.2 0s-.1 0-.1 0-.1-.1 0-.1l.1-.6zm1.6 4.5c.2 0 .4-.1.5-.2s.4-.3.5-.6.3-.5.4-.8c.1-.3.2-.7.3-1 0-.3.1-.5.1-.8s0-.5-.1-.8c-.1-.2-.2-.5-.3-.7s-.4-.3-.7-.4c-.1 0-.2-.1-.2-.2s0-.2 0-.3c0-.1.1-.2.1-.2.1-.1.1-.1.2-.1.3.1.6.2.9.5.2.2.4.5.5.8s.2.6.2 1 0 .7 0 1.1c-.1.5-.2.9-.3 1.3-.1.4-.3.7-.6 1-.2.3-.5.5-.8.7s-.6.3-.9.4c-.1 0-.2 0-.2-.1s-.1-.1-.1-.2 0-.2.1-.3.3-.1.4-.1zM8.2 9.9c.1.3.2.5.3.7s.4.3.6.3c.2 0 .3-.1.4-.2.1-.2.2-.4.3-.6s.2-.5.3-.9.1-.6.2-1c.1-.3.1-.7.1-1s.1-.6.1-.8c0-.1.1-.2.1-.2.1 0 .2-.1.2 0s.2 0 .2.1c.1.1.1.1.1.2-.1.5-.2 1-.2 1.4-.1.4-.2.9-.2 1.2s-.2.7-.3 1-.2.6-.4.8c-.1.2-.3.4-.5.5s-.2.2-.5.2c-.4 0-.7-.1-.9-.4-.2-.2-.4-.6-.5-.9 0-.1 0-.2 0-.3.1-.1.1-.2.2-.2s.2-.1.2 0c.2-.1.2 0 .2.1zm5.9.7c.1-.1.1-.1.2-.1s.2 0 .2.1.1.1.1.2 0 .1-.1.2c-.2.2-.4.4-.6.5-.2.1-.4.2-.6.2-.2 0-.4 0-.6-.1-.2-.1-.4-.2-.5-.3s-.3-.3-.4-.5-.1-.4-.1-.7c0-.2 0-.4.1-.6.2-.3.3-.5.4-.6.1-.2.3-.3.5-.4s.4-.1.6-.1c.2 0 .4 0 .5.1s.3.2.3.3c.1.1.1.3.1.4s-.1.3-.2.5-.3.4-.5.6c-.2.2-.6.4-1 .5.1.1.2.1.3.2s.2.1.4.1.3 0 .4-.1.4-.3.5-.4zm-.9-1.7c-.2.1-.3.2-.4.3-.1.1-.2.2-.3.3s-.1.2-.1.4 0 .3 0 .4c.3-.1.6-.2.7-.3s.3-.2.4-.3.1-.2.1-.3 0-.1 0-.2-.1-.1-.2-.2c0-.1-.1-.1-.2-.1zm6.6 1.5c.1-.1.1-.1.2-.1s.2 0 .2.1.1.1.1.2 0 .2-.1.3c-.2.2-.4.4-.7.6-.3.1-.5.2-.8.2-.2 0-.4 0-.6-.1-.2-.1-.3-.2-.4-.3s-.2-.3-.2-.5 0-.4 0-.6c0-.2.1-.4.2-.6s.3-.6.5-.7.3-.3.5-.3.4-.1.6-.1c.4 0 .6.1.8.3s.3.3.4.6c0 .1 0 .1-.1.2s-.1.1-.2.1-.2 0-.2 0-.1 0-.1-.1c-.1-.2-.1-.3-.3-.3s-.3-.1-.4-.1c-.1 0-.2 0-.4.1s-.2.1-.3.2-.2.2-.2.3-.1.2-.1.4 0 .2 0 .4.1.2.1.3c.1.1.1.2.2.2s.2.1.3.1c.2 0 .3 0 .5-.1s.3-.5.5-.7zm4.1 1.1c-.2 0-.3 0-.4-.1s-.2-.1-.2-.3 0-.3 0-.5 0-.5.1-.9c0-.1 0-.2 0-.3 0-.1 0-.2-.1-.2s-.1-.1-.1-.1-.1 0-.1 0c-.1 0-.2 0-.4.1s-.2.1-.3.2c-.1.1-.2.2-.2.3s-.2.2-.3.3l-.2 1.2c0 .1-.1.2-.2.2s-.2.1-.3.1c-.1 0-.2 0-.2-.1-.1 0-.1-.1 0-.2l.9-4.9c0-.1.1-.2.1-.2.1 0 .2-.1.2-.1s.1 0 .2.1c.1 0 .1.1.1.2l-.4 2.4c.1-.1.3-.2.5-.2s.3-.1.5-.1c.4 0 .6.1.7.3s.2.5.2.8c0 .2 0 .3-.1.5s-.1.3-.1.5c0 .1 0 .2 0 .3 0 .1.1.1.2.1s.1-.1.2-.1.1-.1.2-.2c0 0 .1-.1.2-.1s.1 0 .2.1.1.1.1.2 0 .1-.1.2-.2.2-.4.3-.3.2-.5.2zm3.7-.9c.1-.1.1-.1.2-.1s.2 0 .2.1.1.1.1.2 0 .1-.1.2c-.2.2-.4.4-.6.5-.2.1-.4.2-.6.2-.2 0-.4 0-.6-.1-.2-.1-.4-.2-.5-.3s-.3-.3-.4-.5-.1-.4-.1-.7c0-.2 0-.4.1-.6.1-.2.2-.4.4-.5.1-.2.3-.3.5-.4s.4-.1.6-.1c.2 0 .4 0 .5.1s.3.2.3.3c.1.1.1.3.1.4s-.1.3-.2.5-.3.4-.5.6c-.2.2-.6.4-1 .5.1.1.2.1.3.2s.2.1.4.1.3 0 .4-.1.4-.4.5-.5zm-.9-1.7c-.2.1-.3.1-.4.2-.1.1-.2.2-.3.3s-.1.2-.1.4 0 .3 0 .4c.3-.1.6-.2.7-.3s.3-.2.4-.3.1-.2.1-.3 0-.1 0-.2-.1-.1-.1-.2c-.1 0-.2 0-.3 0zm4.4.5c-.1-.1-.2-.2-.3-.2s-.2-.1-.3-.1-.2 0-.4.1-.2.1-.3.2c-.1.1-.2.2-.2.3s-.1.2-.1.4l-.2 1.2c0 .1-.1.2-.1.2-.1.1-.2.1-.2.1-.1 0-.2 0-.2-.1s-.1-.1-.1-.3l.3-2.6c0-.1.1-.2.1-.2.1 0 .2-.1.2-.1s.2 0 .2.1c.1 0 .1.1.1.2v.1c.1-.1.3-.2.5-.2s.3-.1.5-.1.5.1.6.2.3.2.4.4c0 .1 0 .1 0 .2s-.1.1-.1.2-.1.1-.2.1c0 0-.1 0-.2-.1zm3.2 1c.1-.1.1-.1.2-.1s.2 0 .2.1.1.1.1.2 0 .2-.1.3c-.2.2-.4.4-.7.6-.3.1-.5.2-.8.2-.2 0-.4 0-.6-.1-.2-.1-.3-.2-.4-.3s-.2-.3-.2-.5 0-.4 0-.6c0-.2.1-.4.2-.6s.3-.4.4-.5.3-.3.5-.3.4-.1.6-.1c.4 0 .6.1.8.3s.5 0 .5.2c0 .1 0 .1-.1.2s-.1.1-.2.1-.2 0-.2 0-.1 0-.1-.1c-.1-.2-.1-.3-.3-.3s-.3-.1-.4-.1c-.1 0-.2 0-.4.1s-.2.2-.3.3-.2.2-.2.3-.1.2-.1.4 0 .2 0 .4.1.2.1.3c.1.1.1.2.2.2s.2.1.3.1c.2 0 .3 0 .5-.1s.3-.4.5-.6zm4.1 1.1c-.2 0-.3 0-.4-.1s-.2-.1-.2-.3 0-.3 0-.5 0-.5.1-.9c0-.1 0-.2 0-.3 0-.1 0-.2-.1-.2s-.1-.1-.1-.1-.1 0-.1 0c-.1 0-.2 0-.4.1s-.2.1-.3.2c-.1.1-.2.2-.2.3s-.1.2-.1.4l-.2 1.2c0 .1-.1.2-.2.2s-.2.1-.3.1c-.1 0-.2 0-.2-.1-.1 0-.1-.1 0-.2l.9-4.9c0-.1.1-.2.1-.2.1 0 .2-.1.2-.1s.1 0 .2.1c.1 0 .1.1.1.2l-.4 2.4c.1-.1.3-.2.5-.2s.3-.1.5-.1c.4 0 .6.1.7.3s.2.5.2.8c0 .2 0 .3-.1.5s-.1.3-.1.5c0 .1 0 .2 0 .3 0 .1.1.1.2.1s.1-.1.2-.1.1-.1.2-.2c0 0 .1-.1.2-.1s.1 0 .2.1.1.1.1.2 0 .1-.1.2-.2.2-.4.3-.5.1-.7.1zm3.7-.9c.1-.1.1-.1.2-.1s.2 0 .2.1.1.1.1.2 0 .1-.1.2c-.2.2-.4.4-.6.5-.2.1-.4.2-.6.2-.2 0-.4 0-.6-.1-.2-.1-.4-.2-.5-.3s-.3-.3-.4-.5-.1-.4-.1-.7c0-.2 0-.4.1-.6.1-.2.2-.4.4-.5.1-.2.3-.3.5-.4s.4-.1.6-.1c.2 0 .4 0 .5.1s.3.2.3.3c.1.1.1.3.1.4s-.1.3-.2.5-.3.4-.5.6c-.2.2-.6.4-1 .5.1.1.2.1.3.2s.2.1.4.1.3 0 .4-.1.4-.4.5-.5zm-.9-1.7c-.2.1-.3.2-.4.3-.1.1-.2.2-.3.3s-.1.2-.1.4 0 .3 0 .4c.3-.1.6-.2.7-.3s.3-.2.4-.3.1-.2.1-.3 0-.1 0-.2-.1-.1-.2-.2c0-.1-.1-.1-.2-.1zm8.4 1.5c.1-.3.1-.5.1-.7s0-.3-.1-.4c0-.1-.1-.2-.2-.2s0-.1-.1-.1c-.2 0-.4.1-.6.2s-.3.3-.4.5c0 .2 0 .5-.1.7 0 .3-.1.5-.1.8 0 .1-.1.2-.1.2-.1 0-.2.1-.2.1s-.2 0-.2-.1c-.1 0-.1-.1-.1-.2.1-.5.2-.9.2-1.2s0-.5 0-.7-.1-.3-.2-.3-.1-.1-.2-.1-.2 0-.4.1-.2.1-.3.2c-.1.1-.2.2-.2.3s-.1.2-.1.4l-.3 1.4c0 .1-.1.2-.1.2-.1.1-.2.1-.2.1-.1 0-.2 0-.2-.1s-.1-.1-.1-.3l.5-2.6c0-.1.1-.2.1-.2.1 0 .2-.1.2-.1s.2 0 .2.1c.1 0 .1.1.1.2v.1c.1-.1.3-.2.5-.2s.3-.1.5-.1.4 0 .6.1c.1.1.2.2.3.4.1-.1.2-.2.3-.3.1-.1.2-.1.3-.2s.2-.1.3-.1c.1 0 .2 0 .3 0 .4 0 .7.2.8.5s.1.9 0 1.6c0 .1 0 .2 0 .3s0 .1 0 .1.1 0 .1 0 .1 0 .1 0 .1 0 .2-.1.1-.1.2-.2c.1 0 .1 0 .2 0s.1.1.2.1c0 .1.1.1.1.2s0 .2-.1.2c-.1.1-.2.2-.4.3s-.2.1-.4.1c0 0-.1 0-.2 0s-.2-.1-.3-.1-.2-.2-.2-.4-.4-.2-.3-.5zm3.5 1.2c.1 0 .2.1.2.1 0 .1 0 .2 0 .2s-.1.2-.1.2-.2.2-.2.1c-.3-.1-.6-.2-.8-.4s-.4-.4-.5-.7c-.1-.3-.2-.6-.2-1s0-.8.1-1.3c.1-.4.2-.7.4-1.1s.3-.7.6-1 .5-.6.8-.8c.3-.2.6-.4 1-.5.1 0 .2 0 .2.1s.1.1.1.2 0 .2-.1.3-.1.1-.3.2c-.3.1-.6.2-.8.4s-.5.4-.6.7c-.2.2-.3.5-.4.8s-.2.6-.2.8c-.1.4-.1.7-.1 1s.1.6.1.8.2.4.3.6.3.3.5.3zm4.2-1.7c.1-.1.1-.2.2-.2s.2 0 .2 0c.1 0 .1.1.1.2s0 .2-.1.3c-.1.2-.2.4-.4.5-.1.2-.3.3-.5.4-.2.1-.3.2-.5.3s-.3.1-.5.1c-.3 0-.5-.1-.7-.2s-.4-.3-.5-.6-.2-.5-.3-.9 0-.7 0-1.1c.1-.4.2-.7.3-1.1s.4-.6.6-.9c.2-.3.5-.5.7-.6s.5-.2.8-.2c.4 0 .7.1.9.3s.4.5.5 1c0 .1 0 .1 0 .2s-.1.1-.2.2c-.1 0-.2.1-.3 0-.1 0-.1-.1-.2-.2-.1-.3-.2-.5-.3-.6s-.1 0-.3 0c-.2 0-.4.1-.5.2s-.3.3-.5.5c-.1.2-.3.4-.4.7-.1.3-.2.5-.2.8s-.1.5 0 .8c0 .2.1.4.2.6s.2.3.3.4.3.1.5.1.5-.1.7-.3.3-.4.4-.7zm3.6 1.1c-.3.2-.5.3-.7.4s-.4.1-.5.1c-.3 0-.5-.1-.7-.2s-.2-.3-.3-.6 0-.6 0-.9.1-.8.2-1.2c0-.1.1-.2.2-.2s.2-.1.3-.1.2 0 .2.1c.1 0 .1.1.1.2-.1.5-.2 1-.2 1.3 0 .3 0 .5 0 .7 0 .1.1.2.2.3s.1.1.2.1.2 0 .4-.1c.1 0 .2-.1.3-.2s.2-.2.2-.3.1-.2.1-.4l.4-1.4c0-.1.1-.2.1-.2.1 0 .2 0 .2 0s.1 0 .2.1.1.1 0 .2c0 0 0 .1 0 .2s-.1.3-.1.4-.1.4-.1.6-.1.4-.1.5c0 .2 0 .3 0 .4s0 .1.1.1c0 0 .1-.1.2-.1s.1-.1.2-.2c.1 0 .1 0 .2 0s.1.1.2.1c0 .1.1.1.1.2s0 .2-.1.2c-.1.1-.2.2-.4.3s-.3.1-.4.1c-.1 0-.2-.1-.3-.2-.3 0-.3-.1-.4-.3zm1.9.5c.2 0 .4-.1.5-.2s.4-.3.5-.6c.2-.2.3-.5.4-.8.1-.3.2-.7.3-1 0-.3.1-.5.1-.8s0-.5-.1-.8c-.1-.2-.2-.5-.3-.7s-.4-.3-.7-.4c-.1 0-.2-.1-.2-.2s0-.2 0-.3c0-.1.1-.2.1-.2.1-.1.1-.1.2-.1.3.1.6.2.9.5.2.2.4.5.5.8s.2.6.2 1 0 .7 0 1.1c-.1.5-.2.9-.3 1.3-.1.4-.3.7-.6 1-.2.3-.5.5-.8.7s-.6.3-.9.4c-.1 0-.2 0-.2-.1s-.1-.1-.1-.2 0-.2.1-.3.3-.1.4-.1zm5.1-.4c0-.1 0-.4 0-.7s.1-.6.1-1c.1-.4.1-.7.2-1.1.1-.4.1-.7.2-1s.1-.6.2-.8c0-.2.1-.3.1-.3 0-.1.1-.2.1-.2.1 0 .1-.1.2-.1s.1 0 .2.1.1.1.1.3c-.2.7-.3 1.4-.4 1.9-.1.5-.2.9-.2 1.3-.1.4-.1.6-.1.8 0 .2 0 .3 0 .4 0 .1 0 .1.1.1 0 0 .1 0 .1 0s.1 0 .2-.1.1-.1.2-.2c.1 0 .1 0 .2 0s.1.1.2.1c0 .1.1.1.1.2s0 .2-.1.2c-.1.1-.2.2-.4.3s-.3.1-.4.1c-.1 0-.2 0-.3-.1-.5.1-.6 0-.6-.2zm3.8.1c-.2.1-.4.2-.5.3-.2 0-.4.1-.5.1-.2 0-.3-.1-.5-.1s-.3-.2-.3-.3-.1-.3-.1-.4c0-.2 0-.4.1-.6.1-.3.3-.5.5-.7.2-.2.4-.4.6-.5.2-.1.5-.3.7-.3s.5-.1.8-.1c.1 0 .3 0 .3.1.1.1.1.2.1.4s0 .4-.1.6c0 .2-.1.4-.1.6 0 .1-.1.2-.1.3 0 .1-.1.2-.1.3s0 .2 0 .2.1 0 .3 0c.1-.1.2-.1.3-.3.1 0 .1 0 .2 0s.1.1.2.1c0 .1.1.1.1.2s0 .2-.1.2c-.1.1-.2.2-.4.3-.1.1-.3.1-.4.1-.1 0-.3 0-.4-.1-.4-.1-.5-.2-.6-.4zm-1.4-.9c0 .1 0 .2 0 .3 0 .1 0 .2.1.3s.1.1.2.2c.1 0 .2 0 .3 0 .2 0 .3-.1.5-.3.1-.2.3-.3.4-.5.1-.2.2-.4.2-.6.1-.2.1-.4.1-.6-.2 0-.5.1-.7.2-.2.1-.4.2-.5.3-.2.1-.3.3-.4.4-.1 0-.2.2-.2.3zm10 .1c.1-.3.1-.5.1-.7s0-.3-.1-.4c0-.1-.1-.2-.2-.2 0 0 0-.1-.1-.1-.2 0-.4.1-.6.2-.2.1-.3.3-.4.5 0 .2 0 .5-.1.7 0 .3-.1.5-.1.8 0 .1-.1.2-.1.2-.1 0-.2.1-.2.1s-.2 0-.2-.1c-.1 0-.1-.1-.1-.2.1-.5.2-.9.2-1.2s0-.5 0-.7-.1-.3-.2-.3-.2.1-.2.1c-.1 0-.2 0-.4.1-.1 0-.2.1-.3.2-.1.1-.2.2-.2.3s-.1.2-.1.4l-.2 1.2c0 .1-.1.2-.1.2-.1.1-.2.1-.2.1-.1 0-.2 0-.2-.1s-.3-.1-.3-.2l.5-2.6c0-.1.1-.2.1-.2.1 0 .2-.1.2-.1s.2 0 .2.1c.1 0 .1.1.1.2v.1c.1-.1.3-.2.5-.2s.3-.1.5-.1.4 0 .6.1c.1.1.2.2.3.4.1-.1.2-.2.3-.3.1-.1.2-.1.3-.2s.2-.1.3-.1c.1 0 .2 0 .3 0 .4 0 .7.2.8.5.2.3.1.9 0 1.6 0 .1 0 .2 0 .3 0 .1 0 .1 0 .1s.1 0 .1 0 .1 0 .1 0 .1 0 .2-.1.1-.1.2-.2c.1 0 .1 0 .2 0s.1.1.2.1c0 .1.1.1.1.2s0 .2-.1.2c-.1.1-.2.2-.4.3s-.2.1-.4.1c0 0-.1 0-.2 0s-.2-.1-.3-.1-.2-.2-.2-.4-.3-.3-.2-.6zm3.9.8c-.2.1-.4.2-.5.3-.2 0-.4.1-.5.1-.2 0-.3-.1-.5-.1s-.3-.2-.3-.3-.1-.3-.1-.4c0-.2 0-.4.1-.6.1-.3.3-.5.5-.7.2-.2.4-.4.6-.5.2-.1.5-.3.7-.3s.5-.1.8-.1c.1 0 .3 0 .3.1.1.1.1.2.1.4s0 .4-.1.6c0 .2-.1.4-.1.6 0 .1-.1.2-.1.3 0 .1-.1.2-.1.3s0 .2 0 .2.1 0 .3 0c.1-.1.2-.1.3-.3.1 0 .1 0 .2 0s.1.1.2.1c0 .1.1.1.1.2s0 .2-.1.2c-.1.1-.2.2-.4.3-.1.1-.3.1-.4.1-.1 0-.3 0-.4-.1-.4-.1-.5-.2-.6-.4zm-1.4-.9c0 .1 0 .2 0 .3 0 .1 0 .2.1.3s.1.1.2.1.2 0 .3 0c.2 0 .3-.1.5-.3.1-.2.3-.3.4-.5.1-.2.2-.4.2-.6.1-.2.1-.4.1-.6-.2 0-.5.1-.7.2-.2.1-.4.2-.5.3-.2.1-.3.3-.4.4-.1.1-.2.3-.2.4zM89.1 9c0 .1 0 .2 0 .2-.1.1-.1.2-.2.2s-.2 0-.2 0-.1-.1-.1-.1c-.1-.1-.1-.2-.2-.3s-.3-.1-.4-.1c-.1 0-.1 0-.2 0s-.2 0-.2.1-.1.1-.2.1c0 0-.1.1-.1.1 0 .1 0 .2 0 .2s.1.1.1.1c.1 0 .1.1.2.1s.2 0 .3.1c.1 0 .3.1.4.1.1 0 .3.1.4.2.1.1.2.2.2.3s0 .3 0 .5-.1.3-.2.4c-.1.1-.2.2-.4.3-.1.1-.3.1-.5.1s-.3 0-.5 0c-.1 0-.3 0-.4-.1-.1 0-.2-.1-.3-.2s-.2-.2-.2-.3-.1-.2-.1-.4c0-.1 0-.2.1-.3.1-.1.1-.1.2-.1s.2 0 .2 0c.1 0 .1.1.1.2s0 .2.1.3.1.1.2.2c.1 0 .1.1.2.1s.2 0 .2 0c.2 0 .3 0 .4-.1.1 0 .2-.1.2-.2 0-.2 0-.3-.1-.3s-.2-.1-.4-.1c-.1 0-.3-.1-.4-.1s-.3-.1-.4-.2c-.1-.1-.2-.2-.3-.3-.1-.1-.1-.3 0-.5 0-.2.1-.3.2-.4s.2-.2.3-.3.3-.1.4-.2.3 0 .5 0 .4.1.6.2.4.3.5.5zm3.1 0c0 .1 0 .2 0 .2-.1.1-.1.1-.2.1s-.2 0-.2 0-.1-.1-.1-.1c-.1-.1-.1-.2-.2-.3s-.2-.1-.3-.1c-.1 0-.1 0-.2 0s-.2 0-.2.1-.1.1-.2.1c0 0-.1.1-.1.1 0 .1 0 .2 0 .2s.1.1.1.1c.1 0 .1.1.2.1s.2 0 .3.1c.1 0 .3.1.4.1.1 0 .3.1.4.2.1.1.2.2.2.3s0 .3 0 .5-.1.3-.2.4c-.1.1-.2.2-.4.3-.1.1-.3.1-.5.1s-.3 0-.5 0c-.1 0-.3 0-.4-.1-.1 0-.2-.1-.3-.2s-.2-.2-.2-.3-.1-.2-.1-.4c0-.1 0-.2.1-.3.1-.1.1-.1.2-.1s.2 0 .2 0c.1 0 .1.1.1.2s0 .2.1.3.1.1.2.2c.1 0 .1.1.2.1s.2 0 .2 0c.2 0 .3 0 .4-.1.1 0 .2-.1.2-.2 0-.2 0-.3-.1-.3s-.2-.1-.4-.1c-.1 0-.3-.1-.4-.1s-.3-.1-.4-.2c-.1-.1-.2-.2-.3-.3-.1-.1-.1-.3 0-.5 0-.2.1-.3.2-.4s.2-.2.3-.3.3-.1.4-.2.3 0 .5 0 .4.1.6.2.3.4.4.6zm2.6 1.6c.1-.1.1-.1.2-.1s.2 0 .2.1.1.1.1.2 0 .1-.1.2c-.2.2-.4.4-.6.5-.2.1-.4.2-.6.2-.2 0-.4 0-.6-.1-.2-.1-.4-.2-.5-.3s-.3-.3-.4-.5c-.1-.2-.1-.4-.1-.7 0-.2 0-.4.1-.6.2-.3.3-.5.5-.6.1-.2.3-.3.5-.4s.4-.1.6-.1c.2 0 .4 0 .5.1s.3.2.3.3c.1.1.1.3.1.4s0 .3-.1.5-.3.4-.5.6c-.2.2-.6.4-1 .5.1.1.2.1.3.2.1 0 .2.1.4.1s.3 0 .4-.1c.1-.2.2-.3.3-.4zm-.9-1.7c-.2.1-.3.1-.4.2-.1.1-.2.2-.3.3s-.1.2-.1.4 0 .3 0 .4c.3-.1.6-.2.7-.3s.3-.2.4-.3.1-.2.1-.3 0-.1 0-.2-.1-.1-.2-.2c0 0-.1 0-.2 0zm6.6 2.2c-.2.2-.4.3-.6.4-.2.1-.4.1-.6.1s-.4-.1-.5-.1-.3-.2-.4-.3c-.1-.1-.2-.3-.2-.5s0-.4.1-.6c.1-.3.3-.5.5-.7s.4-.4.6-.5c.2-.2.5-.3.7-.3.3-.1.5-.1.7-.1 0-.2.1-.4.1-.6 0-.2.1-.4.1-.7 0-.2.1-.4.1-.5 0-.2 0-.2 0-.2 0-.1.1-.2.1-.2.1 0 .1-.1.2-.1s.1 0 .2.1.1.1.1.3c-.2.7-.3 1.4-.4 1.9-.1.5-.2.9-.2 1.3-.1.4-.1.6-.1.8s0 .3 0 .4 0 .1.1.1.1 0 .1 0c.1-.1.2-.1.3-.3.1 0 .1 0 .2 0s.1.1.2.1c0 .1.1.1.1.2s0 .2-.1.2c-.1.1-.2.2-.4.3s-.3.1-.4.1c-.1 0-.2 0-.3-.1-.1-.2-.2-.3-.3-.5zm-1.7-.9c-.1.2 0 .4.1.6s.3.2.5.2c.3 0 .5-.1.7-.3.2-.2.3-.4.4-.6l.2-1.2c-.2 0-.4 0-.6.1-.2.1-.4.2-.6.3-.2.1-.3.3-.4.4s-.3.4-.3.5zm6 .4c.1-.1.1-.1.2-.1s.2 0 .2.1.1.1.1.2 0 .1-.1.2c-.2.2-.4.4-.6.5-.2.1-.4.2-.6.2-.2 0-.4 0-.6-.1-.2-.1-.4-.2-.5-.3s-.3-.3-.4-.5c-.1-.2-.1-.4-.1-.7 0-.2 0-.4.1-.6.1-.2.2-.4.4-.5.1-.2.3-.3.5-.4s.4-.1.6-.1c.2 0 .4 0 .5.1s.3.2.3.3c.2-.1.2.1.2.2s-.1.3-.2.5-.3.4-.5.6c-.2.2-.6.4-1 .5.1.1.2.1.3.2.1 0 .2.1.4.1s.3 0 .4-.1c.1-.1.2-.2.4-.3zm-1-1.7c-.2.1-.3.1-.4.2-.1.1-.2.2-.3.3s-.1.2-.1.4 0 .3 0 .4c.3-.1.6-.2.7-.3s.3-.2.4-.3.1-.2.1-.3 0-.1 0-.2-.1-.1-.2-.2c0 0-.1 0-.2 0zm6.6 1.5c.1-.1.1-.1.2-.1s.2 0 .2.1c.1 0 .1.1.1.2s0 .2-.1.3c-.2.2-.4.4-.7.6-.3.1-.5.2-.8.2-.2 0-.4 0-.6-.1-.2-.1-.3-.2-.4-.3-.1-.1-.2-.3-.2-.5s0-.4 0-.6c0-.2.1-.4.2-.6.1-.2.3-.4.4-.5s.3-.3.5-.3c.2-.1.4-.1.6-.1.4 0 .6.1.8.3s.3.3.4.6c0 .1 0 .1-.1.2s-.1.1-.2.1-.2 0-.2 0-.1 0-.1-.1c-.1-.2-.1-.3-.3-.3s-.3-.1-.4-.1c-.1 0-.2 0-.4.1-.1 0-.2.1-.3.2-.1.1-.2.2-.2.3-.1.1-.1.2-.1.4s0 .2 0 .4.1.2.1.3c.1.1.1.2.2.2s.2.1.3.1c.2 0 .3 0 .5-.1s.5-.7.6-.9zm3.5.6c-.3.2-.5.3-.7.4s-.4.1-.5.1c-.3 0-.5-.1-.7-.2s-.2-.3-.3-.6 0-.6 0-.9c0-.4.1-.8.2-1.2 0-.1.1-.2.2-.2s.2-.1.3-.1c.1 0 .2 0 .2.1.1 0 .1.1.1.2-.1.5-.2 1-.2 1.3 0 .3 0 .5 0 .7 0 .1.1.2.2.3s.1.1.2.1.2 0 .4-.1c.1 0 .2-.1.3-.2.1-.1.2-.2.2-.3s.1-.2.1-.4l.4-1.4c0-.1.1-.2.1-.2.1 0 .2 0 .2 0 .1 0 .1 0 .2.1s.1.1 0 .2c0 0 0 .1 0 .2s-.1.3-.1.4-.1.4-.1.6-.1.4-.1.5c0 .2 0 .3 0 .4 0 .1 0 .1.1.1 0 0 .1-.1.2-.1s.1-.1.2-.2c.1 0 .1 0 .2 0s.1.1.2.1c0 .1.1.1.1.2s0 .2-.1.2c-.1.1-.2.2-.4.3s-.3.1-.4.1c-.1 0-.2-.1-.3-.2-.3 0-.4-.1-.4-.3zm2-2.4c0-.1.1-.2.2-.2s.2-.1.2 0c.1 0 .1 0 .2.1s.1.1 0 .2c-.1.2-.2.5-.3.8s-.1.5-.1.8 0 .4 0 .6.1.2.2.2.1-.1.2-.1.1-.1.2-.2c0 0 .1-.1.2 0s.1.1.2.1.1.1.1.2 0 .1-.1.2-.2.2-.4.3-.3.1-.5.1-.4-.1-.5-.2c-.1-.1-.2-.3-.2-.5s0-.4 0-.7.1-.5.1-.7.1-.4.1-.6c.2-.2.2-.3.2-.4zm.2-.9c0-.1.1-.2.2-.3.1-.1.2-.1.3-.1s.2 0 .3.1.1.2.1.3c0 .1-.1.2-.2.3-.1.1-.2.1-.3.1s-.2 0-.3-.1c-.1-.1-.1-.2-.1-.3zm2.8 3.7c-.1.1-.1.2-.2.2s-.2 0-.2 0-.1 0-.2-.1c-.1 0-.1-.1-.1-.2l-.6-2.6c0-.1 0-.1.1-.2s.1-.1.2-.1.2 0 .2 0 .1.1.1.2l.5 1.9 1-1.9c.1-.1.1-.2.2-.2s.2 0 .2 0c.1 0 .1.1.2.1s0 .1 0 .2l-1.4 2.7zm4.4-2c-.1-.1-.2-.2-.3-.2-.1-.1-.2-.1-.3-.1s-.2 0-.4.1c-.1 0-.2.1-.3.2-.1.1-.2.2-.2.3s-.1.2-.1.4l-.2 1.2c0 .1-.1.2-.1.2-.1.1-.2.1-.2.1-.1 0-.2 0-.2-.1s-.1-.1-.1-.3l.5-2.6c0-.1.1-.2.1-.2.1 0 .2-.1.2-.1s.2 0 .2.1c.1 0 .1.1.1.2v.1c.1-.1.3-.2.5-.2s.3-.1.5-.1.5.1.6.2c.2.1.3.2.4.4 0 .1 0 .1 0 .2s-.1.1-.1.2c-.1.1-.1.1-.2.1-.3 0-.4 0-.4-.1zm3.2 1.2c.1-.1.1-.1.2-.1s.2 0 .2.1.1.1.1.2 0 .1-.1.2c-.2.2-.4.4-.6.5-.2.1-.4.2-.6.2-.2 0-.4 0-.6-.1-.2-.1-.4-.2-.5-.3s-.3-.3-.4-.5c-.1-.2-.1-.4-.1-.7 0-.2 0-.4.1-.6.1-.2.2-.4.4-.5.1-.2.3-.3.5-.4s.4-.1.6-.1c.2 0 .4 0 .5.1s.3.2.3.3c.1.1.1.3.1.4s-.1.3-.2.5-.3.4-.5.6c-.2.2-.6.4-1 .5.1.1.2.1.3.2.1 0 .2.1.4.1s.3 0 .4-.1c.3-.3.4-.4.5-.5zm-.9-1.7c-.2.1-.3.1-.4.2-.1.1-.2.2-.3.3s-.1.2-.1.4 0 .3 0 .4c.3-.1.6-.2.7-.3s.3-.2.4-.3.1-.2.1-.3 0-.1 0-.2-.1-.1-.2-.2c0 0-.1 0-.2 0zm6.6 2.2c-.2.2-.4.3-.6.4-.2.1-.4.1-.6.1s-.4-.1-.5-.1-.3-.2-.4-.3c-.1-.1-.2-.3-.2-.5s0-.4.1-.6c.1-.3.3-.5.5-.7s.4-.4.6-.5c.2-.2.5-.3.7-.3.3-.1.5-.1.7-.1 0-.2.1-.4.1-.6 0-.2.1-.4.1-.7 0-.2.1-.4.1-.5 0-.2 0-.2 0-.2 0-.1.1-.2.1-.2.1 0 .1-.1.2-.1s.1 0 .2.1.1.1.1.3c-.2.7-.3 1.4-.4 1.9-.1.5-.2.9-.2 1.3-.1.4-.1.6-.1.8s0 .3 0 .4 0 .1.1.1.1 0 .1 0c.1-.1.2-.1.3-.3.1 0 .1 0 .2 0s.1.1.2.1c0 .1.1.1.1.2s0 .2-.1.2c-.1.1-.2.2-.4.3s-.3.1-.4.1c-.1 0-.2 0-.3-.1-.1-.2-.2-.3-.3-.5zm-1.7-.9c-.1.2 0 .4.1.6s.3.2.5.2c.3 0 .5-.1.7-.3.2-.2.3-.4.4-.6l.2-1.2c-.2 0-.4 0-.6.1-.2.1-.4.2-.6.3-.2.1-.3.3-.4.4s-.3.4-.3.5zm5.6 1c-.2.1-.4.2-.5.3-.2 0-.4.1-.5.1-.2 0-.3-.1-.5-.1s-.3-.2-.3-.3-.1-.3-.1-.4c0-.2 0-.4.1-.6.1-.3.3-.5.5-.7.2-.2.4-.4.6-.5.2-.1.5-.3.7-.3s.5-.1.8-.1c.1 0 .3 0 .3.1.1.1.1.2.1.4s0 .4-.1.6c0 .2-.1.4-.1.6 0 .1-.1.2-.1.3 0 .1-.1.2-.1.3s0 .2 0 .2.1 0 .3 0c.1-.1.2-.1.3-.3.1 0 .1 0 .2 0s.1.1.2.1c0 .1.1.1.1.2s0 .2-.1.2c-.1.1-.2.2-.4.3-.1.1-.3.1-.4.1-.1 0-.3 0-.4-.1-.4-.1-.6-.2-.6-.4zm-1.4-.9c0 .1 0 .2 0 .3 0 .1 0 .2.1.3s.1.1.2.2c.1 0 .2 0 .3 0 .2 0 .3-.1.5-.3.1-.2.3-.3.4-.5.1-.2.2-.4.2-.6.1-.2.1-.4.1-.6-.2 0-.5.1-.7.2-.2.1-.4.2-.5.3-.2.1-.3.3-.4.4-.1 0-.2.2-.2.3zm5.7 0c.1-.3.1-.5.1-.7s0-.3-.1-.4c0-.1-.1-.2-.2-.2s0 0-.1 0c-.2 0-.4.1-.6.2-.2.1-.3.3-.4.5l-.3 1.5c0 .1-.1.2-.1.2-.1.1-.1.1-.2.1s-.1 0-.2-.1-.1-.1-.1-.3l.5-2.6c0-.1.1-.2.1-.2.1 0 .2-.1.2-.1s.2 0 .2.1c.1 0 .1.1.1.2v.2c.2-.1.3-.2.5-.3s.3-.1.4-.1c.4 0 .7.2.8.5.1.3.1.9 0 1.6 0 .1 0 .2 0 .3 0 .1 0 .1 0 .1s.1 0 .1 0 .1 0 .1 0 .1 0 .2-.1.1-.1.2-.2c.1 0 .1 0 .2 0s.1.1.2.1c0 .1.1.1.1.2s0 .2-.1.2c-.1.1-.2.2-.4.3s-.2.1-.4.1c0 0-.1 0-.2 0s-.2-.1-.3-.1-.2-.2-.2-.4-.2-.3-.1-.6zm4.7-1.3c0 .1 0 .2 0 .2-.1.1-.1.1-.2.1s-.2 0-.2 0-.1-.1-.1-.1c-.1-.1-.1-.2-.2-.3s-.2-.1-.3-.1c-.1 0-.1 0-.2 0s-.2 0-.2.1-.1.1-.2.1c0 0-.1.1-.1.1 0 .1 0 .2 0 .2s.1.1.1.1c.1 0 .1.1.2.1s.2 0 .3.1c.1 0 .3.1.4.1.1 0 .3.1.4.2.1.1.2.2.2.3s0 .3 0 .5-.1.3-.2.4c-.1.1-.2.2-.4.3-.1.1-.3.1-.5.1s-.3 0-.5 0c-.1 0-.3 0-.4-.1-.1 0-.2-.1-.3-.2s-.2-.2-.2-.3-.1-.2-.1-.4c0-.1 0-.2.1-.3.1-.1.1-.1.2-.1s.2 0 .2 0c.1 0 .1.1.1.2s0 .2.1.3.1.1.2.2c.1 0 .1.1.2.1s.2 0 .2 0c.2 0 .3 0 .4-.1.1 0 .2-.1.2-.2 0-.2 0-.3-.1-.3s-.2-.1-.4-.1c-.1 0-.3-.1-.4-.1s-.3-.1-.4-.2c-.1-.1-.2-.2-.3-.3-.1-.1-.1-.3 0-.5 0-.2.1-.3.2-.4s.2-.2.3-.3.3-.1.4-.2.3 0 .5 0 .4.1.6.2.3.4.4.6zm4.8 2c-.3.2-.5.3-.7.4s-.4.1-.5.1c-.3 0-.5-.1-.7-.2s-.2-.3-.3-.6 0-.6 0-.9c0-.4.1-.8.2-1.2 0-.1.1-.2.2-.2s.2-.1.3-.1c.1 0 .2 0 .2.1.1 0 .1.1.1.2-.1.5-.2 1-.2 1.3 0 .3 0 .5 0 .7 0 .1.1.2.2.3s.1.1.2.1.2 0 .4-.1c.1 0 .2-.1.3-.2.1-.1.2-.2.2-.3s.1-.2.1-.4l.4-1.4c0-.1.1-.2.1-.2.1 0 .2 0 .2 0 .1 0 .1 0 .2.1s.1.1 0 .2c0 0 0 .1 0 .2s-.1.3-.1.4-.1.4-.1.6-.1.4-.1.5c0 .2 0 .3 0 .4 0 .1 0 .1.1.1 0 0 .1-.1.2-.1s.1-.1.2-.2c.1 0 .1 0 .2 0s.1.1.2.1c0 .1.1.1.1.2s0 .2-.1.2c-.1.1-.2.2-.4.3s-.3.1-.4.1c-.1 0-.2-.1-.3-.2-.3 0-.4-.1-.4-.3zm3.9-.7c.1-.3.1-.5.1-.7s0-.3-.1-.4c0-.1-.1-.2-.2-.2s0 0-.1 0c-.2 0-.4.1-.6.2-.2.1-.3.3-.4.5l-.3 1.5c0 .1-.1.2-.1.2-.1.1-.1.1-.2.1s-.1 0-.2-.1-.1-.1-.1-.3l.5-2.6c0-.1.1-.2.1-.2.1 0 .2-.1.2-.1s.2 0 .2.1c.1 0 .1.1.1.2v.2c.2-.1.3-.2.5-.3s.3-.1.4-.1c.4 0 .7.2.8.5.1.3.1.9 0 1.6 0 .1 0 .2 0 .3 0 .1 0 .1 0 .1s.1 0 .1 0 .1 0 .1 0 .1 0 .2-.1.1-.1.2-.2c.1 0 .1 0 .2 0s.1.1.2.1c0 .1.1.1.1.2s0 .2-.1.2c-.1.1-.2.2-.4.3s-.2.1-.4.1c0 0-.1 0-.2 0s-.2-.1-.3-.1-.2-.2-.2-.4-.2-.3-.1-.6zm4.3.3c.1-.1.1-.1.2-.1s.2 0 .2.1.1.1.1.2 0 .1-.1.2c-.2.2-.4.4-.6.5-.2.1-.4.2-.6.2-.2 0-.4 0-.6-.1-.2-.1-.4-.2-.5-.3s-.3-.3-.4-.5c-.1-.2-.1-.4-.1-.7 0-.2 0-.4.1-.6.1-.2.2-.4.4-.5.1-.2.3-.3.5-.4s.4-.1.6-.1c.2 0 .4 0 .5.1s.3.2.3.3c.1.1.1.3.1.4s-.1.3-.2.5-.3.4-.5.6c-.2.2-.6.4-1 .5.1.1.2.1.3.2.1 0 .2.1.4.1s.3 0 .4-.1c.3-.3.4-.4.5-.5zm-.9-1.7c-.2.1-.3.1-.4.2-.1.1-.2.2-.3.3s-.1.2-.1.4 0 .3 0 .4c.3-.1.6-.2.7-.3s.3-.2.4-.3.1-.2.1-.3 0-.1 0-.2-.1-.1-.2-.2c0 0-.1 0-.2 0zm5.4-.2c.1-.1.3-.2.5-.2s.3-.1.5-.1.4 0 .6.1c.2.1.3.2.4.3.1.1.2.3.2.5s0 .4 0 .6-.1.4-.2.6c-.1.2-.3.4-.4.5-.2.1-.4.3-.6.3-.2.1-.4.1-.6.1-.3 0-.6-.1-.8-.3 0 0 0 .1 0 .2s0 .2-.1.4c0 .2-.1.3-.1.5s-.1.4-.1.5-.1.3-.1.6c0 .1-.1.2-.2.2s-.2.1-.3 0c-.1 0-.2 0-.2-.1-.1-.1-.1-.1 0-.2l.9-4.7c0-.1.1-.2.1-.2.1 0 .2-.1.2-.1.1 0 .1 0 .2.1.1 0 .1.1.1.2v.2zm1.5 1.3c0-.1 0-.2 0-.4 0-.1-.1-.2-.1-.3-.1-.1-.1-.2-.2-.2s-.2-.1-.3-.1-.2 0-.4.1c-.1 0-.2.1-.3.2-.1.1-.2.2-.2.3s-.1.2-.1.4 0 .2 0 .4.1.2.1.3.1.1.2.2.2.1.3.1.2 0 .4-.1c.1 0 .2-.1.3-.2.1-.1.2-.2.2-.3s.1-.3.1-.4zm1.4-1.4c0-.1.1-.2.2-.2s.2-.1.2 0c.1 0 .1 0 .2.1s.1.1 0 .2c-.1.2-.2.5-.3.8s-.1.5-.1.8 0 .4 0 .6.1.2.2.2.1-.1.2-.1.1-.1.2-.2c0 0 .1-.1.2 0s.1.1.2.1.1.1.1.2 0 .1-.1.2-.2.2-.4.3-.3.1-.5.1-.4-.1-.5-.2c-.1-.1-.2-.3-.2-.5s0-.4 0-.7.1-.5.1-.7.1-.4.1-.6c.2-.2.2-.3.2-.4zm.2-.9c0-.1.1-.2.2-.3.1-.1.2-.1.3-.1s.2 0 .3.1.1.2.1.3c0 .1-.1.2-.2.3-.1.1-.2.1-.3.1s-.2 0-.3-.1c-.1-.1-.1-.2-.1-.3zm3.8 2.9c.1-.1.1-.1.2-.1s.2 0 .2.1.1.1.1.2 0 .1-.1.2c-.2.2-.4.4-.6.5-.2.1-.4.2-.6.2-.2 0-.4 0-.6-.1-.2-.1-.4-.2-.5-.3s-.3-.3-.4-.5c-.1-.2-.1-.4-.1-.7 0-.2 0-.4.1-.6.1-.2.2-.4.4-.5.1-.2.3-.3.5-.4s.4-.1.6-.1c.2 0 .4 0 .5.1s.3.2.3.3c.1.1.1.3.1.4s-.1.3-.2.5-.3.4-.5.6c-.2.2-.6.4-1 .5.1.1.2.1.3.2.1 0 .2.1.4.1s.3 0 .4-.1c.3-.3.4-.4.5-.5zm-.9-1.7c-.2.1-.3.1-.4.2-.1.1-.2.2-.3.3s-.1.2-.1.4 0 .3 0 .4c.3-.1.6-.2.7-.3s.3-.2.4-.3.1-.2.1-.3 0-.1 0-.2-.1-.1-.2-.2c0 0-.1 0-.2 0zm.8-1.3c0 .1.1.1 0 .2 0 .1-.1.1-.1.2-.1.1-.1.1-.2.1s-.2 0-.2-.1l-.6-.6c-.1-.1-.1-.1-.1-.2s0-.2.1-.2c.1-.1.1-.1.2-.1s.2 0 .2.1l.7.6zm3.5 2.8c.1-.1.1-.1.2-.1s.2 0 .2.1c.1 0 .1.1.1.2s0 .2-.1.3c-.2.2-.4.4-.7.6-.3.1-.5.2-.8.2-.2 0-.4 0-.6-.1-.2-.1-.3-.2-.4-.3-.1-.1-.2-.3-.2-.5s0-.4 0-.6c0-.2.1-.4.2-.6.1-.2.3-.4.4-.5s.3-.3.5-.3c.2-.1.4-.1.6-.1.4 0 .6.1.8.3s.3.3.4.6c0 .1 0 .1-.1.2s-.1.1-.2.1-.2 0-.2 0-.1 0-.1-.1c-.1-.2-.1-.3-.3-.3s-.3-.1-.4-.1c-.1 0-.2 0-.4.1-.1 0-.2.1-.3.2-.1.1-.2.2-.2.3-.1.1-.1.2-.1.4s0 .2 0 .4.1.2.1.3c.1.1.1.2.2.2s.2.1.3.1c.2 0 .3 0 .5-.1s.5-.7.6-.9zm3.6.2c.1-.1.1-.1.2-.1s.2 0 .2.1.1.1.1.2 0 .1-.1.2c-.2.2-.4.4-.6.5-.2.1-.4.2-.6.2-.2 0-.4 0-.6-.1-.2-.1-.4-.2-.5-.3s-.3-.3-.4-.5c-.1-.2-.1-.4-.1-.7 0-.2 0-.4.1-.6.1-.2.2-.4.4-.5.1-.2.3-.3.5-.4s.4-.1.6-.1c.2 0 .4 0 .5.1s.3.2.3.3c.1.1.1.3.1.4s-.1.3-.2.5-.3.4-.5.6c-.2.2-.6.4-1 .5.1.1.2.1.3.2.1 0 .2.1.4.1s.3 0 .4-.1c.3-.3.4-.4.5-.5zm-.9-1.7c-.2.1-.3.1-.4.2-.1.1-.2.2-.3.3s-.1.2-.1.4 0 .3 0 .4c.3-.1.6-.2.7-.3s.3-.2.4-.3.1-.2.1-.3 0-.1 0-.2-.1-.1-.2-.2c0 0-.1 0-.2 0zm6.6 2.2c-.2.2-.4.3-.6.4-.2.1-.4.1-.6.1s-.4-.1-.5-.1-.3-.2-.4-.3c-.1-.1-.2-.3-.2-.5s0-.4.1-.6c.1-.3.3-.5.5-.7s.4-.4.6-.5c.2-.2.5-.3.7-.3.3-.1.5-.1.7-.1 0-.2.1-.4.1-.6 0-.2.1-.4.1-.7 0-.2.1-.4.1-.5 0-.2 0-.2 0-.2 0-.1.1-.2.1-.2.1 0 .1-.1.2-.1s.1 0 .2.1.1.1.1.3c-.2.7-.3 1.4-.4 1.9-.1.5-.2.9-.2 1.3-.1.4-.1.6-.1.8s0 .3 0 .4 0 .1.1.1.1 0 .1 0c.1-.1.2-.1.3-.3.1 0 .1 0 .2 0s.1.1.2.1c0 .1.1.1.1.2s0 .2-.1.2c-.1.1-.2.2-.4.3s-.3.1-.4.1c-.1 0-.2 0-.3-.1-.1-.2-.2-.3-.3-.5zm-1.7-.9c-.1.2 0 .4.1.6s.3.2.5.2c.3 0 .5-.1.7-.3.2-.2.3-.4.4-.6l.2-1.2c-.2 0-.4 0-.6.1-.2.1-.4.2-.6.3-.2.1-.3.3-.4.4s-.3.4-.3.5zm6 .4c.1-.1.1-.1.2-.1s.2 0 .2.1.1.1.1.2 0 .1-.1.2c-.2.2-.4.4-.6.5-.2.1-.4.2-.6.2-.2 0-.4 0-.6-.1-.2-.1-.4-.2-.5-.3s-.3-.3-.4-.5c-.1-.2-.1-.4-.1-.7 0-.2 0-.4.1-.6.1-.2.2-.4.4-.5.1-.2.3-.3.5-.4s.4-.1.6-.1c.2 0 .4 0 .5.1s.3.2.3.3c.1.1.1.3.1.4s-.1.3-.2.5-.3.4-.5.6c-.2.2-.6.4-1 .5.1.1.2.1.3.2.1 0 .2.1.4.1s.3 0 .4-.1c.2-.3.4-.4.5-.5zm-.9-1.7c-.2.1-.3.1-.4.2-.1.1-.2.2-.3.3s-.1.2-.1.4 0 .3 0 .4c.3-.1.6-.2.7-.3s.3-.2.4-.3.1-.2.1-.3 0-.1 0-.2-.1-.1-.2-.2c-.1 0-.2 0-.2 0zm5-2.5c0-.1.1-.2.2-.2s.2-.1.2-.1.2 0 .2.1c.1.1.1.1.1.2l-.8 4.8c0 .1-.1.2-.1.2-.1 0-.2.1-.2.1-.1 0-.1 0-.2-.1-.1 0-.1-.1-.1-.2l.7-4.8zm1.2 2.5c.1-.4.2-.7.3-1.1s.4-.6.6-.9c.2-.3.5-.5.7-.6s.5-.2.8-.2.5.1.7.2.4.3.5.6c.1.3.2.6.3.9s0 .7 0 1.1c-.1.4-.2.7-.3 1.1-.2.3-.3.6-.6.9-.2.2-.5.4-.7.6s-.5.2-.8.2-.5-.1-.7-.2-.4-.3-.5-.6c-.1-.2-.2-.5-.3-.9-.1-.4-.1-.8 0-1.1zm.6 0c0 .3-.1.5 0 .8 0 .2.1.4.2.6.1.2.2.3.3.4.1.1.3.2.5.2s.3-.1.5-.2.3-.2.5-.4c.1-.2.3-.4.4-.6.1-.2.2-.5.2-.8s.1-.5 0-.8c0-.3-.1-.5-.2-.7-.1-.2-.2-.4-.3-.5-.1-.1-.3-.2-.5-.2s-.4.1-.5.2c-.2.1-.3.3-.5.5s-.3.4-.4.7c-.1.3-.2.5-.2.8zm8.3 1.5c.1-.1.1-.1.2-.1s.2 0 .2.1c.1 0 .1.1.1.2s0 .2-.1.3c-.2.2-.4.4-.7.6-.3.1-.5.2-.8.2-.2 0-.4 0-.6-.1-.2-.1-.3-.2-.4-.3-.1-.1-.2-.3-.2-.5s0-.4 0-.6c0-.2.1-.4.2-.6.1-.2.3-.4.4-.5s.3-.3.5-.3c.2-.1.4-.1.6-.1.4 0 .6.1.8.3s.3.3.4.6c0 .1 0 .1-.1.2s-.1.1-.2.1-.2 0-.2 0-.1 0-.1-.1c-.1-.2-.1-.3-.3-.3s-.3-.1-.4-.1c-.1 0-.2 0-.4.1-.1 0-.2.1-.3.2-.1.1-.2.2-.2.3-.1.1-.1.2-.1.4s0 .2 0 .4.1.2.1.3c.1.1.1.2.2.2s.2.1.3.1c.2 0 .3 0 .5-.1s.4-.7.6-.9zm3.6.2c.1-.1.1-.1.2-.1s.2 0 .2.1.1.1.1.2 0 .1-.1.2c-.2.2-.4.4-.6.5-.2.1-.4.2-.6.2-.2 0-.4 0-.6-.1-.2-.1-.4-.2-.5-.3s-.3-.3-.4-.5c-.1-.2-.1-.4-.1-.7 0-.2 0-.4.1-.6.1-.2.2-.4.4-.5.1-.2.3-.3.5-.4s.4-.1.6-.1c.2 0 .4 0 .5.1s.3.2.3.3c.1.1.1.3.1.4s-.1.3-.2.5-.3.4-.5.6c-.2.2-.6.4-1 .5.1.1.2.1.3.2.1 0 .2.1.4.1s.3 0 .4-.1c.3-.3.4-.4.5-.5zm-.9-1.7c-.2.1-.3.1-.4.2-.1.1-.2.2-.3.3s-.1.2-.1.4 0 .3 0 .4c.3-.1.6-.2.7-.3s.3-.2.4-.3.1-.2.1-.3 0-.1 0-.2-.1-.1-.2-.2c0 0-.1 0-.2 0zm4.1 1.4c.1-.3.1-.5.1-.7s0-.3-.1-.4c0-.1-.1-.2-.2-.2s0 0-.1 0c-.2 0-.4.1-.6.2-.2.1-.3.3-.4.5l-.3 1.5c0 .1-.1.2-.1.2-.1.1-.1.1-.2.1s-.1 0-.2-.1-.1-.1-.1-.3l.5-2.6c0-.1.1-.2.1-.2.1 0 .2-.1.2-.1s.2 0 .2.1c.1 0 .1.1.1.2v.2c.2-.1.3-.2.5-.3s.3-.1.4-.1c.4 0 .7.2.8.5.1.3.1.9 0 1.6 0 .1 0 .2 0 .3 0 .1 0 .1 0 .1s.1 0 .1 0 .1 0 .1 0 .1 0 .2-.1.1-.1.2-.2c.1 0 .1 0 .2 0s.1.1.2.1c0 .1.1.1.1.2s0 .2-.1.2c-.1.1-.2.2-.4.3s-.2.1-.4.1c0 0-.1 0-.2 0s-.2-.1-.3-.1-.2-.2-.2-.4-.2-.3-.1-.6zm2 .9c0-.1 0-.2 0-.3 0-.1 0-.2 0-.4s.1-.4.1-.6c0-.3.1-.6.2-1.1h-.6c-.1 0-.2 0-.2-.1s0-.1 0-.2 0-.2.1-.2c.1-.1.1-.1.2-.1h.7c0-.2.1-.5.1-.7 0-.2.1-.4.1-.6 0-.2.1-.3.1-.5 0-.1.1-.2.1-.2.1 0 .1-.1.2-.1s.1 0 .2.1.1.1.1.3c-.1.3-.1.7-.2 1-.1.3-.1.6-.2.8h.8c.1 0 .2.1.2.1s0 .2 0 .2c0 .1-.1.1-.1.2-.1.1-.2.1-.3.1h-.8c0 .1-.1.3-.1.4s0 .2-.1.3c-.1.4-.1.6-.1.8s0 .3 0 .4c0 .1 0 .1 0 .1s0 0 .1 0c0 0 .1 0 .2-.1s.2-.1.2-.2c.1 0 .1 0 .2 0s.1.1.2.1c0 .1.1.1.1.2s0 .2-.1.2c-.1.1-.3.2-.4.3-.2.1-.3.1-.4.1-.1 0-.2 0-.3-.1-.2.1-.2-.1-.3-.2zm2.8-2.6c0-.1.1-.2.2-.2s.2-.1.2 0c.1 0 .1 0 .2.1s.1.1 0 .2c-.1.2-.2.5-.3.8s-.1.5-.1.8 0 .4 0 .6.1.2.2.2.1-.1.2-.1.1-.1.2-.2c0 0 .1-.1.2 0s.1.1.2.1.1.1.1.2 0 .1-.1.2-.2.2-.4.3-.3.1-.5.1-.4-.1-.5-.2c-.1-.1-.2-.3-.2-.5s0-.4 0-.7.1-.5.1-.7.1-.4.1-.6c.1-.2.1-.3.2-.4zm.2-.9c0-.1.1-.2.2-.3.1-.1.2-.1.3-.1s.2 0 .3.1.1.2.1.3c0 .1-.1.2-.2.3-.1.1-.2.1-.3.1s-.2 0-.3-.1c-.1-.1-.2-.2-.1-.3zm5.6 2.7c.1-.3.1-.5.1-.7s0-.3-.1-.4c0-.1-.1-.2-.2-.2s-.1-.1-.2-.1c-.2 0-.4.1-.6.2-.2.1-.3.3-.4.5 0 .2 0 .5-.1.7 0 .3-.1.5-.1.8 0 .1-.1.2-.1.2-.1 0-.2.1-.2.1s-.2 0-.2-.1c-.1 0-.1-.1-.1-.2.1-.5.2-.9.2-1.2s0-.5 0-.7-.1-.3-.2-.3-.1-.1-.2-.1-.2 0-.4.1c-.1 0-.2.1-.3.2-.1.1-.2.2-.2.3s-.1.2-.1.4l-.2 1.2c0 .1-.1.2-.1.2-.1.1-.2.1-.2.1-.1 0-.2 0-.2-.1s-.1-.1-.1-.3l.5-2.6c0-.1.1-.2.1-.2.1 0 .2-.1.2-.1s.2 0 .2.1c.1 0 .1.1.1.2v.1c.1-.1.3-.2.5-.2s.3-.1.5-.1.4 0 .6.1c.1.1.2.2.3.4.1-.1.2-.2.3-.3.1-.1.2-.1.3-.2s.2-.1.3-.1c.1 0 .2 0 .3 0 .4 0 .7.2.8.5.2.3.1.9 0 1.6 0 .1 0 .2 0 .3 0 .1 0 .1 0 .1s.1 0 .1 0 .1 0 .1 0 .1 0 .2-.1.1-.1.2-.2c.1 0 .1 0 .2 0s.1.1.2.1c0 .1.1.1.1.2s0 .2-.1.2c-.1.1-.2.2-.4.3s-.2.1-.4.1c0 0-.1 0-.2 0s-.2-.1-.3-.1-.2-.2-.2-.4-.4 0-.3-.3zm4.1.2c.1-.1.1-.1.2-.1s.2 0 .2.1.1.1.1.2 0 .1-.1.2c-.2.2-.3.4-.6.5-.2.1-.4.2-.6.2-.2 0-.4 0-.6-.1-.2-.1-.4-.2-.6-.3-.2-.1-.3-.3-.4-.5-.1-.2-.1-.4-.1-.7 0-.2 0-.4.1-.6.1-.2.2-.4.4-.5.1-.2.3-.3.5-.4.2-.1.4-.1.6-.1.2 0 .4 0 .5.1s.3.2.3.3c.1.1.1.3.1.4s-.1.3-.2.5-.3.4-.5.6c-.2.2-.6.4-1 .5.1.1.2.1.3.2.1 0 .2.1.4.1s.3 0 .4-.1c.4-.3.5-.4.6-.5zm-.9-1.7c-.2.1-.3.1-.4.2-.1.1-.2.2-.3.3s-.1.2-.1.4 0 .3 0 .4c.3-.1.6-.2.7-.3s.3-.2.4-.3c.1-.1.1-.2.1-.3s0-.1 0-.2-.1-.1-.2-.2c0 0-.1 0-.2 0zm4.8.1c0 .1 0 .2 0 .2-.1.1-.1.1-.2.1s-.2 0-.2 0c-.1 0-.1-.1-.1-.1-.1-.1-.1-.2-.2-.3-.1-.1-.2-.1-.3-.1-.1 0-.1 0-.2 0s-.2 0-.2.1c-.1 0-.1.1-.2.1s-.1.1-.1.1c0 .1 0 .2 0 .2 0 .1.1.1.1.1.1 0 .1.1.2.1s.2 0 .3.1c.1 0 .3.1.4.1.1 0 .3.1.4.2.1.1.2.2.2.3s0 .3 0 .5-.1.3-.2.4c-.1.1-.2.2-.4.3-.1.1-.3.1-.5.1s-.3 0-.5 0c-.1 0-.3 0-.4-.1-.1 0-.2-.1-.3-.2s-.2-.2-.2-.3-.1-.2-.1-.4c0-.1 0-.2.1-.3.1-.1.1-.1.2-.1s.2 0 .2 0c.1 0 .1.1.1.2s0 .2.1.3c0 .1.1.1.2.2.1 0 .1.1.2.1s.2 0 .2 0c.2 0 .3 0 .4-.1.1 0 .2-.1.2-.2 0-.2 0-.3-.1-.3-.1-.1-.2-.1-.4-.1-.1 0-.3-.1-.4-.1s-.3-.1-.4-.2c-.1-.1-.2-.2-.3-.3-.1-.1-.1-.3 0-.5 0-.2.1-.3.2-.4s.2-.2.3-.3.3-.1.4-.2c.2 0 .3 0 .5 0s.4.1.6.2c.1.3.3.4.4.6zm.2 2.1c0-.1.1-.2.2-.3.1-.1.2-.1.3-.1s.2 0 .3.1.1.2.1.3c0 .1-.1.2-.2.3-.1.1-.2.1-.3.1s-.2 0-.3-.1c-.1-.1-.2-.2-.1-.3zM14.6 32.4c.1-.3.1-.5.1-.7s0-.3-.1-.4c0-.1-.1-.2-.2-.2s-.1-.1-.2-.1c-.2 0-.4.1-.6.2s-.3.3-.4.5c0 .2 0 .5-.1.7 0 .3-.1.5-.1.8 0 .1-.1.2-.1.2-.1 0-.2.1-.2.1s-.2 0-.2-.1c-.1 0-.1-.1-.1-.2.1-.5.2-.9.2-1.2s0-.5 0-.7-.1-.3-.2-.3-.1-.1-.2-.1-.2 0-.4.1-.2.1-.3.2c-.1.1-.2.2-.2.3s-.1.2-.1.4l-.2 1.4c0 .1-.1.2-.1.2-.1.1-.2.1-.2.1-.1 0-.2 0-.2-.1s-.1-.1-.1-.3l.5-2.6c0-.1.1-.2.1-.2.1 0 .2-.1.2-.1s.2 0 .2.1c.1 0 .1.1.1.2v.1c.1-.1.3-.2.5-.2s.3-.1.5-.1.4 0 .6.1c.1.1.2.2.3.4.1-.1.2-.2.3-.3.1-.1.2-.1.3-.2s.2-.1.3-.1c.1 0 .2 0 .3 0 .4 0 .7.2.8.5s.1.9 0 1.6c0 .1 0 .2 0 .3s0 .1 0 .1.1 0 .1 0 .1 0 .1 0 .1 0 .2-.1.1-.1.2-.2c.1 0 .1 0 .2 0s.1.1.2.1c0 .1.1.1.1.2s0 .2-.1.2c-.1.1-.2.2-.4.3s-.2.1-.4.1c0 0-.1 0-.2 0s-.2-.1-.3-.1-.2-.2-.2-.4-.4-.2-.3-.5zm3.5 1.2c.1 0 .2.1.2.1 0 .1 0 .2 0 .2s-.1.2-.1.2-.2.2-.2.2c-.3-.1-.6-.2-.8-.4s-.4-.4-.5-.7c-.1-.3-.2-.6-.2-1s0-.8.1-1.3c.1-.4.2-.7.4-1.1s.3-.7.6-1 .5-.6.8-.8c.3-.2.6-.4 1-.5.1 0 .2 0 .2.1s.1.1.1.2 0 .2-.1.3-.1.1-.3.2c-.3.1-.6.2-.8.4s-.4.4-.6.7c-.2.2-.3.5-.4.8s-.2.6-.2.8c-.1.4-.1.7-.1 1s.1.6.1.8.2.4.3.6.3.2.5.2zm4.2-1.6c.1-.1.1-.2.2-.2s.2 0 .2 0c.1 0 .1.1.1.2s0 .2-.1.3c-.1.2-.2.4-.4.5-.1.2-.3.3-.5.4-.2.1-.3.2-.5.3s-.3.1-.5.1c-.3 0-.5-.1-.7-.2s-.4-.3-.5-.6-.2-.5-.3-.9 0-.7 0-1.1c.1-.4.2-.7.3-1.1s.4-.6.6-.9c.2-.3.5-.5.7-.6s.5-.2.8-.2c.4 0 .7.1.9.3s.4.5.5 1c0 .1 0 .1 0 .2s-.1.1-.2.2c-.1 0-.2.1-.3 0-.1 0-.1-.1-.2-.2-.1-.3-.2-.5-.3-.6s-.3-.2-.6-.2c-.2 0-.4.1-.5.2s-.3.3-.5.5c-.1.2-.3.4-.4.7-.1.3-.2.5-.2.8s-.1.5 0 .8c0 .2.1.4.2.6s.2.3.3.4.3.1.5.1.5-.1.7-.3.6-.2.7-.5zm3.6 1.1c-.3.2-.5.3-.7.4s-.4.1-.5.1c-.3 0-.5-.1-.7-.2s-.2-.3-.3-.6 0-.6 0-.9.1-.8.2-1.2c0-.1.1-.2.2-.2s.2-.1.3-.1.2 0 .2.1c.1 0 .1.1.1.2-.1.5-.2 1-.2 1.3 0 .3 0 .5 0 .7 0 .1.1.2.2.3s.1.1.2.1.2 0 .4-.1c.1 0 .2-.1.3-.2s.2-.2.2-.3.1-.2.1-.4l.4-1.4c0-.1.1-.2.1-.2.1 0 .2 0 .2 0s.1 0 .2.1.1.1 0 .2c0 0 0 .1 0 .2s-.1.3-.1.4-.1.4-.1.6-.1.4-.1.5c0 .2 0 .3 0 .4s0 .1.1.1c0 0 .1-.1.2-.1s.1-.1.2-.2c.1 0 .1 0 .2 0s.1.1.2.1c0 .1.1.1.1.2s0 .2-.1.2c-.1.1-.2.2-.4.3s-.3.1-.4.1c-.1 0-.2-.1-.3-.2-.3 0-.3-.1-.4-.3zm1.9.5c.2 0 .4-.1.5-.2s.4-.3.5-.6.3-.5.4-.8c.1-.3.2-.7.3-1 0-.3.1-.5.1-.8s0-.5-.1-.8c-.1-.2-.2-.5-.3-.7s-.4-.3-.7-.4c-.1 0-.2-.1-.2-.2s0-.2 0-.3c0-.1.1-.2.1-.2.1-.1.1-.1.2-.1.3.1.6.2.9.5.2.2.4.5.5.8s.2.6.2 1 0 .7 0 1.1c-.1.5-.2.9-.3 1.3-.1.4-.3.7-.6 1-.2.3-.5.5-.8.7s-.6.3-.9.4c-.1 0-.2 0-.2-.1s-.1-.1-.1-.2 0-.2.1-.3.3-.1.4-.1z"
       class="st2"
       id="path152" />
    <path
       d="M96.3 42.4c.1-.1.1-.1.2-.1s.2 0 .2.1.1.1.1.2 0 .2-.1.3c-.2.2-.4.4-.7.6-.3.1-.5.2-.8.2-.2 0-.4 0-.6-.1-.2-.1-.3-.2-.4-.3s-.2-.3-.2-.5 0-.4 0-.6c0-.2.1-.4.2-.6s.3-.4.4-.5.3-.3.5-.3.4-.1.6-.1c.4 0 .6.1.8.3s.3.3.4.6c0 .1 0 .1-.1.2s-.1.1-.2.1-.2 0-.2 0-.1 0-.1-.1c-.1-.2-.1-.3-.3-.3s-.1-.5-.2-.5-.2 0-.4.1-.2.1-.3.2-.2.2-.2.3-.1.2-.1.4 0 .2 0 .4.1.2.1.3c.1.1.1.2.2.2s.2.1.3.1c.2 0 .3 0 .5-.1s.3-.3.4-.5zm1.3-.5c0-.2.1-.4.2-.6s.2-.4.4-.5.3-.3.5-.3c.2-.1.4-.1.6-.1.3 0 .5.1.7.2s.3.3.3.5c.1.2.1.4.1.7s-.1.5-.2.7c-.1.2-.2.4-.3.5s-.3.3-.5.4c-.2.1-.4.2-.5.2-.2 0-.4 0-.6-.1-.3-.1-.4-.3-.5-.6s-.3-.6-.2-1zm.6.1c0 .2 0 .4 0 .5s.1.3.3.3c.1 0 .3 0 .4 0 .1 0 .2-.1.3-.2.1-.1.2-.2.3-.3s.1-.2.1-.4c0-.1 0-.2 0-.4s0-.2-.1-.3-.1-.1-.2-.2-.1 0-.2 0-.2 0-.3.1c-.1.1-.2.1-.3.2s-.2.2-.2.3c-.1.1-.1.2-.1.4zm4.7.3c.1-.3.1-.5.1-.7s0-.3-.1-.4c0-.1-.1-.2-.2-.2s-.1-.1-.2-.1c-.2 0-.4.1-.6.2s-.3.3-.4.5l-.3 1.5c0 .1-.1.2-.1.2-.1.1-.1.1-.2.1s-.1 0-.2-.1-.1-.1-.1-.3l.5-2.6c0-.1.1-.2.1-.2.1 0 .2-.1.2-.1s.2 0 .2.1c.1 0 .1.1.1.2v.2c.2-.1.3-.2.5-.3s.3-.1.4-.1c.4 0 .7.2.8.5s.1.9 0 1.6c0 .1 0 .2 0 .3s0 .1 0 .1.1 0 .1 0 .1 0 .1 0 .1 0 .2-.1.1-.1.2-.2c.1 0 .1 0 .2 0s.1.1.2.1c0 .1.1.1.1.2s0 .2-.1.2c-.1.1-.2.2-.4.3s-.2.1-.4.1c0 0-.1 0-.2 0s-.2-.1-.3-.1-.2-.2-.2-.4-.1-.2 0-.5zm4.1 0c.1-.3.1-.5.1-.7s0-.3-.1-.4c0-.1-.1-.2-.2-.2s-.1-.1-.2-.1c-.2 0-.4.1-.6.2s-.3.3-.4.5l-.3 1.5c0 .1-.1.2-.1.2-.1.1-.1.1-.2.1s-.1 0-.2-.1-.1-.1-.1-.3l.5-2.6c0-.1.1-.2.1-.2.1 0 .2-.1.2-.1s.2 0 .2.1c.1 0 .1.1.1.2v.2c.2-.1.3-.2.5-.3s.3-.1.4-.1c.4 0 .7.2.8.5s.1.9 0 1.6c0 .1 0 .2 0 .3s0 .1 0 .1.1 0 .1 0 .1 0 .1 0 .1 0 .2-.1.1-.1.2-.2c.1 0 .1 0 .2 0s.1.1.2.1c0 .1.1.1.1.2s0 .2-.1.2c-.1.1-.2.2-.4.3s-.2.1-.4.1c0 0-.1 0-.2 0s-.2-.1-.3-.1-.2 0-.2-.2-.1-.4 0-.7zm4.2.7c-.3.2-.5.3-.7.4s-.4.1-.5.1c-.3 0-.5-.1-.7-.2s-.3-.3-.3-.6 0-.6 0-.9.1-.8.2-1.2c0-.1.1-.2.2-.2s.2-.1.3-.1.2 0 .2.1c.1 0 .1.1.1.2-.1.5-.2 1-.2 1.3 0 .3 0 .5 0 .7 0 .1.1.2.2.3s.1.1.2.1.2 0 .4-.1c.1 0 .2-.1.3-.2s.2-.2.2-.3.1-.2.1-.4l.4-1.4c0-.1.1-.2.1-.2.1 0 .2 0 .2 0s.1 0 .2.1.1.1 0 .2c0 0 0 .1 0 .2s-.1.3-.1.4-.1.4-.1.6-.1.4-.1.5c0 .2 0 .3 0 .4s0 .1.1.1c0 0 .1-.1.2-.1s.1-.1.2-.2c.1 0 .1 0 .2 0s.1.1.2.1c0 .1.1.1.1.2s0 .2-.1.2c-.1.1-.2.2-.4.3s-.3.1-.4.1c-.1 0-.2-.1-.3-.2-.3 0-.4-.1-.4-.3zm4.1-.4c.1-.1.1-.1.2-.1s.2 0 .2.1.1.1.1.2 0 .1-.1.2c-.2.2-.4.4-.6.5-.2.1-.4.2-.6.2-.2 0-.4 0-.6-.1-.2-.1-.4-.2-.5-.3s-.3-.3-.4-.5-.1-.4-.1-.7c0-.2 0-.4.1-.6.1-.2.2-.4.4-.5.1-.2.3-.3.5-.4s.4-.1.6-.1c.2 0 .4 0 .5.1s.3.2.3.3c.1.1.1.3.1.4s-.1.3-.2.5-.3.4-.5.6c-.2.2-.6.4-1 .5.1.1.2.1.3.2s.2.1.4.1.3 0 .4-.1.4-.4.5-.5zm-.9-1.7c-.2.1-.3.1-.4.2-.1.1-.2.2-.3.3s-.1.2-.1.4 0 .3 0 .4c.3-.1.6-.2.7-.3s.3-.2.4-.3.1-.2.1-.3 0-.1 0-.2-.1-.1-.2-.2c0 0-.1 0-.2 0zm-9.3-4.2c.1 0 .1 0 .2.1.1 0 .2.1.2.1.1.1.2.1.3.2.1.1.3.2.5.4.1-.2.2-.3.2-.4.1-.1.1-.2.1-.2 0-.1.1-.1.1-.1s.1 0 .2-.1c.9 0 1.7.1 2.3.1.6 0 1.1 0 1.5-.1.4 0 .6-.1.8-.2.2-.1.2-.2.2-.4 0-.1.1-.2.3-.3.2-.1.3-.1.5-.1s.4.1.5.1c.2.1.2.2.2.3 0 .4-.2.6-.6.8-.3.2-.8.3-1.3.4-.5.1-1.1.1-1.7.1-.6 0-1.2 0-1.9-.1l-.7.8c-.1.1-.2.2-.4.2s-.3.1-.5 0c-.2 0-.3-.1-.5-.1-.1-.1-.2-.1-.3-.2l-1-.9c-.7 0-1.3 0-2-.1-.6 0-1.2-.1-1.8-.2-.5-.1-1-.3-1.4-.5-.4-.2-.7-.5-.9-.9 0-.1 0-.2.1-.2.1-.1.3-.1.4-.1.2 0 .4 0 .5.1.2.1.3.1.4.3.2.3.4.5.8.6.4.1.8.2 1.3.2s1 .1 1.5 0c1 .4 1.5.4 1.9.4z"
       class="st3"
       id="path154" />
    <path
       d="M318.7 57.5h-48.2c-2.9 0-5.2-2.3-5.2-5.2V21c0-2.9 2.3-5.2 5.2-5.2h48.2c2.9 0 5.2 2.3 5.2 5.2v31.3c0 2.9-2.3 5.2-5.2 5.2z"
       class="st0"
       id="path156" />
    <path
       d="M318.7 57.7h-48.2c-3 0-5.4-2.4-5.4-5.4V21c0-3 2.4-5.4 5.4-5.4h48.2c3 0 5.4 2.4 5.4 5.4v31.3c.1 3-2.4 5.4-5.4 5.4zm-48.2-41.6c-2.7 0-4.9 2.2-4.9 4.9v31.3c0 2.7 2.2 4.9 4.9 4.9h48.2c2.7 0 4.9-2.2 4.9-4.9V21c0-2.7-2.2-4.9-4.9-4.9h-48.2z"
       class="st1"
       id="path158" />
    <path
       d="M298.4 51.4c.1-.1.1-.1.2-.1s.2 0 .2.1.1.1.1.2 0 .2-.1.3c-.2.2-.4.4-.7.6-.3.1-.5.2-.8.2-.2 0-.4 0-.6-.1-.2-.1-.3-.2-.4-.3s-.2-.3-.2-.5 0-.4 0-.6c0-.2.1-.4.2-.6s.3-.4.4-.5.3-.3.5-.3.4-.1.6-.1c.4 0 .6.1.8.3s.3.3.4.6c0 .1 0 .1-.1.2s-.1.1-.2.1-.2 0-.2 0-.1 0-.1-.1c-.1-.2-.1-.3-.3-.3s-.3-.1-.4-.1c-.1 0-.2 0-.4.1s-.2.1-.3.2-.2.2-.2.3-.1.2-.1.4 0 .2 0 .4.1.2.1.3c.1.1.1.2.2.2s.2.1.3.1c.2 0 .3 0 .5-.1s.4-.7.6-.9zm1.2-.4c0-.2.1-.4.2-.6s.2-.4.4-.5.3-.3.5-.3c.2-.1.4-.1.6-.1.3 0 .5.1.7.2s.3.3.3.5c.1.2.1.4.1.7s-.1.5-.2.7c-.1.2-.2.4-.3.5s-.3.3-.5.4c-.2.1-.4.2-.5.2-.2 0-.4 0-.6-.1-.3-.1-.4-.3-.5-.6s-.2-.7-.2-1zm.6 0c0 .2 0 .4 0 .5s.1.3.3.3c.1 0 .3 0 .4 0 .1 0 .2-.1.3-.2.1-.1.2-.2.3-.3s.1-.2.1-.4c0-.1 0-.2 0-.4s0-.2-.1-.3-.1-.1-.2-.2-.2-.1-.3-.1c-.1 0-.2 0-.3.1-.1.1-.2.1-.3.2s-.2.2-.2.3c.1.3 0 .4 0 .5zm4.7.3c.1-.3.1-.5.1-.7s0-.3-.1-.4c0-.1-.1-.2-.2-.2s-.1-.1-.2-.1c-.2 0-.4.1-.6.2s-.3.3-.4.5l-.3 1.5c0 .1-.1.2-.1.2-.1.1-.1.1-.2.1s-.1 0-.2-.1-.1-.1-.1-.3l.5-2.6c0-.1.1-.2.1-.2.1 0 .2-.1.2-.1s.2 0 .2.1c.1 0 .1.1.1.2v.2c.2-.1.3-.2.5-.3s.3-.1.4-.1c.4 0 .7.2.8.5s.1.9 0 1.6c0 .1 0 .2 0 .3s0 .1 0 .1.1 0 .1 0 .1 0 .1 0 .1 0 .2-.1.1-.1.2-.2c.1 0 .1 0 .2 0s.1.1.2.1c0 .1.1.1.1.2s0 .2-.1.2c-.1.1-.2.2-.4.3s-.2.1-.4.1c0 0-.1 0-.2 0s-.2-.1-.3-.1-.2-.2-.2-.4 0-.2 0-.5zm4.2 0c.1-.3.1-.5.1-.7s0-.3-.1-.4c0-.1-.1-.2-.2-.2s-.1-.1-.2-.1c-.2 0-.4.1-.6.2s-.3.3-.4.5l-.3 1.5c0 .1-.1.2-.1.2-.1.1-.1.1-.2.1s-.1 0-.2-.1-.1-.1-.1-.3l.5-2.6c0-.1.1-.2.1-.2.1 0 .2-.1.2-.1s.2 0 .2.1c.1 0 .1.1.1.2v.2c.2-.1.3-.2.5-.3s.3-.1.4-.1c.4 0 .7.2.8.5s.1.9 0 1.6c0 .1 0 .2 0 .3s0 .1 0 .1.1 0 .1 0 .1 0 .1 0 .1 0 .2-.1.1-.1.2-.2c.1 0 .1 0 .2 0s.1.1.2.1c0 .1.1.1.1.2s0 .2-.1.2c-.1.1-.2.2-.4.3s-.2.1-.4.1c0 0-.1 0-.2 0s-.2-.1-.3-.1-.2-.2-.2-.4-.1-.2 0-.5zm4.1.7c-.3.2-.5.3-.7.4s-.4.1-.5.1c-.3 0-.5-.1-.7-.2s-.2-.3-.3-.6 0-.6 0-.9.1-.8.2-1.2c0-.1.1-.2.2-.2s.2-.1.2-.1.2 0 .2.1c.1 0 .1.1.1.2-.1.5-.2 1-.2 1.3 0 .3 0 .5 0 .7 0 .1.1.2.2.3s.1.1.2.1.2 0 .4-.1c.1 0 .2-.1.3-.2s.2-.2.2-.3.1-.2.1-.4l.4-1.4c0-.1.1-.2.1-.2.1 0 .2 0 .2 0s.1 0 .2.1.1.1 0 .2c0 0 0 .1 0 .2s-.1.3-.1.4-.1.4-.1.6-.1.4-.1.5c0 .2 0 .3 0 .4s0 .1.1.1c0 0 .1-.1.2-.1s.1-.1.2-.2c.1 0 .1 0 .2 0s.1.1.2.1c0 .1.1.1.1.2s0 .2-.1.2c-.1.1-.2.2-.4.3s-.3.1-.4.1c-.1 0-.2-.1-.3-.2-.1 0-.2-.1-.3-.3zm4.2-.4c.1-.1.1-.1.2-.1s.2 0 .2.1.1.1.1.2 0 .1-.1.2c-.2.2-.4.4-.6.5-.2.1-.4.2-.6.2-.2 0-.4 0-.6-.1-.2-.1-.4-.2-.5-.3s-.3-.3-.4-.5-.1-.6-.1-.8c0-.2 0-.4.1-.6.1-.2.2-.4.4-.5.1-.2.3-.3.5-.4s.4-.1.6-.1c.2 0 .4 0 .5.1s.3.2.3.3c.1.1.1.3.1.4s-.1.3-.2.5-.3.4-.5.6c-.2.2-.6.4-1 .5.1.1.2.1.3.2s.2.1.4.1.3 0 .4-.1.3-.3.5-.4zm-1-1.7c-.2.1-.3.1-.4.2-.1.1-.2.2-.3.3s-.1.2-.1.4 0 .3 0 .4c.3-.1.6-.2.7-.3s.3-.2.4-.3.1-.2.1-.3 0-.1 0-.2-.1-.1-.2-.2c0 0-.1 0-.2 0zm-9.2-4.1c.1 0 .1 0 .2.1.1 0 .2.1.2.1.1.1.2.1.3.2.1.1.3.2.5.4.1-.2.2-.3.2-.4.1-.1.1-.2.1-.2 0-.1.1-.1.1-.1s.1 0 .2-.1c.9 0 1.7.1 2.3.1.6 0 1.1 0 1.5-.1.4 0 .6-.1.8-.2.2-.1.2-.2.2-.4 0-.1.1-.2.3-.3.2-.1.3-.1.5-.1s.4.1.5.1c.2.1.2.2.2.3 0 .4-.2.6-.6.8-.3.2-.8.3-1.3.4-.5.1-1.1.1-1.7.1-.6 0-1.2 0-1.9-.1l-.7.8c-.1.1-.2.2-.4.2s-.3.1-.5 0c-.2 0-.3-.1-.5-.1-.1-.1-.2-.1-.3-.2l-1-.9c-.7 0-1.3 0-2-.1-.6 0-1.2-.1-1.8-.2-.5-.1-1-.3-1.4-.5-.4-.2-.7-.5-.9-.9 0-.1 0-.2.1-.2.1-.1.3-.1.4-.1.2 0 .4 0 .5.1.2.1.3.1.4.3.2.3.4.5.8.6.4.1.8.2 1.3.2s1 .1 1.5 0c.9.3 1.4.3 1.9.4z"
       class="st3"
       id="path160" />
    <path
       d="M276.6 32.8c.1-.1.1-.2.2-.2s.2 0 .2 0c.1 0 .1.1.1.2s0 .2-.1.3c-.1.2-.2.4-.4.5-.1.2-.3.3-.5.4-.2.1-.3.2-.5.3s-.3.1-.5.1c-.3 0-.5-.1-.7-.2s-.4-.3-.5-.6-.2-.5-.3-.9 0-.7 0-1.1c.1-.4.2-.7.3-1.1s.4-.6.6-.9c.2-.3.5-.5.7-.6s.5-.2.8-.2c.4 0 .7.1.9.3s.4.5.5 1c0 .1 0 .1 0 .2s-.1.1-.2.2c-.1 0-.2.1-.3 0-.1 0-.1-.1-.2-.2-.1-.3-.2-.5-.3-.6s-.3-.2-.6-.2c-.2 0-.3.1-.5.2s-.3.3-.5.5c-.1.2-.3.4-.4.7-.1.3-.2.5-.2.8s-.1.5 0 .8c0 .2.1.4.2.6s.2.3.3.4.3.1.5.1.5-.1.7-.3.5-.2.7-.5zm3.6 1.1c-.3.2-.5.3-.7.4s-.4.1-.5.1c-.3 0-.5-.1-.7-.2s-.2-.3-.3-.6 0-.6 0-.9.1-.8.2-1.2c0-.1.1-.2.2-.2s.2-.1.3-.1.2 0 .2.1c.1 0 .1.1.1.2-.1.5-.2 1-.2 1.3 0 .3 0 .5 0 .7 0 .1.1.2.2.3s.1.1.2.1.2 0 .4-.1c.1 0 .2-.1.3-.2s.2-.2.2-.3.1-.2.1-.4l.4-1.4c0-.1.1-.2.1-.2.1 0 .2 0 .2 0s.1 0 .2.1.1.1 0 .2c0 0 0 .1 0 .2s-.1.2-.1.4-.1.4-.1.6-.1.4-.1.5c0 .2 0 .3 0 .4s0 .1.1.1c0 0 .1-.1.2-.1s.1-.1.2-.2c.1 0 .1 0 .2 0s.1.1.2.1c0 .1.1.1.1.2s0 .2-.1.2c-.1.1-.2.2-.4.3s-.3.1-.4.1c-.1 0-.2-.1-.3-.2-.3 0-.4-.1-.4-.3zm1.8-2.5c-.1 0-.1 0-.1-.1 0 0 0-.1 0-.1s0-.1 0-.1.1-.1.1-.1c.2-.2.4-.3.6-.5s.4-.3.5-.5.3-.3.4-.5c.1-.2.2-.3.2-.5 0-.1 0-.2-.1-.3-.1-.1-.1-.1-.2-.1s-.1 0-.2 0-.1 0-.2.1c-.1 0-.1.1-.2.1-.1.1-.1.1-.1.2 0 0 0 .1-.1.1s-.1 0-.1 0-.1 0-.1-.1c0 0 0-.1 0-.1.1-.1.2-.2.3-.3.1-.1.2-.2.3-.2.1-.1.2-.1.3-.1.1 0 .2 0 .3 0 .1 0 .2 0 .2.1.1 0 .1.1.2.2 0 .1.1.2.1.3 0 .1 0 .2 0 .3 0 .2-.1.4-.2.5-.1.2-.2.3-.3.5-.1.2-.3.3-.4.5s-.3.3-.5.4h1c.1 0 .1 0 .1.1 0 0 0 .1 0 .1s0 .1-.1.1-.1 0-.1 0H282zm2.8-1h-.4c-.1 0-.1 0-.1-.1 0 0 0-.1 0-.1s0-.1.1-.1.1-.1.1-.1h.4l.1-.4c0-.1.1-.1.1-.1s.1 0 .1 0 .1 0 .1.1c0 0 0 .1 0 .1l-.1.4h.4c.1 0 .1 0 .1.1 0 0 0 .1 0 .1s0 .1-.1.1-.1 0-.1 0h-.4l-.1.4c0 .1 0 .1-.1.1 0 0-.1 0-.1 0s-.1 0-.1 0 0-.1 0-.1l.1-.4zm8 2.1c.1 0 .2.1.2.1 0 .1 0 .2 0 .2 0 .1-.1.2-.1.2-.1.1-.1.1-.2.1h-2.1c-.1 0-.2 0-.2-.1s0-.1 0-.2.1-.2.1-.2.1-.1.2-.1h2.1zm.2-1.1c.1 0 .2.1.2.1 0 .1 0 .2 0 .2 0 .1-.1.1-.1.2-.1.1-.1.1-.2.1h-2.1c-.1 0-.2 0-.2-.1s0-.1 0-.2.1-.2.1-.2c.1-.1.1-.1.2-.1h2.1zm-18.8 5.5h-2.3c-.1 0-.2 0-.3-.1-.1-.1-.1-.2-.1-.3l1-10.8c0-.2.2-.3.4-.3h2.3c.2 0 .4.2.4.4s-.2.4-.4.4h-2l-.9 10h1.9c.2 0 .4.2.4.4s-.2.3-.4.3zm13.2 0h-2.3c-.2 0-.4-.2-.4-.4s.2-.4.4-.4h2l.9-10h-1.9c-.2 0-.4-.2-.4-.4s.2-.4.4-.4h2.3c.1 0 .2 0 .3.1.1.1.1.2.1.3l-1 10.8c0 .3-.2.4-.4.4zm12.5-11.3c.1-.3.1-.5.1-.7s0-.3-.1-.4c0-.1-.1-.2-.2-.2s-.1-.1-.2-.1c-.2 0-.4.1-.6.2-.2.1-.3.3-.4.5l-.3 1.5c0 .1-.1.2-.1.2s-.1.1-.2.1-.1 0-.2-.1-.1-.1-.1-.3l.5-2.6c0-.1.1-.2.1-.2s.2-.1.2-.1.2 0 .2.1.1.1.1.2v.2c.2-.1.3-.2.5-.3s.3-.1.4-.1c.4 0 .7.2.8.5.1.3.1.9 0 1.6 0 .1 0 .2 0 .3 0 .1 0 .1 0 .1s.1 0 .1 0 .1 0 .1 0 .1 0 .2-.1.1-.1.2-.2c.1 0 .1 0 .2 0s.1.1.2.1.1.1.1.2 0 .2-.1.2c-.1.1-.2.2-.4.3s-.2.1-.4.1c0 0-.1 0-.2 0s-.2-.1-.3-.1-.2-.2-.2-.4-.1-.2 0-.5zm3.5 1.3c.1 0 .2.1.2.1s0 .2 0 .2c0 .1-.1.2-.2.2s-.2.1-.2.1c-.3-.1-.6-.2-.8-.4s-.4-.4-.5-.7-.2-.6-.2-1 0-.8.1-1.3c.1-.4.2-.7.4-1.1.2-.4.3-.7.6-1s.5-.6.8-.8.6-.4 1-.5c.1 0 .2 0 .2.1s.1.1.1.2 0 .2-.1.3c-.1.1-.1.1-.3.2-.3.1-.6.2-.8.4s-.4.4-.6.7-.3.5-.4.8-.2.6-.2.8c-.1.4-.1.7-.1 1s.1.6.2.8c.1.2.2.4.3.6s.3.3.5.3zm4.2-1.7c.1-.1.1-.2.2-.2s.2 0 .2 0 .1.1.1.2 0 .2-.1.3c-.1.2-.2.4-.4.5s-.3.3-.5.4-.3.2-.5.3c-.2.1-.3.1-.5.1-.3 0-.5-.1-.7-.2s-.4-.3-.5-.6-.2-.5-.3-.9c0-.3 0-.7 0-1.1.1-.4.2-.7.3-1.1s.4-.6.6-.9c.2-.3.5-.5.7-.6.3-.1.5-.2.8-.2.4 0 .7.1.9.3s.4.5.5 1c0 .1 0 .1 0 .2s-.1.1-.2.2-.2 0-.3 0 .1.1.1 0c-.1-.3-.2-.5-.3-.6-.2-.1-.3-.2-.6-.2-.2 0-.4.1-.5.2s-.3.3-.5.5-.3.4-.4.7c-.1.3-.2.5-.2.8s-.1.5 0 .8c0 .2.1.4.2.6s.2.3.3.4.3.1.5.1.5-.1.7-.3.3-.4.4-.7zm3.6 1.1c-.3.2-.5.3-.7.4s-.4.1-.5.1c-.3 0-.5-.1-.7-.2s-.2-.3-.3-.6 0-.6 0-.9c0-.4.1-.8.2-1.2 0-.1.1-.2.2-.2s.2-.1.3-.1c.1 0 .2 0 .2.1.1 0 .1.1.1.2-.1.5-.2 1-.2 1.3 0 .3 0 .5 0 .7s.1.2.2.3.1.1.2.1.2 0 .4-.1c.1 0 .2-.1.3-.2.1-.1.2-.2.2-.3s.1-.2.1-.4l.4-1.4c0-.1.1-.2.1-.2s.2 0 .2 0c.1 0 .1 0 .2.1s.1.1 0 .2c0 0 0 .1 0 .2s-.1.3-.1.4-.1.4-.1.6-.1.4-.1.5 0 .3 0 .4c0 .1 0 .1.1.1 0 0 .1-.1.2-.1s.1-.1.2-.2c.1 0 .1 0 .2 0s.1.1.2.1.1.1.1.2 0 .2-.1.2c-.1.1-.2.2-.4.3s-.3.1-.4.1c-.1 0-.2-.1-.3-.2s-.3-.1-.4-.3zm1.9-2.8c-.1 0-.1 0-.1-.1 0 0 0-.1 0-.1s0-.1 0-.1.1-.1.1-.1c.2-.2.4-.4.6-.6s.4-.4.6-.6.3-.4.4-.6.2-.4.2-.5c0-.1 0-.3-.1-.3s-.2-.1-.3-.2c-.1 0-.1 0-.2 0s-.2 0-.2.1c-.1 0-.1.1-.2.2s-.1.1-.2.2c0 .1-.1.1-.1.1-.1 0-.1 0-.1 0s-.1-.1-.1-.1 0-.1 0-.2c.1-.1.2-.3.3-.4.1-.1.2-.2.4-.2.1-.1.3-.1.4-.1.1 0 .3 0 .4 0 .1 0 .2.1.3.1.1.1.2.1.2.2.1.1.1.2.1.3 0 .1 0 .2 0 .4s-.1.4-.2.6c-.1.2-.2.4-.4.6-.1.2-.3.4-.5.5s-.3.3-.5.5h1.1c.1 0 .1 0 .1.1 0 0 0 .1 0 .1s0 .1-.1.1-.1.1-.1 0l-1.8.1zm3.1-1.2h-.5c-.1 0-.1 0-.1-.1 0 0 0-.1 0-.1 0-.1 0-.1.1-.1 0 0 .1-.1.1-.1h.5l.1-.5c0-.1.1-.1.1-.1.1 0 .1 0 .2 0s.1 0 .1.1 0 .1 0 .1l-.1.5h.5c.1 0 .1 0 .1.1 0 0 0 .1 0 .2s0 .1-.1.1c0 0-.1.1-.1 0h-.5l-.1.5c0 .1 0 .1-.1.1 0 0-.1 0-.2 0s-.1 0-.1 0-.1-.1 0-.1l.1-.6zm1.7 4.5c.2 0 .4-.1.5-.2.2-.1.4-.3.5-.6s.3-.5.4-.8c.1-.3.2-.7.3-1 0-.3.1-.5.1-.8s0-.5-.1-.8-.2-.5-.3-.7c-.2-.2-.4-.3-.7-.4-.1 0-.2-.1-.2-.2s0-.2 0-.3c0-.1.1-.2.1-.2s.1-.1.2-.1c.3.1.6.2.9.5s.4.5.5.8c.1.3.2.6.2 1s0 .7 0 1.1c-.1.5-.2.9-.3 1.3-.2.4-.3.7-.6 1s-.5.5-.8.7-.6.3-.9.4c-.1 0-.2 0-.2-.1s-.1-.1-.1-.2 0-.2.1-.3c.2 0 .3 0 .4-.1zm-17.2 12.8c-.1.1-.1.2-.2.2s-.1 0-.2 0-.1 0-.2-.1-.1-.1-.1-.2l-.8-4.9c0-.1 0-.1.1-.2s.1-.1.2-.1.2 0 .2 0 .1.1.1.2l.7 4.1 2.1-4.1c.1-.1.1-.2.2-.2s.2 0 .2 0 .1.1.2.1 0 .1 0 .2l-2.5 5zm4.8.8c0 .1 0 .1 0 .1s-.1.1-.1.1c-.1 0-.1 0-.1 0s-.1 0-.1-.1-.1-.1-.2-.2-.1-.1-.2-.1c0 0-.1 0-.1 0-.1 0-.1 0-.1 0s-.1 0-.1.1c0 0-.1.1-.1.1 0 .1 0 .1 0 .1s0 .1.1.1c0 0 .1 0 .1.1.1 0 .1 0 .2 0s.2 0 .3.1c.1 0 .2.1.2.1s.1.1.1.2 0 .2 0 .3c0 .1-.1.2-.1.3-.1.1-.2.1-.2.2-.1 0-.2.1-.3.1-.1 0-.2 0-.3 0-.1 0-.2 0-.2-.1-.1 0-.2-.1-.2-.1s-.1-.1-.2-.2c0-.1-.1-.2-.1-.3 0-.1 0-.1.1-.2s.1-.1.1-.1c.1 0 .1 0 .1 0s.1 0 .1.1 0 .1 0 .2c0 0 .1.1.1.1s.1 0 .1.1c.1 0 .1 0 .2 0s.2 0 .3 0c.1 0 .1-.1.2-.1 0-.1 0-.2-.1-.2s-.2-.1-.3-.1c-.1 0-.2 0-.3-.1-.1 0-.2-.1-.3-.1-.1 0-.1-.1-.2-.2 0-.1 0-.2 0-.3 0-.1.1-.2.1-.3s.1-.1.2-.2.2-.1.3-.1.2 0 .3 0c.1 0 .3.1.4.1.1.2.2.3.3.5zm.2.6c0-.1.1-.3.1-.4.1-.1.1-.2.2-.3.1-.1.2-.2.3-.2.1-.1.2-.1.4-.1s.3 0 .4.1.2.2.2.3c0 .1.1.3 0 .4 0 .2-.1.3-.1.4-.1.1-.1.2-.2.3-.1.1-.2.2-.3.3-.1.1-.2.1-.4.1s-.2 0-.4-.1-.3-.2-.4-.4c.1 0 .1-.2.2-.4zm.4 0c0 .1 0 .2 0 .4 0 .1.1.2.2.2s.2 0 .2 0c.1 0 .2-.1.2-.1.1-.1.1-.1.2-.2 0-.1.1-.2.1-.2 0-.1 0-.2 0-.2s0-.1 0-.2-.1-.1-.1-.1-.1-.1-.2-.1-.1 0-.2 0-.1.1-.2.1c-.1.1-.1.1-.1.2-.1 0-.1.1-.1.2zm1.6.7c0-.1 0-.2 0-.4s0-.4.1-.6.1-.5.1-.7c0-.2.1-.5.1-.7 0-.2.1-.4.1-.5s0-.2 0-.2c0-.1 0-.1.1-.1 0 0 .1 0 .1 0s.1 0 .1.1.1.1.1.2c-.1.5-.2.9-.2 1.2-.1.3-.1.6-.1.8 0 .2-.1.4-.1.5 0 .1 0 .2 0 .3 0 .1 0 .1 0 .1s0 0 .1 0c0 0 .1 0 .1-.1s.1-.1.1-.1.1 0 .1 0 .1 0 .1.1c0 0 0 .1 0 .1s0 .1-.1.1c-.1.1-.2.1-.2.2-.1 0-.2.1-.3.1-.1 0-.1 0-.2-.1 0-.1 0-.2-.1-.3zm2.7 0c-.2.1-.3.2-.5.3-.1 0-.2.1-.3.1-.2 0-.3 0-.4-.1s-.2-.2-.2-.4 0-.4 0-.6.1-.5.1-.8c0-.1 0-.1.1-.2.1 0 .1 0 .2 0s.1 0 .1 0 .1.1 0 .1c-.1.3-.1.6-.2.8 0 .2 0 .3 0 .4s.1.2.1.2.1 0 .1 0c.1 0 .2 0 .2 0 .1 0 .1-.1.2-.1.1-.1.1-.1.2-.2 0-.1.1-.1.1-.2l.3-.9c0-.1 0-.1.1-.1 0 0 .1 0 .2 0s.1 0 .1.1 0 .1 0 .1 0 .1 0 .1c0 .1 0 .2-.1.3 0 .1 0 .2-.1.4 0 .1 0 .2 0 .4 0 .1 0 .2 0 .3s0 .1.1.1c0 0 .1 0 .1-.1s.1-.1.1-.1.1 0 .1 0 .1 0 .1.1c0 0 0 .1 0 .1 0 .1 0 .1-.1.1-.1.1-.2.1-.2.2s-.2.1-.3.1c-.1 0-.1 0-.2-.1s0-.3 0-.4zm1.5.1c0-.1 0-.1 0-.2s0-.1 0-.2 0-.2.1-.4c0-.2.1-.4.1-.7h-.4c-.1 0-.1 0-.1-.1 0 0 0-.1 0-.1 0-.1 0-.1.1-.1 0 0 .1-.1.1-.1h.5c0-.2.1-.3.1-.5 0-.1.1-.3.1-.4 0-.1 0-.2.1-.4 0-.1 0-.1.1-.1 0 0 .1 0 .1 0s.1 0 .1.1.1.1.1.2c0 .2-.1.4-.1.6 0 .2-.1.4-.1.5h.5c.1 0 .1 0 .1.1s0 .1 0 .2 0 .1-.1.1-.1.1-.2 0h-.5c0 .1 0 .2 0 .3s0 .2 0 .2c0 .2-.1.4-.1.5 0 .1 0 .2 0 .3 0 .1 0 .1 0 .1s0 0 .1 0c0 0 .1 0 .1-.1.1 0 .1-.1.1-.1s.1 0 .1 0 .1 0 .1.1c0 0 0 .1 0 .1 0 .1 0 .1-.1.1-.1.1-.2.1-.3.2s-.2.1-.3.1c-.1 0-.1 0-.2-.1s-.2-.1-.2-.2zm1.8-1.7c0-.1.1-.1.1-.1.1 0 .1 0 .2 0s.1 0 .1.1 0 .1 0 .1c-.1.2-.1.3-.2.5s-.1.3-.1.5 0 .3 0 .4c0 .1.1.1.1.1s.1 0 .1-.1c0 0 .1-.1.1-.1s.1 0 .1 0 .1 0 .1.1 0 .1.1.1c0 0 0 .1 0 .1-.1.1-.1.2-.2.2-.1.1-.2.1-.3.1-.2 0-.3 0-.3-.1-.1-.1-.1-.2-.1-.3 0-.1 0-.3 0-.4 0-.2 0-.3.1-.4 0-.1.1-.3.1-.4-.1-.3-.1-.4 0-.4zm.1-.6c0-.1 0-.1.1-.2.1 0 .1-.1.2-.1s.1 0 .2.1.1.1 0 .2c0 .1 0 .1-.1.2s-.1.1-.2.1-.1 0-.2-.1c0-.1 0-.1 0-.2zm.9 1.5c0-.1.1-.3.1-.4.1-.1.1-.2.2-.3.1-.1.2-.2.3-.2.1-.1.2-.1.4-.1s.3 0 .4.1.2.2.2.3c0 .1.1.3 0 .4 0 .2-.1.3-.1.4-.1.1-.1.2-.2.3-.1.1-.2.2-.3.3-.1.1-.2.1-.4.1s-.2 0-.4-.1-.3-.2-.4-.4c.2 0 .2-.2.2-.4zm.4 0c0 .1 0 .2 0 .4 0 .1.1.2.2.2s.2 0 .2 0c.1 0 .2-.1.2-.1.1-.1.1-.1.2-.2 0-.1.1-.2.1-.2 0-.1 0-.2 0-.2s0-.1 0-.2-.1-.1-.1-.1-.1-.1-.2-.1-.1 0-.2 0-.1.1-.2.1c-.1.1-.1.1-.1.2 0 0-.1.1-.1.2zm3.1.2c0-.2.1-.3.1-.4 0-.1 0-.2 0-.3 0-.1-.1-.1-.1-.1s-.1 0-.1 0c-.1 0-.3 0-.4.1-.1.1-.2.2-.3.3l-.2 1c0 .1 0 .1-.1.1 0 0-.1.1-.1.1s-.1 0-.1 0-.1-.1-.1-.2l.3-1.7c0-.1 0-.1.1-.2 0 0 .1 0 .2 0s.1 0 .1 0 .1.1 0 .1v.1c.1-.1.2-.1.3-.2.1 0 .2-.1.3-.1.3 0 .4.1.5.3s.1.6 0 1c0 .1 0 .1 0 .2 0 0 0 .1 0 .1s0 0 .1 0c0 0 .1 0 .1-.1 0 0 .1-.1.1-.1s.1 0 .1 0 .1 0 .1.1c0 0 0 .1 0 .1s0 .1-.1.1c-.1.1-.2.1-.2.2-.1 0-.2.1-.2.1s0 0-.1 0-.1 0-.2-.1-.1-.1-.1-.2c-.1.1-.1-.1 0-.3zm1.3-10h-22.4c-.2 0-.4-.2-.4-.4s.2-.4.4-.4h22.4c.2 0 .4.2.4.4s-.2.4-.4.4z"
       class="st2"
       id="path162" />
    <path
       d="M425.6 57.5h-68.8c-2.9 0-5.2-2.3-5.2-5.2V21c0-2.9 2.3-5.2 5.2-5.2h68.8c2.9 0 5.2 2.3 5.2 5.2v31.3c0 2.9-2.4 5.2-5.2 5.2z"
       class="st0"
       id="path164" />
    <path
       d="M425.6 57.7h-68.8c-3 0-5.4-2.4-5.4-5.4V21c0-3 2.4-5.4 5.4-5.4h68.8c3 0 5.4 2.4 5.4 5.4v31.3c0 3-2.4 5.4-5.4 5.4zm-68.8-41.6c-2.7 0-4.9 2.2-4.9 4.9v31.3c0 2.7 2.2 4.9 4.9 4.9h68.8c2.7 0 4.9-2.2 4.9-4.9V21c0-2.7-2.2-4.9-4.9-4.9h-68.8z"
       class="st1"
       id="path166" />
    <path
       d="M379.7 24.7c.1-.1.2-.2.2-.2s.2 0 .2 0 .1 0 .2.1.1.1.1.2v4.9c0 .1 0 .1-.1.2s-.1.1-.2.1-.2 0-.2 0-.1-.1-.1-.2l.1-1.7h-1.6l-1.3 1.8c-.1.1-.1.2-.2.2s-.2 0-.2-.1-.1-.1-.1-.2 0-.2 0-.2l3.2-4.9zm-1.1 2.6h1.2v-1.6l-1.2 1.6zm7 .7c.1 0 .2.1.2.1 0 .1 0 .2 0 .2 0 .1-.1.2-.1.2-.1.1-.1.1-.2.1h-2.1c-.1 0-.2 0-.2-.1s0-.1 0-.2.1-.2.1-.2.1-.1.2-.1h2.1zm.2-1.1c.1 0 .2.1.2.1 0 .1 0 .2 0 .2 0 .1-.1.1-.1.2-.1.1-.1.1-.2.1h-2.1c-.1 0-.2 0-.2-.1s0-.1 0-.2.1-.2.1-.2c.1-.1.1-.1.2-.1h2.1zm5.8.5c0 .2 0 .4-.1.6-.1.2-.2.3-.4.4s-.4.2-.6.2c-.2 0-.5-.1-.8-.2.1.2.3.4.4.6s.3.2.4.3.3.1.4.1.2 0 .3 0c.3 0 .5-.2.8-.5 0 0 .1-.1.2 0 .1 0 .1 0 .2.1s.1.1.1.2 0 .1-.1.2c-.2.2-.4.4-.6.4-.2.1-.5.1-.8.1-.1 0-.2 0-.4-.1s-.3-.1-.4-.1-.3-.2-.4-.3c-.1-.1-.2-.3-.4-.5l-.2.8c0 .1-.1.2-.1.2s-.1.1-.2.1-.1 0-.2-.1-.1-.1 0-.2l.9-4.9c0-.1.1-.2.1-.2.1 0 .1-.1.2-.1s.1 0 .2.1c.1 0 .1.1.1.2l-.5 2.4c.2-.2.4-.3.7-.4s.4-.1.6-.1c.2 0 .3.1.4.2s.2.3.2.5zm-.5.2c0-.1-.1-.2-.1-.3s-.2-.1-.3-.1-.3.1-.4.1c-.2.1-.3.2-.5.3.1.2.3.2.4.3s.3 0 .4 0 .2-.1.3-.2.2 0 .2-.1zm5.2-1c.1.1.2.3.2.4s-.1.3-.2.4-.3.2-.5.2-.3-.1-.4-.2-.2-.3-.2-.4.1-.3.2-.4.3-.2.4-.2c.2 0 .4.1.5.2z"
       class="st2"
       id="path168" />
    <path
       d="M358.5 39c.1-.3.1-.5.1-.7s0-.3-.1-.4c0-.1-.1-.2-.2-.2s-.1-.1-.2-.1c-.2 0-.4.1-.6.2s-.3.3-.4.5c0 .2 0 .5-.1.7 0 .3-.1.5-.1.8 0 .1-.1.2-.1.2-.1 0-.2.1-.2.1s-.2 0-.2-.1c-.1 0-.1-.1-.1-.2.1-.5.2-.9.2-1.2s0-.5 0-.7-.1-.3-.2-.3-.1-.1-.2-.1-.2 0-.4.1-.2.1-.3.2c-.1.1-.2.2-.2.3s-.1.2-.1.4l-.2 1.2c0 .1-.1.2-.1.2-.1.1-.2.1-.2.1-.1 0-.2 0-.2-.1s-.1-.1-.1-.3l.5-2.6c0-.1.1-.2.1-.2.1 0 .2-.1.2-.1s.2 0 .2.1c.1 0 .1.1.1.2v.1c.1-.1.3-.2.5-.2s.3-.1.5-.1.4 0 .6.1c.1.1.2.2.3.4.1-.1.2-.2.3-.3.1-.1.2-.1.3-.2s.2-.1.3-.1c.1 0 .2 0 .3 0 .4 0 .7.2.8.5s.1.9 0 1.6c0 .1 0 .2 0 .3s0 .1 0 .1.1 0 .1 0 .1 0 .1 0 .1 0 .2-.1.1-.1.2-.2c.1 0 .1 0 .2 0s.1.1.2.1c0 .1.1.1.1.2s0 .2-.1.2c-.1.1-.2.2-.4.3s-.2.1-.4.1c0 0-.1 0-.2 0s-.2-.1-.3-.1-.2-.2-.2-.4-.4 0-.3-.3zm4.1.3c.1-.1.1-.1.2-.1s.2 0 .2.1.1.1.1.2 0 .1-.1.2c-.2.2-.4.4-.6.5-.2.1-.4.2-.6.2-.2 0-.4 0-.6-.1-.2-.1-.4-.2-.5-.3s-.3-.3-.4-.5-.1-.4-.1-.7c0-.2 0-.4.1-.6.1-.2.2-.4.4-.5.1-.2.3-.3.5-.4s.4-.1.6-.1c.2 0 .4 0 .5.1s.3.2.3.3c.1.1.1.3.1.4s-.1.3-.2.5-.3.4-.5.6c-.2.2-.6.4-1 .5.1.1.2.1.3.2s.2.1.4.1.3 0 .4-.1.4-.4.5-.5zm-.9-1.7c-.2.1-.3.1-.4.2-.1.1-.2.2-.3.3s-.1.2-.1.4 0 .3 0 .4c.3-.1.6-.2.7-.3s.3-.2.4-.3.1-.2.1-.3 0-.1 0-.2-.1-.1-.2-.2c0-.1-.1-.1-.2 0zm4.7.1c0 .1 0 .2 0 .2s-.1.1-.2.1-.2 0-.2 0-.1-.1-.1-.1c-.1-.1-.1-.2-.2-.3s-.2-.1-.3-.1c-.1 0-.1 0-.2 0s-.2 0-.2.1-.1.1-.2.1c0 0-.1.1-.1.1 0 .1 0 .2 0 .2s.1.1.1.1.1.1.2.1.2 0 .3.1c.1 0 .3.1.4.1.1 0 .3.1.4.2.1.1.2.2.2.3s0 .3 0 .5-.1.3-.2.4c-.1.1-.2.2-.4.3-.1.1-.3.1-.5.1s-.3 0-.5 0c-.1 0-.3 0-.4-.1-.1 0-.2-.1-.3-.2s-.2-.2-.2-.3-.1-.2-.1-.4c0-.1 0-.2.1-.3s.1-.1.2-.1.2 0 .2 0 .1.1.1.2 0 .2.1.3.1.1.1.2.1.1.2.1.2 0 .2 0c.2 0 .3 0 .4-.1.1 0 .2-.1.2-.2 0-.2 0-.3-.1-.3s-.2 0-.4 0c-.1 0-.3-.1-.4-.1s-.3-.1-.4-.2c-.1-.1-.2-.2-.3-.3s-.1-.3 0-.5c0-.2.1-.3.2-.4s.2-.2.3-.3.3-.1.4-.2.3 0 .5 0 .4.1.6.2.4.3.5.5zm2.5 2c-.3.2-.5.3-.7.4s-.4.1-.5.1c-.3 0-.5-.1-.7-.2s-.2-.3-.3-.6 0-.6 0-.9.1-.8.2-1.2c0-.1.1-.2.2-.2s.2-.1.2-.1.2 0 .2.1c.1 0 .1.1.1.2-.1.5-.2 1-.2 1.3 0 .3 0 .5 0 .7 0 .1.1.2.2.3s.1.1.2.1.2 0 .4-.1c.1 0 .2-.1.3-.2s.2-.2.2-.3.1-.2.1-.4l.4-1.4c0-.1.1-.2.1-.2.1 0 .2 0 .2 0s.1 0 .2.1.1.1 0 .2c0 0 0 .1 0 .2s-.1.3-.1.4-.1.4-.1.6-.1.4-.1.5c0 .2 0 .3 0 .4s0 .1.1.1c0 0 .1-.1.2-.1s.1-.1.2-.2c.1 0 .1 0 .2 0s.1.1.2.1c0 .1.1.1.1.2s0 .2-.1.2c-.1.1-.2.2-.4.3s-.3.1-.4.1c-.1 0-.2-.1-.3-.2-.1 0-.2-.2-.3-.3zm4.2-1.7c-.1-.1-.2-.2-.3-.2s-.2-.1-.3-.1-.2 0-.4.1-.2.1-.3.2c-.1.1-.2.2-.2.3s-.1.2-.1.4l-.2 1.2c0 .1-.1.2-.1.2-.1.1-.2.1-.2.1-.1 0-.2 0-.2-.1s-.1-.1-.1-.3l.5-2.6c0-.1.1-.2.1-.2.1 0 .2-.1.2-.1s.2 0 .2.1c.1 0 .1.1.1.2v.1c.1-.1.3-.2.5-.2s.3-.1.5-.1.5.1.6.2.3.2.4.4c0 .1 0 .1 0 .2s-.1.1-.1.2-.1.1-.2.1c-.2.1-.3 0-.4-.1zm3.5 1.3c.1-.1.1-.1.2-.1s.2 0 .2.1.1.1.1.2 0 .1-.1.2c-.2.2-.4.4-.6.5-.2.1-.4.2-.6.2-.2 0-.4 0-.6-.1-.2-.1-.4-.2-.5-.3s-.3-.3-.4-.5-.1-.4-.1-.7c0-.2 0-.4.1-.6.1-.2.2-.4.4-.5.1-.2.3-.3.5-.4s.4-.1.6-.1c.2 0 .4 0 .5.1s.3.2.3.3c.1.1.1.3.1.4s-.1.3-.2.5-.3.4-.5.6c-.2.2-.6.4-1 .5.1.1.2.1.3.2s.2.1.4.1.3 0 .4-.1.4-.4.5-.5zm-.9-1.7c-.2.1-.3.1-.4.2-.1.1-.2.2-.3.3s-.1.2-.1.4 0 .3 0 .4c.3-.1.6-.2.7-.3s.3-.2.4-.3.1-.2.1-.3 0-.1 0-.2-.1-.1-.2-.2c0-.1-.1-.1-.2 0zm.4-2.1c.1-.1.2-.1.2-.1s.1 0 .2.1.1.1.1.2 0 .2-.1.2l-.7.6c-.1.1-.2.1-.2.1-.1 0-.1-.1-.2-.1s-.1-.1-.1-.2 0-.1.1-.2l.7-.6zm3.9 3.8c.1-.1.1-.1.2-.1s.2 0 .2.1.1.1.1.2 0 .1-.1.2c-.2.2-.4.4-.6.5-.2.1-.4.2-.6.2-.2 0-.4 0-.6-.1-.2-.1-.4-.2-.5-.3s-.3-.3-.4-.5-.1-.4-.1-.7c0-.2 0-.4.1-.6.1-.2.2-.4.4-.5.1-.2.3-.3.5-.4s.4-.1.6-.1c.2 0 .4 0 .5.1s.3.2.3.3c.1.1.1.3.1.4s-.1.3-.2.5-.3.4-.5.6c-.2.2-.6.4-1 .5.1.1.2.1.3.2s.2.1.4.1.3 0 .4-.1.4-.4.5-.5zm-.9-1.7c-.2.1-.3.1-.4.2-.1.1-.2.2-.3.3s-.1.2-.1.4 0 .3 0 .4c.3-.1.6-.2.7-.3s.3-.2.4-.3.1-.2.1-.3 0-.1 0-.2-.1-.1-.2-.2c0-.1-.1-.1-.2 0zm-1.8-5.1s.1 0 .1 0 .1.1.2.1c.1.1.1.1.2.2s.2.2.3.4c.1-.2.1-.3.2-.4 0-.1.1-.2.1-.2 0-.1.1-.1.1-.1s.1-.1.1-.1c.6 0 1.1 0 1.5-.1.4 0 .7-.1 1-.1.3-.1.4-.1.5-.2.1-.1.2-.2.2-.4 0-.1.1-.3.2-.3.1-.1.2-.1.4-.1.1 0 .2 0 .3.1.1.1.1.1.1.2 0 .4-.2.6-.4.8-.2.2-.5.4-.9.5-.3.1-.7.2-1.1.2-.4 0-.8 0-1.2 0l-.5.8c-.1.1-.1.2-.2.2s-.2.1-.3.1c-.1 0-.2 0-.3-.1-.1 0-.2-.1-.2-.2l-.6-.8c-.4 0-.9 0-1.3 0s-.8 0-1.2-.1c-.4-.1-.7-.2-.9-.4-.3-.2-.4-.5-.5-.8 0-.1 0-.2.1-.2.1-.1.2-.1.3-.1.1 0 .2 0 .3 0 .1 0 .2.1.2.2.1.3.3.5.5.6.2.1.5.2.8.2.3 0 .6 0 1 0 .2.1.6.1.9.1zm14.5 7.3c-.2.2-.4.3-.6.4s-.4.1-.6.1-.4-.1-.5-.1-.3-.2-.4-.3c-.1-.1-.2-.3-.2-.5s0-.4.1-.6c.1-.3.3-.5.5-.7s.4-.4.6-.5c.2-.2.5-.3.7-.3.3-.1.5-.1.7-.1 0-.2.1-.4.1-.6s.1-.4.1-.7.1-.4.1-.5 0-.2 0-.2c0-.1.1-.2.1-.2.1 0 .1-.1.2-.1s.1 0 .2.1.1.1.1.3c-.2.7-.3 1.4-.4 1.9s-.2.9-.2 1.3c-.1.4-.1.6-.1.8s0 .3 0 .4 0 .1.1.1.1 0 .1 0c.1-.1.2-.1.3-.3.1 0 .1 0 .2 0s.1.1.2.1c0 .1.1.1.1.2s0 .2-.1.2c-.1.1-.2.2-.4.3s-.3.1-.4.1c-.1 0-.2 0-.3-.1s-.2-.4-.3-.5zm-1.7-.9c-.1.2 0 .4.1.6s.3.2.5.2c.3 0 .5-.1.7-.3.2-.2.3-.4.4-.6l.2-1.2c-.2 0-.4 0-.6.1-.2.1-.4.2-.6.3-.2.1-.3.3-.4.4s-.3.4-.3.5zm5.9.4c.1-.1.1-.1.2-.1s.2 0 .2.1.1.1.1.2 0 .1-.1.2c-.2.2-.4.4-.6.5-.2.1-.4.2-.6.2-.2 0-.4 0-.6-.1-.2-.1-.4-.2-.5-.3s-.3-.3-.4-.5-.1-.4-.1-.7c0-.2 0-.4.1-.6.1-.2.2-.4.4-.5.1-.2.3-.3.5-.4s.4-.1.6-.1c.2 0 .4 0 .5.1s.3.2.3.3c.1.1.1.3.1.4s-.1.3-.2.5-.3.4-.5.6c-.2.2-.6.4-1 .5.1.1.2.1.3.2s.2.1.4.1.3 0 .4-.1.4-.4.5-.5zm-.9-1.7c-.2.1-.3.1-.4.2-.1.1-.2.2-.3.3s-.1.2-.1.4 0 .3 0 .4c.3-.1.6-.2.7-.3s.3-.2.4-.3.1-.2.1-.3 0-.1 0-.2-.1-.1-.2-.2c0-.1-.1-.1-.2 0zm.5-2.1c.1-.1.2-.1.2-.1s.1 0 .2.1.1.1.1.2 0 .2-.1.2l-.7.6c-.1.1-.2.1-.2.1-.1 0-.1-.1-.2-.1s-.1-.1-.1-.2 0-.1.1-.2l.7-.6zm2.1 4.3c0-.1 0-.2 0-.3 0-.1 0-.2 0-.4s.1-.4.1-.6.1-.6.2-1.1h-.6c-.1 0-.2 0-.2-.1s0-.1 0-.2 0-.2.1-.2c.1-.1.1-.1.2-.1h.7c0-.2.1-.5.1-.7s.1-.4.1-.6c0-.2.1-.3.1-.5 0-.1.1-.2.1-.2s.1-.1.2-.1.1 0 .2.1.1.1.1.3c-.1.3-.1.7-.2 1-.1.3-.1.6-.2.8h.8c.1 0 .2.1.2.1s0 .2 0 .2c0 .1-.1.1-.1.2s-.2.1-.3.1h-.8c0 .1-.1.3-.1.4s0 .2-.1.3c-.1.4-.1.6-.1.8s0 .3 0 .4 0 .1 0 .1 0 0 .1 0c0 0 .1 0 .2-.1s.2-.1.2-.2c.1 0 .1 0 .2 0s.1.1.2.1c0 .1.1.1.1.2s0 .2-.1.2c-.1.1-.3.2-.4.3s-.3.1-.4.1c-.1 0-.2 0-.3-.1-.2.1-.3 0-.3-.2zm4.6-.5c.1-.1.1-.1.2-.1s.2 0 .2.1.1.1.1.2 0 .1-.1.2c-.2.2-.4.4-.6.5-.2.1-.4.2-.6.2-.2 0-.4 0-.6-.1-.2-.1-.4-.2-.5-.3s-.3-.3-.4-.5-.1-.4-.1-.7c0-.2 0-.4.1-.6.1-.2.2-.4.4-.5.1-.2.3-.3.5-.4s.4-.1.6-.1c.2 0 .4 0 .5.1s.3.2.3.3c.1.1.1.3.1.4s-.1.3-.2.5-.3.4-.5.6c-.2.2-.6.4-1 .5.1.1.2.1.3.2s.2.1.4.1.3 0 .4-.1.3-.4.5-.5zm-1-1.7c-.2.1-.3.1-.4.2-.1.1-.2.2-.3.3s-.1.2-.1.4 0 .3 0 .4c.3-.1.6-.2.7-.3s.3-.2.4-.3.1-.2.1-.3 0-.1 0-.2-.1-.1-.2-.2c0-.1-.1-.1-.2 0zm4.5.4c-.1-.1-.2-.2-.3-.2s-.2-.1-.3-.1-.2 0-.4.1-.2.1-.3.2c-.1.1-.2.2-.2.3s-.1.2-.1.4l-.2 1.2c0 .1-.1.2-.1.2-.1.1-.2.1-.2.1-.1 0-.2 0-.2-.1s-.1-.1-.1-.3l.5-2.6c0-.1.1-.2.1-.2.1 0 .2-.1.2-.1s.2 0 .2.1c.1 0 .1.1.1.2v.1c.1-.1.3-.2.5-.2s.3-.1.5-.1.5.1.6.2.3.2.4.4c0 .1 0 .1 0 .2s-.1.1-.1.2-.1.1-.2.1c-.3.1-.4 0-.4-.1zm5.2 1c.1-.3.1-.5.1-.7s0-.3-.1-.4c0-.1-.1-.2-.2-.2s-.1-.1-.2-.1c-.2 0-.4.1-.6.2s-.3.3-.4.5c0 .2 0 .5-.1.7 0 .3-.1.5-.1.8 0 .1-.1.2-.1.2-.1 0-.2.1-.2.1s-.2 0-.2-.1c-.1 0-.1-.1-.1-.2.1-.5.2-.9.2-1.2s0-.5 0-.7-.1-.3-.2-.3-.1-.1-.2-.1-.2 0-.4.1-.2.1-.3.2c-.1.1-.2.2-.2.3s-.1.2-.1.4l-.2 1.2c0 .1-.1.2-.1.2-.1.1-.2.1-.2.1-.1 0-.2 0-.2-.1s-.1-.1-.1-.3l.5-2.6c0-.1.1-.2.1-.2.1 0 .2-.1.2-.1s.2 0 .2.1c.1 0 .1.1.1.2v.1c.1-.1.3-.2.5-.2s.3-.1.5-.1.4 0 .6.1c.1.1.2.2.3.4.1-.1.2-.2.3-.3.1-.1.2-.1.3-.2s.2-.1.3-.1c.1 0 .2 0 .3 0 .4 0 .7.2.8.5s.1.9 0 1.6c0 .1 0 .2 0 .3s0 .1 0 .1.1 0 .1 0 .1 0 .1 0 .1 0 .2-.1.1-.1.2-.2c.1 0 .1 0 .2 0s.1.1.2.1c0 .1.1.1.1.2s0 .2-.1.2c-.1.1-.2.2-.4.3s-.2.1-.4.1c0 0-.1 0-.2 0s-.2-.1-.3-.1-.2-.2-.2-.4-.4 0-.3-.3zm2.1-1.7c0-.1.1-.2.2-.2s.2-.1.2 0 .1 0 .2.1.1.1 0 .2c-.1.2-.2.5-.3.8s-.1.5-.1.8 0 .4 0 .6.1.2.2.2.1-.1.2-.1.1-.1.2-.2c0 0 .1-.1.2 0s.1.1.2.1.1.1.1.2 0 .1-.1.2-.2.2-.4.3-.3.1-.5.1-.4-.1-.5-.2c-.1-.1-.2-.3-.2-.5s0-.4 0-.7.1-.5.1-.7.1-.4.1-.6c.2-.3.2-.4.2-.4zm.2-.9c0-.1.1-.2.2-.3s.2-.1.3-.1.2 0 .3.1.1.2.1.3c0 .1-.1.2-.2.3-.1.1-.2.1-.3.1s-.2 0-.3-.1c-.1-.1-.1-.2-.1-.3zm3.6 2.6c.1-.3.1-.5.1-.7s0-.3-.1-.4c0-.1-.1-.2-.2-.2s-.1-.1-.2-.1c-.2 0-.4.1-.6.2s-.3.3-.4.5l-.3 1.5c0 .1-.1.2-.1.2-.1.1-.1.1-.2.1s-.1 0-.2-.1-.1-.1-.1-.3l.5-2.6c0-.1.1-.2.1-.2.1 0 .2-.1.2-.1s.2 0 .2.1c.1 0 .1.1.1.2v.2c.2-.1.3-.2.5-.3s.3-.1.4-.1c.4 0 .7.2.8.5s.1.9 0 1.6c0 .1 0 .2 0 .3s0 .1 0 .1.1 0 .1 0 .1 0 .1 0 .1 0 .2-.1.1-.1.2-.2c.1 0 .1 0 .2 0s.1.1.2.1c0 .1.1.1.1.2s0 .2-.1.2c-.1.1-.2.2-.4.3s-.2.1-.4.1c0 0-.1 0-.2 0s-.2-.1-.3-.1-.2-.2-.2-.4 0-.2 0-.5zm4.3.3c.1-.1.1-.1.2-.1s.2 0 .2.1.1.1.1.2 0 .1-.1.2c-.2.2-.4.4-.6.5-.2.1-.4.2-.6.2-.2 0-.4 0-.6-.1-.2-.1-.4-.2-.5-.3s-.3-.3-.4-.5-.1-.4-.1-.7c0-.2 0-.4.1-.6.1-.2.2-.4.4-.5.1-.2.3-.3.5-.4s.4-.1.6-.1c.2 0 .4 0 .5.1s.3.2.3.3c.1.1.1.3.1.4s-.1.3-.2.5-.3.4-.5.6c-.2.2-.6.4-1 .5.1.1.2.1.3.2s.2.1.4.1.3 0 .4-.1.4-.4.5-.5zm-.9-1.7c-.2.1-.3.1-.4.2-.1.1-.2.2-.3.3s-.1.2-.1.4 0 .3 0 .4c.3-.1.6-.2.7-.3s.3-.2.4-.3.1-.2.1-.3 0-.1 0-.2-.1-.1-.2-.2c0-.1-.1-.1-.2 0zm.5-2.1c.1-.1.2-.1.2-.1s.1 0 .2.1.1.1.1.2 0 .2-.1.2l-.7.6c-.1.1-.2.1-.2.1-.1 0-.1-.1-.2-.1s-.1-.1-.1-.2 0-.1.1-.2l.7-.6zm3.9 3.8c.1-.1.1-.1.2-.1s.2 0 .2.1.1.1.1.2 0 .1-.1.2c-.2.2-.4.4-.6.5-.2.1-.4.2-.6.2-.2 0-.4 0-.6-.1-.2-.1-.4-.2-.5-.3s-.3-.3-.4-.5-.1-.4-.1-.7c0-.2 0-.4.1-.6.1-.2.2-.4.4-.5.1-.2.3-.3.5-.4s.4-.1.6-.1c.2 0 .4 0 .5.1s.3.2.3.3c.1.1.1.3.1.4s-.1.3-.2.5-.3.4-.5.6c-.2.2-.6.4-1 .5.1.1.2.1.3.2s.2.1.4.1.3 0 .4-.1.3-.4.5-.5zm-1-1.7c-.2.1-.3.1-.4.2-.1.1-.2.2-.3.3s-.1.2-.1.4 0 .3 0 .4c.3-.1.6-.2.7-.3s.3-.2.4-.3.1-.2.1-.3 0-.1 0-.2-.1-.1-.2-.2c0-.1-.1-.1-.2 0zm-34.4 8.7c0-.1 0-.4 0-.7s.1-.6.1-1c.1-.4.1-.7.2-1.1s.1-.7.2-1 .1-.6.2-.8.1-.3.1-.3c0-.1.1-.2.1-.2.1 0 .1-.1.2-.1s.1 0 .2.1.1.1.1.3c-.2.7-.3 1.4-.4 1.9s-.2.9-.2 1.3c-.1.4-.1.6-.1.8s0 .3 0 .4 0 .1.1.1c0 0 .1 0 .1 0s.1 0 .2-.1.1-.1.2-.2c.1 0 .1 0 .2 0s.1.1.2.1c0 .1.1.1.1.2s0 .2-.1.2c-.1.1-.2.2-.4.3s-.3.1-.4.1c-.1 0-.2 0-.3-.1-.4.1-.5-.1-.6-.2zm1.9-1.2c0-.2.1-.4.2-.6s.2-.4.4-.5.3-.3.5-.3c.2-.1.4-.1.6-.1.3 0 .5.1.7.2s.3.3.3.5c.1.2.1.4.1.7s-.1.5-.2.7c-.1.2-.2.4-.3.5s-.3.3-.5.4c-.2.1-.4.2-.5.2-.2 0-.4 0-.6-.1-.3-.1-.4-.3-.5-.6s-.3-.6-.2-1zm.6 0c0 .2 0 .4 0 .5s.1.3.3.3c.1 0 .3 0 .4 0 .1 0 .2-.1.3-.2.1-.1.2-.2.3-.3s.1-.2.1-.4c0-.1 0-.2 0-.4s0-.2-.1-.3-.1-.1-.2-.2-.2-.1-.3-.1c-.1 0-.2 0-.3.1-.1.1-.2.1-.3.2s-.2.2-.2.3c0 .3 0 .4 0 .5zm5.1-.6c-.1-.1-.2-.2-.3-.2s-.2-.1-.3-.1-.2 0-.4.1-.2.1-.3.2c-.1.1-.2.2-.2.3s-.1.2-.1.4l-.2 1.2c0 .1-.1.2-.1.2-.1.1-.2.1-.2.1-.1 0-.2 0-.2-.1s-.1-.1-.1-.3l.5-2.6c0-.1.1-.2.1-.2.1 0 .2-.1.2-.1s.2 0 .2.1c.1 0 .1.1.1.2v.1c.1-.1.3-.2.5-.2s.3-.1.5-.1.5.1.6.2.3.2.4.4c0 .1 0 .1 0 .2s-.1.1-.1.2-.1.1-.2.1c-.3.1-.4 0-.4-.1zm3.6-.3c0 .1 0 .2 0 .2s-.1.1-.2.1-.2 0-.2 0-.1-.1-.1-.1c-.1-.1-.1-.2-.2-.3s-.2-.1-.3-.1c-.1 0-.1 0-.2 0s-.2 0-.2.1-.1.1-.2.1c0 0-.1.1-.1.1 0 .1 0 .2 0 .2s.1.1.1.1.1.1.2.1.2 0 .3.1c.1 0 .3.1.4.1.1 0 .3.1.4.2.1.1.2.2.2.3s0 .3 0 .5-.1.3-.2.4c-.1.1-.2.2-.4.3-.1.1-.3.1-.5.1s-.3 0-.5 0c-.1 0-.3 0-.4-.1-.1 0-.2-.1-.3-.2s-.2-.2-.2-.3-.1-.2-.1-.4c0-.1 0-.2.1-.3s.1-.1.2-.1.2 0 .2 0 .1.1.1.2 0 .2.1.3.1.1.1.2.1.1.2.1.2 0 .2 0c.2 0 .3 0 .4-.1.1 0 .2-.1.2-.2 0-.2 0-.3-.1-.3s-.2-.1-.4-.1c-.1 0-.3-.1-.4-.1s-.3-.1-.4-.2c-.1-.1-.2-.2-.3-.3s-.1-.3 0-.5c0-.2.1-.3.2-.4s.2-.2.3-.3.3-.1.4-.2.3 0 .5 0 .4.1.6.2.4.4.5.6zm4.9 2.1c-.2.2-.4.3-.6.4s-.4.1-.6.1-.4-.1-.5-.1-.3-.2-.4-.3c-.1-.1-.2-.3-.2-.5s0-.4.1-.6c.1-.3.3-.5.5-.7s.4-.4.6-.5c.2-.2.5-.3.7-.3.3-.1.5-.1.7-.1 0-.2.1-.4.1-.6s.1-.4.1-.7.1-.4.1-.5 0-.2 0-.2c0-.1.1-.2.1-.2.1 0 .1-.1.2-.1s.1 0 .2.1.1.1.1.3c-.2.7-.3 1.4-.4 1.9s-.2.9-.2 1.3c-.1.4-.1.6-.1.8s0 .3 0 .4 0 .1.1.1.1 0 .1 0c.1-.1.2-.1.3-.3.1 0 .1 0 .2 0s.1.1.2.1c0 .1.1.1.1.2s0 .2-.1.2c-.1.1-.2.2-.4.3s-.3.1-.4.1c-.1 0-.2 0-.3-.1s-.2-.4-.3-.5zm-1.7-.9c-.1.2 0 .4.1.6s.3.2.5.2c.3 0 .5-.1.7-.3.2-.2.3-.4.4-.6l.2-1.2c-.2 0-.4 0-.6.1-.2.1-.4.2-.6.3-.2.1-.3.3-.4.4s-.3.4-.3.5zm5.9.4c.1-.1.1-.1.2-.1s.2 0 .2.1.1.1.1.2 0 .1-.1.2c-.2.2-.4.4-.6.5-.2.1-.4.2-.6.2-.2 0-.4 0-.6-.1-.2-.1-.4-.2-.5-.3s-.3-.3-.4-.5-.1-.4-.1-.7c0-.2 0-.4.1-.6.1-.2.2-.4.4-.5.1-.2.3-.3.5-.4s.4-.1.6-.1c.2 0 .4 0 .5.1s.3.2.3.3c.1.1.1.3.1.4s-.1.3-.2.5-.3.4-.5.6c-.2.2-.6.4-1 .5.1.1.2.1.3.2s.2.1.4.1.3 0 .4-.1.4-.4.5-.5zm-.9-1.7c-.2.1-.3.1-.4.2-.1.1-.2.2-.3.3s-.1.2-.1.4 0 .3 0 .4c.3-.1.6-.2.7-.3s.3-.2.4-.3.1-.2.1-.3 0-.1 0-.2-.1-.1-.2-.2c0-.1-.1-.1-.2 0zm-19.4 8.7c0-.1 0-.4 0-.7s.1-.6.1-1c.1-.4.1-.7.2-1.1s.1-.7.2-1c.1-.3.1-.6.2-.8s0-.2 0-.2c0-.1.1-.2.1-.2.1 0 .1-.1.2-.1s.1 0 .2.1.1.1.1.3c-.2.7-.3 1.4-.4 1.9s-.2.9-.2 1.3c-.1.4-.1.6-.1.8s0 .3 0 .4 0 .1.1.1c0 0 .1 0 .1 0s.1 0 .2-.1.1-.1.2-.2c.1 0 .1 0 .2 0s.1.1.2.1c0 .1.1.1.1.2s0 .2-.1.2c-.1.1-.2.2-.4.3s-.3.1-.4.1c-.1 0-.2 0-.3-.1-.3 0-.4-.2-.5-.3zm2.4-4.6c0-.1.1-.2.2-.2s.2-.1.2-.1.1 0 .2.1.1.1.1.2l-.2 1.1c0 .1-.1.2-.1.2-.1 0-.2.1-.2.1s-.1 0-.2-.1c-.1 0-.1-.1-.1-.2l.1-1.1zm3.6 4.1c.1-.1.1-.1.2-.1s.2 0 .2.1.1.1.1.2 0 .1-.1.2c-.2.2-.4.4-.6.5-.2.1-.4.2-.6.2-.2 0-.4 0-.6-.1-.2-.1-.4-.2-.5-.3s-.3-.3-.4-.5-.1-.4-.1-.7c0-.2 0-.4.1-.6.1-.2.2-.4.4-.5.1-.2.3-.3.5-.4s.4-.1.6-.1c.2 0 .4 0 .5.1s.3.2.3.3c.1.1.1.3.1.4s-.1.3-.2.5-.3.4-.5.6c-.2.2-.6.4-1 .5.1.1.2.1.3.2s.2.1.4.1.3 0 .4-.1.4-.4.5-.5zm-.9-1.7c-.2.1-.3.1-.4.2-.1.1-.2.2-.3.3s-.1.2-.1.4 0 .3 0 .4c.3-.1.6-.2.7-.3s.3-.2.4-.3.1-.2.1-.3 0-.1 0-.2-.1-.1-.2-.2-.2-.1-.2 0zm.4-2.1c.1-.1.2-.1.2-.1s.1 0 .2.1.1.1.1.2 0 .2-.1.2l-.7.6c-.1.1-.2.1-.2.1-.1 0-.1-.1-.2-.1s-.1-.1-.1-.2 0-.1.1-.2l.7-.6zm2.1 4.3c0-.1 0-.2 0-.3 0-.1 0-.2 0-.4s.1-.4.1-.6.1-.6.2-1.1h-.6c-.1 0-.2 0-.2-.1s0-.1 0-.2 0-.2.1-.2c.1-.1.1-.1.2-.1h.7c0-.2.1-.5.1-.7 0-.2.1-.4.1-.6 0-.2.1-.3.1-.5 0-.1.1-.2.1-.2s.1-.1.2-.1.1 0 .2.1.1.1.1.3c-.1.3-.1.7-.2 1-.1.3-.1.6-.2.8h.8c.1 0 .2.1.2.1s0 .2 0 .2c0 .1-.1.1-.1.2s-.2.1-.3.1h-.8c0 .1-.1.3-.1.4s0 .2-.1.3c-.1.4-.1.6-.1.8s0 .3 0 .4 0 .1 0 .1 0 0 .1 0c0 0 .1 0 .2-.1s.2-.1.2-.2c.1 0 .1 0 .2 0s.1.1.2.1c0 .1.1.1.1.2s0 .2-.1.2c-.1.1-.3.2-.4.3s-.3.1-.4.1c-.1 0-.2 0-.3-.1-.2.1-.3 0-.3-.2zm4.1.1c-.2.1-.4.2-.5.3-.2 0-.4.1-.5.1-.2 0-.3-.1-.5-.1s-.3-.2-.3-.3-.1-.3-.1-.4c0-.2 0-.4.1-.6.1-.3.3-.5.5-.7.2-.2.4-.4.6-.5.2-.1.5-.3.7-.3s.5-.1.8-.1c.1 0 .2 0 .3.1s.1.2.1.4 0 .4-.1.6c0 .2-.1.4-.1.6 0 .1-.1.2-.1.3 0 .1-.1.2-.1.3s0 .2 0 .2.1 0 .3 0c.1-.1.2-.1.3-.3.1 0 .1 0 .2 0s.1.1.2.1c0 .1.1.1.1.2s0 .2-.1.2c-.1.1-.2.2-.4.3-.1.1-.3.1-.4.1s-.3 0-.4-.1-.5-.3-.6-.4zm-1.3-1c0 .1 0 .2 0 .3s0 .2.1.3.1.1.2.2.2 0 .3 0c.2 0 .3-.1.5-.3s.3-.3.4-.5c.1-.2.2-.4.2-.6.1-.2.1-.4.1-.6-.2 0-.5.1-.7.2-.2.1-.4.2-.5.3s-.3.3-.4.4c-.1.1-.2.2-.2.3zm3.5.9c0-.1 0-.4 0-.7s.1-.6.1-1c.1-.4.1-.7.2-1.1s.1-.7.2-1c.1-.3.1-.6.2-.8s.1-.3.1-.3c0-.1.1-.2.1-.2.1 0 .1-.1.2-.1s.1 0 .2.1.1.1.1.3c-.2.7-.3 1.4-.4 1.9s-.2.9-.2 1.3c-.1.4-.1.6-.1.8s0 .3 0 .4 0 .1.1.1c0 0 .1 0 .1 0s.1 0 .2-.1.1-.1.2-.2c.1 0 .1 0 .2 0s.1.1.2.1c0 .1.1.1.1.2s0 .2-.1.2c-.1.1-.2.2-.4.3s-.3.1-.4.1c-.1 0-.2 0-.3-.1-.5.1-.6-.1-.6-.2zm1.8-1.2c0-.2.1-.4.2-.6s.2-.4.4-.5.3-.3.5-.3c.2-.1.4-.1.6-.1.3 0 .5.1.7.2s.3.3.3.5c.1.2.1.4.1.7s-.1.5-.2.7c-.1.2-.2.4-.3.5s-.3.3-.5.4c-.2.1-.4.2-.5.2-.2 0-.4 0-.6-.1-.3-.1-.4-.3-.5-.6s-.3-.6-.2-1zm.6 0c0 .2 0 .4 0 .5s.1.3.3.3c.1 0 .3 0 .4 0 .1 0 .2-.1.3-.2.1-.1.2-.2.3-.3s.1-.2.1-.4c0-.1 0-.2 0-.4s0-.2-.1-.3-.1-.1-.2-.2-.2-.1-.3-.1c-.1 0-.2 0-.3.1-.1.1-.2.1-.3.2s-.2.2-.2.3c.1.3 0 .4 0 .5zm4.7.4c.1-.3.1-.5.1-.7s0-.3-.1-.4c0-.1-.1-.2-.2-.2s-.1-.1-.2-.1c-.2 0-.4.1-.6.2s-.3.3-.4.5l-.3 1.5c0 .1-.1.2-.1.2-.1.1-.1.1-.2.1s-.1 0-.2-.1-.1-.1-.1-.3l.5-2.6c0-.1.1-.2.1-.2.1 0 .2-.1.2-.1s.2 0 .2.1c.1 0 .1.1.1.2v.2c.2-.1.3-.2.5-.3s.3-.1.4-.1c.4 0 .7.2.8.5s.1.9 0 1.6c0 .1 0 .2 0 .3s0 .1 0 .1.1 0 .1 0 .1 0 .1 0 .1 0 .2-.1.1-.1.2-.2c.1 0 .1 0 .2 0s.1.1.2.1c0 .1.1.1.1.2s0 .2-.1.2c-.1.1-.2.2-.4.3s-.2.1-.4.1c0 0-.1 0-.2 0s-.2-.1-.3-.1-.2-.2-.2-.4-.1-.2 0-.5zm4.1 0c.1-.3.1-.5.1-.7s0-.3-.1-.4c0-.1-.1-.2-.2-.2s-.1-.1-.2-.1c-.2 0-.4.1-.6.2s-.3.3-.4.5l-.3 1.5c0 .1-.1.2-.1.2-.1.1-.1.1-.2.1s-.1 0-.2-.1-.1-.1-.1-.3l.5-2.6c0-.1.1-.2.1-.2.1 0 .2-.1.2-.1s.2 0 .2.1c.1 0 .1.1.1.2v.2c.2-.1.3-.2.5-.3s.3-.1.4-.1c.4 0 .7.2.8.5s.1.9 0 1.6c0 .1 0 .2 0 .3s0 .1 0 .1.1 0 .1 0 .1 0 .1 0 .1 0 .2-.1.1-.1.2-.2c.1 0 .1 0 .2 0s.1.1.2.1c0 .1.1.1.1.2s0 .2-.1.2c-.1.1-.2.2-.4.3s-.2.1-.4.1c0 0-.1 0-.2 0s-.2-.1-.3-.1-.2-.2-.2-.4 0-.2 0-.5zm3.9.9c-.2.1-.4.2-.5.3-.2 0-.4.1-.5.1-.2 0-.3-.1-.5-.1s-.3-.2-.3-.3-.1-.3-.1-.4c0-.2 0-.4.1-.6.1-.3.3-.5.5-.7.2-.2.4-.4.6-.5.2-.1.5-.3.7-.3s.5-.1.8-.1c.1 0 .2 0 .3.1s.1.2.1.4 0 .4-.1.6c0 .2-.1.4-.1.6 0 .1-.1.2-.1.3 0 .1-.1.2-.1.3s0 .2 0 .2.1 0 .3 0c.1-.1.2-.1.3-.3.1 0 .1 0 .2 0s.1.1.2.1c0 .1.1.1.1.2s0 .2-.1.2c-.1.1-.2.2-.4.3-.1.1-.3.1-.4.1s-.3 0-.4-.1-.5-.3-.6-.4zm-1.3-1c0 .1 0 .2 0 .3s0 .2.1.3.1.1.2.2.2 0 .3 0c.2 0 .3-.1.5-.3s.3-.3.4-.5c.1-.2.2-.4.2-.6.1-.2.1-.4.1-.6-.2 0-.5.1-.7.2-.2.1-.4.2-.5.3s-.3.3-.4.4c-.1.1-.2.2-.2.3zm4.6 2.8c.2 0 .3 0 .5-.2s.2-.3.3-.5.2-.4.2-.6.1-.4.1-.6c-.3.2-.5.3-.8.3-.3 0-.5 0-.8-.2-.2-.1-.4-.3-.5-.5s-.1-.5 0-.8c.1-.3.3-.5.5-.7s.4-.4.7-.5c.2-.1.5-.2.8-.3s.5-.1.8-.1c.1 0 .2.1.3.2.1.1.1.2.1.4s0 .3 0 .5-.1.4-.1.5c0 .2-.1.5-.1.7 0 .3-.1.5-.2.8s-.1.6-.2.8c-.1.3-.2.5-.4.7-.1.2-.3.4-.5.5s-.5.2-.8.2c-.2 0-.5-.1-.6-.2-.2-.1-.3-.3-.5-.5-.1-.1-.1-.2 0-.2s.1-.1.2-.2.2-.1.3-.1.2 0 .2.1c.1.2.2.3.3.4s0 .1.2.1zm-.4-2.8c0 .2 0 .4.1.5s.3.2.5.2c.1 0 .3 0 .4-.1.1 0 .3-.1.4-.3s.2-.3.3-.6.2-.6.2-1c-.2 0-.4 0-.7.1-.2.1-.4.2-.6.3s-.3.3-.4.4c-.1.2-.1.4-.2.5zm5.3.4c.1-.1.1-.1.2-.1s.2 0 .2.1.1.1.1.2 0 .1-.1.2c-.2.2-.4.4-.6.5-.2.1-.4.2-.6.2-.2 0-.4 0-.6-.1-.2-.1-.4-.2-.5-.3s-.3-.3-.4-.5-.1-.4-.1-.7c0-.2 0-.4.1-.6.1-.2.2-.4.4-.5.1-.2.3-.3.5-.4s.4-.1.6-.1c.2 0 .4 0 .5.1s.3.2.3.3c.1.1.1.3.1.4s-.1.3-.2.5-.3.4-.5.6c-.2.2-.6.4-1 .5.1.1.2.1.3.2s.2.1.4.1.3 0 .4-.1.4-.4.5-.5zm-.9-1.7c-.2.1-.3.1-.4.2-.1.1-.2.2-.3.3s-.1.2-.1.4 0 .3 0 .4c.3-.1.6-.2.7-.3s.3-.2.4-.3.1-.2.1-.3 0-.1 0-.2-.1-.1-.2-.2-.1-.1-.2 0zm-35.1-18.1s.1 0 .1 0 .1.1.2.1c.1.1.1.1.2.2s.2.2.3.4c.1-.2.1-.3.2-.4 0-.1.1-.2.1-.2 0-.1.1-.1.1-.1s.1-.1.1-.1c.6 0 1.1 0 1.5-.1.4 0 .7-.1 1-.1.3-.1.4-.1.5-.2.1-.1.2-.2.2-.4 0-.1.1-.3.2-.3.1-.1.2-.1.4-.1.1 0 .2 0 .3.1.1.1.1.1.1.2 0 .4-.2.6-.4.8-.2.2-.5.4-.9.5-.3.1-.7.2-1.1.2-.4 0-.8 0-1.2 0l-.5.8c-.1.1-.1.2-.2.2s-.2.1-.3.1c-.1 0-.2 0-.3-.1-.1 0-.2-.1-.2-.2l-.6-.8c-.4 0-.9 0-1.3 0s-.8 0-1.2-.1c-.4-.1-.7-.2-.9-.4-.3-.2-.4-.5-.5-.8 0-.1 0-.2.1-.2.1-.1.2-.1.3-.1.1 0 .2 0 .3 0 .1 0 .2.1.2.2.1.3.3.5.5.6.2.1.5.2.8.2.3 0 .6 0 1 0 .2.1.6.1.9.1z"
       class="st3"
       id="path170" />
    <path
       d="M406.2 28.3c.1-.1.1-.2.2-.2s.2 0 .2 0c.1 0 .1.1.1.2s0 .2-.1.3c-.1.2-.2.4-.4.5-.1.2-.3.3-.5.4-.2.1-.3.2-.5.3s-.3.1-.5.1c-.3 0-.5-.1-.7-.2s-.4-.3-.5-.6-.2-.5-.3-.9 0-.7 0-1.1c.1-.4.2-.7.3-1.1s.4-.6.6-.9c.2-.3.5-.5.7-.6s.5-.2.8-.2c.4 0 .7.1.9.3s.4.5.5 1c0 .1 0 .1 0 .2s-.1.1-.2.2c-.1 0-.2.1-.3 0-.1 0-.1-.1-.2-.2-.1-.3-.2-.5-.3-.6s-.3-.2-.6-.2c-.2 0-.3.1-.5.2s-.3.3-.5.5c-.1.2-.3.4-.4.7-.1.3-.2.5-.2.8s-.1.5 0 .8c0 .2.1.4.2.6s.2.3.3.4.3.1.5.1.5-.1.7-.3.6-.2.7-.5zm3.6 1.1c-.3.2-.5.3-.7.4s-.4.1-.5.1c-.3 0-.5-.1-.7-.2s-.2-.3-.3-.6 0-.6 0-.9.1-.8.2-1.2c0-.1.1-.2.2-.2s.2-.1.3-.1.2 0 .2.1c.1 0 .1.1.1.2-.1.5-.2 1-.2 1.3 0 .3 0 .5 0 .7 0 .1.1.2.2.3s.1.1.2.1.2 0 .4-.1c.1 0 .2-.1.3-.2s.2-.2.2-.3.1-.2.1-.4l.4-1.4c0-.1.1-.2.1-.2.1 0 .2 0 .2 0s.1 0 .2.1.1.1 0 .2c0 0 0 .1 0 .2s-.1.3-.1.4-.1.4-.1.6-.1.4-.1.5c0 .2 0 .3 0 .4s0 .1.1.1c0 0 .1-.1.2-.1s.1-.1.2-.2c.1 0 .1 0 .2 0s.1.1.2.1c0 .1.1.1.1.2s0 .2-.1.2c-.1.1-.2.2-.4.3s-.3.1-.4.1c-.1 0-.2-.1-.3-.2-.3 0-.3-.1-.4-.3zm1.9-2.8c-.1 0-.1 0-.1-.1 0 0 0-.1 0-.1s0-.1 0-.1.1-.1.1-.1c.2-.2.4-.4.6-.6.2-.2.4-.4.6-.6s.3-.4.4-.6c.1-.2.2-.4.2-.5 0-.1 0-.3-.1-.3-.1-.1-.2-.1-.3-.2-.1 0-.1 0-.2 0s-.2 0-.2.1c-.1 0-.1.1-.2.2s-.1.1-.2.2c0 .1-.1.1-.1.1-.1 0-.1 0-.1 0s-.1 0-.1-.1c0 0 0-.1 0-.2.1-.1.2-.3.3-.4.1-.1.2-.2.4-.2s.3-.1.4-.1c.1 0 .3 0 .4 0 .1 0 .2.1.3.1.1.1.2.1.2.2.1.1.1.2.1.3 0 .1 0 .2 0 .4s-.1.4-.2.6c-.1.2-.2.4-.4.6-.1.2-.3.4-.5.5s-.3.3-.5.5h1.2c.1 0 .1 0 .1.1 0 0 0 .1 0 .1s0 .1-.1.1c0 0-.1.1-.1 0l-1.9.1zm3.1-1.2h-.5c-.1 0-.1 0-.1-.1 0 0 0-.1 0-.1 0-.1 0-.1.1-.1s.1-.1.1-.1h.5l.1-.5c0-.1.1-.1.1-.1.1 0 .1 0 .2 0s.1 0 .1.1c0 0 0 .1 0 .1l-.1.5h.5c.1 0 .1 0 .1.1 0 0 0 .1 0 .2s0 .1-.1.1-.1.1-.1 0h-.5l-.1.5c0 .1 0 .1-.1.1 0 0-.1 0-.2 0s-.1 0-.1 0-.1-.1 0-.1l.1-.6zm-11 7h-2.3c-.1 0-.2 0-.3-.1-.1-.1-.1-.2-.1-.3l1-10.8c0-.2.2-.3.4-.3h2.3c.2 0 .4.2.4.4s-.2.4-.4.4h-2l-.9 10h1.9c.2 0 .4.2.4.4s-.2.3-.4.3zm13.3 0h-2.3c-.2 0-.4-.2-.4-.4s.2-.4.4-.4h2l.9-10h-1.9c-.2 0-.4-.2-.4-.4s.2-.4.4-.4h2.3c.1 0 .2 0 .3.1.1.1.1.2.1.3l-1 10.8c-.1.3-.3.4-.4.4zM32.4 29l-.3-.4c.2-.1 15.1-8.6 31.3-.8l-.2.5c-15.8-7.7-30.6.7-30.8.7zm30.1 0l2.5-.2-1.4-2zm80-2l-.3-.4c.1-.1 15.1-8.6 31.3-.8l-.2.5c-15.9-7.7-30.7.6-30.8.7zm30 0l2.5-.2-1.4-2.1zm63.6 0l-.2-.4c.2-.1 15.1-8.6 31.3-.8l-.2.5c-15.9-7.7-30.7.6-30.9.7zm30.1 0l2.5-.2-1.4-2.1zm55.9 0l-.2-.4c.1-.1 15.1-8.6 31.3-.8l-.2.5c-15.9-7.7-30.7.6-30.9.7zm30.1 0l2.5-.2-1.4-2.1z"
       class="st2"
       id="path172" />
  </g>
</svg>
