<?xml version="1.0"?>
<svg xmlns:rdf="http://www.w3.org/1999/02/22-rdf-syntax-ns#" xmlns="http://www.w3.org/2000/svg" xmlns:cc="http://web.resource.org/cc/" xmlns:xlink="http://www.w3.org/1999/xlink" xmlns:dc="http://purl.org/dc/elements/1.1/" xmlns:svg="http://www.w3.org/2000/svg" id="svg2" viewBox="0 0 231 231" version="1.0">
  <defs id="defs4">
    <linearGradient id="linearGradient20470" y2="84.525" gradientUnits="userSpaceOnUse" x2="302" y1="365.96" x1="302">
      <stop id="stop13036" stop-color="#fff" stop-opacity="0" offset="0"/>
      <stop id="stop13038" stop-color="#fff" offset="1"/>
    </linearGradient>
    <radialGradient id="radialGradient20468" cx="527" xlink:href="#linearGradient12977" gradientUnits="userSpaceOnUse" cy="691.2" r="90.781" gradientTransform="matrix(1 0 0 .23184 -340 200.22)"/>
    <radialGradient id="radialGradient20466" cx="528" xlink:href="#linearGradient12977" gradientUnits="userSpaceOnUse" cy="368.17" r="113.53" gradientTransform="matrix(1 0 0 .26246 -341 27.543)"/>
    <radialGradient id="radialGradient20464" gradientUnits="userSpaceOnUse" cy="468.58" cx="504.12" gradientTransform="matrix(1.0526 0 0 1.0526 -26.522 -23.895)" r="2.625">
      <stop id="stop13174" stop-color="#fff" offset="0"/>
      <stop id="stop13176" offset="1"/>
    </radialGradient>
    <radialGradient id="radialGradient20462" gradientUnits="userSpaceOnUse" cy="467.19" cx="525.5" gradientTransform="matrix(1.7731 0 0 1.7731 -744.78 -597.01)" r="138">
      <stop id="stop12955" offset="0"/>
      <stop id="stop12965" offset=".47817"/>
      <stop id="stop12961" stop-color="#fff" offset=".49809"/>
      <stop id="stop12967" stop-color="#fff" offset=".50757"/>
      <stop id="stop12963" offset=".53008"/>
      <stop id="stop12957" offset="1"/>
    </radialGradient>
    <radialGradient id="radialGradient20460" gradientUnits="userSpaceOnUse" cy="239.93" cx="302" gradientTransform="matrix(3.141 0 0 3.141 -646.57 -549.9)" r="138">
      <stop id="stop20430" stop-color="#fff" offset="0"/>
      <stop id="stop20432" stop-color="#fff" offset=".20166"/>
      <stop id="stop20434" stop-color="#fbf8ef" offset=".32676"/>
      <stop id="stop20436" stop-color="#7f6204" offset="1"/>
    </radialGradient>
    <linearGradient id="linearGradient12977">
      <stop id="stop12979" stop-color="#fff" stop-opacity=".31944" offset="0"/>
      <stop id="stop12981" stop-color="#fff" offset="1"/>
    </linearGradient>
  </defs>
  <g id="layer1" transform="translate(-142.61 -229.83)">
    <g id="g20448" transform="matrix(.83696 0 0 .83696 101.6 151.68)">
      <path id="path13002" transform="matrix(.86232 0 0 .86232 -73.42 -17.285)" fill="url(#radialGradient20460)" d="m440 288.36a138 138 0 1 1 -276 0 138 138 0 1 1 276 0z"/>
      <path id="path12948" fill="url(#radialGradient20462)" d="m187 93.375c-76.18 0-138 61.825-138 138 0 76.17 61.82 138 138 138s138-61.83 138-138c0-76.18-61.82-138-138-138zm0 19.005c65.69 0 119 53.31 119 119 0 65.68-53.31 119-119 119-65.69-0.01-119-53.32-119-119 0-65.69 53.31-119 119-119z"/>
      <g id="g13182" transform="translate(-339,-263)">
        <path id="rect13148" d="m572.45 416.67l2.11 1.29-55.61 92.4-3.92-2.41 57.42-91.28z"/>
        <path id="rect13158" d="m470.1 522.53l-1.78-3.85 70.95-33.98 2.67 5.77-71.84 32.06z"/>
        <path id="path13162" transform="matrix(1.8571 0 0 1.8571 -410.23 -381.24)" fill="url(#radialGradient20464)" d="m506.75 471.49a2.625 2.625 0 1 1 -5.25 0 2.625 2.625 0 1 1 5.25 0z"/>
      </g>
      <path id="path12969" fill="url(#radialGradient20466)" d="m187 94.375c-47.06 0-88.618 23.605-113.53 59.595 28.59-29.94 68.89-48.59 113.53-48.59s84.94 18.65 113.53 48.59c-24.91-35.99-66.47-59.595-113.53-59.595z"/>
      <path id="path12991" fill="url(#radialGradient20468)" d="m187 360.47c36.38 0 68.95-16.35 90.78-42.09-24.27 21.23-56.02 34.09-90.78 34.09s-66.51-12.86-90.781-34.09c21.831 25.74 54.401 42.09 90.781 42.09z"/>
      <path id="rect13079" d="m184.53 115.41v23.71c1.65-0.05 3.29-0.02 4.94 0v-23.71h-4.94zm-54.59 15l-1.85 1.06 9.97 17.28c0.61-0.36 1.23-0.71 1.85-1.06l-9.97-17.28zm114.12 0l-9.97 17.28c0.62 0.35 1.24 0.7 1.85 1.06l9.97-17.28-1.85-1.06zm-156.97 42.06l-1.063 1.84 17.279 9.97c0.35-0.62 0.7-1.23 1.07-1.84l-17.286-9.97zm199.82 0l-17.29 9.97c0.37 0.61 0.72 1.22 1.07 1.84l17.28-9.97-1.06-1.84zm-215.88 56.44v4.93h23.719c-0.051-1.64-0.029-3.29 0-4.93h-23.719zm208.22 0c0.05 1.64 0.03 3.29 0 4.93h23.72v-4.93h-23.72zm-175.94 49.56l-17.279 9.97 1.063 1.84 17.286-9.97c-0.37-0.61-0.72-1.22-1.07-1.84zm167.38 0c-0.35 0.62-0.7 1.23-1.07 1.84l17.29 9.97 1.06-1.84-17.28-9.97zm-132.63 35.53l-9.97 17.28 1.85 1.06 9.97-17.28c-0.62-0.35-1.24-0.7-1.85-1.06zm97.88 0c-0.61 0.36-1.23 0.71-1.85 1.06l9.97 17.28 1.85-1.06-9.97-17.28zm-51.41 9.62v23.72h4.94v-23.72c-1.65 0.06-3.29 0.03-4.94 0z"/>
      <path id="path13022" transform="matrix(.72826 0 0 .60145 -32.935 23.927)" fill="url(#linearGradient20470)" d="m440 288.36a138 138 0 1 1 -276 0 138 138 0 1 1 276 0z"/>
    </g>
  </g>
  <metadata>
    <rdf:RDF>
      <cc:Work>
        <dc:format>image/svg+xml</dc:format>
        <dc:type rdf:resource="http://purl.org/dc/dcmitype/StillImage"/>
        <cc:license rdf:resource="http://creativecommons.org/licenses/publicdomain/"/>
        <dc:publisher>
          <cc:Agent rdf:about="http://openclipart.org/">
            <dc:title>Openclipart</dc:title>
          </cc:Agent>
        </dc:publisher>
        <dc:title>Clock + Calendar</dc:title>
        <dc:date>2007-01-31T03:11:30</dc:date>
        <dc:description>analog, analog, calendar, calendar, clip art, clipart, clock, clock, date, date, image, media, planning, planning, png, public domain, schedule, schedule, svg, time, time, timeline, timeline, </dc:description>
        <dc:source>http://openclipart.org/detail/2999/clock-+-calendar-by-rihard-2999</dc:source>
        <dc:creator>
          <cc:Agent>
            <dc:title>rihard</dc:title>
          </cc:Agent>
        </dc:creator>
        <dc:subject>
          <rdf:Bag>
            <rdf:li>analog</rdf:li>
            <rdf:li>calendar</rdf:li>
            <rdf:li>clip art</rdf:li>
            <rdf:li>clipart</rdf:li>
            <rdf:li>clock</rdf:li>
            <rdf:li>date</rdf:li>
            <rdf:li>image</rdf:li>
            <rdf:li>media</rdf:li>
            <rdf:li>planning</rdf:li>
            <rdf:li>png</rdf:li>
            <rdf:li>public domain</rdf:li>
            <rdf:li>schedule</rdf:li>
            <rdf:li>svg</rdf:li>
            <rdf:li>time</rdf:li>
            <rdf:li>timeline</rdf:li>
          </rdf:Bag>
        </dc:subject>
      </cc:Work>
      <cc:License rdf:about="http://creativecommons.org/licenses/publicdomain/">
        <cc:permits rdf:resource="http://creativecommons.org/ns#Reproduction"/>
        <cc:permits rdf:resource="http://creativecommons.org/ns#Distribution"/>
        <cc:permits rdf:resource="http://creativecommons.org/ns#DerivativeWorks"/>
      </cc:License>
    </rdf:RDF>
  </metadata>
</svg>
