<?xml version="1.0"?>
<svg xmlns:rdf="http://www.w3.org/1999/02/22-rdf-syntax-ns#" xmlns="http://www.w3.org/2000/svg" xmlns:cc="http://creativecommons.org/ns#" xmlns:xlink="http://www.w3.org/1999/xlink" xmlns:dc="http://purl.org/dc/elements/1.1/" xmlns:svg="http://www.w3.org/2000/svg" id="svg2" viewBox="0 0 661.66 467.91" version="1.0">
  <defs id="defs4">
    <linearGradient id="linearGradient3434">
      <stop id="stop3436" offset="0"/>
      <stop id="stop3438" stop-opacity="0" offset="1"/>
    </linearGradient>
    <filter id="filter3367" y="-1.506" width="1.012" height="4.012" x="-.006024">
      <feGaussianBlur id="feGaussianBlur3369" stdDeviation="1.7928571"/>
    </filter>
    <filter id="filter3412" y="-.2773" width="1.0123" height="1.5546" x="-.0061327">
      <feGaussianBlur id="feGaussianBlur3414" stdDeviation="1.815625"/>
    </filter>
    <filter id="filter4310" y="-.90152" width="1.0072" height="2.803" x="-.0036061">
      <feGaussianBlur id="feGaussianBlur4312" stdDeviation="1.0732369"/>
    </filter>
    <linearGradient id="linearGradient5846" y2="281.54" gradientUnits="userSpaceOnUse" x2="441.75" y1="230.21" x1="441.75">
      <stop id="stop3389" stop-color="#dcdcde" offset="0"/>
      <stop id="stop3391" stop-color="#b7b7bb" offset="1"/>
    </linearGradient>
    <linearGradient id="linearGradient5848" y2="330.2" gradientUnits="userSpaceOnUse" x2="288.21" y1="322.29" x1="288.21">
      <stop id="stop3373" stop-color="#b7b7bb" offset="0"/>
      <stop id="stop3375" stop-color="#cccccf" offset="1"/>
    </linearGradient>
    <linearGradient id="linearGradient5850" y2="314.94" gradientUnits="userSpaceOnUse" x2="706.52" gradientTransform="translate(.71429)" y1="263.08" x1="11.429">
      <stop id="stop3381" stop-color="#d9d9dc" offset="0"/>
      <stop id="stop3383" stop-color="#c0c0c4" offset="1"/>
    </linearGradient>
    <linearGradient id="linearGradient5852" y2="266.16" xlink:href="#linearGradient3434" gradientUnits="userSpaceOnUse" x2="107.15" gradientTransform="matrix(1 0 0 -2 0 801.6)" y1="267.91" x1="107.15"/>
    <linearGradient id="linearGradient5854" y2="266.16" xlink:href="#linearGradient3434" gradientUnits="userSpaceOnUse" x2="107.15" gradientTransform="matrix(1 0 0 -2 0 805.6)" y1="267.91" x1="107.15"/>
    <linearGradient id="linearGradient5856" y2="266.16" xlink:href="#linearGradient3434" gradientUnits="userSpaceOnUse" x2="107.15" gradientTransform="matrix(1 0 0 -2 0 809.6)" y1="267.91" x1="107.15"/>
    <linearGradient id="linearGradient5858" y2="266.16" xlink:href="#linearGradient3434" gradientUnits="userSpaceOnUse" x2="107.15" gradientTransform="matrix(1 0 0 -2 0 843.6)" y1="267.91" x1="107.15"/>
    <linearGradient id="linearGradient5860" y2="266.16" xlink:href="#linearGradient3434" gradientUnits="userSpaceOnUse" x2="107.15" gradientTransform="matrix(1 0 0 -2 0 847.6)" y1="267.91" x1="107.15"/>
    <linearGradient id="linearGradient5862" y2="266.16" xlink:href="#linearGradient3434" gradientUnits="userSpaceOnUse" x2="107.15" gradientTransform="matrix(1 0 0 -2 0 851.6)" y1="267.91" x1="107.15"/>
    <radialGradient id="radialGradient5864" gradientUnits="userSpaceOnUse" cy="-199.02" cx="11.438" gradientTransform="matrix(1.4781 .27533 -.093620 .47974 -24.101 330.17)" r="357.5">
      <stop id="stop5538" stop-color="#fff" offset="0"/>
      <stop id="stop5540" stop-color="#fff" stop-opacity="0" offset="1"/>
    </radialGradient>
  </defs>
  <g id="layer1" transform="translate(-39.166 -51.343)">
    <g id="g5546" transform="matrix(.84787 -.53020 .53020 .84787 -94.579 238.7)">
      <path id="path3410" filter="url(#filter3412)" d="m16.336 334.35h705.36l1.56-0.15-0.92 0.21 3.25 5.46-709.88 0.19 0.626-5.71z"/>
      <path id="rect2385" d="m15.357 230.27h706.25l4.1 3.43 0.36 29.43h-713.84l-0.801-29.07 3.928-3.79z" fill="url(#linearGradient5846)"/>
      <path id="rect2387" d="m12.054 322.33h714.2l-0.54 15.71h-714.28l0.624-15.71z" fill="url(#linearGradient5848)"/>
      <rect id="rect2591" transform="matrix(.99536 0 0 1 2.071 1.7475)" height="2.8571" filter="url(#filter4310)" width="714.29" y="319.51" x="11.429" fill="#333"/>
      <rect id="rect3395" transform="matrix(.99534 0 0 1 2.087 -56)" height="2.8571" filter="url(#filter3367)" width="714.29" y="319.51" x="11.429" fill="#333"/>
      <rect id="rect2383" height="59.286" width="714.29" y="263.08" x="12.143" fill="url(#linearGradient5850)"/>
      <path id="path3416" d="m12.375 268.67v-2h713.82l-0.01 2h-713.82z" fill="url(#linearGradient5852)" fill-rule="evenodd"/>
      <path id="path3442" d="m12.375 272.67v-2h713.82l-0.01 2h-713.82z" fill="url(#linearGradient5854)" fill-rule="evenodd"/>
      <path id="path3446" d="m12.375 276.67v-2h713.82l-0.01 2h-713.82z" fill="url(#linearGradient5856)" fill-rule="evenodd"/>
      <path id="path3450" d="m12.375 310.67v-2h713.82l-0.01 2h-713.82z" fill="url(#linearGradient5858)" fill-rule="evenodd"/>
      <path id="path3452" d="m12.375 314.67v-2h713.82l-0.01 2h-713.82z" fill="url(#linearGradient5860)" fill-rule="evenodd"/>
      <path id="path3454" d="m12.375 318.67v-2h713.82l-0.01 2h-713.82z" fill="url(#linearGradient5862)" fill-rule="evenodd"/>
      <g id="g3978" stroke="#000" transform="matrix(1.3566 0 0 1 -7.1446 0)" fill="none">
        <g id="g3521" transform="matrix(1.1059 0 0 1 -2.1196 0)">
          <path id="path3462" stroke-width=".53187" d="m20.284 230.32l0.414 20.24"/>
          <path id="path3466" stroke-width=".53187" d="m43.498 230.29l0.415 20.24"/>
          <path id="path3468" stroke-width=".4333" d="m32.013 230.28l0.17 11.31"/>
          <path id="path3470" stroke-width=".29831" d="m34.361 230.25l0.117 7.79"/>
          <path id="path3472" stroke-width=".29831" d="m36.682 230.27l0.118 7.79"/>
          <path id="path3474" stroke-width=".29831" d="m39.004 230.3l0.117 7.79"/>
          <path id="path3476" stroke-width=".29831" d="m41.325 230.28l0.118 7.79"/>
          <path id="path3478" stroke-width=".29831" d="m22.754 230.32l0.117 7.79"/>
          <path id="path3480" stroke-width=".29831" d="m25.075 230.3l0.118 7.79"/>
          <path id="path3482" stroke-width=".29831" d="m27.397 230.3l0.117 7.79"/>
          <path id="path3484" stroke-width=".29831" d="m29.718 230.28l0.117 7.79"/>
          <g id="g3508" transform="translate(23.2)">
            <path id="path3486" stroke-width=".53187" d="m20.284 230.32l0.414 20.24"/>
            <path id="path3488" stroke-width=".53187" d="m43.498 230.29l0.415 20.24"/>
            <path id="path3490" stroke-width=".4333" d="m32.013 230.28l0.17 11.31"/>
            <path id="path3492" stroke-width=".29831" d="m34.361 230.25l0.117 7.79"/>
            <path id="path3494" stroke-width=".29831" d="m36.682 230.27l0.118 7.79"/>
            <path id="path3496" stroke-width=".29831" d="m39.004 230.3l0.117 7.79"/>
            <path id="path3498" stroke-width=".29831" d="m41.325 230.28l0.118 7.79"/>
            <path id="path3500" stroke-width=".29831" d="m22.754 230.32l0.117 7.79"/>
            <path id="path3502" stroke-width=".29831" d="m25.075 230.3l0.118 7.79"/>
            <path id="path3504" stroke-width=".29831" d="m27.397 230.3l0.117 7.79"/>
            <path id="path3506" stroke-width=".29831" d="m29.718 230.28l0.117 7.79"/>
          </g>
        </g>
        <g id="g3546" transform="matrix(1.1059 0 0 1 49.17 0)">
          <path id="path3548" stroke-width=".53187" d="m20.284 230.32l0.414 20.24"/>
          <path id="path3550" stroke-width=".53187" d="m43.498 230.29l0.415 20.24"/>
          <path id="path3552" stroke-width=".4333" d="m32.013 230.28l0.17 11.31"/>
          <path id="path3554" stroke-width=".29831" d="m34.361 230.25l0.117 7.79"/>
          <path id="path3556" stroke-width=".29831" d="m36.682 230.27l0.118 7.79"/>
          <path id="path3558" stroke-width=".29831" d="m39.004 230.3l0.117 7.79"/>
          <path id="path3560" stroke-width=".29831" d="m41.325 230.28l0.118 7.79"/>
          <path id="path3562" stroke-width=".29831" d="m22.754 230.32l0.117 7.79"/>
          <path id="path3564" stroke-width=".29831" d="m25.075 230.3l0.118 7.79"/>
          <path id="path3566" stroke-width=".29831" d="m27.397 230.3l0.117 7.79"/>
          <path id="path3568" stroke-width=".29831" d="m29.718 230.28l0.117 7.79"/>
          <g id="g3570" transform="translate(23.2)">
            <path id="path3572" stroke-width=".53187" d="m20.284 230.32l0.414 20.24"/>
            <path id="path3574" stroke-width=".53187" d="m43.498 230.29l0.415 20.24"/>
            <path id="path3576" stroke-width=".4333" d="m32.013 230.28l0.17 11.31"/>
            <path id="path3578" stroke-width=".29831" d="m34.361 230.25l0.117 7.79"/>
            <path id="path3580" stroke-width=".29831" d="m36.682 230.27l0.118 7.79"/>
            <path id="path3582" stroke-width=".29831" d="m39.004 230.3l0.117 7.79"/>
            <path id="path3584" stroke-width=".29831" d="m41.325 230.28l0.118 7.79"/>
            <path id="path3586" stroke-width=".29831" d="m22.754 230.32l0.117 7.79"/>
            <path id="path3588" stroke-width=".29831" d="m25.075 230.3l0.118 7.79"/>
            <path id="path3590" stroke-width=".29831" d="m27.397 230.3l0.117 7.79"/>
            <path id="path3592" stroke-width=".29831" d="m29.718 230.28l0.117 7.79"/>
          </g>
        </g>
        <g id="g3594" transform="matrix(1.1059 0 0 1 100.47 0)">
          <path id="path3596" stroke-width=".53187" d="m20.284 230.32l0.414 20.24"/>
          <path id="path3598" stroke-width=".53187" d="m43.498 230.29l0.415 20.24"/>
          <path id="path3600" stroke-width=".4333" d="m32.013 230.28l0.17 11.31"/>
          <path id="path3602" stroke-width=".29831" d="m34.361 230.25l0.117 7.79"/>
          <path id="path3604" stroke-width=".29831" d="m36.682 230.27l0.118 7.79"/>
          <path id="path3606" stroke-width=".29831" d="m39.004 230.3l0.117 7.79"/>
          <path id="path3608" stroke-width=".29831" d="m41.325 230.28l0.118 7.79"/>
          <path id="path3610" stroke-width=".29831" d="m22.754 230.32l0.117 7.79"/>
          <path id="path3612" stroke-width=".29831" d="m25.075 230.3l0.118 7.79"/>
          <path id="path3614" stroke-width=".29831" d="m27.397 230.3l0.117 7.79"/>
          <path id="path3616" stroke-width=".29831" d="m29.718 230.28l0.117 7.79"/>
          <g id="g3618" transform="translate(23.2)">
            <path id="path3620" stroke-width=".53187" d="m20.284 230.32l0.414 20.24"/>
            <path id="path3622" stroke-width=".53187" d="m43.498 230.29l0.415 20.24"/>
            <path id="path3624" stroke-width=".4333" d="m32.013 230.28l0.17 11.31"/>
            <path id="path3626" stroke-width=".29831" d="m34.361 230.25l0.117 7.79"/>
            <path id="path3628" stroke-width=".29831" d="m36.682 230.27l0.118 7.79"/>
            <path id="path3630" stroke-width=".29831" d="m39.004 230.3l0.117 7.79"/>
            <path id="path3632" stroke-width=".29831" d="m41.325 230.28l0.118 7.79"/>
            <path id="path3634" stroke-width=".29831" d="m22.754 230.32l0.117 7.79"/>
            <path id="path3636" stroke-width=".29831" d="m25.075 230.3l0.118 7.79"/>
            <path id="path3638" stroke-width=".29831" d="m27.397 230.3l0.117 7.79"/>
            <path id="path3640" stroke-width=".29831" d="m29.718 230.28l0.117 7.79"/>
          </g>
        </g>
        <g id="g3642" transform="matrix(1.1059 0 0 1 151.76 0)">
          <path id="path3644" stroke-width=".53187" d="m20.284 230.32l0.414 20.24"/>
          <path id="path3646" stroke-width=".53187" d="m43.498 230.29l0.415 20.24"/>
          <path id="path3648" stroke-width=".4333" d="m32.013 230.28l0.17 11.31"/>
          <path id="path3650" stroke-width=".29831" d="m34.361 230.25l0.117 7.79"/>
          <path id="path3652" stroke-width=".29831" d="m36.682 230.27l0.118 7.79"/>
          <path id="path3654" stroke-width=".29831" d="m39.004 230.3l0.117 7.79"/>
          <path id="path3656" stroke-width=".29831" d="m41.325 230.28l0.118 7.79"/>
          <path id="path3658" stroke-width=".29831" d="m22.754 230.32l0.117 7.79"/>
          <path id="path3660" stroke-width=".29831" d="m25.075 230.3l0.118 7.79"/>
          <path id="path3662" stroke-width=".29831" d="m27.397 230.3l0.117 7.79"/>
          <path id="path3664" stroke-width=".29831" d="m29.718 230.28l0.117 7.79"/>
          <g id="g3666" transform="translate(23.2)">
            <path id="path3668" stroke-width=".53187" d="m20.284 230.32l0.414 20.24"/>
            <path id="path3670" stroke-width=".53187" d="m43.498 230.29l0.415 20.24"/>
            <path id="path3672" stroke-width=".4333" d="m32.013 230.28l0.17 11.31"/>
            <path id="path3674" stroke-width=".29831" d="m34.361 230.25l0.117 7.79"/>
            <path id="path3676" stroke-width=".29831" d="m36.682 230.27l0.118 7.79"/>
            <path id="path3678" stroke-width=".29831" d="m39.004 230.3l0.117 7.79"/>
            <path id="path3680" stroke-width=".29831" d="m41.325 230.28l0.118 7.79"/>
            <path id="path3682" stroke-width=".29831" d="m22.754 230.32l0.117 7.79"/>
            <path id="path3684" stroke-width=".29831" d="m25.075 230.3l0.118 7.79"/>
            <path id="path3686" stroke-width=".29831" d="m27.397 230.3l0.117 7.79"/>
            <path id="path3688" stroke-width=".29831" d="m29.718 230.28l0.117 7.79"/>
          </g>
        </g>
        <g id="g3690" transform="matrix(1.1059 0 0 1 203.08 0)">
          <path id="path3692" stroke-width=".53187" d="m20.284 230.32l0.414 20.24"/>
          <path id="path3694" stroke-width=".53187" d="m43.498 230.29l0.415 20.24"/>
          <path id="path3696" stroke-width=".4333" d="m32.013 230.28l0.17 11.31"/>
          <path id="path3698" stroke-width=".29831" d="m34.361 230.25l0.117 7.79"/>
          <path id="path3700" stroke-width=".29831" d="m36.682 230.27l0.118 7.79"/>
          <path id="path3702" stroke-width=".29831" d="m39.004 230.3l0.117 7.79"/>
          <path id="path3704" stroke-width=".29831" d="m41.325 230.28l0.118 7.79"/>
          <path id="path3706" stroke-width=".29831" d="m22.754 230.32l0.117 7.79"/>
          <path id="path3708" stroke-width=".29831" d="m25.075 230.3l0.118 7.79"/>
          <path id="path3710" stroke-width=".29831" d="m27.397 230.3l0.117 7.79"/>
          <path id="path3712" stroke-width=".29831" d="m29.718 230.28l0.117 7.79"/>
          <g id="g3714" transform="translate(23.2)">
            <path id="path3716" stroke-width=".53187" d="m20.284 230.32l0.414 20.24"/>
            <path id="path3718" stroke-width=".53187" d="m43.498 230.29l0.415 20.24"/>
            <path id="path3720" stroke-width=".4333" d="m32.013 230.28l0.17 11.31"/>
            <path id="path3722" stroke-width=".29831" d="m34.361 230.25l0.117 7.79"/>
            <path id="path3724" stroke-width=".29831" d="m36.682 230.27l0.118 7.79"/>
            <path id="path3726" stroke-width=".29831" d="m39.004 230.3l0.117 7.79"/>
            <path id="path3728" stroke-width=".29831" d="m41.325 230.28l0.118 7.79"/>
            <path id="path3730" stroke-width=".29831" d="m22.754 230.32l0.117 7.79"/>
            <path id="path3732" stroke-width=".29831" d="m25.075 230.3l0.118 7.79"/>
            <path id="path3734" stroke-width=".29831" d="m27.397 230.3l0.117 7.79"/>
            <path id="path3736" stroke-width=".29831" d="m29.718 230.28l0.117 7.79"/>
          </g>
        </g>
        <g id="g3738" transform="matrix(1.1059 0 0 1 254.37 0)">
          <path id="path3740" stroke-width=".53187" d="m20.284 230.32l0.414 20.24"/>
          <path id="path3742" stroke-width=".53187" d="m43.498 230.29l0.415 20.24"/>
          <path id="path3744" stroke-width=".4333" d="m32.013 230.28l0.17 11.31"/>
          <path id="path3746" stroke-width=".29831" d="m34.361 230.25l0.117 7.79"/>
          <path id="path3748" stroke-width=".29831" d="m36.682 230.27l0.118 7.79"/>
          <path id="path3750" stroke-width=".29831" d="m39.004 230.3l0.117 7.79"/>
          <path id="path3752" stroke-width=".29831" d="m41.325 230.28l0.118 7.79"/>
          <path id="path3754" stroke-width=".29831" d="m22.754 230.32l0.117 7.79"/>
          <path id="path3756" stroke-width=".29831" d="m25.075 230.3l0.118 7.79"/>
          <path id="path3758" stroke-width=".29831" d="m27.397 230.3l0.117 7.79"/>
          <path id="path3760" stroke-width=".29831" d="m29.718 230.28l0.117 7.79"/>
          <g id="g3762" transform="translate(23.2)">
            <path id="path3764" stroke-width=".53187" d="m20.284 230.32l0.414 20.24"/>
            <path id="path3766" stroke-width=".53187" d="m43.498 230.29l0.415 20.24"/>
            <path id="path3768" stroke-width=".4333" d="m32.013 230.28l0.17 11.31"/>
            <path id="path3770" stroke-width=".29831" d="m34.361 230.25l0.117 7.79"/>
            <path id="path3772" stroke-width=".29831" d="m36.682 230.27l0.118 7.79"/>
            <path id="path3774" stroke-width=".29831" d="m39.004 230.3l0.117 7.79"/>
            <path id="path3776" stroke-width=".29831" d="m41.325 230.28l0.118 7.79"/>
            <path id="path3778" stroke-width=".29831" d="m22.754 230.32l0.117 7.79"/>
            <path id="path3780" stroke-width=".29831" d="m25.075 230.3l0.118 7.79"/>
            <path id="path3782" stroke-width=".29831" d="m27.397 230.3l0.117 7.79"/>
            <path id="path3784" stroke-width=".29831" d="m29.718 230.28l0.117 7.79"/>
          </g>
        </g>
        <g id="g3786" transform="matrix(1.1059 0 0 1 305.67 0)">
          <path id="path3788" stroke-width=".53187" d="m20.284 230.32l0.414 20.24"/>
          <path id="path3790" stroke-width=".53187" d="m43.498 230.29l0.415 20.24"/>
          <path id="path3792" stroke-width=".4333" d="m32.013 230.28l0.17 11.31"/>
          <path id="path3794" stroke-width=".29831" d="m34.361 230.25l0.117 7.79"/>
          <path id="path3796" stroke-width=".29831" d="m36.682 230.27l0.118 7.79"/>
          <path id="path3798" stroke-width=".29831" d="m39.004 230.3l0.117 7.79"/>
          <path id="path3800" stroke-width=".29831" d="m41.325 230.28l0.118 7.79"/>
          <path id="path3802" stroke-width=".29831" d="m22.754 230.32l0.117 7.79"/>
          <path id="path3804" stroke-width=".29831" d="m25.075 230.3l0.118 7.79"/>
          <path id="path3806" stroke-width=".29831" d="m27.397 230.3l0.117 7.79"/>
          <path id="path3808" stroke-width=".29831" d="m29.718 230.28l0.117 7.79"/>
          <g id="g3810" transform="translate(23.2)">
            <path id="path3812" stroke-width=".53187" d="m20.284 230.32l0.414 20.24"/>
            <path id="path3814" stroke-width=".53187" d="m43.498 230.29l0.415 20.24"/>
            <path id="path3816" stroke-width=".4333" d="m32.013 230.28l0.17 11.31"/>
            <path id="path3818" stroke-width=".29831" d="m34.361 230.25l0.117 7.79"/>
            <path id="path3820" stroke-width=".29831" d="m36.682 230.27l0.118 7.79"/>
            <path id="path3822" stroke-width=".29831" d="m39.004 230.3l0.117 7.79"/>
            <path id="path3824" stroke-width=".29831" d="m41.325 230.28l0.118 7.79"/>
            <path id="path3826" stroke-width=".29831" d="m22.754 230.32l0.117 7.79"/>
            <path id="path3828" stroke-width=".29831" d="m25.075 230.3l0.118 7.79"/>
            <path id="path3830" stroke-width=".29831" d="m27.397 230.3l0.117 7.79"/>
            <path id="path3832" stroke-width=".29831" d="m29.718 230.28l0.117 7.79"/>
          </g>
        </g>
        <g id="g3834" transform="matrix(1.1059 0 0 1 356.96 0)">
          <path id="path3836" stroke-width=".53187" d="m20.284 230.32l0.414 20.24"/>
          <path id="path3838" stroke-width=".53187" d="m43.498 230.29l0.415 20.24"/>
          <path id="path3840" stroke-width=".4333" d="m32.013 230.28l0.17 11.31"/>
          <path id="path3842" stroke-width=".29831" d="m34.361 230.25l0.117 7.79"/>
          <path id="path3844" stroke-width=".29831" d="m36.682 230.27l0.118 7.79"/>
          <path id="path3846" stroke-width=".29831" d="m39.004 230.3l0.117 7.79"/>
          <path id="path3848" stroke-width=".29831" d="m41.325 230.28l0.118 7.79"/>
          <path id="path3850" stroke-width=".29831" d="m22.754 230.32l0.117 7.79"/>
          <path id="path3852" stroke-width=".29831" d="m25.075 230.3l0.118 7.79"/>
          <path id="path3854" stroke-width=".29831" d="m27.397 230.3l0.117 7.79"/>
          <path id="path3856" stroke-width=".29831" d="m29.718 230.28l0.117 7.79"/>
          <g id="g3858" transform="translate(23.2)">
            <path id="path3860" stroke-width=".53187" d="m20.284 230.32l0.414 20.24"/>
            <path id="path3862" stroke-width=".53187" d="m43.498 230.29l0.415 20.24"/>
            <path id="path3864" stroke-width=".4333" d="m32.013 230.28l0.17 11.31"/>
            <path id="path3866" stroke-width=".29831" d="m34.361 230.25l0.117 7.79"/>
            <path id="path3868" stroke-width=".29831" d="m36.682 230.27l0.118 7.79"/>
            <path id="path3870" stroke-width=".29831" d="m39.004 230.3l0.117 7.79"/>
            <path id="path3872" stroke-width=".29831" d="m41.325 230.28l0.118 7.79"/>
            <path id="path3874" stroke-width=".29831" d="m22.754 230.32l0.117 7.79"/>
            <path id="path3876" stroke-width=".29831" d="m25.075 230.3l0.118 7.79"/>
            <path id="path3878" stroke-width=".29831" d="m27.397 230.3l0.117 7.79"/>
            <path id="path3880" stroke-width=".29831" d="m29.718 230.28l0.117 7.79"/>
          </g>
        </g>
        <g id="g3882" transform="matrix(1.1059 0 0 1 408.29 -.015784)">
          <path id="path3884" stroke-width=".53187" d="m20.284 230.32l0.414 20.24"/>
          <path id="path3886" stroke-width=".53187" d="m43.498 230.29l0.415 20.24"/>
          <path id="path3888" stroke-width=".4333" d="m32.013 230.28l0.17 11.31"/>
          <path id="path3890" stroke-width=".29831" d="m34.361 230.25l0.117 7.79"/>
          <path id="path3892" stroke-width=".29831" d="m36.682 230.27l0.118 7.79"/>
          <path id="path3894" stroke-width=".29831" d="m39.004 230.3l0.117 7.79"/>
          <path id="path3896" stroke-width=".29831" d="m41.325 230.28l0.118 7.79"/>
          <path id="path3898" stroke-width=".29831" d="m22.754 230.32l0.117 7.79"/>
          <path id="path3900" stroke-width=".29831" d="m25.075 230.3l0.118 7.79"/>
          <path id="path3902" stroke-width=".29831" d="m27.397 230.3l0.117 7.79"/>
          <path id="path3904" stroke-width=".29831" d="m29.718 230.28l0.117 7.79"/>
          <g id="g3906" transform="translate(23.2)">
            <path id="path3908" stroke-width=".53187" d="m20.284 230.32l0.414 20.24"/>
            <path id="path3910" stroke-width=".53187" d="m43.498 230.29l0.415 20.24"/>
            <path id="path3912" stroke-width=".4333" d="m32.013 230.28l0.17 11.31"/>
            <path id="path3914" stroke-width=".29831" d="m34.361 230.25l0.117 7.79"/>
            <path id="path3916" stroke-width=".29831" d="m36.682 230.27l0.118 7.79"/>
            <path id="path3918" stroke-width=".29831" d="m39.004 230.3l0.117 7.79"/>
            <path id="path3920" stroke-width=".29831" d="m41.325 230.28l0.118 7.79"/>
            <path id="path3922" stroke-width=".29831" d="m22.754 230.32l0.117 7.79"/>
            <path id="path3924" stroke-width=".29831" d="m25.075 230.3l0.118 7.79"/>
            <path id="path3926" stroke-width=".29831" d="m27.397 230.3l0.117 7.79"/>
            <path id="path3928" stroke-width=".29831" d="m29.718 230.28l0.117 7.79"/>
          </g>
        </g>
        <g id="g3930" transform="matrix(1.1059 0 0 1 459.62 -.031567)">
          <path id="path3932" stroke-width=".53187" d="m20.284 230.32l0.414 20.24"/>
          <path id="path3934" stroke-width=".53187" d="m43.498 230.29l0.415 20.24"/>
          <path id="path3936" stroke-width=".4333" d="m32.013 230.28l0.17 11.31"/>
          <path id="path3938" stroke-width=".29831" d="m34.361 230.25l0.117 7.79"/>
          <path id="path3940" stroke-width=".29831" d="m36.682 230.27l0.118 7.79"/>
          <path id="path3942" stroke-width=".29831" d="m39.004 230.3l0.117 7.79"/>
          <path id="path3944" stroke-width=".29831" d="m41.325 230.28l0.118 7.79"/>
          <path id="path3946" stroke-width=".29831" d="m22.754 230.32l0.117 7.79"/>
          <path id="path3948" stroke-width=".29831" d="m25.075 230.3l0.118 7.79"/>
          <path id="path3950" stroke-width=".29831" d="m27.397 230.3l0.117 7.79"/>
          <path id="path3952" stroke-width=".29831" d="m29.718 230.28l0.117 7.79"/>
          <g id="g3954" transform="translate(23.2)">
            <path id="path3956" stroke-width=".53187" d="m20.284 230.32l0.414 20.24"/>
            <path id="path3958" stroke-width=".53187" d="m43.498 230.29l0.415 20.24"/>
            <path id="path3960" stroke-width=".4333" d="m32.013 230.28l0.17 11.31"/>
            <path id="path3962" stroke-width=".29831" d="m34.361 230.25l0.117 7.79"/>
            <path id="path3964" stroke-width=".29831" d="m36.682 230.27l0.118 7.79"/>
            <path id="path3966" stroke-width=".29831" d="m39.004 230.3l0.117 7.79"/>
            <path id="path3968" stroke-width=".29831" d="m41.325 230.28l0.118 7.79"/>
            <path id="path3970" stroke-width=".29831" d="m22.754 230.32l0.117 7.79"/>
            <path id="path3972" stroke-width=".29831" d="m25.075 230.3l0.118 7.79"/>
            <path id="path3974" stroke-width=".29831" d="m27.397 230.3l0.117 7.79"/>
            <path id="path3976" stroke-width=".29831" d="m29.718 230.28l0.117 7.79"/>
          </g>
        </g>
      </g>
      <g id="text4222" transform="matrix(.89701 0 .024010 1.1148 0 0)">
        <path id="path3171" style="" d="m58.014 225.58v7.2803h-2.0117v-4.7705c-0.32552 0.2474-0.64046 0.44759-0.94482 0.60058-0.30436 0.153-0.68604 0.29949-1.145 0.43946v-1.6309c0.67708-0.2181 1.2028-0.48014 1.5771-0.78614 0.37435-0.30598 0.66732-0.68358 0.87891-1.1328z"/>
      </g>
      <g id="text4226" transform="matrix(.89701 0 .024010 1.1148 0 0)">
        <path id="path3248" style="" d="m792.78 232.86h-5.9668c0.0684-0.58919 0.27588-1.1434 0.62256-1.6626 0.34668-0.51921 0.9969-1.132 1.9507-1.8384 0.58268-0.43294 0.9554-0.76172 1.1182-0.98633 0.16275-0.2246 0.24413-0.43782 0.24414-0.63965-0.00001-0.21809-0.0806-0.40445-0.2417-0.55908-0.16114-0.15462-0.36378-0.23193-0.60791-0.23193-0.25391 0-0.46143 0.0797-0.62256 0.23925-0.16114 0.15951-0.26937 0.44109-0.32471 0.84473l-1.9922-0.16113c0.0781-0.55989 0.22136-0.9969 0.42969-1.311 0.20833-0.31412 0.50212-0.555 0.88135-0.72265 0.37923-0.16764 0.90413-0.25146 1.5747-0.25147 0.69986 0.00001 1.2443 0.0798 1.6333 0.23926 0.38899 0.15951 0.69498 0.40447 0.91797 0.73486 0.22297 0.33041 0.33446 0.70069 0.33447 1.1108-0.00001 0.4362-0.12777 0.85287-0.3833 1.25-0.25554 0.39714-0.72022 0.83334-1.394 1.3086-0.4004 0.27669-0.66814 0.47038-0.80323 0.58105-0.13509 0.11068-0.29378 0.25554-0.47607 0.43457h3.1055z"/>
        <path id="path3250" style="" d="m793.64 229.26c0-1.3607 0.24496-2.3128 0.73487-2.8564 0.4899-0.54361 1.2362-0.81542 2.2388-0.81543 0.48176 0.00001 0.87727 0.0594 1.1865 0.17822 0.30924 0.11883 0.56152 0.27345 0.75683 0.46387 0.19531 0.19044 0.34912 0.39063 0.46143 0.60059 0.1123 0.20996 0.20263 0.45492 0.271 0.73486 0.13345 0.53386 0.20019 1.0905 0.20019 1.6699 0 1.2988-0.21973 2.2494-0.65918 2.8516-0.43946 0.60222-1.1963 0.90332-2.2705 0.90332-0.60221 0-1.0889-0.096-1.46-0.28808-0.37109-0.19206-0.67545-0.47363-0.91308-0.84473-0.17253-0.26367-0.30681-0.62418-0.40283-1.0815-0.096-0.45736-0.14405-0.96273-0.14405-1.5161zm1.9727 0.005c0 0.91146 0.0806 1.534 0.2417 1.8677 0.16113 0.33366 0.39469 0.50049 0.70068 0.50049 0.20182 0 0.37679-0.0708 0.5249-0.2124s0.25716-0.36539 0.32715-0.67139c0.07-0.30598 0.10498-0.78287 0.10498-1.4307 0-0.95052-0.0806-1.5894-0.2417-1.9165-0.16113-0.32715-0.40283-0.49072-0.72509-0.49073-0.32878 0.00001-0.56641 0.16684-0.71289 0.50049-0.14649 0.33367-0.21973 0.95134-0.21973 1.853z"/>
      </g>
      <text id="text4230" font-size="10px" xml:space="preserve" transform="matrix(.89701 0 .024010 1.1148 0 0)" line-height="100%" y="232.86346" x="91.5159" font-family="Arial Black" fill="#000000">
        <tspan id="tspan4232" y="232.86346" x="91.5159">2</tspan>
      </text>
      <g id="text4234" transform="matrix(.89701 0 .024010 1.1148 0 0)">
        <path id="path3179" style="" d="m132.59 227.78-1.8799-0.33691c0.15625-0.59895 0.45654-1.0579 0.90088-1.377 0.44434-0.31901 1.0734-0.47851 1.8872-0.47852 0.93424 0.00001 1.6097 0.17416 2.0264 0.52246 0.41666 0.34832 0.62499 0.78614 0.625 1.3135-0.00001 0.30925-0.0847 0.5892-0.25391 0.83984-0.16928 0.25066-0.42481 0.47038-0.7666 0.65918 0.27668 0.0684 0.48827 0.14812 0.63476 0.23926 0.23763 0.14649 0.42236 0.33936 0.5542 0.57861 0.13183 0.23926 0.19775 0.52491 0.19776 0.85694-0.00001 0.41667-0.10906 0.81624-0.32715 1.1987-0.21811 0.38248-0.53223 0.67708-0.94239 0.88379-0.41016 0.2067-0.94889 0.31005-1.6162 0.31005-0.65104 0-1.1646-0.0765-1.5405-0.22949-0.37598-0.15299-0.68523-0.37679-0.92774-0.67138-0.24251-0.2946-0.42887-0.66488-0.55908-1.1108l1.9873-0.26368c0.0781 0.4004 0.19938 0.6779 0.36377 0.83252 0.16439 0.15463 0.37354 0.23194 0.62745 0.23194 0.26692 0 0.48909-0.0977 0.6665-0.29297 0.1774-0.19531 0.26611-0.45573 0.26611-0.78125 0-0.33203-0.0855-0.58919-0.25634-0.77149-0.17091-0.18228-0.40284-0.27343-0.69581-0.27343-0.15625 0-0.37109 0.0391-0.64453 0.11718l0.10254-1.4209c0.11068 0.0163 0.19694 0.0244 0.25879 0.0244 0.26041 0 0.4777-0.083 0.65186-0.24902 0.17415-0.16601 0.26122-0.36295 0.26123-0.59082-0.00001-0.2181-0.0651-0.39225-0.19532-0.52247-0.13021-0.1302-0.30924-0.1953-0.5371-0.19531-0.23438 0.00001-0.42481 0.0708-0.57129 0.2124-0.14649 0.14161-0.24577 0.38982-0.29786 0.74463z"/>
      </g>
      <g id="text4238" transform="matrix(.89701 0 .024010 1.1148 0 0)">
        <path id="path3182" style="" d="m172.86 231.53h-3.623v-1.6357l3.623-4.3066h1.7334v4.3994h0.89843v1.543h-0.89843v1.3379h-1.7334zm0-1.543v-2.251l-1.9141 2.251z"/>
      </g>
      <path id="path3185" d="m192.96 251.62h4.2354l0.0381 1.7691h-2.8688l-0.12751 1.1975c0.19605-0.11612 0.39054-0.20321 0.58347-0.26128 0.19293-0.0581 0.38429-0.0871 0.57409-0.0871 0.64238 0.00001 1.1688 0.24133 1.5792 0.72398 0.41043 0.48265 0.62353 1.0905 0.63933 1.8236 0.0111 0.51531-0.0812 1.0107-0.27678 1.4861-0.19563 0.47539-0.47981 0.83829-0.85254 1.0887-0.37275 0.2504-0.85403 0.37559-1.4438 0.37559-0.4234 0-0.78728-0.0499-1.0916-0.14969-0.30437-0.0998-0.56453-0.24858-0.78048-0.44636-0.21596-0.19778-0.39233-0.42187-0.52912-0.67227-0.13679-0.25039-0.25301-0.56249-0.34866-0.93626l1.7992-0.24496c0.0515 0.35927 0.15962 0.63234 0.32425 0.81923 0.16461 0.1869 0.35789 0.28034 0.5798 0.28034 0.24819 0 0.4508-0.11703 0.60782-0.3511 0.15701-0.23406 0.23052-0.58336 0.22052-1.0479-0.0103-0.47539-0.0995-0.82376-0.26779-1.0451-0.16829-0.22136-0.38821-0.33203-0.65976-0.33205-0.17228 0.00002-0.33758 0.0526-0.49591 0.15786-0.11808 0.0763-0.24651 0.21411-0.38529 0.41371l-1.5257-0.27217z"/>
      <g id="text4246" transform="matrix(.89701 0 .024010 1.1148 0 0)">
        <path id="path3168" style="" d="m252.76 227.32-1.9775 0.24414c-0.0521-0.27669-0.13916-0.472-0.26123-0.58594-0.12207-0.11392-0.27263-0.17089-0.45166-0.1709-0.32227 0.00001-0.57292 0.16277-0.75195 0.48829-0.13021 0.23438-0.22624 0.73568-0.28809 1.5039 0.23763-0.24088 0.48177-0.4191 0.73242-0.53467 0.25065-0.11555 0.54036-0.17333 0.86914-0.17334 0.63802 0.00001 1.1776 0.22787 1.6187 0.6836 0.44107 0.45573 0.66161 1.0335 0.66162 1.7334-0.00001 0.472-0.1115 0.90332-0.33448 1.2939-0.22298 0.39063-0.53223 0.68604-0.92773 0.88623-0.39551 0.2002-0.89112 0.30029-1.4868 0.30029-0.71615 0-1.2907-0.12207-1.7236-0.36621-0.43294-0.24414-0.77881-0.63395-1.0376-1.1694-0.25879-0.53548-0.38818-1.2443-0.38818-2.1265 0-1.2923 0.27181-2.2388 0.81543-2.8394 0.54362-0.60058 1.2972-0.90087 2.2607-0.90088 0.56966 0.00001 1.0197 0.0659 1.3501 0.19775s0.60465 0.32472 0.82275 0.57862c0.2181 0.25391 0.38411 0.57292 0.49805 0.95703zm-3.6621 3.1885c0 0.38737 0.0976 0.69092 0.29297 0.91064 0.19531 0.21973 0.43457 0.32959 0.71777 0.32959 0.26042 0 0.47851-0.0993 0.6543-0.29785 0.17578-0.19857 0.26367-0.49479 0.26367-0.88867 0-0.40365-0.0911-0.71126-0.27344-0.92285-0.18229-0.21159-0.40853-0.31738-0.67871-0.31739-0.27669 0.00001-0.50863 0.10254-0.6958 0.30762s-0.28076 0.49805-0.28076 0.87891z"/>
      </g>
      <g id="text4250" transform="matrix(.89701 0 .024010 1.1148 0 0)">
        <path id="path3189" style="" d="m285.86 225.71h5.8057v1.3428c-0.50456 0.45574-0.92611 0.9489-1.2646 1.4795-0.41017 0.64453-0.73406 1.3623-0.97168 2.1533-0.18881 0.61523-0.31576 1.3428-0.38086 2.1826h-1.9824c0.15625-1.1686 0.40202-2.1484 0.73731-2.9394 0.33528-0.79101 0.86588-1.6374 1.5918-2.5391h-3.5352z"/>
      </g>
      <g id="text4254" transform="matrix(.89701 0 .024010 1.1148 0 0)">
        <path id="path3192" style="" d="m325.83 229.02c-0.3125-0.16601-0.54037-0.35156-0.6836-0.55664-0.19531-0.27995-0.29297-0.60221-0.29297-0.9668 0-0.59895 0.28158-1.0889 0.84473-1.4697 0.43945-0.29296 1.0205-0.43944 1.7432-0.43945 0.95702 0.00001 1.6642 0.1823 2.1216 0.54688 0.45735 0.36459 0.68603 0.82357 0.68603 1.377 0 0.32227-0.0912 0.62338-0.27343 0.90332-0.13673 0.20834-0.35157 0.41016-0.64454 0.60547 0.38737 0.18555 0.67627 0.43132 0.8667 0.7373 0.19043 0.306 0.28564 0.64454 0.28565 1.0156-0.00001 0.35807-0.0822 0.69254-0.24658 1.0034-0.1644 0.31087-0.36622 0.55094-0.60547 0.72021-0.23927 0.16927-0.53712 0.29378-0.89356 0.37354-0.35645 0.0797-0.73649 0.11962-1.1401 0.11962-0.75847 0-1.3379-0.0895-1.7383-0.26855-0.40039-0.17904-0.70475-0.44271-0.91308-0.79102-0.20834-0.3483-0.3125-0.7373-0.3125-1.167 0-0.41992 0.0976-0.77555 0.29297-1.0669 0.19531-0.29134 0.49642-0.51676 0.90332-0.67627zm0.89355-1.4062c0 0.2474 0.0773 0.44678 0.23194 0.59814 0.15462 0.15137 0.36051 0.22706 0.61767 0.22705 0.22786 0.00001 0.41504-0.0749 0.56152-0.22461 0.14649-0.14973 0.21973-0.34342 0.21973-0.58105 0-0.24739-0.0765-0.4484-0.22949-0.60303-0.153-0.15461-0.34831-0.23193-0.58594-0.23193-0.24089 0-0.43701 0.0757-0.58838 0.22705-0.15137 0.15137-0.22705 0.3475-0.22705 0.58838zm-0.10742 3.081c0 0.31576 0.096 0.57373 0.28809 0.77393 0.19205 0.2002 0.41178 0.30029 0.65918 0.30029 0.23762 0 0.45084-0.10172 0.63964-0.30517s0.2832-0.46143 0.28321-0.77393c-0.00001-0.31575-0.0952-0.57454-0.28565-0.77637-0.19043-0.20182-0.41097-0.30273-0.66162-0.30273-0.2474 0-0.46305 0.0977-0.64697 0.29297-0.18392 0.19531-0.27588 0.45898-0.27588 0.79101z"/>
      </g>
      <g id="text4258" transform="matrix(.89701 0 .024010 1.1148 0 0)">
        <path id="path3195" style="" d="m363.56 231.26 1.9775-0.24902c0.0521 0.27669 0.13997 0.472 0.26367 0.58593 0.1237 0.11394 0.27506 0.1709 0.4541 0.1709 0.31901 0 0.56803-0.16113 0.74707-0.4834 0.13021-0.23763 0.22786-0.74055 0.29297-1.5088-0.23763 0.24415-0.48177 0.42318-0.73242 0.53711-0.25065 0.11394-0.54037 0.1709-0.86914 0.1709-0.64128 0-1.1825-0.22786-1.6235-0.68359-0.44108-0.45573-0.66162-1.0319-0.66162-1.7285 0-0.47525 0.11231-0.90819 0.33692-1.2988s0.53385-0.68602 0.92773-0.88623c0.39388-0.20018 0.88867-0.30028 1.4844-0.30029 0.71614 0.00001 1.2907 0.12289 1.7236 0.36865 0.43294 0.24578 0.7788 0.6364 1.0376 1.1719 0.25878 0.53549 0.38818 1.2427 0.38818 2.1216 0 1.2923-0.27181 2.2388-0.81543 2.8394-0.54362 0.60058-1.2972 0.90087-2.2607 0.90087-0.56966 0-1.0189-0.0659-1.3477-0.19775-0.32877-0.13183-0.60221-0.32471-0.82031-0.57861-0.2181-0.25391-0.38574-0.57129-0.50293-0.95215zm3.6621-3.1934c0-0.38736-0.0977-0.69091-0.29297-0.91064-0.19531-0.21973-0.43294-0.32959-0.71289-0.32959-0.26367 0-0.48259 0.0993-0.65674 0.29785-0.17415 0.19857-0.26123 0.49642-0.26123 0.89355 0 0.4004 0.0903 0.70639 0.271 0.91797 0.18066 0.21159 0.40608 0.31739 0.67627 0.31738 0.27994 0.00001 0.51269-0.10253 0.69824-0.30761 0.18554-0.20508 0.27832-0.49805 0.27832-0.87891z"/>
      </g>
      <g id="text4262" transform="matrix(.89701 0 .024010 1.1148 0 0)">
        <path id="path3198" style="" d="m403.2 225.58v7.2803h-2.0117v-4.7705c-0.32553 0.2474-0.64047 0.44759-0.94483 0.60058-0.30436 0.153-0.68603 0.29949-1.145 0.43946v-1.6309c0.67708-0.2181 1.2028-0.48014 1.5772-0.78614 0.37435-0.30598 0.66732-0.68358 0.87891-1.1328z"/>
        <path id="path3200" style="" d="m405.37 229.26c0-1.3607 0.24495-2.3128 0.73486-2.8564 0.48991-0.54361 1.2362-0.81542 2.2388-0.81543 0.48177 0.00001 0.87727 0.0594 1.1865 0.17822 0.30924 0.11883 0.56152 0.27345 0.75684 0.46387 0.19531 0.19044 0.34911 0.39063 0.46142 0.60059 0.1123 0.20996 0.20264 0.45492 0.271 0.73486 0.13346 0.53386 0.20019 1.0905 0.2002 1.6699-0.00001 1.2988-0.21974 2.2494-0.65918 2.8516-0.43946 0.60222-1.1963 0.90332-2.2705 0.90332-0.60222 0-1.0889-0.096-1.46-0.28808-0.3711-0.19206-0.67546-0.47363-0.91309-0.84473-0.17253-0.26367-0.3068-0.62418-0.40283-1.0815-0.096-0.45736-0.14404-0.96273-0.14404-1.5161zm1.9726 0.005c0 0.91146 0.0806 1.534 0.2417 1.8677 0.16113 0.33366 0.39469 0.50049 0.70069 0.50049 0.20181 0 0.37678-0.0708 0.5249-0.2124 0.14811-0.1416 0.25716-0.36539 0.32715-0.67139 0.07-0.30598 0.10497-0.78287 0.10498-1.4307-0.00001-0.95052-0.0806-1.5894-0.2417-1.9165-0.16114-0.32715-0.40284-0.49072-0.7251-0.49073-0.32878 0.00001-0.56641 0.16684-0.71289 0.50049-0.14649 0.33367-0.21973 0.95134-0.21973 1.853z"/>
      </g>
      <g id="text4266" transform="matrix(.89701 0 .024010 1.1148 0 0)">
        <path id="path3203" style="" d="m442.67 225.58v7.2803h-2.0117v-4.7705c-0.32552 0.2474-0.64046 0.44759-0.94482 0.60058-0.30437 0.153-0.68604 0.29949-1.145 0.43946v-1.6309c0.67708-0.2181 1.2028-0.48014 1.5772-0.78614 0.37434-0.30598 0.66731-0.68358 0.8789-1.1328z"/>
        <path id="path3205" style="" d="m449.35 225.58v7.2803h-2.0117v-4.7705c-0.32552 0.2474-0.64046 0.44759-0.94482 0.60058-0.30437 0.153-0.68604 0.29949-1.145 0.43946v-1.6309c0.67708-0.2181 1.2028-0.48014 1.5771-0.78614 0.37435-0.30598 0.66732-0.68358 0.87891-1.1328z"/>
      </g>
      <g id="text4270" transform="matrix(.89701 0 .024010 1.1148 0 0)">
        <path id="path3208" style="" d="m480.81 225.58v7.2803h-2.0117v-4.7705c-0.32553 0.2474-0.64047 0.44759-0.94483 0.60058-0.30436 0.153-0.68603 0.29949-1.145 0.43946v-1.6309c0.67708-0.2181 1.2028-0.48014 1.5772-0.78614 0.37435-0.30598 0.66732-0.68358 0.87891-1.1328z"/>
        <path id="path3210" style="" d="m488.81 232.86h-5.9668c0.0684-0.58919 0.27588-1.1434 0.62256-1.6626 0.34668-0.51921 0.99691-1.132 1.9507-1.8384 0.58268-0.43294 0.9554-0.76172 1.1182-0.98633 0.16275-0.2246 0.24413-0.43782 0.24414-0.63965-0.00001-0.21809-0.0806-0.40445-0.2417-0.55908-0.16114-0.15462-0.36377-0.23193-0.60791-0.23193-0.25391 0-0.46143 0.0797-0.62256 0.23925-0.16113 0.15951-0.26937 0.44109-0.32471 0.84473l-1.9922-0.16113c0.0781-0.55989 0.22135-0.9969 0.42968-1.311 0.20834-0.31412 0.50212-0.555 0.88135-0.72265 0.37923-0.16764 0.90413-0.25146 1.5747-0.25147 0.69986 0.00001 1.2443 0.0798 1.6333 0.23926 0.38899 0.15951 0.69498 0.40447 0.91797 0.73486 0.22297 0.33041 0.33446 0.70069 0.33447 1.1108-0.00001 0.4362-0.12777 0.85287-0.3833 1.25-0.25554 0.39714-0.72022 0.83334-1.394 1.3086-0.4004 0.27669-0.66814 0.47038-0.80323 0.58105-0.13509 0.11068-0.29378 0.25554-0.47607 0.43457h3.1055z"/>
      </g>
      <g id="text4274" transform="matrix(.89701 0 .024010 1.1148 0 0)">
        <path id="path3213" style="" d="m519.59 225.58v7.2803h-2.0117v-4.7705c-0.32552 0.2474-0.64046 0.44759-0.94482 0.60058-0.30437 0.153-0.68604 0.29949-1.145 0.43946v-1.6309c0.67708-0.2181 1.2028-0.48014 1.5772-0.78614 0.37434-0.30598 0.66731-0.68358 0.8789-1.1328z"/>
        <path id="path3215" style="" d="m523.7 227.78-1.8799-0.33691c0.15625-0.59895 0.45654-1.0579 0.90088-1.377 0.44433-0.31901 1.0734-0.47851 1.8872-0.47852 0.93424 0.00001 1.6097 0.17416 2.0264 0.52246 0.41666 0.34832 0.625 0.78614 0.625 1.3135 0 0.30925-0.0846 0.5892-0.2539 0.83984-0.16928 0.25066-0.42481 0.47038-0.7666 0.65918 0.27668 0.0684 0.48827 0.14812 0.63476 0.23926 0.23763 0.14649 0.42236 0.33936 0.5542 0.57861 0.13183 0.23926 0.19775 0.52491 0.19775 0.85694 0 0.41667-0.10905 0.81624-0.32714 1.1987-0.21811 0.38248-0.53224 0.67708-0.94239 0.88379-0.41016 0.2067-0.94889 0.31005-1.6162 0.31005-0.65104 0-1.1646-0.0765-1.5405-0.22949-0.37597-0.15299-0.68522-0.37679-0.92773-0.67138-0.24251-0.2946-0.42887-0.66488-0.55908-1.1108l1.9873-0.26368c0.0781 0.4004 0.19938 0.6779 0.36377 0.83252 0.16439 0.15463 0.37353 0.23194 0.62744 0.23194 0.26693 0 0.4891-0.0977 0.66651-0.29297 0.1774-0.19531 0.26611-0.45573 0.26611-0.78125 0-0.33203-0.0854-0.58919-0.25635-0.77149-0.1709-0.18228-0.40283-0.27343-0.6958-0.27343-0.15625 0-0.37109 0.0391-0.64453 0.11718l0.10254-1.4209c0.11067 0.0163 0.19694 0.0244 0.25879 0.0244 0.26041 0 0.4777-0.083 0.65185-0.24902 0.17415-0.16601 0.26123-0.36295 0.26124-0.59082-0.00001-0.2181-0.0651-0.39225-0.19532-0.52247-0.13021-0.1302-0.30925-0.1953-0.53711-0.19531-0.23437 0.00001-0.4248 0.0708-0.57129 0.2124-0.14648 0.14161-0.24577 0.38982-0.29785 0.74463z"/>
      </g>
      <g id="text4278" transform="matrix(.89701 0 .024010 1.1148 0 0)">
        <path id="path3218" style="" d="m558.3 225.58v7.2803h-2.0117v-4.7705c-0.32552 0.2474-0.64046 0.44759-0.94482 0.60058-0.30437 0.153-0.68604 0.29949-1.145 0.43946v-1.6309c0.67708-0.2181 1.2028-0.48014 1.5772-0.78614 0.37434-0.30598 0.66731-0.68358 0.8789-1.1328z"/>
        <path id="path3220" style="" d="m563.89 231.53h-3.623v-1.6357l3.623-4.3066h1.7334v4.3994h0.89844v1.543h-0.89844v1.3379h-1.7334zm0-1.543v-2.251l-1.9141 2.251z"/>
      </g>
      <g id="text4282" transform="matrix(.89701 0 .024010 1.1148 0 0)">
        <path id="path3223" style="" d="m597.19 225.58v7.2803h-2.0117v-4.7705c-0.32552 0.2474-0.64047 0.44759-0.94483 0.60058-0.30436 0.153-0.68603 0.29949-1.145 0.43946v-1.6309c0.67709-0.2181 1.2028-0.48014 1.5772-0.78614 0.37435-0.30598 0.66732-0.68358 0.87891-1.1328z"/>
        <path id="path3225" style="" d="m600.16 225.71h4.7217v1.5869h-3.1982l-0.1709 1.0742c0.22135-0.10416 0.44027-0.18228 0.65674-0.23437 0.21647-0.0521 0.4305-0.0781 0.64209-0.0781 0.71614 0.00001 1.2972 0.21648 1.7432 0.64942 0.44596 0.43294 0.66894 0.97819 0.66895 1.6357-0.00001 0.46224-0.11475 0.90658-0.34424 1.333-0.2295 0.42643-0.55502 0.75195-0.97656 0.97656-0.42156 0.22461-0.96111 0.33691-1.6186 0.33691-0.47201 0-0.87647-0.0448-1.2134-0.13427-0.33692-0.0895-0.62338-0.22298-0.85938-0.40039s-0.42724-0.37842-0.57373-0.60303c-0.14648-0.22461-0.26855-0.50456-0.36621-0.83984l2.0117-0.21973c0.0488 0.32227 0.16276 0.56722 0.3418 0.73486 0.17903 0.16765 0.39225 0.25147 0.63965 0.25147 0.27668 0 0.50536-0.10498 0.68603-0.31494 0.18066-0.20996 0.27099-0.52328 0.271-0.93995-0.00001-0.42643-0.0911-0.73892-0.27344-0.9375-0.1823-0.19856-0.42481-0.29784-0.72754-0.29785-0.19206 0.00001-0.37761 0.0472-0.55664 0.1416-0.13347 0.0684-0.27995 0.19206-0.43945 0.3711l-1.6943-0.24414z"/>
      </g>
      <g id="text4286" transform="matrix(.89701 0 .024010 1.1148 0 0)">
        <path id="path3228" style="" d="m635.97 225.58v7.2803h-2.0117v-4.7705c-0.32552 0.2474-0.64047 0.44759-0.94483 0.60058-0.30436 0.153-0.68603 0.29949-1.145 0.43946v-1.6309c0.67708-0.2181 1.2028-0.48014 1.5771-0.78614 0.37435-0.30598 0.66732-0.68358 0.87891-1.1328z"/>
        <path id="path3230" style="" d="m643.9 227.32-1.9775 0.24414c-0.0521-0.27669-0.13917-0.472-0.26123-0.58594-0.12208-0.11392-0.27263-0.17089-0.45166-0.1709-0.32227 0.00001-0.57292 0.16277-0.75196 0.48829-0.13021 0.23438-0.22624 0.73568-0.28808 1.5039 0.23762-0.24088 0.48176-0.4191 0.73242-0.53467 0.25065-0.11555 0.54036-0.17333 0.86914-0.17334 0.63801 0.00001 1.1776 0.22787 1.6186 0.6836 0.44108 0.45573 0.66162 1.0335 0.66162 1.7334 0 0.472-0.11149 0.90332-0.33447 1.2939-0.22299 0.39063-0.53223 0.68604-0.92773 0.88623-0.39552 0.2002-0.89112 0.30029-1.4868 0.30029-0.71615 0-1.2907-0.12207-1.7236-0.36621-0.43295-0.24414-0.77881-0.63395-1.0376-1.1694-0.25879-0.53548-0.38819-1.2443-0.38819-2.1265 0-1.2923 0.27181-2.2388 0.81543-2.8394 0.54362-0.60058 1.2972-0.90087 2.2608-0.90088 0.56965 0.00001 1.0197 0.0659 1.3501 0.19775s0.60465 0.32472 0.82276 0.57862c0.21809 0.25391 0.38411 0.57292 0.49805 0.95703zm-3.6621 3.1885c-0.00001 0.38737 0.0977 0.69092 0.29296 0.91064 0.19531 0.21973 0.43457 0.32959 0.71778 0.32959 0.26041 0 0.47851-0.0993 0.65429-0.29785 0.17578-0.19857 0.26367-0.49479 0.26368-0.88867-0.00001-0.40365-0.0912-0.71126-0.27344-0.92285-0.1823-0.21159-0.40853-0.31738-0.67871-0.31739-0.2767 0.00001-0.50863 0.10254-0.6958 0.30762-0.18718 0.20508-0.28077 0.49805-0.28076 0.87891z"/>
      </g>
      <g id="text4290" transform="matrix(.89701 0 .024010 1.1148 0 0)">
        <path id="path3233" style="" d="m674.8 225.58v7.2803h-2.0117v-4.7705c-0.32553 0.2474-0.64047 0.44759-0.94483 0.60058-0.30436 0.153-0.68603 0.29949-1.145 0.43946v-1.6309c0.67709-0.2181 1.2028-0.48014 1.5772-0.78614 0.37435-0.30598 0.66732-0.68358 0.87891-1.1328z"/>
        <path id="path3235" style="" d="m677.01 225.71h5.8057v1.3428c-0.50456 0.45574-0.92611 0.9489-1.2646 1.4795-0.41016 0.64453-0.73405 1.3623-0.97168 2.1533-0.1888 0.61523-0.31575 1.3428-0.38086 2.1826h-1.9824c0.15625-1.1686 0.40202-2.1484 0.73731-2.9394 0.33528-0.79101 0.86588-1.6374 1.5918-2.5391h-3.5352z"/>
      </g>
      <g id="text4294" transform="matrix(.89701 0 .024010 1.1148 0 0)">
        <path id="path3238" style="" d="m713.59 225.58v7.2803h-2.0117v-4.7705c-0.32552 0.2474-0.64047 0.44759-0.94483 0.60058-0.30436 0.153-0.68603 0.29949-1.145 0.43946v-1.6309c0.67708-0.2181 1.2028-0.48014 1.5771-0.78614 0.37435-0.30598 0.66732-0.68358 0.87891-1.1328z"/>
        <path id="path3240" style="" d="m716.96 229.02c-0.3125-0.16601-0.54037-0.35156-0.6836-0.55664-0.19531-0.27995-0.29296-0.60221-0.29296-0.9668 0-0.59895 0.28157-1.0889 0.84472-1.4697 0.43945-0.29296 1.0205-0.43944 1.7432-0.43945 0.95702 0.00001 1.6642 0.1823 2.1216 0.54688 0.45735 0.36459 0.68603 0.82357 0.68603 1.377 0 0.32227-0.0911 0.62338-0.27343 0.90332-0.13673 0.20834-0.35157 0.41016-0.64454 0.60547 0.38737 0.18555 0.67627 0.43132 0.8667 0.7373 0.19043 0.306 0.28564 0.64454 0.28565 1.0156-0.00001 0.35807-0.0822 0.69254-0.24658 1.0034-0.1644 0.31087-0.36622 0.55094-0.60547 0.72021-0.23927 0.16927-0.53712 0.29378-0.89356 0.37354-0.35645 0.0797-0.73649 0.11962-1.1401 0.11962-0.75847 0-1.3379-0.0895-1.7383-0.26855-0.4004-0.17904-0.70476-0.44271-0.91309-0.79102-0.20833-0.3483-0.3125-0.7373-0.3125-1.167 0-0.41992 0.0976-0.77555 0.29297-1.0669 0.19531-0.29134 0.49642-0.51676 0.90332-0.67627zm0.89355-1.4062c0 0.2474 0.0773 0.44678 0.23194 0.59814 0.15462 0.15137 0.36051 0.22706 0.61767 0.22705 0.22786 0.00001 0.41504-0.0749 0.56153-0.22461 0.14648-0.14973 0.21972-0.34342 0.21972-0.58105 0-0.24739-0.0765-0.4484-0.22949-0.60303-0.153-0.15461-0.34831-0.23193-0.58594-0.23193-0.24089 0-0.43701 0.0757-0.58838 0.22705-0.15137 0.15137-0.22705 0.3475-0.22705 0.58838zm-0.10742 3.081c0 0.31576 0.096 0.57373 0.28809 0.77393 0.19205 0.2002 0.41178 0.30029 0.65918 0.30029 0.23762 0 0.45084-0.10172 0.63965-0.30517 0.18879-0.20345 0.28319-0.46143 0.2832-0.77393-0.00001-0.31575-0.0952-0.57454-0.28565-0.77637-0.19043-0.20182-0.41097-0.30273-0.66162-0.30273-0.2474 0-0.46305 0.0977-0.64697 0.29297-0.18392 0.19531-0.27588 0.45898-0.27588 0.79101z"/>
      </g>
      <g id="text4298" transform="matrix(.89701 0 .024010 1.1148 0 0)">
        <path id="path3243" style="" d="m752.4 225.58v7.2803h-2.0117v-4.7705c-0.32553 0.2474-0.64047 0.44759-0.94483 0.60058-0.30436 0.153-0.68603 0.29949-1.145 0.43946v-1.6309c0.67708-0.2181 1.2028-0.48014 1.5772-0.78614 0.37435-0.30598 0.66732-0.68358 0.87891-1.1328z"/>
        <path id="path3245" style="" d="m754.66 231.26 1.9775-0.24902c0.0521 0.27669 0.13997 0.472 0.26367 0.58593 0.12369 0.11394 0.27506 0.1709 0.4541 0.1709 0.31901 0 0.56803-0.16113 0.74707-0.4834 0.1302-0.23763 0.22786-0.74055 0.29297-1.5088-0.23764 0.24415-0.48178 0.42318-0.73242 0.53711-0.25066 0.11394-0.54037 0.1709-0.86914 0.1709-0.64128 0-1.1825-0.22786-1.6235-0.68359-0.44108-0.45573-0.66162-1.0319-0.66162-1.7285 0-0.47525 0.1123-0.90819 0.33691-1.2988s0.53386-0.68602 0.92774-0.88623c0.39388-0.20018 0.88867-0.30028 1.4844-0.30029 0.71614 0.00001 1.2907 0.12289 1.7236 0.36865 0.43293 0.24578 0.7788 0.6364 1.0376 1.1719 0.25879 0.53549 0.38818 1.2427 0.38819 2.1216-0.00001 1.2923-0.27182 2.2388-0.81543 2.8394-0.54363 0.60058-1.2972 0.90087-2.2607 0.90087-0.56967 0-1.0189-0.0659-1.3477-0.19775-0.32878-0.13183-0.60222-0.32471-0.82031-0.57861-0.2181-0.25391-0.38575-0.57129-0.50293-0.95215zm3.6621-3.1934c-0.00001-0.38736-0.0977-0.69091-0.29297-0.91064-0.19532-0.21973-0.43295-0.32959-0.71289-0.32959-0.26368 0-0.48259 0.0993-0.65674 0.29785-0.17416 0.19857-0.26123 0.49642-0.26123 0.89355 0 0.4004 0.0903 0.70639 0.27099 0.91797 0.18067 0.21159 0.40609 0.31739 0.67627 0.31738 0.27995 0.00001 0.5127-0.10253 0.69825-0.30761 0.18554-0.20508 0.27831-0.49805 0.27832-0.87891z"/>
      </g>
      <g id="text4302" transform="matrix(.89701 0 .024010 1.1148 0 0)">
        <path id="path3174" style="" d="m15.606 229.94 1.9385 0.58594c-0.13022 0.54362-0.33529 0.99772-0.61523 1.3623-0.27996 0.36459-0.62745 0.63965-1.0425 0.8252-0.41504 0.18554-0.9432 0.27832-1.5845 0.27832-0.778 0-1.4136-0.11312-1.9067-0.33936-0.49317-0.22623-0.91878-0.62418-1.2769-1.1938-0.35807-0.56966-0.53711-1.2988-0.53711-2.1875 0-1.1849 0.31494-2.0955 0.94482-2.7319 0.62988-0.63639 1.521-0.95458 2.6733-0.95459 0.90169 0.00001 1.6105 0.1823 2.1265 0.54688 0.51594 0.36459 0.89924 0.92448 1.1499 1.6797l-1.9531 0.43457c-0.06837-0.21809-0.13998-0.3776-0.21484-0.47851-0.1237-0.16927-0.27507-0.29948-0.4541-0.39063-0.17904-0.0911-0.37924-0.13671-0.60059-0.13672-0.5013 0.00001-0.88542 0.20183-1.1523 0.60547-0.20183 0.29949-0.30274 0.76986-0.30274 1.4111-0.000003 0.79427 0.12044 1.3387 0.36133 1.6333 0.24088 0.29459 0.57942 0.44189 1.0156 0.44189 0.42317 0 0.743-0.11881 0.95947-0.35644s0.37353-0.58268 0.47119-1.0352z"/>
        <path id="path3176" style="" d="m18.589 225.71h2.9102l1.123 4.3555 1.1182-4.3555h2.9004v7.1582h-1.8066v-5.459l-1.4014 5.459h-1.6357l-1.3965-5.459v5.459h-1.8115z"/>
      </g>
      <g id="text4314" fill="#aaa" transform="matrix(1 0 -.48737 1 0 0)">
        <path id="path3153" d="m453.1 297.31h-6.1229l-0.84249 2.8716h-5.494l6.5382-17.396h5.8618l6.5382 17.396h-5.6245zm-1.1273-3.7616-1.9223-6.2534-1.9104 6.2534z"/>
        <path id="path3155" d="m461.33 282.79h5.0194l6.5501 9.6234v-9.6234h5.0668v17.396h-5.0668l-6.5145-9.5522v9.5522h-5.055z"/>
        <path id="path3157" d="m480.88 291.5c0-2.8399 0.79107-5.051 2.3732-6.6331s3.7853-2.3732 6.6094-2.3732c2.8953 0.00002 5.1261 0.77725 6.6925 2.3317 1.5663 1.5545 2.3495 3.7319 2.3495 6.5323-0.00002 2.0331-0.34216 3.7002-1.0264 5.0016-0.68429 1.3013-1.6731 2.3139-2.9665 3.0377-1.2934 0.72383-2.9052 1.0858-4.8354 1.0858-1.9619 0-3.5855-0.31248-4.871-0.93742-1.2855-0.62495-2.3277-1.6138-3.1267-2.9665-0.79899-1.3527-1.1985-3.0456-1.1985-5.0787zm5.3753 0.0237c-0.00001 1.7562 0.32631 3.018 0.97895 3.7853 0.65263 0.76735 1.5406 1.151 2.6639 1.151 1.155 0.00001 2.0489-0.37575 2.6817-1.1273 0.63284-0.75152 0.94927-2.1003 0.94928-4.0463-0.00001-1.6375-0.33028-2.834-0.99082-3.5895-0.66055-0.75546-1.5564-1.1332-2.6877-1.1332-1.0838 0.00001-1.954 0.38368-2.6105 1.151-0.6566 0.76735-0.9849 2.037-0.98489 3.809z"/>
        <path id="path3159" d="m501.77 282.79h7.0722l2.7292 10.585 2.7173-10.585h7.0485v17.396h-4.3904v-13.266l-3.4056 13.266h-3.9751l-3.3937-13.266v13.266h-4.4023z"/>
        <path id="path3161" d="m535.45 297.31h-6.1229l-0.84249 2.8716h-5.494l6.5382-17.396h5.8618l6.5382 17.396h-5.6245zm-1.1273-3.7616-1.9223-6.2534-1.9104 6.2534z"/>
        <path id="path3163" d="m543.64 282.79h5.3753v13.112h8.3893v4.2837h-13.765z"/>
        <path id="path3165" d="m558.12 282.79h5.9686l3.5124 5.8737 3.5124-5.8737h5.933l-6.7637 10.11v7.2858h-5.3872v-7.2858z"/>
      </g>
      <path id="path4318" opacity=".2" d="m15.344 230.27l-3.906 3.69 0.781 28.37h-0.063v57.88h-0.094l-0.624 17.38 714.15-0.25-1.09-1.77h1.22l0.53-15.33h0.19v-57.91h-0.38l-0.34-28.7-4.13-3.36h-706.25z" fill="url(#radialGradient5864)"/>
    </g>
  </g>
  <metadata>
    <rdf:RDF>
      <cc:Work>
        <dc:format>image/svg+xml</dc:format>
        <dc:type rdf:resource="http://purl.org/dc/dcmitype/StillImage"/>
        <cc:license rdf:resource="http://creativecommons.org/licenses/publicdomain/"/>
        <dc:publisher>
          <cc:Agent rdf:about="http://openclipart.org/">
            <dc:title>Openclipart</dc:title>
          </cc:Agent>
        </dc:publisher>
        <dc:title>Linijka</dc:title>
        <dc:date>2010-08-19T07:55:08</dc:date>
        <dc:description>artyku&#x142;y szkolne, clip art, clipart, instrument, linijka, measure, miara, przybory, ruler, school, supply, </dc:description>
        <dc:source>http://openclipart.org/detail/81319/linijka-by-anomaly</dc:source>
        <dc:creator>
          <cc:Agent>
            <dc:title>Anomaly</dc:title>
          </cc:Agent>
        </dc:creator>
        <dc:subject>
          <rdf:Bag>
            <rdf:li>artyku&#x142;y szkolne</rdf:li>
            <rdf:li>clip art</rdf:li>
            <rdf:li>clipart</rdf:li>
            <rdf:li>instrument</rdf:li>
            <rdf:li>linijka</rdf:li>
            <rdf:li>measure</rdf:li>
            <rdf:li>miara</rdf:li>
            <rdf:li>przybory</rdf:li>
            <rdf:li>ruler</rdf:li>
            <rdf:li>school</rdf:li>
            <rdf:li>supply</rdf:li>
          </rdf:Bag>
        </dc:subject>
      </cc:Work>
      <cc:License rdf:about="http://creativecommons.org/licenses/publicdomain/">
        <cc:permits rdf:resource="http://creativecommons.org/ns#Reproduction"/>
        <cc:permits rdf:resource="http://creativecommons.org/ns#Distribution"/>
        <cc:permits rdf:resource="http://creativecommons.org/ns#DerivativeWorks"/>
      </cc:License>
    </rdf:RDF>
  </metadata>
</svg>
