<?xml version="1.0"?>
<svg xmlns:rdf="http://www.w3.org/1999/02/22-rdf-syntax-ns#" xmlns="http://www.w3.org/2000/svg" xmlns:cc="http://creativecommons.org/ns#" xmlns:xlink="http://www.w3.org/1999/xlink" xmlns:dc="http://purl.org/dc/elements/1.1/" xmlns:svg="http://www.w3.org/2000/svg" id="svg2591" viewBox="0 0 145.97 855.78" version="1.0">
  <defs id="defs3">
    <linearGradient id="linearGradient3396" x1="547.97" spreadMethod="reflect" gradientUnits="userSpaceOnUse" y1="433.42" gradientTransform="translate(-290 12.243)" x2="620.96" y2="433.42">
      <stop id="stop3392" stop-color="#888a85" offset="0"/>
      <stop id="stop3398" stop-color="#888a85" stop-opacity=".49804" offset=".28078"/>
      <stop id="stop3394" stop-color="#888a85" stop-opacity="0" offset="1"/>
    </linearGradient>
    <linearGradient id="linearGradient3408" x1="541.22" spreadMethod="reflect" gradientUnits="userSpaceOnUse" y1="681.33" gradientTransform="translate(-245.94 130.65)" x2="576.57" y2="681.33">
      <stop id="stop3412" stop-color="#888a85" offset="0"/>
      <stop id="stop3414" stop-color="#888a85" stop-opacity=".49804" offset=".30906"/>
      <stop id="stop3416" stop-color="#888a85" stop-opacity="0" offset="1"/>
    </linearGradient>
    <filter id="filter3453">
      <feGaussianBlur id="feGaussianBlur3455" stdDeviation="0.75737847"/>
    </filter>
    <linearGradient id="linearGradient3475" x1="342.12" gradientUnits="userSpaceOnUse" y1="954.78" gradientTransform="matrix(1.6053 0 0 1.6053 -200.3 -569.76)" x2="319.73" y2="954.07">
      <stop id="stop3471" stop-color="#babdb6" offset="0"/>
      <stop id="stop3477" stop-color="#eeeeec" offset=".28973"/>
      <stop id="stop3479" stop-color="#babdb6" offset=".53973"/>
      <stop id="stop3481" stop-color="#555753" offset=".75234"/>
      <stop id="stop3473" stop-color="#eeeeec" offset="1"/>
    </linearGradient>
    <filter id="filter3554" y="-.1372" width="1.0955" x="-.04774" height="1.2744">
      <feGaussianBlur id="feGaussianBlur3556" stdDeviation="0.3923355"/>
    </filter>
    <linearGradient id="linearGradient3580" y2="257.14" gradientUnits="userSpaceOnUse" y1="219.44" x2="550.29" x1="502.84">
      <stop id="stop3576" stop-color="#d3d7cf" offset="0"/>
      <stop id="stop3578" stop-color="#fff" offset="1"/>
    </linearGradient>
    <linearGradient id="linearGradient3672" x1="331.69" gradientUnits="userSpaceOnUse" y1="955.69" gradientTransform="translate(.35355)" x2="334.03" y2="936.6">
      <stop id="stop3668" stop-color="#555753" offset="0"/>
      <stop id="stop3670" stop-color="#555753" stop-opacity="0" offset="1"/>
    </linearGradient>
  </defs>
  <g id="layer1" transform="translate(-257.97 -128.7)">
    <path id="rect2610" fill="url(#linearGradient3475)" d="m330.93 898.21c8.17 0 11.54 6.95 11.54 15.57l6.42 55.13c0 8.63-9.79 15.57-17.96 15.57-8.18 0-17.97-6.94-17.97-15.57l6.42-55.13c0-8.62 3.37-15.57 11.55-15.57z"/>
    <path id="rect2605" fill="#3465a4" d="m295.92 679.32h70.71l-20 267.33h-30.71l-20-267.33z"/>
    <path id="path3400" fill="url(#linearGradient3408)" d="m295.28 678.31h70.71l-20 267.33h-30.71l-20-267.33z"/>
    <path id="rect2599" fill="#eeeeec" d="m308.6 128.7c-10.24 4.46-22.7 14.56-36.1 35.71-10.62 80.83-14.58 145.73-14.53 201.91 0.16 155.31 31.11 137.94 37.41 312.09 1.77 1.78 5.69 1.19 7.72 2.29l15.43 36s5.41 45.04 12.41 45.43c8.81 0.32 12.44-45.43 12.44-45.43l15.4-36c2.04-1.1 5.98-0.51 7.75-2.29 6.3-174.15 37.26-156.78 37.41-312.09 0.06-56.18-3.9-121.08-14.53-201.91-13.4-21.16-25.89-31.26-36.13-35.71h-44.68z"/>
    <path id="path2618" opacity=".71127" fill="url(#linearGradient3396)" d="m308.6 128.94c-10.24 4.46-22.7 14.56-36.1 35.72-10.62 80.83-14.58 145.73-14.53 201.9 0.16 155.31 31.11 137.94 37.41 312.1 1.77 1.77 5.69 1.18 7.72 2.28l15.43 36s5.41 45.04 12.41 45.44c8.81 0.31 12.44-45.44 12.44-45.44l15.4-36c2.04-1.1 5.98-0.51 7.75-2.28 6.3-174.16 37.26-156.79 37.41-312.1 0.06-56.17-3.9-121.07-14.53-201.9-13.4-21.17-25.89-31.27-36.13-35.72h-44.68z"/>
    <path id="rect2613" fill="#3465a4" d="m328 179.36h6c15.51 0 28 12.49 28 28v193c0 15.51-12.49 82-28 82h-6c-15.51 0-28-66.49-28-82v-193c0-15.51 12.49-28 28-28z"/>
    <path id="path2616" transform="matrix(.73438 0 0 .73438 -55.516 52.612)" fill="#d3d7cf" d="m559 241.36a32 32 0 1 1 -64 0 32 32 0 1 1 64 0z"/>
    <rect id="rect3418" height="136.47" width="31.113" y="271.87" x="315.93" fill="#9dc575"/>
    <rect id="rect3420" height="136.47" width="4.2426" y="271.87" x="312.4" fill="#c6c6c5"/>
    <rect id="rect3422" height="136.47" width="3.182" y="271.87" x="346.11" fill="#9b9d99"/>
    <path id="rect3424" opacity=".41197" filter="url(#filter3453)" fill="#555753" d="m312 271.88v10h31v127h6v-127h0.5v-10h-37.5z"/>
    <path id="path3483" opacity=".54225" d="m321.36 960.99l-0.22 1.24c0 3.12 5.39 5.62 9.87 5.62 4.49 0 9.85-2.5 9.85-5.62l-0.16-0.95h-17c-0.83 0-1.62-0.1-2.34-0.29z" transform="matrix(1.6053 0 0 1.6053 -200.3 -569.76)" filter="url(#filter3554)" fill="#555753"/>
    <path id="flowRoot3558" transform="matrix(0 .55566 -.55566 0 631.64 -8.6595)" d="m516.88 553.46l-2.16 1.88-1.64-1.88 1.6-11.24h1.72l1.76 2.08-1.28 9.16m1.96-14.12l-2.32 2.08h-1.72l1.56-11.24 2.16-1.88 1.6 1.88-1.28 9.16m13.64-11.64l-2.12 1.88h-9.56l-1.6-1.88 2.12-1.88h9.56l1.6 1.88m0.56 13.72h-1.72l-1.76-2.08 1.28-9.16 2.16-1.88 1.6 1.88-1.56 11.24m-1.68 12.04l-2.16 1.88-1.64-1.88 1.32-9.16 2.32-2.08h1.72l-1.56 11.24m-2.84 2.48l-2.16 1.88h-9.52l-1.6-1.88 2.12-1.88h9.56l1.6 1.88m9.72-0.08l-2.12 1.88-1.64-1.88 1.92-13.64h1.72l1.76 2.08-1.64 11.56m2.32-16.52l-2.32 2.08h-1.72l1.92-13.64 2.12-1.88 1.64 1.88-1.64 11.56m9.92-0.12h-2.2l-5.92-6.88 0.6-4.44h1.08l6.88 8.04-0.44 3.28m4.28 2.2h-1.72l-1.76-2.08 1.64-11.56 2.12-1.88 1.64 1.88-1.92 13.64m-2.04 14.44l-2.16 1.88-1.6-1.88 1.64-11.56 2.32-2.08h1.72l-1.92 13.64m88.71-16.52l-2.12 1.88-1.64-1.88 1.32-9.16 2.12-1.88 1.64 1.88-1.32 9.16m-0.8-11.64l-2.16 1.88h-10.72l-1.64-1.88 2.16-1.88h10.72l1.64 1.88m-2 14.12l-2.16 1.88h-8.4l-1.6-1.88 2.16-1.88h8.4l1.6 1.88m0.84 11.64l-2.16 1.88-1.6-1.88 1.28-9.16 2.16-1.88 1.6 1.88-1.28 9.16m-2.84 2.48l-2.12 1.88h-10.72l-1.64-1.88 2.16-1.88h10.72l1.6 1.88m27.16-28.24l-2.16 1.88h-9.52l-1.6-1.88 2.12-1.88h9.56l1.6 1.88m-13.64 11.64l-2.32 2.08h-1.72l1.56-11.24 2.16-1.88 1.6 1.88-1.28 9.16m-1.96 14.12l-2.16 1.88-1.64-1.88 1.6-11.24h1.72l1.76 2.08-1.28 9.16m11.64 2.48l-2.16 1.88h-9.52l-1.64-1.88 2.16-1.88h9.52l1.64 1.88m2.8-2.48l-2.12 1.88-1.64-1.88 1.28-9.16 2.16-1.88 1.64 1.88-1.32 9.16m-0.8-11.64l-2.16 1.88h-9.6l-1.6-1.88 2.16-1.88h9.56l1.64 1.88m8.56 13.96l-2.12 1.88-1.64-1.88 0.28-1.88 2.12-1.88 1.64 1.88-0.28 1.88m9.19-24.6l-2.16 1.88-1.64-1.88 0.16-1 2.16-1.88 1.6 1.88-0.12 1m12.48-3.48l-2.16 1.88h-9.52l-1.64-1.88 2.16-1.88h9.52l1.64 1.88m0.84 11.64l-2.16 1.88-1.6-1.88 1.28-9.16 2.16-1.88 1.6 1.88-1.28 9.16m-2.76 2.48l-2.16 1.88h-9.6l-1.6-1.88 2.16-1.88h9.56l1.64 1.88m-13.72 11.64l-4.28 3.76 1.84-13 2.12-1.88 1.64 1.88-1.32 9.24m13.32 4.36h-17.08l4.28-3.76h9.56l3.24 3.76m47.47-26.64l-2.16 1.88-1.6-1.88 0.12-1 2.16-1.88 1.6 1.88-0.12 1m-2-3.48l-2.12 1.88h-9.56l-1.6-1.88 2.12-1.88h9.56l1.6 1.88m-13.64 11.64l-2.32 2.08h-1.72l1.56-11.24 2.16-1.88 1.6 1.88-1.28 9.16m-1.96 14.12l-2.16 1.88-1.64-1.88 1.6-11.24h1.72l1.76 2.08-1.28 9.16m11.64 2.48l-2.16 1.88h-9.52l-1.6-1.88 2.12-1.88h9.56l1.6 1.88m2.84-2.48l-2.16 1.88-1.64-1.88 0.16-1 2.16-1.88 1.6 1.88-0.12 1"/>
    <path id="path3572" stroke-linejoin="round" d="m559 241.36a32 32 0 1 1 -64 0 32 32 0 1 1 64 0z" transform="matrix(.60068 0 0 .60068 14.693 85.631)" stroke="#babdb6" stroke-linecap="round" stroke-width="1.8639" fill="url(#linearGradient3580)"/>
    <path id="path3657" fill="url(#linearGradient3672)" d="m315.22 926.87l1.47 19.46h30.72l1.47-19.46h-33.66z"/>
  </g>
  <metadata>
    <rdf:RDF>
      <cc:Work>
        <dc:format>image/svg+xml</dc:format>
        <dc:type rdf:resource="http://purl.org/dc/dcmitype/StillImage"/>
        <cc:license rdf:resource="http://creativecommons.org/licenses/publicdomain/"/>
        <dc:publisher>
          <cc:Agent rdf:about="http://openclipart.org/">
            <dc:title>Openclipart</dc:title>
          </cc:Agent>
        </dc:publisher>
        <dc:title>Digital clinic thermometer</dc:title>
        <dc:date>2008-11-21T09:02:56</dc:date>
        <dc:description>clinic, clinic, clip art, clipart, color, color, digital, digital, health, health, image, media, photorealistic, photorealistic, png, public domain, svg, thermometer, thermometer, </dc:description>
        <dc:source>http://openclipart.org/detail/20313/digital-clinic-thermometer-by-rg1024-20313</dc:source>
        <dc:creator>
          <cc:Agent>
            <dc:title>rg1024</dc:title>
          </cc:Agent>
        </dc:creator>
        <dc:subject>
          <rdf:Bag>
            <rdf:li>clinic</rdf:li>
            <rdf:li>clip art</rdf:li>
            <rdf:li>clipart</rdf:li>
            <rdf:li>color</rdf:li>
            <rdf:li>digital</rdf:li>
            <rdf:li>health</rdf:li>
            <rdf:li>image</rdf:li>
            <rdf:li>media</rdf:li>
            <rdf:li>photorealistic</rdf:li>
            <rdf:li>png</rdf:li>
            <rdf:li>public domain</rdf:li>
            <rdf:li>svg</rdf:li>
            <rdf:li>thermometer</rdf:li>
          </rdf:Bag>
        </dc:subject>
      </cc:Work>
      <cc:License rdf:about="http://creativecommons.org/licenses/publicdomain/">
        <cc:permits rdf:resource="http://creativecommons.org/ns#Reproduction"/>
        <cc:permits rdf:resource="http://creativecommons.org/ns#Distribution"/>
        <cc:permits rdf:resource="http://creativecommons.org/ns#DerivativeWorks"/>
      </cc:License>
    </rdf:RDF>
  </metadata>
</svg>
