<?xml version="1.0" encoding="UTF-8" standalone="no"?>
<svg
   viewBox="0 0 175.75 218.63"
   version="1.1"
   id="svg58"
   sodipodi:docname="calcullit1.svg"
   inkscape:version="1.2 (1:1.2.1+202207142221+cd75a1ee6d)"
   inkscape:export-filename="calcullit1.png"
   inkscape:export-xdpi="298.43"
   inkscape:export-ydpi="298.43"
   xmlns:inkscape="http://www.inkscape.org/namespaces/inkscape"
   xmlns:sodipodi="http://sodipodi.sourceforge.net/DTD/sodipodi-0.dtd"
   xmlns="http://www.w3.org/2000/svg"
   xmlns:svg="http://www.w3.org/2000/svg"
   xmlns:rdf="http://www.w3.org/1999/02/22-rdf-syntax-ns#"
   xmlns:cc="http://creativecommons.org/ns#"
   xmlns:dc="http://purl.org/dc/elements/1.1/">
  <sodipodi:namedview
     id="namedview60"
     pagecolor="#ffffff"
     bordercolor="#666666"
     borderopacity="1.0"
     inkscape:showpageshadow="2"
     inkscape:pageopacity="1"
     inkscape:pagecheckerboard="0"
     inkscape:deskcolor="#d1d1d1"
     showgrid="false"
     inkscape:zoom="3.7780725"
     inkscape:cx="88.007841"
     inkscape:cy="109.44735"
     inkscape:window-width="1920"
     inkscape:window-height="1009"
     inkscape:window-x="0"
     inkscape:window-y="34"
     inkscape:window-maximized="1"
     inkscape:current-layer="svg58" />
  <defs
     id="defs4">
    <style
       id="style2">.cls-1{fill:#3a3a39;}.cls-2{fill:#2a2a29;}.cls-3{fill:#a176ac;}.cls-4{fill:#a9bb4a;}</style>
  </defs>
  <title
     id="title6">PC2.FMCOMP.INF23</title>
  <path
     d="M27.5 16.73a1.55 1.55 0 0 1-.32 1.07 2 2 0 0 1-.94.56l-.18-.48a1.32 1.32 0 0 0 .48-.27.77.77 0 0 0 .23-.35 2 2 0 0 0 .06-.54V12.6h.67zM31.6 15.78h-2.35a1.43 1.43 0 0 0 .3.9.9.9 0 0 0 .7.28 1.53 1.53 0 0 0 .48-.07 2 2 0 0 0 .47-.26l.28.4a2 2 0 0 1-1.3.45A1.52 1.52 0 0 1 29 17a2.06 2.06 0 0 1-.43-1.4 2.54 2.54 0 0 1 .2-1 1.58 1.58 0 0 1 .52-.7 1.4 1.4 0 0 1 .8-.24 1.35 1.35 0 0 1 1.13.5 2 2 0 0 1 .4 1.32c-.02.08-.02.2-.03.3zm-.6-.52a1.4 1.4 0 0 0-.2-.83.77.77 0 0 0-.66-.3c-.53 0-.82.4-.86 1.18H31zM36.44 13.73A1.67 1.67 0 0 1 37 14l-.3.4a1.62 1.62 0 0 0-.4-.2 1.35 1.35 0 0 0-.4-.07.8.8 0 0 0-.7.36 1.9 1.9 0 0 0-.25 1.05 1.77 1.77 0 0 0 .25 1 .8.8 0 0 0 .7.33 1.3 1.3 0 0 0 .4-.06 2.36 2.36 0 0 0 .4-.22l.3.42a1.77 1.77 0 0 1-1.13.4 1.5 1.5 0 0 1-1.18-.5 2.08 2.08 0 0 1-.44-1.4 2.56 2.56 0 0 1 .2-1 1.55 1.55 0 0 1 .55-.67 1.45 1.45 0 0 1 .87-.25 1.64 1.64 0 0 1 .57.13zM40.37 13.93a1.16 1.16 0 0 1 .28.83v2.65H40v-2.55a.78.78 0 0 0-.16-.55.54.54 0 0 0-.43-.16.84.84 0 0 0-.5.16 2 2 0 0 0-.42.48v2.63h-.65v-5.16l.65-.07v2.06a1.3 1.3 0 0 1 1.1-.6 1 1 0 0 1 .8.3zM44.72 15.78h-2.36a1.43 1.43 0 0 0 .3.9.9.9 0 0 0 .7.28 1.57 1.57 0 0 0 .5-.07 2.17 2.17 0 0 0 .46-.26l.28.4a2 2 0 0 1-1.3.45 1.5 1.5 0 0 1-1.2-.5 2.06 2.06 0 0 1-.42-1.4 2.73 2.73 0 0 1 .18-1 1.65 1.65 0 0 1 .53-.7 1.44 1.44 0 0 1 .8-.25 1.35 1.35 0 0 1 1.14.5 2 2 0 0 1 .4 1.32c0 .1-.02.2-.02.3zm-.63-.52a1.4 1.4 0 0 0-.22-.83.8.8 0 0 0-.66-.3c-.52 0-.8.4-.86 1.18h1.73zM47.73 13.67l-.12.63a1.87 1.87 0 0 0-.3 0 .72.72 0 0 0-.57.25 1.9 1.9 0 0 0-.33.8v2.1h-.64v-3.73h.55l.08.75a1.4 1.4 0 0 1 .4-.63.9.9 0 0 1 .58-.2 2.2 2.2 0 0 1 .37.03zM50.2 13.73a1.63 1.63 0 0 1 .52.3l-.3.4a1.44 1.44 0 0 0-.4-.2 1.3 1.3 0 0 0-.4-.07.78.78 0 0 0-.7.36 1.82 1.82 0 0 0-.24 1.06 1.78 1.78 0 0 0 .24 1 .83.83 0 0 0 .7.33 1.25 1.25 0 0 0 .4-.05 2.4 2.4 0 0 0 .4-.22l.3.42a1.74 1.74 0 0 1-1.12.4 1.48 1.48 0 0 1-1.18-.5 2.08 2.08 0 0 1-.43-1.4 2.56 2.56 0 0 1 .18-1 1.57 1.57 0 0 1 .56-.67 1.43 1.43 0 0 1 .86-.25 1.68 1.68 0 0 1 .6.1zM54.12 13.93a1.16 1.16 0 0 1 .28.83v2.65h-.64v-2.55a.8.8 0 0 0-.15-.55.57.57 0 0 0-.43-.16.84.84 0 0 0-.5.16 2 2 0 0 0-.43.48v2.63h-.64v-5.16l.64-.07v2.06a1.3 1.3 0 0 1 1.1-.6 1 1 0 0 1 .78.3zM58.47 15.78h-2.35a1.43 1.43 0 0 0 .3.9.87.87 0 0 0 .7.28 1.53 1.53 0 0 0 .48-.07 2 2 0 0 0 .47-.26l.28.4a2 2 0 0 1-1.3.45 1.52 1.52 0 0 1-1.2-.5 2.12 2.12 0 0 1-.42-1.4 2.54 2.54 0 0 1 .2-1 1.58 1.58 0 0 1 .52-.7 1.4 1.4 0 0 1 .82-.25 1.33 1.33 0 0 1 1.12.5 2 2 0 0 1 .38 1.32c0 .1 0 .2 0 .3zm-.62-.52a1.4 1.4 0 0 0-.22-.83.76.76 0 0 0-.65-.3c-.53 0-.8.4-.86 1.18h1.73zM74.53 17.28a.84.84 0 0 1-.2-.6v-4.45l.64-.07v4.5a.36.36 0 0 0 0 .23.22.22 0 0 0 .18.06.86.86 0 0 0 .24 0l.15.44a1 1 0 0 1-.5.13.75.75 0 0 1-.52-.25zM78.93 16.88a.53.53 0 0 0 .24.16l-.15.45a1 1 0 0 1-.46-.17.73.73 0 0 1-.26-.4 1.24 1.24 0 0 1-1.1.56 1.16 1.16 0 0 1-.86-.32 1.06 1.06 0 0 1-.32-.8 1 1 0 0 1 .43-.9 2 2 0 0 1 1.2-.32h.56v-.27a.72.72 0 0 0-.17-.57.83.83 0 0 0-.6-.17 3.2 3.2 0 0 0-1 .2l-.15-.48a3.9 3.9 0 0 1 1.27-.25 1.36 1.36 0 0 1 1 .32 1.24 1.24 0 0 1 .32.9v1.7a.64.64 0 0 0 .06.33zm-.72-.45v-.84h-.47q-1 0-1 .74a.68.68 0 0 0 .16.5.65.65 0 0 0 .47.17 1 1 0 0 0 .84-.57zM84.9 12.23v5.18h-.57l-.07-.5a1.26 1.26 0 0 1-.45.43 1.16 1.16 0 0 1-.6.16 1.2 1.2 0 0 1-1-.53 2.4 2.4 0 0 1-.36-1.4 2.64 2.64 0 0 1 .17-1 1.7 1.7 0 0 1 .5-.68 1.3 1.3 0 0 1 .78-.26 1.32 1.32 0 0 1 1 .46v-1.94zm-1 4.6a1.6 1.6 0 0 0 .4-.4v-1.8a1.3 1.3 0 0 0-.4-.36.83.83 0 0 0-.46-.13.75.75 0 0 0-.66.36 2 2 0 0 0-.23 1.06 2 2 0 0 0 .22 1.07.7.7 0 0 0 .62.35.92.92 0 0 0 .44-.14zM89 17.4h-.56v-.57a1.36 1.36 0 0 1-.48.5 1.24 1.24 0 0 1-.66.16 1 1 0 0 1-.76-.3 1.2 1.2 0 0 1-.27-.84v-2.64h.64v2.57a.93.93 0 0 0 .14.53.57.57 0 0 0 .44.16 1.1 1.1 0 0 0 .92-.65v-2.63h.6zM92.26 13.67l-.12.63a1.75 1.75 0 0 0-.32 0 .7.7 0 0 0-.55.25 1.9 1.9 0 0 0-.33.8v2.1h-.64v-3.73h.55l.06.75a1.4 1.4 0 0 1 .4-.63.9.9 0 0 1 .6-.2 2 2 0 0 1 .36.03zM95.56 15.78H93.2a1.43 1.43 0 0 0 .32.9.87.87 0 0 0 .68.28 1.53 1.53 0 0 0 .5-.07 2 2 0 0 0 .46-.26l.28.4a2 2 0 0 1-1.3.45A1.52 1.52 0 0 1 93 17a2.12 2.12 0 0 1-.43-1.4 2.54 2.54 0 0 1 .2-1 1.58 1.58 0 0 1 .52-.7 1.4 1.4 0 0 1 .8-.24 1.33 1.33 0 0 1 1.13.5 2 2 0 0 1 .4 1.32c-.06.08-.06.2-.07.3zm-.62-.52a1.4 1.4 0 0 0-.22-.83.76.76 0 0 0-.65-.3c-.53 0-.8.4-.86 1.18h1.74zm-.3-3.46l.28.54-1.5.6-.18-.34zM99.38 15.78H97a1.43 1.43 0 0 0 .3.9.9.9 0 0 0 .7.32 1.57 1.57 0 0 0 .5-.07 2.17 2.17 0 0 0 .46-.25l.28.4a2 2 0 0 1-1.3.45 1.52 1.52 0 0 1-1.2-.5 2.06 2.06 0 0 1-.42-1.4 2.73 2.73 0 0 1 .18-1 1.6 1.6 0 0 1 .54-.7 1.4 1.4 0 0 1 .8-.24 1.35 1.35 0 0 1 1.14.48 2 2 0 0 1 .4 1.33c0 .06 0 .17 0 .28zm-.63-.52a1.4 1.4 0 0 0-.2-.83.8.8 0 0 0-.66-.3q-.8 0-.88 1.18h1.73zM105.05 15.78h-2.36a1.5 1.5 0 0 0 .3.9.9.9 0 0 0 .7.28 1.53 1.53 0 0 0 .48-.07 2.17 2.17 0 0 0 .47-.26l.28.4a2 2 0 0 1-1.3.45 1.52 1.52 0 0 1-1.2-.5 2.06 2.06 0 0 1-.43-1.4 2.73 2.73 0 0 1 .18-1 1.67 1.67 0 0 1 .54-.7 1.4 1.4 0 0 1 .8-.25 1.35 1.35 0 0 1 1.14.5 2 2 0 0 1 .4 1.32c0 .1 0 .2 0 .3zm-.63-.52a1.4 1.4 0 0 0-.2-.83.77.77 0 0 0-.66-.3q-.8 0-.87 1.18h1.72zM108.6 13.93a1.16 1.16 0 0 1 .3.83v2.65h-.65v-2.55a.85.85 0 0 0-.14-.55.57.57 0 0 0-.43-.16.87.87 0 0 0-.52.16 2.1 2.1 0 0 0-.42.5v2.6h-.64v-3.68h.54l.06.54a1.44 1.44 0 0 1 .5-.46 1.25 1.25 0 0 1 .63-.17 1 1 0 0 1 .78.3zM113.73 13.74a2 2 0 0 1 .57.3l-.27.42a2.15 2.15 0 0 0-.48-.24 1.5 1.5 0 0 0-.48-.08.9.9 0 0 0-.5.13.45.45 0 0 0 0 .7 2.2 2.2 0 0 0 .62.25 2.13 2.13 0 0 1 .9.42.9.9 0 0 1 .32.73.93.93 0 0 1-.43.83 1.8 1.8 0 0 1-1 .3 2 2 0 0 1-1.4-.5l.34-.4a1.66 1.66 0 0 0 1 .37 1 1 0 0 0 .57-.15.47.47 0 0 0 .23-.4.53.53 0 0 0-.08-.3.6.6 0 0 0-.27-.22 3.93 3.93 0 0 0-.55-.18 1.92 1.92 0 0 1-.85-.4.93.93 0 0 1-.26-.67.87.87 0 0 1 .17-.52 1.07 1.07 0 0 1 .47-.37 1.83 1.83 0 0 1 .68-.13 2.06 2.06 0 0 1 .68.1zM120 13.72v5.18l-.65-.08v-1.9a1.3 1.3 0 0 1-.45.42 1.2 1.2 0 0 1-.6.15 1.16 1.16 0 0 1-1-.53 2.3 2.3 0 0 1-.37-1.4 2.64 2.64 0 0 1 .18-1 1.55 1.55 0 0 1 .5-.68 1.3 1.3 0 0 1 .78-.26 1.38 1.38 0 0 1 1 .5v-.4zm-1 3.12a1.57 1.57 0 0 0 .4-.4v-1.8a1.3 1.3 0 0 0-.4-.37.8.8 0 0 0-.45-.13.73.73 0 0 0-.66.36 1.9 1.9 0 0 0-.25 1.06 2.1 2.1 0 0 0 .22 1.07.7.7 0 0 0 .62.35.93.93 0 0 0 .5-.14zM124.1 17.4h-.55v-.57a1.36 1.36 0 0 1-.48.5 1.3 1.3 0 0 1-.67.16 1 1 0 0 1-.75-.3 1.17 1.17 0 0 1-.28-.84v-2.64h.63v2.57a.86.86 0 0 0 .13.53.55.55 0 0 0 .43.16 1.12 1.12 0 0 0 .93-.65v-2.63h.63zM128.2 15.78h-2.35a1.43 1.43 0 0 0 .3.9.9.9 0 0 0 .7.28 1.57 1.57 0 0 0 .5-.07 2.12 2.12 0 0 0 .45-.26l.28.4a2 2 0 0 1-1.28.45 1.5 1.5 0 0 1-1.2-.5 2.06 2.06 0 0 1-.43-1.4 2.73 2.73 0 0 1 .18-1 1.58 1.58 0 0 1 .53-.7 1.42 1.42 0 0 1 .82-.25 1.33 1.33 0 0 1 1.12.5 2 2 0 0 1 .4 1.32c0 .1 0 .2-.02.3zm-.62-.52a1.32 1.32 0 0 0-.22-.83.76.76 0 0 0-.65-.3c-.52 0-.8.4-.85 1.18h1.73zM135.53 13.94a1.13 1.13 0 0 1 .28.82v2.65h-.64v-2.55c0-.48-.17-.7-.52-.7a.73.73 0 0 0-.46.14 2.28 2.28 0 0 0-.4.5v2.6h-.65v-2.55c0-.48-.17-.7-.52-.7a.7.7 0 0 0-.46.15 2.2 2.2 0 0 0-.4.5v2.6h-.64v-3.68h.55l.06.54a1.24 1.24 0 0 1 1.07-.63 1 1 0 0 1 .6.18.94.94 0 0 1 .34.5 1.75 1.75 0 0 1 .48-.5 1.2 1.2 0 0 1 .63-.17.9.9 0 0 1 .73.3zM139.87 15.78h-2.35a1.43 1.43 0 0 0 .3.9.9.9 0 0 0 .7.28 1.57 1.57 0 0 0 .5-.07 2.12 2.12 0 0 0 .45-.26l.28.4a2 2 0 0 1-1.28.45 1.5 1.5 0 0 1-1.2-.5 2.06 2.06 0 0 1-.43-1.4 2.73 2.73 0 0 1 .18-1 1.58 1.58 0 0 1 .53-.7 1.42 1.42 0 0 1 .82-.25 1.33 1.33 0 0 1 1.12.5 2 2 0 0 1 .4 1.32c0 .1-.02.2-.03.3zm-.62-.52a1.32 1.32 0 0 0-.22-.83.76.76 0 0 0-.65-.3c-.53 0-.8.4-.86 1.18h1.73zM142.78 17.24a1.4 1.4 0 0 1-.83.25 1 1 0 0 1-.73-.28 1.1 1.1 0 0 1-.26-.78V14.2h-.65v-.48h.7v-.84l.64-.07v.92h.88l-.07.5h-.8v2.2a.76.76 0 0 0 .1.4.43.43 0 0 0 .25.18 1 1 0 0 0 .5-.15zM26.86 25.68a.84.84 0 0 1-.2-.6v-4.45l.64-.07v4.5a.44.44 0 0 0 .05.23.25.25 0 0 0 .18.06.6.6 0 0 0 .24-.05l.17.46a1 1 0 0 1-.5.13.77.77 0 0 1-.58-.22zM29.13 20.66a.46.46 0 0 1 .13.32.55.55 0 0 1 0 .17.88.88 0 0 1-.1.23l-.46 1h-.42l.28-1.05a.44.44 0 0 1-.18-.35.4.4 0 0 1 .14-.32.46.46 0 0 1 .3-.13.5.5 0 0 1 .3.13zM32.76 22.55A2.18 2.18 0 0 1 33.2 24a2.46 2.46 0 0 1-.2 1 1.53 1.53 0 0 1-.58.68 1.57 1.57 0 0 1-.88.24 1.48 1.48 0 0 1-1.2-.52 2.1 2.1 0 0 1-.44-1.4 2.46 2.46 0 0 1 .2-1 1.53 1.53 0 0 1 .56-.68 1.6 1.6 0 0 1 .9-.24 1.5 1.5 0 0 1 1.2.47zM30.6 24c0 .94.3 1.4.94 1.4s1-.46 1-1.4-.3-1.4-.94-1.4-1 .4-1 1.4zM36.77 22.33a1.16 1.16 0 0 1 .3.83v2.65h-.66v-2.55a.85.85 0 0 0-.13-.55.57.57 0 0 0-.44-.16.87.87 0 0 0-.52.16 2.1 2.1 0 0 0-.4.5v2.6h-.65v-3.68h.55l.06.54a1.44 1.44 0 0 1 .5-.46A1.25 1.25 0 0 1 36 22a1 1 0 0 1 .77.33zM41.2 20.63v5.18h-.56l-.06-.5a1.2 1.2 0 0 1-.46.43 1.13 1.13 0 0 1-.6.16 1.17 1.17 0 0 1-1-.53 2.3 2.3 0 0 1-.4-1.37 2.64 2.64 0 0 1 .18-1 1.55 1.55 0 0 1 .5-.7 1.3 1.3 0 0 1 1.76.22v-1.96zm-1.04 4.6a1.57 1.57 0 0 0 .4-.4V23a1.4 1.4 0 0 0-.38-.36.85.85 0 0 0-.47-.13.74.74 0 0 0-.65.37A1.9 1.9 0 0 0 38.8 24a2.14 2.14 0 0 0 .2 1 .7.7 0 0 0 .62.35.93.93 0 0 0 .54-.1zM45.3 24.18H43a1.43 1.43 0 0 0 .3.9.87.87 0 0 0 .7.28 1.53 1.53 0 0 0 .48-.07 2 2 0 0 0 .47-.26l.28.4a2 2 0 0 1-1.3.45 1.52 1.52 0 0 1-1.2-.5 2.12 2.12 0 0 1-.46-1.4 2.54 2.54 0 0 1 .2-1 1.58 1.58 0 0 1 .52-.7 1.4 1.4 0 0 1 .8-.3 1.35 1.35 0 0 1 1.13.5 2 2 0 0 1 .4 1.32c0 .18 0 .25-.02.36zm-.6-.52a1.4 1.4 0 0 0-.23-.83.77.77 0 0 0-.65-.3c-.53 0-.82.4-.86 1.18h1.73zM49.9 22.14a2 2 0 0 1 .56.3l-.27.42a2.15 2.15 0 0 0-.5-.24 1.5 1.5 0 0 0-.47-.08.9.9 0 0 0-.5.13.45.45 0 0 0 0 .7 2.2 2.2 0 0 0 .62.25 2.13 2.13 0 0 1 .92.42.9.9 0 0 1 .3.73.93.93 0 0 1-.42.83 1.8 1.8 0 0 1-1 .3 2 2 0 0 1-1.4-.5l.35-.4a1.66 1.66 0 0 0 1 .37 1 1 0 0 0 .58-.15.48.48 0 0 0 .2-.4.53.53 0 0 0-.07-.3.63.63 0 0 0-.25-.22 4.7 4.7 0 0 0-.56-.18 1.92 1.92 0 0 1-.86-.4.93.93 0 0 1-.26-.67.87.87 0 0 1 .17-.52 1.13 1.13 0 0 1 .48-.37 1.83 1.83 0 0 1 .68-.13 2.06 2.06 0 0 1 .7.1zM54.07 22.55A2.12 2.12 0 0 1 54.5 24a2.46 2.46 0 0 1-.2 1 1.67 1.67 0 0 1-.56.68 1.6 1.6 0 0 1-.88.24 1.5 1.5 0 0 1-1.22-.52 2.16 2.16 0 0 1-.43-1.4 2.46 2.46 0 0 1 .2-1 1.57 1.57 0 0 1 .57-.68 1.62 1.62 0 0 1 .9-.24 1.5 1.5 0 0 1 1.2.47zM51.9 24q0 1.4 1 1.4c.63 0 1-.46 1-1.4s-.32-1.4-1-1.4-1 .4-1 1.4zM58.1 22.33a1.16 1.16 0 0 1 .27.83v2.65h-.64v-2.55a.8.8 0 0 0-.15-.55.54.54 0 0 0-.43-.16.85.85 0 0 0-.52.16 1.9 1.9 0 0 0-.42.5v2.6h-.64v-3.68h.56l.05.54a1.53 1.53 0 0 1 .5-.46 1.28 1.28 0 0 1 .63-.2 1 1 0 0 1 .8.33zM62.26 22.55A2.12 2.12 0 0 1 62.7 24a2.3 2.3 0 0 1-.2 1 1.48 1.48 0 0 1-1.45.92 1.5 1.5 0 0 1-1.22-.52 2.16 2.16 0 0 1-.43-1.4 2.46 2.46 0 0 1 .2-1 1.57 1.57 0 0 1 .56-.68 1.62 1.62 0 0 1 .9-.24 1.5 1.5 0 0 1 1.2.47zM60.1 24q0 1.4 1 1.4c.62 0 1-.46 1-1.4s-.33-1.4-1-1.4-1 .4-1 1.4zM65.72 22.07l-.12.63a1.87 1.87 0 0 0-.32 0 .7.7 0 0 0-.55.25 1.9 1.9 0 0 0-.33.8v2.1h-.65v-3.73h.56l.07.75a1.4 1.4 0 0 1 .4-.63.9.9 0 0 1 .6-.2 2 2 0 0 1 .35.03zM69 24.18h-2.33a1.43 1.43 0 0 0 .3.9.9.9 0 0 0 .7.28 1.53 1.53 0 0 0 .48-.07 2 2 0 0 0 .47-.26l.28.4a2 2 0 0 1-1.3.45 1.52 1.52 0 0 1-1.2-.5A2.06 2.06 0 0 1 66 24a2.54 2.54 0 0 1 .2-1 1.58 1.58 0 0 1 .52-.7 1.4 1.4 0 0 1 .8-.25 1.35 1.35 0 0 1 1.14.5 2 2 0 0 1 .34 1.3c0 .15 0 .22 0 .33zm-.62-.52a1.4 1.4 0 0 0-.22-.83.77.77 0 0 0-.65-.3c-.52 0-.8.4-.85 1.18h1.75zM74.65 22.54A2.57 2.57 0 0 1 75 24a2.4 2.4 0 0 1-.38 1.4 1.24 1.24 0 0 1-1.07.53 1.2 1.2 0 0 1-1-.42v1.76l-.64.08v-5.22h.56v.5a1.44 1.44 0 0 1 .5-.44 1.27 1.27 0 0 1 .6-.15 1.15 1.15 0 0 1 1.1.5zM74.28 24c0-.95-.27-1.42-.83-1.42a.9.9 0 0 0-.5.16 1.57 1.57 0 0 0-.4.42v1.8a1 1 0 0 0 .36.33.92.92 0 0 0 .47.1c.63-.04.9-.5.9-1.4zM78.67 22.55A2.12 2.12 0 0 1 79.1 24a2.46 2.46 0 0 1-.2 1 1.57 1.57 0 0 1-.56.68 1.6 1.6 0 0 1-.9.24 1.5 1.5 0 0 1-1.2-.52 2.1 2.1 0 0 1-.43-1.4 2.3 2.3 0 0 1 .2-1 1.57 1.57 0 0 1 .57-.68 1.62 1.62 0 0 1 .9-.24 1.5 1.5 0 0 1 1.2.47zM76.5 24c0 .94.32 1.4 1 1.4s1-.46 1-1.4-.32-1.4-1-1.4-1 .4-1 1.4zM82.9 25.8h-.55v-.57a1.38 1.38 0 0 1-.5.5 1.24 1.24 0 0 1-.65.16 1 1 0 0 1-.76-.3 1.2 1.2 0 0 1-.27-.84v-2.64h.64v2.57a.85.85 0 0 0 .15.53.54.54 0 0 0 .43.16 1.1 1.1 0 0 0 .92-.65v-2.63h.65zM86.2 22.07l-.1.63a2 2 0 0 0-.34 0 .7.7 0 0 0-.55.25 1.9 1.9 0 0 0-.32.8v2.1h-.64v-3.73h.55l.05.75a1.4 1.4 0 0 1 .4-.63.9.9 0 0 1 .6-.2 2 2 0 0 1 .35.03zM91.36 25.28a.5.5 0 0 0 .23.16l-.16.45a1 1 0 0 1-.46-.17.8.8 0 0 1-.26-.4 1.23 1.23 0 0 1-1.1.56 1.16 1.16 0 0 1-.86-.32 1.2 1.2 0 0 1 .1-1.7 2 2 0 0 1 1.2-.32h.58v-.27a.72.72 0 0 0-.2-.57.82.82 0 0 0-.57-.17 3.26 3.26 0 0 0-1 .2l-.16-.48A3.9 3.9 0 0 1 90 22a1.35 1.35 0 0 1 1 .32 1.24 1.24 0 0 1 .32.9v1.7a.63.63 0 0 0 .04.36zm-.72-.45V24h-.5q-1 0-1 .75a.68.68 0 0 0 .17.5.65.65 0 0 0 .5.17 1 1 0 0 0 .84-.6zM94.47 25.64a1.42 1.42 0 0 1-.83.25 1 1 0 0 1-.73-.28 1.06 1.06 0 0 1-.26-.78V22.6H92v-.48h.64v-.84l.65-.07v.92h.86l-.07.5h-.8v2.2a.7.7 0 0 0 .1.4.43.43 0 0 0 .33.14 1 1 0 0 0 .5-.15zM97 25.64a1.4 1.4 0 0 1-.82.25 1 1 0 0 1-.74-.28 1.1 1.1 0 0 1-.26-.78V22.6h-.64v-.48h.64v-.84l.65-.07v.92h.87l-.07.5h-.8v2.2a.7.7 0 0 0 .1.4.43.43 0 0 0 .34.14 1.08 1.08 0 0 0 .5-.15zM100.32 24.18H98a1.43 1.43 0 0 0 .3.9.9.9 0 0 0 .7.28 1.57 1.57 0 0 0 .5-.07 2.17 2.17 0 0 0 .46-.26l.28.4a2.06 2.06 0 0 1-1.3.45 1.5 1.5 0 0 1-1.2-.5 2.06 2.06 0 0 1-.45-1.4 2.73 2.73 0 0 1 .17-1 1.65 1.65 0 0 1 .53-.7 1.42 1.42 0 0 1 .82-.25 1.37 1.37 0 0 1 1.13.5 2 2 0 0 1 .4 1.32c0 .13-.02.2-.03.3zm-.62-.52a1.32 1.32 0 0 0-.22-.83.76.76 0 0 0-.65-.3c-.52 0-.8.4-.86 1.18h1.73zM102 20.47a.42.42 0 0 1 .13.32.4.4 0 0 1-.13.3.45.45 0 0 1-.33.12.43.43 0 0 1-.45-.43.46.46 0 0 1 .13-.33.44.44 0 0 1 .32-.12.45.45 0 0 1 .33.12zm0 1.65v3.7h-.64v-3.7zM105.86 22.33a1.16 1.16 0 0 1 .3.83v2.65h-.66v-2.55a.8.8 0 0 0-.14-.55.57.57 0 0 0-.44-.16.87.87 0 0 0-.52.16 2.37 2.37 0 0 0-.42.5v2.6h-.64v-3.68h.55l.05.54a1.44 1.44 0 0 1 .5-.46 1.25 1.25 0 0 1 .63-.17 1 1 0 0 1 .78.3zM110.3 20.63v5.18h-.57l-.06-.5a1.2 1.2 0 0 1-.46.43 1.13 1.13 0 0 1-.6.16 1.17 1.17 0 0 1-1-.53 2.3 2.3 0 0 1-.37-1.4 2.64 2.64 0 0 1 .18-1 1.55 1.55 0 0 1 .5-.68 1.3 1.3 0 0 1 1.77.2v-1.94zm-1 4.6a1.57 1.57 0 0 0 .4-.4V23a1.4 1.4 0 0 0-.38-.36.85.85 0 0 0-.47-.13.75.75 0 0 0-.66.37 1.9 1.9 0 0 0-.3 1.13 2.14 2.14 0 0 0 .22 1.07.7.7 0 0 0 .62.35.93.93 0 0 0 .5-.18zM113.6 22.07l-.12.63a2 2 0 0 0-.33 0 .7.7 0 0 0-.55.25 1.9 1.9 0 0 0-.33.8v2.1h-.64v-3.73h.55l.06.75a1.4 1.4 0 0 1 .4-.63.9.9 0 0 1 .6-.2 2.2 2.2 0 0 1 .36.03zM116.9 24.18h-2.36a1.43 1.43 0 0 0 .3.9.88.88 0 0 0 .7.28 1.5 1.5 0 0 0 .48-.07 2 2 0 0 0 .47-.26l.27.4a2 2 0 0 1-1.28.45 1.52 1.52 0 0 1-1.22-.5 2.12 2.12 0 0 1-.43-1.4 2.73 2.73 0 0 1 .2-1 1.58 1.58 0 0 1 .52-.7 1.4 1.4 0 0 1 .82-.25 1.33 1.33 0 0 1 1.1.5 2 2 0 0 1 .4 1.32c0 .13 0 .2 0 .3zm-.63-.52a1.32 1.32 0 0 0-.22-.83.76.76 0 0 0-.65-.3c-.53 0-.8.4-.86 1.18h1.73zM120 25.68a.9.9 0 0 1-.2-.6v-4.45l.64-.07v4.5a.44.44 0 0 0 0 .23.25.25 0 0 0 .18.06.6.6 0 0 0 .24-.05l.17.46a1 1 0 0 1-.5.13.77.77 0 0 1-.53-.22zM122.23 20.66a.42.42 0 0 1 .13.32 1.1 1.1 0 0 1 0 .17 1.78 1.78 0 0 1-.1.23l-.47 1h-.43l.28-1.05a.44.44 0 0 1-.18-.35.43.43 0 0 1 .14-.32.46.46 0 0 1 .33-.13.48.48 0 0 1 .3.13zM125.8 25.28a.5.5 0 0 0 .22.16l-.15.45a1 1 0 0 1-.46-.17.86.86 0 0 1-.25-.4 1.22 1.22 0 0 1-1.1.56 1.16 1.16 0 0 1-.86-.32 1.2 1.2 0 0 1 .1-1.7 2 2 0 0 1 1.2-.32h.57v-.27a.7.7 0 0 0-.2-.57.82.82 0 0 0-.57-.17 3.2 3.2 0 0 0-1 .2l-.17-.48a4 4 0 0 1 1.28-.25 1.33 1.33 0 0 1 1 .32 1.2 1.2 0 0 1 .33.9v1.7a.63.63 0 0 0 .06.33zm-.73-.45V24h-.48c-.7 0-1 .25-1 .75a.73.73 0 0 0 .15.5.65.65 0 0 0 .48.17 1 1 0 0 0 .84-.6zM129.78 25.8h-.55v-.57a1.3 1.3 0 0 1-.5.5 1.24 1.24 0 0 1-.65.16 1 1 0 0 1-.76-.3 1.2 1.2 0 0 1-.27-.84v-2.64h.64v2.57a.85.85 0 0 0 .13.53.55.55 0 0 0 .43.16 1.12 1.12 0 0 0 .93-.65v-2.63h.63zM133 25.64a1.4 1.4 0 0 1-.82.25 1 1 0 0 1-.74-.28 1.1 1.1 0 0 1-.26-.78V22.6h-.64v-.48h.64v-.84l.65-.07v.92h.87l-.07.5h-.8v2.2a.7.7 0 0 0 .1.4.43.43 0 0 0 .34.14 1.08 1.08 0 0 0 .5-.15zM135.6 22.07l-.12.63a1.75 1.75 0 0 0-.32 0 .7.7 0 0 0-.55.25 1.9 1.9 0 0 0-.32.8v2.1h-.64v-3.73h.55l.05.75a1.4 1.4 0 0 1 .4-.63.9.9 0 0 1 .6-.2 2 2 0 0 1 .35.03zM138.9 24.18h-2.35a1.43 1.43 0 0 0 .3.9.87.87 0 0 0 .7.28 1.53 1.53 0 0 0 .48-.07 2 2 0 0 0 .47-.26l.28.4a2 2 0 0 1-1.3.45 1.52 1.52 0 0 1-1.2-.5 2.12 2.12 0 0 1-.42-1.4 2.73 2.73 0 0 1 .2-1 1.58 1.58 0 0 1 .52-.7 1.4 1.4 0 0 1 .82-.25 1.33 1.33 0 0 1 1.12.5 2 2 0 0 1 .4 1.32c0 .13 0 .2-.02.3zm-.62-.52a1.32 1.32 0 0 0-.22-.83.76.76 0 0 0-.65-.3c-.52 0-.8.4-.85 1.18h1.73zM143.77 22.07l-.12.63a1.87 1.87 0 0 0-.32 0 .72.72 0 0 0-.56.25 1.9 1.9 0 0 0-.33.8v2.1h-.64v-3.73h.55l.07.75a1.4 1.4 0 0 1 .4-.63.9.9 0 0 1 .58-.2 2.2 2.2 0 0 1 .37.03zM145.15 20.47a.45.45 0 0 1 .12.32.43.43 0 0 1-.12.3.48.48 0 0 1-.33.12.44.44 0 0 1-.32-.12.4.4 0 0 1-.13-.3.42.42 0 0 1 .13-.33.44.44 0 0 1 .32-.12.48.48 0 0 1 .33.12zm0 1.65v3.7h-.65v-3.7zM149.18 22.12l-1.25 3.7h-.78l-1.27-3.7h.7l1 3.1 1-3.1zM152.66 24.18h-2.35a1.43 1.43 0 0 0 .32.9.9.9 0 0 0 .7.28 1.57 1.57 0 0 0 .48-.07 2.17 2.17 0 0 0 .47-.26l.28.4a2.06 2.06 0 0 1-1.3.45 1.5 1.5 0 0 1-1.2-.5 2.06 2.06 0 0 1-.42-1.4 2.73 2.73 0 0 1 .18-1 1.65 1.65 0 0 1 .54-.7 1.44 1.44 0 0 1 .82-.25 1.35 1.35 0 0 1 1.13.5 2 2 0 0 1 .38 1.32c0 .13 0 .2-.02.3zm-.62-.52a1.32 1.32 0 0 0-.22-.83.76.76 0 0 0-.65-.3c-.52 0-.8.4-.86 1.18h1.7zM154.16 25.06a.46.46 0 0 1 .14.34.52.52 0 0 1-.14.35.5.5 0 0 1-.7 0 .52.52 0 0 1-.14-.35.5.5 0 0 1 .84-.34zM29.5 29.9a2.25 2.25 0 0 1 .65 1.87 2.35 2.35 0 0 1-.66 1.9 2.47 2.47 0 0 1-1.62.54h-1.15V29.4h1a2.8 2.8 0 0 1 1.76.5zm-2.1 0v3.76h.53a1.5 1.5 0 0 0 1.07-.4 2.1 2.1 0 0 0 .42-1.5 2.46 2.46 0 0 0-.22-1.16 1.05 1.05 0 0 0-.55-.55 2.1 2.1 0 0 0-.8-.14zM31.06 31.22L31 29.38h.7l-.1 1.84zM35.2 33.68a.5.5 0 0 0 .22.16l-.15.45a1 1 0 0 1-.46-.17.8.8 0 0 1-.25-.4 1.25 1.25 0 0 1-1.1.56 1.16 1.16 0 0 1-.86-.32 1.2 1.2 0 0 1 .1-1.7 2 2 0 0 1 1.2-.28h.57v-.27a.76.76 0 0 0-.2-.57.87.87 0 0 0-.57-.16 3.32 3.32 0 0 0-1 .2l-.16-.48a3.9 3.9 0 0 1 1.28-.25 1.35 1.35 0 0 1 1 .32 1.24 1.24 0 0 1 .32.9v1.68a.63.63 0 0 0 .05.3zm-.73-.45v-.84H34q-1 0-1 .74a.73.73 0 0 0 .16.5.65.65 0 0 0 .48.17 1 1 0 0 0 .83-.57zM39.16 30.94a2.57 2.57 0 0 1 .33 1.42 2.32 2.32 0 0 1-.4 1.4 1.23 1.23 0 0 1-1.06.53 1.17 1.17 0 0 1-1-.43v1.75l-.65.08v-5.18h.6V31a1.35 1.35 0 0 1 .5-.43 1.27 1.27 0 0 1 .6-.15 1.14 1.14 0 0 1 1.06.52zm-.36 1.42c0-.95-.28-1.42-.83-1.42a.88.88 0 0 0-.5.16 1.57 1.57 0 0 0-.4.42v1.8a1 1 0 0 0 .36.33.9.9 0 0 0 .46.1c.6 0 .9-.46.9-1.4zM42.56 30.47l-.12.63a1.87 1.87 0 0 0-.32 0 .73.73 0 0 0-.56.25 2 2 0 0 0-.32.8v2.1h-.65v-3.73h.54l.07.75a1.4 1.4 0 0 1 .4-.63.86.86 0 0 1 .6-.2 2 2 0 0 1 .36.03zM45.86 32.58H43.5a1.5 1.5 0 0 0 .3.9.9.9 0 0 0 .7.28 1.53 1.53 0 0 0 .5-.07 2.17 2.17 0 0 0 .46-.26l.28.4a2 2 0 0 1-1.3.45 1.52 1.52 0 0 1-1.2-.5 2.06 2.06 0 0 1-.42-1.4 2.73 2.73 0 0 1 .18-1 1.67 1.67 0 0 1 .54-.7 1.4 1.4 0 0 1 .8-.25 1.35 1.35 0 0 1 1.14.5 2 2 0 0 1 .4 1.32c0 .1 0 .2-.02.3zm-.63-.52a1.4 1.4 0 0 0-.2-.83.8.8 0 0 0-.66-.3c-.53 0-.82.4-.87 1.17h1.73zM43.9 28.6l1.38.8-.2.34-1.48-.6zM48.58 30.54a2 2 0 0 1 .57.3l-.27.42a2.15 2.15 0 0 0-.48-.26 1.5 1.5 0 0 0-.48-.08.86.86 0 0 0-.5.13.4.4 0 0 0-.18.36.43.43 0 0 0 .17.36 2.2 2.2 0 0 0 .6.24 2.13 2.13 0 0 1 .92.42.9.9 0 0 1 .3.73.94.94 0 0 1-.4.83 1.84 1.84 0 0 1-1 .3 2 2 0 0 1-1.4-.5l.34-.4a1.68 1.68 0 0 0 1 .37 1 1 0 0 0 .58-.15.48.48 0 0 0 .2-.4.5.5 0 0 0-.07-.3.63.63 0 0 0-.26-.22 4.15 4.15 0 0 0-.55-.18 1.82 1.82 0 0 1-.85-.42.9.9 0 0 1-.26-.65.87.87 0 0 1 .17-.52 1.2 1.2 0 0 1 .5-.36 1.83 1.83 0 0 1 .67-.13 2.06 2.06 0 0 1 .7.14zM52.2 34.08a.84.84 0 0 1-.2-.6V29l.63-.07v4.5a.44.44 0 0 0 0 .23.25.25 0 0 0 .18.07.6.6 0 0 0 .25 0l.17.45a1 1 0 0 1-.5.13.73.73 0 0 1-.52-.22zM56.6 33.68a.5.5 0 0 0 .23.16l-.14.45a1 1 0 0 1-.48-.17.78.78 0 0 1-.25-.4 1.27 1.27 0 0 1-1.1.56A1.15 1.15 0 0 1 54 34a1.18 1.18 0 0 1 .1-1.7 2 2 0 0 1 1.2-.32h.57v-.27a.73.73 0 0 0-.2-.56.86.86 0 0 0-.57-.16 3.2 3.2 0 0 0-1 .2l-.1-.5a3.86 3.86 0 0 1 1.27-.25 1.33 1.33 0 0 1 1 .32 1.2 1.2 0 0 1 .33.9v1.7a.64.64 0 0 0 0 .33zm-.72-.45v-.84h-.48q-1 0-1 .74a.68.68 0 0 0 .16.5.6.6 0 0 0 .47.17 1 1 0 0 0 .85-.57zM62.56 29v5.18H62l-.06-.52a1.2 1.2 0 0 1-.46.44 1.12 1.12 0 0 1-.6.16 1.2 1.2 0 0 1-1-.52 2.4 2.4 0 0 1-.37-1.4 2.64 2.64 0 0 1 .2-1 1.55 1.55 0 0 1 .5-.68 1.3 1.3 0 0 1 .76-.25 1.32 1.32 0 0 1 1 .47V29zm-1.05 4.6a1.76 1.76 0 0 0 .42-.4v-1.8a1.6 1.6 0 0 0-.4-.36.85.85 0 0 0-.46-.13.75.75 0 0 0-.66.37 1.92 1.92 0 0 0-.23 1.06 2.15 2.15 0 0 0 .2 1.07.7.7 0 0 0 .64.35.92.92 0 0 0 .5-.1zM66.66 32.58H64.3a1.43 1.43 0 0 0 .32.9.87.87 0 0 0 .68.28 1.53 1.53 0 0 0 .5-.07 2 2 0 0 0 .46-.26l.28.4a2 2 0 0 1-1.3.45 1.52 1.52 0 0 1-1.2-.5 2.12 2.12 0 0 1-.42-1.4 2.54 2.54 0 0 1 .2-1 1.58 1.58 0 0 1 .52-.7 1.4 1.4 0 0 1 .82-.25 1.33 1.33 0 0 1 1.12.5 2 2 0 0 1 .4 1.32c0 .1 0 .2-.02.3zm-.66-.52a1.32 1.32 0 0 0-.22-.83.76.76 0 0 0-.65-.3c-.53 0-.8.4-.86 1.17H66zm-.3-3.46l.28.54-1.5.6-.18-.34zM69.5 29a1.92 1.92 0 0 1 .5.2l-.23.44a1.72 1.72 0 0 0-.78-.18.74.74 0 0 0-.52.13.57.57 0 0 0-.14.4v.5h2.06v3.7h-.64V31h-1.42v3.2h-.64V31h-.6v-.5h.6V30a1 1 0 0 1 .3-.78 1.35 1.35 0 0 1 1-.22 2.23 2.23 0 0 1 .5 0zM74.25 30.73a1.16 1.16 0 0 1 .3.83v2.65h-.66v-2.55a.85.85 0 0 0-.15-.55.57.57 0 0 0-.44-.16.87.87 0 0 0-.5.16 1.9 1.9 0 0 0-.43.5v2.6h-.64v-3.68h.55l.06.54a1.44 1.44 0 0 1 .5-.46 1.25 1.25 0 0 1 .63-.17 1 1 0 0 1 .78.3zM76.47 28.87a.42.42 0 0 1 .13.32.4.4 0 0 1-.13.3.44.44 0 0 1-.32.12.48.48 0 0 1-.33-.12.43.43 0 0 1-.12-.3.45.45 0 0 1 .12-.33.48.48 0 0 1 .33-.12.44.44 0 0 1 .32.12zm0 1.65v3.7h-.64v-3.7zM79.67 34a1.42 1.42 0 0 1-.83.25 1 1 0 0 1-.73-.27 1.05 1.05 0 0 1-.25-.78V31h-.65v-.5h.65v-.83l.64-.07v.9h.87l-.07.5h-.8v2.2a.7.7 0 0 0 .1.42.43.43 0 0 0 .33.13 1 1 0 0 0 .5-.15zM81 28.87a.45.45 0 0 1 .12.32.43.43 0 0 1-.12.3.48.48 0 0 1-.33.12.44.44 0 0 1-.32-.12.4.4 0 0 1-.13-.3.42.42 0 0 1 .13-.33.44.44 0 0 1 .32-.12.48.48 0 0 1 .33.12zm0 1.65v3.7h-.65v-3.7zM84.9 31a2.12 2.12 0 0 1 .43 1.4 2.3 2.3 0 0 1-.2 1 1.57 1.57 0 0 1-.56.7 1.6 1.6 0 0 1-.9.23 1.5 1.5 0 0 1-1.2-.52 2.1 2.1 0 0 1-.47-1.44 2.3 2.3 0 0 1 .2-1 1.57 1.57 0 0 1 .56-.68 1.62 1.62 0 0 1 .9-.24 1.48 1.48 0 0 1 1.24.56zm-2.17 1.4c0 .95.32 1.42 1 1.42s1-.47 1-1.4-.32-1.42-1-1.42-1 .42-1 1.36zM88.92 30.73a1.16 1.16 0 0 1 .28.83v2.65h-.64v-2.55a.8.8 0 0 0-.15-.55.54.54 0 0 0-.42-.16.85.85 0 0 0-.52.16 1.9 1.9 0 0 0-.42.5v2.6h-.65v-3.68h.6v.54a1.53 1.53 0 0 1 .5-.46 1.28 1.28 0 0 1 .63-.17 1 1 0 0 1 .8.3zM95.2 29v5.18h-.56l-.06-.52a1.3 1.3 0 0 1-.46.44 1.13 1.13 0 0 1-.6.16 1.16 1.16 0 0 1-1-.52 2.3 2.3 0 0 1-.38-1.4 2.64 2.64 0 0 1 .18-1 1.55 1.55 0 0 1 .5-.68 1.27 1.27 0 0 1 .77-.25 1.3 1.3 0 0 1 1 .47V29zm-1 4.6a1.57 1.57 0 0 0 .4-.4v-1.8a1.3 1.3 0 0 0-.38-.36.8.8 0 0 0-.46-.13.73.73 0 0 0-.66.37 1.9 1.9 0 0 0-.24 1.06 2.14 2.14 0 0 0 .14 1.1.7.7 0 0 0 .62.35.93.93 0 0 0 .54-.14zM99.3 32.58H97a1.43 1.43 0 0 0 .3.9.9.9 0 0 0 .7.28 1.53 1.53 0 0 0 .48-.07 2 2 0 0 0 .47-.26l.28.4a2 2 0 0 1-1.3.45 1.52 1.52 0 0 1-1.2-.5 2.06 2.06 0 0 1-.42-1.4 2.54 2.54 0 0 1 .2-1 1.58 1.58 0 0 1 .53-.7 1.4 1.4 0 0 1 .8-.25 1.35 1.35 0 0 1 1.14.5 2 2 0 0 1 .4 1.32c-.05.1-.05.2-.06.3zm-.6-.52a1.4 1.4 0 0 0-.23-.83.77.77 0 0 0-.65-.3c-.53 0-.82.4-.86 1.17h1.73zM102.38 34.08a.84.84 0 0 1-.2-.6V29l.64-.07v4.5a.36.36 0 0 0 .05.23.22.22 0 0 0 .18.07.6.6 0 0 0 .24 0l.15.45a1 1 0 0 1-.5.13.75.75 0 0 1-.57-.22zM106.78 33.68a.53.53 0 0 0 .24.16l-.15.45a1 1 0 0 1-.46-.17.73.73 0 0 1-.25-.4 1.27 1.27 0 0 1-1.1.56 1.15 1.15 0 0 1-.86-.32 1.06 1.06 0 0 1-.33-.8 1 1 0 0 1 .43-.9 2 2 0 0 1 1.2-.32h.56v-.27a.76.76 0 0 0-.18-.58.9.9 0 0 0-.6-.16 3.2 3.2 0 0 0-1 .2l-.15-.48a3.9 3.9 0 0 1 1.27-.25 1.36 1.36 0 0 1 1 .32 1.24 1.24 0 0 1 .32.9v1.7a.64.64 0 0 0 .06.33zm-.72-.45v-.84h-.48q-1 0-1 .74a.68.68 0 0 0 .16.5.65.65 0 0 0 .48.17 1 1 0 0 0 .84-.57zM111.83 30.53a1.67 1.67 0 0 1 .53.3l-.3.4a1.62 1.62 0 0 0-.4-.2 1.35 1.35 0 0 0-.4-.07.8.8 0 0 0-.7.36 1.9 1.9 0 0 0-.25 1.06 1.7 1.7 0 0 0 .26 1 .8.8 0 0 0 .7.33 1.3 1.3 0 0 0 .4-.05 2.36 2.36 0 0 0 .4-.22l.3.42a1.8 1.8 0 0 1-1.13.4 1.5 1.5 0 0 1-1.18-.5 2.1 2.1 0 0 1-.43-1.4 2.4 2.4 0 0 1 .2-1 1.55 1.55 0 0 1 .55-.67 1.45 1.45 0 0 1 .86-.25 1.64 1.64 0 0 1 .6.1zM115.86 32.58h-2.35a1.43 1.43 0 0 0 .32.9.9.9 0 0 0 .7.28 1.57 1.57 0 0 0 .48-.07 2.17 2.17 0 0 0 .47-.26l.28.4a2.06 2.06 0 0 1-1.3.45 1.5 1.5 0 0 1-1.2-.5 2.06 2.06 0 0 1-.42-1.4 2.73 2.73 0 0 1 .18-1 1.65 1.65 0 0 1 .54-.7 1.42 1.42 0 0 1 .82-.25 1.37 1.37 0 0 1 1.13.5 2 2 0 0 1 .38 1.32c0 .1 0 .2-.02.3zm-.62-.52a1.32 1.32 0 0 0-.22-.83.76.76 0 0 0-.65-.3c-.52 0-.8.4-.86 1.17h1.74zm-.3-3.46l.28.54-1.48.6-.2-.34zM117.08 34.08a.84.84 0 0 1-.2-.6V29l.64-.07v4.5a.36.36 0 0 0 0 .23.22.22 0 0 0 .18.07.6.6 0 0 0 .24 0l.16.45a1 1 0 0 1-.5.13.75.75 0 0 1-.52-.22zM121.7 32.58h-2.36a1.43 1.43 0 0 0 .3.9.9.9 0 0 0 .7.28 1.57 1.57 0 0 0 .5-.07 2.17 2.17 0 0 0 .46-.26l.28.4a2 2 0 0 1-1.3.45 1.5 1.5 0 0 1-1.2-.5 2.06 2.06 0 0 1-.42-1.4 2.73 2.73 0 0 1 .18-1 1.65 1.65 0 0 1 .53-.7 1.44 1.44 0 0 1 .82-.25 1.35 1.35 0 0 1 1.12.5 2 2 0 0 1 .4 1.32c0 .1-.02.2-.03.3zm-.63-.52a1.32 1.32 0 0 0-.22-.83.76.76 0 0 0-.65-.3c-.52 0-.8.4-.86 1.17h1.73zm-.3-3.46l.28.54-1.48.6-.2-.34zM124.7 30.47l-.1.63a2 2 0 0 0-.33 0 .72.72 0 0 0-.56.25 1.9 1.9 0 0 0-.32.8v2.1h-.64v-3.73h.55l.05.75a1.5 1.5 0 0 1 .4-.63.9.9 0 0 1 .6-.2 2.2 2.2 0 0 1 .36.03zM126.08 28.87a.42.42 0 0 1 .13.32.4.4 0 0 1-.12.3.44.44 0 0 1-.32.12.48.48 0 0 1-.33-.12.43.43 0 0 1-.12-.3.45.45 0 0 1 .13-.33.48.48 0 0 1 .33-.12.44.44 0 0 1 .32.12zm0 1.65v3.7h-.64v-3.7zM129.28 34a1.42 1.42 0 0 1-.83.25 1 1 0 0 1-.73-.27 1.05 1.05 0 0 1-.26-.78V31h-.65v-.5h.66v-.83l.64-.07v.9h.9l-.06.5h-.8v2.2a.7.7 0 0 0 .1.42.43.43 0 0 0 .33.13 1 1 0 0 0 .5-.15zM132.6 32.58h-2.34a1.43 1.43 0 0 0 .3.9.9.9 0 0 0 .7.28 1.53 1.53 0 0 0 .48-.07 2 2 0 0 0 .47-.26l.3.4a2 2 0 0 1-1.3.45 1.52 1.52 0 0 1-1.2-.5 2.06 2.06 0 0 1-.43-1.4 2.54 2.54 0 0 1 .2-1 1.58 1.58 0 0 1 .52-.7 1.4 1.4 0 0 1 .8-.25 1.35 1.35 0 0 1 1.13.5 2 2 0 0 1 .4 1.32c0 .1 0 .2-.02.3zm-.6-.52a1.4 1.4 0 0 0-.23-.83.77.77 0 0 0-.65-.3c-.53 0-.82.4-.86 1.17H132zm-.32-3.46l.28.54-1.48.6-.2-.34zM136 30.88a.45.45 0 0 1 .15.34.47.47 0 0 1-.15.35.44.44 0 0 1-.34.14.46.46 0 0 1-.35-.13.5.5 0 0 1-.13-.35.48.48 0 0 1 .14-.34.5.5 0 0 1 .36-.14.48.48 0 0 1 .34.14zm0 2.58a.43.43 0 0 1 .15.34.5.5 0 0 1-.15.35.48.48 0 0 1-.34.14.5.5 0 0 1-.35-.15.52.52 0 0 1-.13-.35.48.48 0 0 1 .5-.48.44.44 0 0 1 .33.14z"
     class="cls-1"
     id="path8" />
  <path
     d="M68.78 16.43a1.62 1.62 0 0 0 0 .18.37.37 0 0 0 .08.27.36.36 0 0 0 .25.08.73.73 0 0 0 .26 0 1.77 1.77 0 0 0 .28-.1l.2.43a1.46 1.46 0 0 1-.8.25.92.92 0 0 1-.67-.22.85.85 0 0 1-.23-.62 1.1 1.1 0 0 1 0-.22l.3-2.2h-.63l.08-.5h.66l.23-.86h.5l-.12.9H70l-.14.5h-.8zM62.12 17.4c-.24 0-.33-.06-.33-.18a.76.76 0 0 1 .07-.28l1.94-4.65.36-.1 2.25 5.2zm1.67-4l-1.42 3.3h2.87zM79.87 107.7a.65.65 0 0 1 0-.25 1.6 1.6 0 0 1 0-.33c0-.15 0-.33.1-.57s.08-.55.13-.94h-.55a.22.22 0 0 1-.2-.08.34.34 0 0 1 0-.2.4.4 0 0 1 .1-.2.2.2 0 0 1 .15-.1h.64c0-.2.08-.42.12-.6s.07-.37.1-.52.07-.3.1-.5a.3.3 0 0 1 .12-.18.37.37 0 0 1 .2-.07.23.23 0 0 1 .16.08.33.33 0 0 1 .08.24c-.07.3-.13.6-.18.84s-.1.5-.14.73h.7a.26.26 0 0 1 .18.12.3.3 0 0 1 0 .2.3.3 0 0 1-.1.2.27.27 0 0 1-.24.06h-.67a2.33 2.33 0 0 0-.06.36c0 .1 0 .2-.04.3 0 .32-.08.56-.1.73a3.58 3.58 0 0 0 0 .35c0 .07 0 .1 0 .12h.07a.36.36 0 0 0 .17-.08.77.77 0 0 0 .2-.17.15.15 0 0 1 .15 0 .43.43 0 0 1 .14.13.3.3 0 0 1 .04.2.26.26 0 0 1-.12.2 1.18 1.18 0 0 1-.37.23 1.07 1.07 0 0 1-.4.1.58.58 0 0 1-.3-.1.44.44 0 0 1-.18-.3zM97.77 103.5a1.52 1.52 0 0 1-.55.3 1.34 1.34 0 0 1-.55.08 1.4 1.4 0 0 1-.48-.13 1 1 0 0 1-.37-.3.93.93 0 0 1-.1-.93 2.16 2.16 0 0 1 .42-.62 2.6 2.6 0 0 1 .57-.48 2.42 2.42 0 0 1 .65-.3A2.25 2.25 0 0 1 98 101c0-.14.06-.32.1-.52l.12-.6c0-.17.07-.33.1-.47s0-.2 0-.2a.3.3 0 0 1 .18-.2.3.3 0 0 1 .2-.07.23.23 0 0 1 .16.08.3.3 0 0 1 .08.24c-.14.66-.26 1.2-.34 1.67s-.16.84-.2 1.14-.08.56-.1.73a2.2 2.2 0 0 0 0 .37c0 .08 0 .12.07.13h.07a.9.9 0 0 0 .3-.24.15.15 0 0 1 .15 0 .44.44 0 0 1 .14.12.4.4 0 0 1 0 .2.27.27 0 0 1-.12.2 1.5 1.5 0 0 1-.34.24.8.8 0 0 1-.35.08.6.6 0 0 1-.3-.08.6.6 0 0 1-.16-.3zm-1.54-.8a.57.57 0 0 0 .07.5.56.56 0 0 0 .47.18.78.78 0 0 0 .58-.22 1.7 1.7 0 0 0 .36-.54l.2-1a1.14 1.14 0 0 0-.56.1 2 2 0 0 0-.52.28 2 2 0 0 0-.4.37 1 1 0 0 0-.2.32zM94.93 111.22a.43.43 0 0 1-.2.17.36.36 0 0 1-.2 0 .53.53 0 0 1-.16-.1.28.28 0 0 1-.08-.14l-.56-2.3a.2.2 0 0 1 .06-.17.6.6 0 0 1 .2-.14.3.3 0 0 1 .2 0c.07 0 .1.07.13.15l.42 1.7.9-1.65a.28.28 0 0 1 .4-.14.3.3 0 0 1 .14.14.17.17 0 0 1 0 .17zM96.86 112.37a1 1 0 0 1-.33.17 1 1 0 0 1-.34 0 .75.75 0 0 1-.3-.1.55.55 0 0 1-.2-.18.62.62 0 0 1-.1-.28.67.67 0 0 1 .07-.35 1.48 1.48 0 0 1 .28-.45 1.7 1.7 0 0 1 .38-.33 2.1 2.1 0 0 1 .46-.2 2 2 0 0 1 .47-.1.17.17 0 0 1 .2.1.46.46 0 0 1 .05.24 1.6 1.6 0 0 1 0 .35 2.22 2.22 0 0 1-.1.37c0 .06 0 .13-.05.2a.84.84 0 0 0 0 .2q0 .1 0 .13s.1 0 .18 0a.63.63 0 0 0 .2-.17.1.1 0 0 1 .12 0 .4.4 0 0 1 .1.08.22.22 0 0 1 0 .14.2.2 0 0 1-.08.14.78.78 0 0 1-.25.16.9.9 0 0 1-.28.08.84.84 0 0 1-.27 0 .56.56 0 0 1-.24-.2zm-.84-.6a.53.53 0 0 0 0 .2.33.33 0 0 0 .07.17.25.25 0 0 0 .12.1.4.4 0 0 0 .2 0 .5.5 0 0 0 .3-.18 1.14 1.14 0 0 0 .22-.33 1.64 1.64 0 0 0 .14-.4 1.34 1.34 0 0 0 .06-.35 1.37 1.37 0 0 0-.4.1 2.18 2.18 0 0 0-.35.2 1.7 1.7 0 0 0-.24.24.48.48 0 0 0-.16.24zM98.4 110.74a.23.23 0 0 1 .1-.14.3.3 0 0 1 .16 0 .23.23 0 0 1 .12.06.1.1 0 0 1 0 .1 3.67 3.67 0 0 0-.17.5 3 3 0 0 0-.07.5 1 1 0 0 0 0 .34c0 .1.07.12.13.1l.13-.07.1-.12a.1.1 0 0 1 .1 0 .18.18 0 0 1 .1.08.23.23 0 0 1 .06.12.18.18 0 0 1 0 .13.73.73 0 0 1-.22.2.57.57 0 0 1-.28.1.46.46 0 0 1-.33-.14.68.68 0 0 1-.14-.32 1.84 1.84 0 0 1 0-.4c0-.15 0-.3.06-.43s.06-.25.1-.35zm.1-.56a.27.27 0 0 1 .1-.18.24.24 0 0 1 .2-.07.2.2 0 0 1 .2.07.2.2 0 0 1 0 .18.25.25 0 0 1-.1.17.3.3 0 0 1-.18.07.2.2 0 0 1-.16-.07.17.17 0 0 1-.05-.17zM101.33 111.23a.7.7 0 0 0-.16-.14.4.4 0 0 0-.17-.1.42.42 0 0 0-.22 0 .82.82 0 0 0-.2.12.68.68 0 0 0-.23.4l-.14.78a.2.2 0 0 1-.08.14.27.27 0 0 1-.14.07.18.18 0 0 1-.14 0 .16.16 0 0 1-.06-.14l.3-1.65a.22.22 0 0 1 .08-.14.4.4 0 0 1 .15 0 .2.2 0 0 1 .14.05.1.1 0 0 1 0 .1v.1a1 1 0 0 1 .28-.14 1 1 0 0 1 .7 0 .6.6 0 0 1 .27.28.15.15 0 0 1 0 .13.47.47 0 0 1-.1.12.2.2 0 0 1-.13.04.14.14 0 0 1-.14 0zM74.1 108c-.27 0-.37-.07-.37-.2a.9.9 0 0 1 .1-.34l2.2-5.3.4-.1L79 108zm1.9-4.63l-1.6 3.83h3.28zM84.18 104.62v-.36h4.75v.36zm0 1.56v-.37h4.75v.38zM91.33 105h12.44v.4H91.33zM77.05 50.12a.45.45 0 0 1-.2.2.34.34 0 0 1-.22 0 .38.38 0 0 1-.17-.1.24.24 0 0 1-.1-.14l-.57-2.45a.22.22 0 0 1 .05-.18.56.56 0 0 1 .2-.14.37.37 0 0 1 .23 0c.07 0 .1.08.13.18l.46 1.8 1-1.77a.3.3 0 0 1 .2-.16.4.4 0 0 1 .2 0 .32.32 0 0 1 .15.14.15.15 0 0 1 0 .18zM103.52 54.38a1.22 1.22 0 0 1 0-.26c0-.1 0-.2 0-.35s.06-.35.1-.6.1-.6.16-1h-.6q-.16 0-.2-.1a.4.4 0 0 1 0-.2.47.47 0 0 1 .1-.23.22.22 0 0 1 .16-.1h.67c0-.22.1-.44.14-.65s.08-.4.12-.55.07-.33.1-.52a.3.3 0 0 1 .13-.2.32.32 0 0 1 .2-.07.22.22 0 0 1 .17.08.3.3 0 0 1 .08.25c-.07.32-.13.62-.2.9s-.1.52-.14.75h.75a.27.27 0 0 1 .2.13.42.42 0 0 1 0 .22.4.4 0 0 1-.12.2.35.35 0 0 1-.25.06h-.7c0 .14 0 .26-.08.38s0 .22 0 .32c-.05.34-.1.6-.1.77s0 .3 0 .38 0 .13 0 .14h.07a.73.73 0 0 0 .18-.1.85.85 0 0 0 .2-.16.15.15 0 0 1 .17 0 .37.37 0 0 1 .15.13.3.3 0 0 1 0 .2.3.3 0 0 1-.12.23 1.38 1.38 0 0 1-.4.26 1.16 1.16 0 0 1-.4.1.62.62 0 0 1-.33-.1.46.46 0 0 1-.2-.32zM101.27 45.52a2 2 0 0 1-.58.33 1.56 1.56 0 0 1-.6.08 1.2 1.2 0 0 1-.5-.14 1.06 1.06 0 0 1-.4-.32.9.9 0 0 1-.2-.48 1 1 0 0 1 .08-.54 2.64 2.64 0 0 1 .43-.67 4.23 4.23 0 0 1 .62-.52 3 3 0 0 1 .7-.32 2.48 2.48 0 0 1 .7-.1c0-.16.06-.34.1-.56s.08-.42.12-.62.08-.37.1-.52l.06-.22a.25.25 0 0 1 .12-.2.3.3 0 0 1 .2-.07.24.24 0 0 1 .18.07.38.38 0 0 1 .08.26q-.23 1-.36 1.77c-.1.48-.17.88-.22 1.2s-.08.6-.1.78a2.45 2.45 0 0 0 0 .4c0 .07 0 .12.07.12a.08.08 0 0 0 .08 0 .88.88 0 0 0 .3-.25.15.15 0 0 1 .18 0 .34.34 0 0 1 .16.13.42.42 0 0 1 0 .2.3.3 0 0 1-.14.22 1.83 1.83 0 0 1-.36.26.84.84 0 0 1-.37.1.56.56 0 0 1-.54-.4zm-1.63-.86a.6.6 0 0 0 .06.55.63.63 0 0 0 .5.2.85.85 0 0 0 .62-.23 1.73 1.73 0 0 0 .38-.57l.22-1.1a1.3 1.3 0 0 0-.6.1 2.9 2.9 0 0 0-.56.3 2.3 2.3 0 0 0-.42.4.85.85 0 0 0-.2.36zM79.65 51.34a1 1 0 0 1-.36.18 1.1 1.1 0 0 1-.37 0 .85.85 0 0 1-.3-.1.74.74 0 0 1-.23-.2.56.56 0 0 1-.1-.3.77.77 0 0 1 .07-.37 1.72 1.72 0 0 1 .3-.47 1.7 1.7 0 0 1 .4-.35 2.12 2.12 0 0 1 .5-.23 2.27 2.27 0 0 1 .5-.1.2.2 0 0 1 .2.1.54.54 0 0 1 .07.27 1.82 1.82 0 0 1 0 .38c0 .13-.06.27-.1.4s0 .13-.06.2a.63.63 0 0 0 0 .22.15.15 0 0 0 0 .14s.1 0 .2 0a.52.52 0 0 0 .2-.17.12.12 0 0 1 .13 0 .3.3 0 0 1 .12.1.33.33 0 0 1 0 .14.2.2 0 0 1-.1.15 1.1 1.1 0 0 1-.24.17 1.1 1.1 0 0 1-.3.07.9.9 0 0 1-.28 0 .5.5 0 0 1-.25-.23zm-.9-.65a.85.85 0 0 0 0 .2.36.36 0 0 0 .06.2.24.24 0 0 0 .15.1.47.47 0 0 0 .2 0 .55.55 0 0 0 .32-.2 1.1 1.1 0 0 0 .24-.34 1.92 1.92 0 0 0 .17-.42 3.26 3.26 0 0 0 .06-.38 1.3 1.3 0 0 0-.44.1 1.7 1.7 0 0 0-.36.22 1.28 1.28 0 0 0-.26.26.78.78 0 0 0-.14.25zM81.24 49.6a.24.24 0 0 1 .12-.14.3.3 0 0 1 .16 0 .15.15 0 0 1 .13.06.1.1 0 0 1 0 .12 2.88 2.88 0 0 0-.17.52 2.7 2.7 0 0 0-.1.52 1.4 1.4 0 0 0 0 .37c0 .1.08.13.15.1a.27.27 0 0 0 .13-.07.8.8 0 0 0 .13-.13.08.08 0 0 1 .1 0 .2.2 0 0 1 .1.05.22.22 0 0 1 .06.13.16.16 0 0 1 0 .14.8.8 0 0 1-.23.22.5.5 0 0 1-.3.07.43.43 0 0 1-.35-.13.72.72 0 0 1-.15-.33 2 2 0 0 1 0-.42c0-.15 0-.3.07-.44a2.58 2.58 0 0 1 .1-.38zm.12-.6a.42.42 0 0 1 .1-.18.3.3 0 0 1 .2-.08.2.2 0 0 1 .18.08.2.2 0 0 1 0 .18.27.27 0 0 1-.1.2.3.3 0 0 1-.2.06.2.2 0 0 1-.17-.07.24.24 0 0 1 0-.2zM84.24 50.12a.8.8 0 0 0-.17-.14.32.32 0 0 0-.22-.07.64.64 0 0 0-.23.06.74.74 0 0 0-.2.13 1 1 0 0 0-.17.2.92.92 0 0 0-.1.22l-.13.83a.3.3 0 0 1-.1.15.34.34 0 0 1-.15.07.2.2 0 0 1-.15 0 .2.2 0 0 1-.06-.17l.3-1.74a.2.2 0 0 1 .1-.16.28.28 0 0 1 .16 0 .3.3 0 0 1 .14 0 .1.1 0 0 1 0 .12v.1a1.05 1.05 0 0 1 .3-.16 1 1 0 0 1 .33-.05.85.85 0 0 1 .42.1.63.63 0 0 1 .27.3.15.15 0 0 1 0 .13.3.3 0 0 1-.1.13.2.2 0 0 1-.14.06.18.18 0 0 1-.12-.1zM97.4 54.66c-.3 0-.4-.07-.4-.22a1.05 1.05 0 0 1 .1-.35l2.36-5.64.4-.1 2.74 6.3zm2-4.92l-1.7 4.07h3.48zM87.92 46.7v-.4h5v.4zm0 1.65V48h5v.4zM95.53 47.13h11.6v.4h-11.6z"
     class="cls-2"
     id="path10" />
  <path
     d="M68.6 72.87a2.26 2.26 0 0 1 .66 1.88 2.35 2.35 0 0 1-.66 1.9 2.42 2.42 0 0 1-1.6.54h-1.16v-4.83h1a2.87 2.87 0 0 1 1.76.5zm-2.1 0v3.76h.5a1.46 1.46 0 0 0 1.1-.4 2.07 2.07 0 0 0 .4-1.5 2.46 2.46 0 0 0-.2-1.18 1.07 1.07 0 0 0-.56-.54 1.92 1.92 0 0 0-.74-.1zM72.9 73.93a2.14 2.14 0 0 1 .43 1.4 2.46 2.46 0 0 1-.2 1 1.53 1.53 0 0 1-.56.7 1.6 1.6 0 0 1-.88.23 1.48 1.48 0 0 1-1.22-.52 2.1 2.1 0 0 1-.44-1.4 2.46 2.46 0 0 1 .2-1 1.48 1.48 0 0 1 .57-.68 1.57 1.57 0 0 1 .9-.24 1.5 1.5 0 0 1 1.2.5zm-2.16 1.42c0 .94.3 1.4 1 1.4s1-.47 1-1.4-.32-1.42-1-1.42-1 .48-1 1.42zM76.92 73.72a1.13 1.13 0 0 1 .28.82v2.65h-.64v-2.57a.8.8 0 0 0-.15-.55.54.54 0 0 0-.42-.16.85.85 0 0 0-.52.17 1.68 1.68 0 0 0-.42.47v2.62h-.64v-3.7h.6l.06.55a1.54 1.54 0 0 1 .48-.47 1.3 1.3 0 0 1 .64-.16 1 1 0 0 1 .74.3zM81 73.72a1.13 1.13 0 0 1 .28.82v2.65h-.64v-2.57a.8.8 0 0 0-.15-.55.53.53 0 0 0-.44-.16.85.85 0 0 0-.52.17 1.68 1.68 0 0 0-.42.47v2.62h-.62v-3.7h.55l.06.55a1.54 1.54 0 0 1 .5-.47 1.3 1.3 0 0 1 .63-.16 1 1 0 0 1 .77.3zM85.37 75.57H83a1.43 1.43 0 0 0 .3.9.88.88 0 0 0 .7.28 1.53 1.53 0 0 0 .48-.08 1.9 1.9 0 0 0 .47-.24l.28.38a2 2 0 0 1-1.3.47 1.5 1.5 0 0 1-1.2-.5 2.12 2.12 0 0 1-.42-1.4 2.73 2.73 0 0 1 .2-1 1.6 1.6 0 0 1 .53-.68 1.33 1.33 0 0 1 .82-.26 1.36 1.36 0 0 1 1.15.46 2.08 2.08 0 0 1 .4 1.34c0 .1-.02.2-.03.33zm-.62-.52a1.36 1.36 0 0 0-.22-.84.76.76 0 0 0-.65-.27c-.53 0-.8.38-.86 1.16h1.73zm-.3-3.47l.28.54-1.5.6-.18-.34zM91.13 72v5.17h-.57l-.06-.5a1.38 1.38 0 0 1-.46.43 1.23 1.23 0 0 1-.6.15 1.16 1.16 0 0 1-1-.52 2.3 2.3 0 0 1-.44-1.37 2.9 2.9 0 0 1 .17-1 1.55 1.55 0 0 1 .5-.68 1.2 1.2 0 0 1 .78-.25 1.3 1.3 0 0 1 1 .45v-1.94zm-1 4.6a1.57 1.57 0 0 0 .4-.4v-1.8a1.3 1.3 0 0 0-.4-.35.88.88 0 0 0-.45-.12.74.74 0 0 0-.66.35 2 2 0 0 0-.24 1.07A2 2 0 0 0 89 76.4a.67.67 0 0 0 .62.36.92.92 0 0 0 .46-.13zM95 76.66a.5.5 0 0 0 .23.17l-.15.44a.9.9 0 0 1-.46-.16.7.7 0 0 1-.26-.38 1.23 1.23 0 0 1-1.1.55 1.16 1.16 0 0 1-.86-.3 1.18 1.18 0 0 1 .1-1.7 2 2 0 0 1 1.2-.33h.58v-.27a.74.74 0 0 0-.2-.56.87.87 0 0 0-.57-.16 3.38 3.38 0 0 0-1 .2l-.15-.47a3.67 3.67 0 0 1 1.28-.25 1.35 1.35 0 0 1 1 .3 1.26 1.26 0 0 1 .32.92v1.7a.57.57 0 0 0 .05.32zm-.72-.44v-.85h-.5q-1 0-1 .75a.73.73 0 0 0 .17.5.65.65 0 0 0 .48.17 1 1 0 0 0 .87-.58zM98.8 73.72a1.13 1.13 0 0 1 .27.82v2.65h-.64v-2.57a.8.8 0 0 0-.15-.55.54.54 0 0 0-.43-.16.85.85 0 0 0-.52.17 1.68 1.68 0 0 0-.42.47v2.62h-.64v-3.7h.56l.05.55a1.57 1.57 0 0 1 .5-.47 1.27 1.27 0 0 1 .63-.16 1 1 0 0 1 .8.3zM102.05 73.52a2 2 0 0 1 .57.32l-.27.4a2.68 2.68 0 0 0-.48-.24 1.5 1.5 0 0 0-.48-.07.82.82 0 0 0-.5.13.4.4 0 0 0-.2.35.4.4 0 0 0 .18.36 1.83 1.83 0 0 0 .62.24 2.4 2.4 0 0 1 .92.42.93.93 0 0 1 .3.73 1 1 0 0 1-.42.84 1.8 1.8 0 0 1-1 .27 2 2 0 0 1-1.4-.48l.35-.4a1.65 1.65 0 0 0 1 .35.9.9 0 0 0 .58-.15.47.47 0 0 0 .22-.4.57.57 0 0 0-.08-.3.6.6 0 0 0-.27-.2 3.72 3.72 0 0 0-.55-.2 1.87 1.87 0 0 1-.85-.4.86.86 0 0 1-.26-.67.83.83 0 0 1 .17-.52 1 1 0 0 1 .48-.35 1.7 1.7 0 0 1 .7-.13 2.07 2.07 0 0 1 .67.1zM105.66 77.06a.8.8 0 0 1-.2-.6V72l.64-.08v4.5a.42.42 0 0 0 .05.23.2.2 0 0 0 .18.07.6.6 0 0 0 .24 0l.17.45a1.14 1.14 0 0 1-.52.12.76.76 0 0 1-.56-.24zM107.93 72.05a.44.44 0 0 1 .13.3.5.5 0 0 1 0 .18.92.92 0 0 1-.1.24l-.46 1h-.42l.28-1.05a.42.42 0 0 1-.18-.35.4.4 0 0 1 .13-.3.45.45 0 0 1 .33-.14.44.44 0 0 1 .3.12zM111.73 75.57h-2.35a1.43 1.43 0 0 0 .3.9.9.9 0 0 0 .7.28 1.57 1.57 0 0 0 .5-.08 1.85 1.85 0 0 0 .45-.24l.28.38a2 2 0 0 1-1.27.47 1.46 1.46 0 0 1-1.2-.5 2.06 2.06 0 0 1-.43-1.4 2.73 2.73 0 0 1 .18-1 1.6 1.6 0 0 1 .53-.68 1.5 1.5 0 0 1 1.95.22 2 2 0 0 1 .4 1.34c0 .08 0 .2-.02.3zm-.62-.52a1.36 1.36 0 0 0-.2-.84.76.76 0 0 0-.66-.27c-.52 0-.8.38-.86 1.16h1.73zm-.3-3.47l.3.54-1.5.6-.2-.34zM115.3 73.72a1.13 1.13 0 0 1 .28.82v2.65h-.64v-2.57a.8.8 0 0 0-.15-.55.54.54 0 0 0-.44-.16.85.85 0 0 0-.52.17 1.68 1.68 0 0 0-.42.47v2.62h-.64v-3.7h.55l.06.55a1.54 1.54 0 0 1 .47-.47 1.3 1.3 0 0 1 .64-.16 1 1 0 0 1 .8.3zM119.47 73.93a2.14 2.14 0 0 1 .43 1.4 2.46 2.46 0 0 1-.2 1 1.53 1.53 0 0 1-.56.7 1.6 1.6 0 0 1-.88.23 1.48 1.48 0 0 1-1.2-.52 2.1 2.1 0 0 1-.45-1.4 2.46 2.46 0 0 1 .2-1 1.48 1.48 0 0 1 .58-.68 1.57 1.57 0 0 1 .88-.24 1.5 1.5 0 0 1 1.2.5zm-2.16 1.42c0 .94.32 1.4 1 1.4s.96-.47.96-1.4-.32-1.42-.95-1.42-1 .48-1 1.42zM123.5 73.72a1.13 1.13 0 0 1 .27.82v2.65h-.64v-2.57a.8.8 0 0 0-.15-.55.54.54 0 0 0-.43-.16.85.85 0 0 0-.52.17 1.68 1.68 0 0 0-.42.47v2.62h-.6v-3.7h.55l.06.55a1.54 1.54 0 0 1 .5-.47 1.3 1.3 0 0 1 .63-.16 1 1 0 0 1 .76.3zM127 73.5a1.45 1.45 0 0 1 .53.32l-.3.4a2.08 2.08 0 0 0-.4-.2 1.3 1.3 0 0 0-.4-.07.8.8 0 0 0-.7.36 1.87 1.87 0 0 0-.25 1 1.75 1.75 0 0 0 .25 1 .8.8 0 0 0 .7.35 1.05 1.05 0 0 0 .4-.07 1.94 1.94 0 0 0 .4-.2l.3.4a1.76 1.76 0 0 1-1.13.4 1.46 1.46 0 0 1-1.18-.5 2.12 2.12 0 0 1-.43-1.38 2.5 2.5 0 0 1 .2-1 1.44 1.44 0 0 1 1.4-.93 1.9 1.9 0 0 1 .6.14zM131.05 75.57h-2.36a1.43 1.43 0 0 0 .3.9.9.9 0 0 0 .7.28 1.57 1.57 0 0 0 .48-.08 2.1 2.1 0 0 0 .47-.24l.28.38a2 2 0 0 1-1.3.47 1.47 1.47 0 0 1-1.2-.5 2.06 2.06 0 0 1-.42-1.4 2.73 2.73 0 0 1 .2-1 1.68 1.68 0 0 1 .52-.68 1.53 1.53 0 0 1 1.95.22 2.08 2.08 0 0 1 .4 1.34c0 .08 0 .2-.02.3zm-.63-.52a1.43 1.43 0 0 0-.2-.84.78.78 0 0 0-.66-.27c-.53 0-.82.38-.87 1.16h1.72zm-.3-3.47l.28.54-1.48.6-.2-.34z"
     class="cls-3"
     id="path12" />
  <g
     id="_Groupe_">
    <path
       d="M97.3 80.2h.5v12.9h-.5zM96.3 92.73l1.25 2.16 1.25-2.17h-2.5z"
       class="cls-3"
       id="path14" />
  </g>
  <path
     d="M96 153.47a1.15 1.15 0 0 1 .28.82v2.64h-.65v-2.56c0-.47-.17-.7-.52-.7a.68.68 0 0 0-.45.15 2.2 2.2 0 0 0-.4.5v2.6h-.65v-2.55c0-.47-.17-.7-.52-.7a.66.66 0 0 0-.46.15 2.14 2.14 0 0 0-.4.5v2.6h-.65v-3.68h.55l.06.54a1.23 1.23 0 0 1 1.07-.63 1 1 0 0 1 .58.17 1 1 0 0 1 .35.5 1.6 1.6 0 0 1 .48-.5 1 1 0 0 1 .62-.17.92.92 0 0 1 .72.3z"
     class="cls-4"
     id="path17" />
  <g
     id="_Groupe_2">
    <path
       d="M93.68 159.96h.5v6.88h-.5zM92.68 166.48l1.25 2.16 1.24-2.16h-2.5z"
       class="cls-4"
       id="path19" />
  </g>
  <path
     d="M92 200a1.2 1.2 0 0 1 .27.82v2.65h-.64v-2.56c0-.46-.18-.7-.52-.7a.66.66 0 0 0-.45.16 2.18 2.18 0 0 0-.4.5v2.6h-.65v-2.55c0-.46-.18-.7-.52-.7a.7.7 0 0 0-.47.16 2.14 2.14 0 0 0-.4.5v2.6h-.63v-3.68h.55l.06.54a1.2 1.2 0 0 1 1.06-.62.92.92 0 0 1 .93.66 1.73 1.73 0 0 1 .48-.5 1.07 1.07 0 0 1 .62-.16.94.94 0 0 1 .73.3zM94.08 200.92a.44.44 0 0 1 .14.34.46.46 0 0 1-.14.35.48.48 0 0 1-.35.15.48.48 0 0 1-.34-.14.5.5 0 0 1-.15-.34.48.48 0 0 1 .48-.48.48.48 0 0 1 .35.14zM96.93 199.77a2 2 0 0 1 .57.32l-.27.4a2.68 2.68 0 0 0-.48-.25 1.5 1.5 0 0 0-.48-.07.82.82 0 0 0-.5.13.4.4 0 0 0-.18.36.4.4 0 0 0 .16.35 1.83 1.83 0 0 0 .62.25 2.4 2.4 0 0 1 .92.42.93.93 0 0 1 .3.73 1 1 0 0 1-.42.84 1.8 1.8 0 0 1-1 .28 2 2 0 0 1-1.4-.48l.35-.4a1.65 1.65 0 0 0 1 .36.9.9 0 0 0 .58-.15.47.47 0 0 0 .23-.4.57.57 0 0 0-.08-.3.6.6 0 0 0-.27-.2 3.72 3.72 0 0 0-.55-.2 1.87 1.87 0 0 1-.85-.4.86.86 0 0 1-.26-.67.83.83 0 0 1 .17-.52 1 1 0 0 1 .46-.36 1.7 1.7 0 0 1 .7-.13 2.1 2.1 0 0 1 .67.1zM98.1 200v-.32h1.15v.32zM100.53 198.38v2.73h-.38v-2.32l-.63.4-.17-.28.85-.52zM115.77 199.53a1.25 1.25 0 0 1 .47.44 1.12 1.12 0 0 1 .17.6 1.06 1.06 0 0 1-.24.7 1.27 1.27 0 0 1-.66.37 1.2 1.2 0 0 1 .76.34 1 1 0 0 1 .3.8 1.4 1.4 0 0 1-.2.73 1.32 1.32 0 0 1-.56.52 1.76 1.76 0 0 1-.84.2 1.86 1.86 0 0 1-.8-.17 1.73 1.73 0 0 1-.6-.47l.38-.36a1.47 1.47 0 0 0 .47.35 1.17 1.17 0 0 0 .54.1 1 1 0 0 0 .7-.23.9.9 0 0 0 .24-.67.77.77 0 0 0-.24-.65 1.07 1.07 0 0 0-.7-.2h-.34l.08-.5h.24a.84.84 0 0 0 .6-.2.76.76 0 0 0 .24-.62.7.7 0 0 0-.2-.52.84.84 0 0 0-.57-.2 1.22 1.22 0 0 0-.52.1 1.54 1.54 0 0 0-.46.33l-.34-.37a1.94 1.94 0 0 1 1.34-.56 1.73 1.73 0 0 1 .75.16zM121.4 200.45a1.63 1.63 0 0 1 .53.3l-.3.4a1.62 1.62 0 0 0-.4-.2 1.3 1.3 0 0 0-.4-.07.78.78 0 0 0-.7.36 1.82 1.82 0 0 0-.24 1.06 1.76 1.76 0 0 0 .23 1 .82.82 0 0 0 .7.33 1.25 1.25 0 0 0 .4-.06 2.4 2.4 0 0 0 .4-.22l.3.42a1.77 1.77 0 0 1-1.13.4 1.5 1.5 0 0 1-1.18-.5 2.13 2.13 0 0 1-.43-1.4 2.56 2.56 0 0 1 .2-1 1.57 1.57 0 0 1 .55-.67 1.42 1.42 0 0 1 .85-.25 1.74 1.74 0 0 1 .6.1zM125.33 200.65a1.16 1.16 0 0 1 .28.83v2.65h-.6v-2.56a.8.8 0 0 0-.15-.55.57.57 0 0 0-.44-.16.84.84 0 0 0-.5.16 2 2 0 0 0-.42.48v2.63h-.64V199l.64-.07V201a1.3 1.3 0 0 1 1.1-.6 1 1 0 0 1 .75.25zM127.55 198.8a.46.46 0 0 1 .13.3.44.44 0 0 1-.13.32.45.45 0 0 1-.33.12.43.43 0 0 1-.45-.43.46.46 0 0 1 .13-.3.44.44 0 0 1 .32-.13.45.45 0 0 1 .33.12zm0 1.64v3.7h-.64v-3.7zM129.7 199.52a.6.6 0 0 0-.1.4v.52h.88l-.07.5h-.8v3.2h-.66v-3.2h-.65v-.5h.64v-.5a1 1 0 0 1 .3-.77 1.14 1.14 0 0 1 .86-.3 2 2 0 0 1 .45 0 3 3 0 0 1 .43.15l-.2.47a1.65 1.65 0 0 0-.65-.15.62.62 0 0 0-.42.17zM132.06 199.52a.55.55 0 0 0-.13.4v.52h.9l-.07.5h-.83v3.2h-.64v-3.2h-.67v-.5h.66v-.5a1 1 0 0 1 .3-.77 1.17 1.17 0 0 1 .84-.3 2 2 0 0 1 .45 0 2.68 2.68 0 0 1 .42.15l-.2.47a1.6 1.6 0 0 0-.64-.15.58.58 0 0 0-.42.17zM135.54 200.4l-.12.62a1.87 1.87 0 0 0-.32 0 .72.72 0 0 0-.56.25 1.9 1.9 0 0 0-.33.8v2.1h-.63v-3.7h.55l.07.76a1.4 1.4 0 0 1 .38-.63.9.9 0 0 1 .6-.2 2.2 2.2 0 0 1 .36 0zM138.83 202.5h-2.35a1.43 1.43 0 0 0 .3.9.9.9 0 0 0 .7.28 1.57 1.57 0 0 0 .5-.07 1.9 1.9 0 0 0 .45-.24l.3.4a2.06 2.06 0 0 1-1.3.45 1.5 1.5 0 0 1-1.2-.5 2.06 2.06 0 0 1-.43-1.38 2.73 2.73 0 0 1 .18-1 1.58 1.58 0 0 1 .53-.7 1.42 1.42 0 0 1 .83-.25 1.37 1.37 0 0 1 1.13.5 2 2 0 0 1 .4 1.32c0 .08-.02.2-.03.3zm-.62-.52a1.32 1.32 0 0 0-.2-.83.76.76 0 0 0-.66-.3c-.52 0-.8.4-.86 1.18h1.73zM141.56 200.46a2 2 0 0 1 .57.3l-.27.42a2.15 2.15 0 0 0-.48-.24 1.5 1.5 0 0 0-.48-.08.9.9 0 0 0-.5.13.45.45 0 0 0 0 .7 2.2 2.2 0 0 0 .62.24 2.13 2.13 0 0 1 .92.42.9.9 0 0 1 .3.73.93.93 0 0 1-.42.82 1.8 1.8 0 0 1-1 .3 2 2 0 0 1-1.4-.5l.35-.4a1.66 1.66 0 0 0 1 .37 1 1 0 0 0 .57-.16.47.47 0 0 0 .22-.4.53.53 0 0 0-.08-.3.6.6 0 0 0-.27-.22 3.93 3.93 0 0 0-.54-.18 1.92 1.92 0 0 1-.85-.4.93.93 0 0 1-.25-.67.87.87 0 0 1 .17-.52 1.07 1.07 0 0 1 .48-.37 1.83 1.83 0 0 1 .68-.13 2.06 2.06 0 0 1 .68.1zM112.23 208.86a2 2 0 0 1 .58.3l-.26.42a2.15 2.15 0 0 0-.48-.24 1.6 1.6 0 0 0-.48-.08.9.9 0 0 0-.5.13.43.43 0 0 0-.18.35.4.4 0 0 0 .17.35 2.08 2.08 0 0 0 .62.24 2.13 2.13 0 0 1 .9.42.93.93 0 0 1 .3.73.94.94 0 0 1-.4.82 1.8 1.8 0 0 1-1 .3 2.07 2.07 0 0 1-1.4-.5l.34-.4a1.64 1.64 0 0 0 1 .37 1 1 0 0 0 .58-.16.48.48 0 0 0 .2-.4.53.53 0 0 0-.06-.3.6.6 0 0 0-.27-.22 3.93 3.93 0 0 0-.56-.18 1.87 1.87 0 0 1-.85-.4.9.9 0 0 1-.28-.67.82.82 0 0 1 .18-.52 1.1 1.1 0 0 1 .47-.37 1.88 1.88 0 0 1 .7-.13 2 2 0 0 1 .66.1zM114.47 207.2a.45.45 0 0 1 .12.3.43.43 0 0 1-.13.32.48.48 0 0 1-.33.12.44.44 0 0 1-.32-.12.4.4 0 0 1-.13-.3.42.42 0 0 1 .12-.33.44.44 0 0 1 .32-.13.48.48 0 0 1 .33.12zm0 1.64v3.7h-.65v-3.7zM118.77 209a2.07 2.07 0 0 1-.46.1h-.6a1 1 0 0 1 .64.93 1.16 1.16 0 0 1-.37.9 1.5 1.5 0 0 1-1 .35 1.4 1.4 0 0 1-.47-.07.37.37 0 0 0-.13.16.34.34 0 0 0 0 .2c0 .2.16.3.48.3h.6a1.6 1.6 0 0 1 .65.13 1.13 1.13 0 0 1 .44.35 1 1 0 0 1 .16.53 1 1 0 0 1-.44.83 2.42 2.42 0 0 1-1.3.3 2.65 2.65 0 0 1-.93-.13.92.92 0 0 1-.5-.36 1.22 1.22 0 0 1-.14-.62h.57a.7.7 0 0 0 .08.35.57.57 0 0 0 .3.2 2.48 2.48 0 0 0 .62.06 1.85 1.85 0 0 0 .83-.15.48.48 0 0 0 .25-.43.44.44 0 0 0-.2-.4 1 1 0 0 0-.55-.13h-.58a1.06 1.06 0 0 1-.7-.2.62.62 0 0 1-.25-.5.68.68 0 0 1 .1-.36 1.07 1.07 0 0 1 .3-.3 1.16 1.16 0 0 1-.47-.4 1.17 1.17 0 0 1-.15-.62 1.22 1.22 0 0 1 .2-.66 1.2 1.2 0 0 1 .5-.46 1.6 1.6 0 0 1 .72-.17 4 4 0 0 0 .73 0 2.46 2.46 0 0 0 .5-.1 5 5 0 0 0 .46-.2zm-2.44.44a1 1 0 0 0 0 1.2.7.7 0 0 0 .57.23.75.75 0 0 0 .58-.22.9.9 0 0 0 .2-.62.8.8 0 0 0-1.36-.6zM122 209.05a1.16 1.16 0 0 1 .28.83v2.65h-.64V210a.8.8 0 0 0-.15-.55.54.54 0 0 0-.44-.16.85.85 0 0 0-.52.15 1.9 1.9 0 0 0-.42.5v2.6h-.64v-3.68h.52l.06.54a1.5 1.5 0 0 1 .48-.45 1.28 1.28 0 0 1 .64-.17 1 1 0 0 1 .82.27zM124.18 207.2a.42.42 0 0 1 .13.3.4.4 0 0 1-.12.32.45.45 0 0 1-.33.12.43.43 0 0 1-.45-.43.46.46 0 0 1 .13-.3.44.44 0 0 1 .32-.13.45.45 0 0 1 .33.12zm0 1.64v3.7h-.64v-3.7zM127.3 207.34a2 2 0 0 1 .5.2l-.22.44a1.78 1.78 0 0 0-.78-.18.73.73 0 0 0-.5.13.53.53 0 0 0-.15.42v.5h2.06v3.68h-.64v-3.2h-1.4v3.2h-.66v-3.2h-.58v-.5h.58v-.48a1 1 0 0 1 .32-.78 1.35 1.35 0 0 1 1-.3 2.2 2.2 0 0 1 .5.07zM131.48 208.85a1.67 1.67 0 0 1 .53.3l-.3.4a1.62 1.62 0 0 0-.38-.2 1.35 1.35 0 0 0-.4-.07.8.8 0 0 0-.7.36 1.9 1.9 0 0 0-.26 1.06 1.75 1.75 0 0 0 .25 1 .8.8 0 0 0 .7.33 1.3 1.3 0 0 0 .4-.06 2.36 2.36 0 0 0 .4-.22l.3.42a1.77 1.77 0 0 1-1.12.4 1.5 1.5 0 0 1-1.18-.5 2.08 2.08 0 0 1-.43-1.4 2.56 2.56 0 0 1 .2-1 1.55 1.55 0 0 1 .53-.67 1.45 1.45 0 0 1 .86-.25 1.64 1.64 0 0 1 .62.1zM135.37 212a.56.56 0 0 0 .23.16l-.14.45a1 1 0 0 1-.46-.15.73.73 0 0 1-.26-.4 1.24 1.24 0 0 1-1.1.56 1.15 1.15 0 0 1-.86-.3 1.06 1.06 0 0 1-.32-.8 1 1 0 0 1 .43-.9 2 2 0 0 1 1.2-.32h.55V210a.7.7 0 0 0-.2-.56.8.8 0 0 0-.57-.17 3.2 3.2 0 0 0-1 .2l-.16-.48a3.86 3.86 0 0 1 1.27-.26 1.32 1.32 0 0 1 1 .32 1.2 1.2 0 0 1 .32.9v1.7a.62.62 0 0 0 .05.34zm-.72-.45v-.84h-.48q-1 0-1 .76a.68.68 0 0 0 .16.5.63.63 0 0 0 .47.17 1 1 0 0 0 .85-.58zM138.48 212.36a1.4 1.4 0 0 1-.82.25 1 1 0 0 1-.74-.26 1.1 1.1 0 0 1-.26-.78v-2.23H136v-.5h.64V208l.65-.07v.9h.86l-.07.5h-.8v2.2a.7.7 0 0 0 .1.42.4.4 0 0 0 .33.13 1.08 1.08 0 0 0 .5-.15zM139.8 207.2a.46.46 0 0 1 .12.3.44.44 0 0 1-.13.32.45.45 0 0 1-.34.12.43.43 0 0 1-.45-.43.46.46 0 0 1 .14-.3.44.44 0 0 1 .32-.13.45.45 0 0 1 .33.12zm0 1.64v3.7h-.65v-3.7zM142 207.92a.6.6 0 0 0-.12.4v.52h.9l-.08.5h-.82v3.2h-.65v-3.2h-.65v-.5h.65v-.5a1 1 0 0 1 .3-.77 1.14 1.14 0 0 1 .86-.3 2 2 0 0 1 .44 0 3 3 0 0 1 .43.15l-.2.47a1.65 1.65 0 0 0-.65-.15.62.62 0 0 0-.42.17zM145.1 208.86a2 2 0 0 1 .58.3l-.27.42a2.15 2.15 0 0 0-.47-.24 1.5 1.5 0 0 0-.48-.08.86.86 0 0 0-.5.13.43.43 0 0 0 0 .7 2.1 2.1 0 0 0 .62.24 2.18 2.18 0 0 1 .93.42.93.93 0 0 1 .3.73.94.94 0 0 1-.42.82 1.84 1.84 0 0 1-1 .3 2 2 0 0 1-1.4-.5l.35-.4a1.68 1.68 0 0 0 1 .37 1 1 0 0 0 .58-.16.48.48 0 0 0 .22-.4.46.46 0 0 0-.08-.3.63.63 0 0 0-.26-.22 4.43 4.43 0 0 0-.55-.18 1.9 1.9 0 0 1-.86-.4.93.93 0 0 1-.26-.67.87.87 0 0 1 .18-.52 1.2 1.2 0 0 1 .48-.37 1.83 1.83 0 0 1 .68-.13 2.06 2.06 0 0 1 .67.1z"
     class="cls-4"
     id="path22" />
  <g
     id="_Groupe_3">
    <path
       d="M93.7 189.25h.5v6.88h-.5zM95.2 189.62l-1.25-2.16-1.24 2.16h2.5z"
       class="cls-4"
       id="path24" />
  </g>
  <g
     id="_Groupe_4">
    <path
       d="M121.84 187.2h.5v9.62h-.5zM123.34 187.57l-1.25-2.15-1.26 2.15h2.5z"
       class="cls-4"
       id="path27" />
  </g>
  <path
     d="M74 153.27a2 2 0 0 1 .57.32l-.27.4a2.68 2.68 0 0 0-.48-.25 1.5 1.5 0 0 0-.48-.07.82.82 0 0 0-.5.13.4.4 0 0 0-.18.36.4.4 0 0 0 .17.35 1.83 1.83 0 0 0 .62.25 2.4 2.4 0 0 1 .92.42.94.94 0 0 1 .3.73 1 1 0 0 1-.42.84 1.8 1.8 0 0 1-1 .28 2 2 0 0 1-1.4-.48l.35-.4a1.65 1.65 0 0 0 1 .36.9.9 0 0 0 .58-.15.47.47 0 0 0 .22-.35.57.57 0 0 0-.08-.3.6.6 0 0 0-.27-.2 3.72 3.72 0 0 0-.55-.2 1.87 1.87 0 0 1-.85-.4.86.86 0 0 1-.26-.67.83.83 0 0 1 .16-.52 1 1 0 0 1 .47-.35 1.73 1.73 0 0 1 .7-.13 2.07 2.07 0 0 1 .67.05z"
     class="cls-4"
     id="path30" />
  <path
     d="M132.5 177.46a2 2 0 0 1 .56.3l-.27.42a2.15 2.15 0 0 0-.5-.24 1.5 1.5 0 0 0-.47-.07.82.82 0 0 0-.5.13.4.4 0 0 0-.18.35.43.43 0 0 0 .17.35 2.08 2.08 0 0 0 .62.24 2.4 2.4 0 0 1 .92.42 1 1 0 0 1-.12 1.56 1.74 1.74 0 0 1-1 .3 2 2 0 0 1-1.4-.5l.35-.38a1.7 1.7 0 0 0 1 .35 1 1 0 0 0 .57-.16.48.48 0 0 0 .22-.4.56.56 0 0 0-.1-.3.53.53 0 0 0-.26-.2 3.72 3.72 0 0 0-.55-.2 1.87 1.87 0 0 1-.86-.4.86.86 0 0 1-.26-.67.8.8 0 0 1 .17-.52 1.1 1.1 0 0 1 .47-.37 1.93 1.93 0 0 1 .7-.13 2.06 2.06 0 0 1 .67.1z"
     class="cls-1"
     id="path32" />
  <g
     id="_Groupe_5">
    <path
       d="M73.03 159.96h.5v6.88h-.5zM72.03 166.48l1.25 2.16 1.24-2.16h-2.5z"
       class="cls-4"
       id="path34" />
  </g>
  <path
     d="M13.2 95a2.32 2.32 0 0 1 .6.36l-.35.43a1.48 1.48 0 0 0-.94-.37 1.16 1.16 0 0 0-1 .47 2.33 2.33 0 0 0-.36 1.48 2.45 2.45 0 0 0 .36 1.47 1.18 1.18 0 0 0 1 .47 1.33 1.33 0 0 0 .54-.1 3 3 0 0 0 .5-.3l.32.42a1.88 1.88 0 0 1-.58.38 1.84 1.84 0 0 1-.8.16 2 2 0 0 1-1.05-.3 1.9 1.9 0 0 1-.7-.85 3.22 3.22 0 0 1-.27-1.35 3.07 3.07 0 0 1 .28-1.38 1.92 1.92 0 0 1 .72-.86 1.85 1.85 0 0 1 1-.28 1.94 1.94 0 0 1 .74.14zM17.3 98.17H15a1.43 1.43 0 0 0 .3.9.88.88 0 0 0 .7.28 1.5 1.5 0 0 0 .48-.07 2 2 0 0 0 .42-.28l.28.4a2.07 2.07 0 0 1-1.28.45 1.52 1.52 0 0 1-1.2-.5 2.12 2.12 0 0 1-.43-1.35 2.73 2.73 0 0 1 .18-1 1.58 1.58 0 0 1 .53-.7 1.4 1.4 0 0 1 .82-.3 1.36 1.36 0 0 1 1.12.48 2 2 0 0 1 .4 1.34c0 .18 0 .24-.02.35zm-.62-.52a1.32 1.32 0 0 0-.22-.83.76.76 0 0 0-.65-.3c-.52 0-.8.4-.85 1.17h1.73zM23.06 96.1v5.2l-.65-.1v-1.9a1.23 1.23 0 0 1-.44.43 1.2 1.2 0 0 1-.6.15 1.17 1.17 0 0 1-1-.52A2.3 2.3 0 0 1 20 98a2.64 2.64 0 0 1 .18-1 1.55 1.55 0 0 1 .5-.7 1.23 1.23 0 0 1 .77-.24 1.38 1.38 0 0 1 1 .5v-.4zm-1 3.13a1.57 1.57 0 0 0 .4-.4V97a1.3 1.3 0 0 0-.4-.36.8.8 0 0 0-.45-.13.73.73 0 0 0-.65.37 1.9 1.9 0 0 0-.3 1.13 2.14 2.14 0 0 0 .23 1 .7.7 0 0 0 .62.35.93.93 0 0 0 .5-.12zM27.13 99.8h-.55v-.58a1.36 1.36 0 0 1-.48.5 1.3 1.3 0 0 1-.67.16 1 1 0 0 1-.75-.3 1.13 1.13 0 0 1-.28-.83V96.1h.6v2.58a.86.86 0 0 0 .13.54.55.55 0 0 0 .43.16 1.12 1.12 0 0 0 .93-.64V96.1h.63zM31.23 98.17h-2.35a1.43 1.43 0 0 0 .3.9.9.9 0 0 0 .7.28 1.57 1.57 0 0 0 .5-.07 1.9 1.9 0 0 0 .45-.25l.28.4a2.07 2.07 0 0 1-1.27.45 1.5 1.5 0 0 1-1.2-.5A2.06 2.06 0 0 1 28.2 98a2.73 2.73 0 0 1 .18-1 1.58 1.58 0 0 1 .53-.7 1.42 1.42 0 0 1 .83-.25 1.36 1.36 0 0 1 1.12.48 2 2 0 0 1 .4 1.34c0 .13 0 .2-.02.3zm-.62-.52a1.32 1.32 0 0 0-.2-.83.76.76 0 0 0-.66-.3c-.52 0-.8.4-.86 1.17h1.73zM34.76 99.57a2.33 2.33 0 0 1-.12.82 1.34 1.34 0 0 1-.37.5 3.14 3.14 0 0 1-.68.38l-.2-.47a1.54 1.54 0 0 0 .42-.24.63.63 0 0 0 .22-.34 2 2 0 0 0 .08-.6v-3.5h.64zm0-5.1a.44.44 0 0 1 .12.3.43.43 0 0 1-.12.32.46.46 0 0 1-.33.1.44.44 0 0 1-.32-.1.4.4 0 0 1-.12-.32.4.4 0 0 1 .13-.32.44.44 0 0 1 .33-.13.47.47 0 0 1 .34.13zM38.86 98.17H36.5a1.43 1.43 0 0 0 .32.9.9.9 0 0 0 .7.28 1.57 1.57 0 0 0 .48-.07 2.17 2.17 0 0 0 .47-.25l.28.4a2.12 2.12 0 0 1-1.3.45 1.5 1.5 0 0 1-1.2-.5 2.06 2.06 0 0 1-.42-1.38 2.73 2.73 0 0 1 .17-1 1.65 1.65 0 0 1 .53-.7 1.42 1.42 0 0 1 .82-.25 1.4 1.4 0 0 1 1.13.48 2.1 2.1 0 0 1 .4 1.34c0 .13 0 .2-.02.3zm-.62-.52a1.32 1.32 0 0 0-.22-.83.76.76 0 0 0-.65-.3c-.52 0-.8.4-.86 1.17h1.74zM12.7 104.52a1.63 1.63 0 0 1 .52.3l-.3.4a1.2 1.2 0 0 0-.4-.2 1.3 1.3 0 0 0-.4-.07.78.78 0 0 0-.7.36 1.82 1.82 0 0 0-.24 1.07 1.78 1.78 0 0 0 .24 1 .83.83 0 0 0 .7.33 1.25 1.25 0 0 0 .4-.06 2.4 2.4 0 0 0 .4-.22l.3.42a1.75 1.75 0 0 1-1.13.4 1.48 1.48 0 0 1-1.2-.5 2.1 2.1 0 0 1-.42-1.4 2.56 2.56 0 0 1 .2-1 1.57 1.57 0 0 1 .56-.67 1.42 1.42 0 0 1 .85-.25 1.74 1.74 0 0 1 .6.1zM16.62 104.72a1.16 1.16 0 0 1 .28.83v2.64h-.64v-2.56a.8.8 0 0 0-.15-.55.57.57 0 0 0-.43-.17.84.84 0 0 0-.5.16 1.83 1.83 0 0 0-.43.47v2.62h-.64V103l.64-.07V105a1.3 1.3 0 0 1 1.1-.6 1 1 0 0 1 .78.32zM21 106.57h-2.38a1.43 1.43 0 0 0 .3.9.87.87 0 0 0 .7.28 1.53 1.53 0 0 0 .48-.07 2.4 2.4 0 0 0 .47-.25l.28.4a2.08 2.08 0 0 1-1.3.45 1.5 1.5 0 0 1-1.2-.5 2.07 2.07 0 0 1-.42-1.4 2.54 2.54 0 0 1 .2-1 1.58 1.58 0 0 1 .52-.7 1.4 1.4 0 0 1 .8-.24 1.38 1.38 0 0 1 1.14.48 2.1 2.1 0 0 1 .38 1.34c.02.1.02.2.02.3zm-.62-.52a1.4 1.4 0 0 0-.22-.83.77.77 0 0 0-.65-.3c-.52 0-.8.4-.85 1.17h1.73zM24 104.46l-.12.63a1.87 1.87 0 0 0-.32 0 .7.7 0 0 0-.55.24 1.9 1.9 0 0 0-.32.8v2.1H22v-3.7h.56l.06.75a1.42 1.42 0 0 1 .4-.63.9.9 0 0 1 .6-.2 2 2 0 0 1 .38 0zM26.45 104.52a1.67 1.67 0 0 1 .53.3l-.3.4a1.32 1.32 0 0 0-.4-.2 1.35 1.35 0 0 0-.4-.07.8.8 0 0 0-.7.36 1.9 1.9 0 0 0-.25 1.07 1.7 1.7 0 0 0 .25 1 .8.8 0 0 0 .7.33 1.34 1.34 0 0 0 .4-.06 2.36 2.36 0 0 0 .4-.22l.3.42a1.8 1.8 0 0 1-1.13.4 1.47 1.47 0 0 1-1.18-.5 2 2 0 0 1-.43-1.4 2.56 2.56 0 0 1 .2-1 1.65 1.65 0 0 1 .55-.67 1.45 1.45 0 0 1 .85-.25 1.64 1.64 0 0 1 .6.1zM30.37 104.72a1.16 1.16 0 0 1 .3.83v2.64H30v-2.56a.8.8 0 0 0-.15-.55.54.54 0 0 0-.43-.17.85.85 0 0 0-.52.16 2.28 2.28 0 0 0-.42.47v2.62h-.64V103l.64-.07V105a1.32 1.32 0 0 1 1.1-.6 1 1 0 0 1 .8.32zM34.72 106.57h-2.35a1.43 1.43 0 0 0 .3.9.9.9 0 0 0 .7.28 1.57 1.57 0 0 0 .5-.07 2.72 2.72 0 0 0 .46-.25l.28.4a2.12 2.12 0 0 1-1.28.45 1.47 1.47 0 0 1-1.2-.5 2 2 0 0 1-.43-1.4 2.73 2.73 0 0 1 .17-1 1.65 1.65 0 0 1 .53-.7 1.44 1.44 0 0 1 .82-.24 1.38 1.38 0 0 1 1.13.48 2.1 2.1 0 0 1 .4 1.34c0 .1-.02.2-.03.3zm-.62-.52a1.32 1.32 0 0 0-.22-.83.76.76 0 0 0-.65-.3c-.52 0-.8.4-.86 1.17h1.73zM39.3 104.53a2 2 0 0 1 .58.3l-.28.42a1.8 1.8 0 0 0-.48-.24 1.5 1.5 0 0 0-.48-.07.86.86 0 0 0-.5.13.43.43 0 0 0-.17.36.4.4 0 0 0 .17.35 2.08 2.08 0 0 0 .62.24 2.2 2.2 0 0 1 .92.43.93.93 0 0 1 .3.73.94.94 0 0 1-.42.83 1.8 1.8 0 0 1-1 .28 2.07 2.07 0 0 1-1.4-.48l.35-.4a1.64 1.64 0 0 0 1 .36 1 1 0 0 0 .6-.15.48.48 0 0 0 .2-.4.5.5 0 0 0-.07-.3.6.6 0 0 0-.27-.2 3.2 3.2 0 0 0-.55-.2 1.77 1.77 0 0 1-.84-.4.86.86 0 0 1-.27-.66.82.82 0 0 1 .17-.52 1.1 1.1 0 0 1 .47-.37 1.65 1.65 0 0 1 .68-.13 2 2 0 0 1 .68.1zM43.66 106.57H41.3a1.43 1.43 0 0 0 .32.9.9.9 0 0 0 .7.28 1.57 1.57 0 0 0 .48-.07 2.72 2.72 0 0 0 .47-.25l.28.4a2.12 2.12 0 0 1-1.3.45 1.47 1.47 0 0 1-1.2-.5 2 2 0 0 1-.42-1.4 2.73 2.73 0 0 1 .18-1 1.58 1.58 0 0 1 .54-.7 1.42 1.42 0 0 1 .82-.24 1.4 1.4 0 0 1 1.13.48 2.1 2.1 0 0 1 .38 1.34c0 .1 0 .2-.02.3zm-.62-.52a1.32 1.32 0 0 0-.22-.83.76.76 0 0 0-.65-.3c-.52 0-.8.4-.86 1.17H43zM47.45 108.2h-.55v-.58a1.36 1.36 0 0 1-.48.5 1.3 1.3 0 0 1-.67.16A1 1 0 0 1 45 108a1.13 1.13 0 0 1-.28-.83v-2.64h.65v2.57a.86.86 0 0 0 .13.54.55.55 0 0 0 .43.15 1.1 1.1 0 0 0 .93-.64v-2.63h.64zM49 108.07a.9.9 0 0 1-.2-.6V103l.64-.08v4.5a.44.44 0 0 0 0 .24.25.25 0 0 0 .18.07.6.6 0 0 0 .24 0l.17.45a1 1 0 0 1-.5.13.77.77 0 0 1-.53-.23zM13.3 116.07a.5.5 0 0 0 .24.16l-.14.45a1 1 0 0 1-.47-.16.77.77 0 0 1-.25-.4 1.25 1.25 0 0 1-1.1.56 1.15 1.15 0 0 1-.86-.3 1.18 1.18 0 0 1 .1-1.72 2 2 0 0 1 1.2-.3h.57v-.3a.72.72 0 0 0-.2-.55.86.86 0 0 0-.58-.15 3.2 3.2 0 0 0-1 .2l-.16-.48a3.86 3.86 0 0 1 1.27-.25 1.33 1.33 0 0 1 1 .32 1.2 1.2 0 0 1 .33.9v1.7a.64.64 0 0 0 .05.33zm-.7-.45v-.85h-.5c-.67 0-1 .26-1 .76a.68.68 0 0 0 .17.5.6.6 0 0 0 .47.17 1 1 0 0 0 .85-.58zM11.42 111l1.4.8-.2.34-1.5-.6zM19.4 113.07a1.7 1.7 0 0 1-.47.1 5.46 5.46 0 0 1-.62 0 1 1 0 0 1 .66.92 1.14 1.14 0 0 1-.38.9 1.46 1.46 0 0 1-1 .34 1.4 1.4 0 0 1-.46-.07.4.4 0 0 0-.14.15.45.45 0 0 0-.05.2c0 .2.16.3.5.3H18a1.53 1.53 0 0 1 .66.13 1.16 1.16 0 0 1 .45.36.94.94 0 0 1 .16.54.9.9 0 0 1-.44.82 2.26 2.26 0 0 1-1.28.3 3 3 0 0 1-1-.13.9.9 0 0 1-.5-.36 1.22 1.22 0 0 1-.14-.63h.58a.6.6 0 0 0 .1.35.45.45 0 0 0 .3.18 2 2 0 0 0 .6.07 1.88 1.88 0 0 0 .84-.14.47.47 0 0 0 .24-.42.42.42 0 0 0-.2-.4 1 1 0 0 0-.54-.13h-.58a1.06 1.06 0 0 1-.7-.2.62.62 0 0 1-.25-.5.64.64 0 0 1 .1-.35 1.07 1.07 0 0 1 .3-.3 1.14 1.14 0 0 1-.48-.42 1.1 1.1 0 0 1-.15-.6 1.2 1.2 0 0 1 .2-.67 1.25 1.25 0 0 1 .5-.44 1.6 1.6 0 0 1 .72-.17 4.05 4.05 0 0 0 .72 0 2.4 2.4 0 0 0 .5-.12 4.2 4.2 0 0 0 .46-.2zm-2.45.44a1 1 0 0 0 0 1.2.72.72 0 0 0 .58.24.7.7 0 0 0 .57-.22.84.84 0 0 0 .2-.62.8.8 0 0 0-1.35-.6zM22.48 116.07a.5.5 0 0 0 .23.16l-.13.45a1 1 0 0 1-.47-.16.77.77 0 0 1-.25-.4 1.25 1.25 0 0 1-1.1.56 1.15 1.15 0 0 1-.86-.3 1.18 1.18 0 0 1 .1-1.72 2 2 0 0 1 1.2-.3h.56v-.3a.72.72 0 0 0-.2-.55.86.86 0 0 0-.57-.15 3.2 3.2 0 0 0-1 .2l-.17-.48a3.86 3.86 0 0 1 1.27-.25 1.33 1.33 0 0 1 1 .32 1.2 1.2 0 0 1 .33.9v1.7a.64.64 0 0 0 .05.33zm-.72-.45v-.85h-.48c-.68 0-1 .26-1 .76a.68.68 0 0 0 .16.5.6.6 0 0 0 .47.17 1 1 0 0 0 .86-.58zM26.47 116.6h-.55l-.05-.58a1.36 1.36 0 0 1-.48.5 1.3 1.3 0 0 1-.68.16 1 1 0 0 1-.75-.3 1.13 1.13 0 0 1-.28-.83v-2.64h.64v2.58a.86.86 0 0 0 .13.54.55.55 0 0 0 .43.15 1.1 1.1 0 0 0 .93-.63v-2.63h.64zM29.75 112.92a1.63 1.63 0 0 1 .52.3l-.3.4a1.36 1.36 0 0 0-.4-.2 1.3 1.3 0 0 0-.4-.07.8.8 0 0 0-.7.36 1.82 1.82 0 0 0-.24 1.07 1.78 1.78 0 0 0 .24 1 .83.83 0 0 0 .7.33 1.25 1.25 0 0 0 .4-.06 2.4 2.4 0 0 0 .4-.22l.3.42a1.74 1.74 0 0 1-1.12.4 1.45 1.45 0 0 1-1.18-.5 2 2 0 0 1-.43-1.4 2.56 2.56 0 0 1 .2-1 1.57 1.57 0 0 1 .55-.67 1.43 1.43 0 0 1 .85-.25 1.64 1.64 0 0 1 .6.1zM33.67 113.12a1.16 1.16 0 0 1 .33.88v2.64h-.64V114a.8.8 0 0 0-.15-.55.57.57 0 0 0-.43-.16.84.84 0 0 0-.5.15 1.83 1.83 0 0 0-.43.48v2.62h-.64v-5.16l.64-.08v2.06a1.3 1.3 0 0 1 1.1-.6 1 1 0 0 1 .73.34zM38 115h-2.33a1.46 1.46 0 0 0 .3.9.87.87 0 0 0 .7.28 1.53 1.53 0 0 0 .48-.07 2 2 0 0 0 .47-.24l.28.4a2.08 2.08 0 0 1-1.3.45 1.5 1.5 0 0 1-1.2-.5 2.07 2.07 0 0 1-.42-1.38 2.73 2.73 0 0 1 .2-1 1.58 1.58 0 0 1 .52-.7 1.4 1.4 0 0 1 .82-.25 1.36 1.36 0 0 1 1.12.48 2.1 2.1 0 0 1 .4 1.34c-.04.05-.04.16-.04.3zm-.62-.52a1.32 1.32 0 0 0-.22-.83.76.76 0 0 0-.65-.3c-.52 0-.8.4-.85 1.17h1.75z"
     class="cls-3"
     id="path37" />
  <path
     d="M129.9 94l-.08.53H128v1.58h1.62v.54H128v1.65h2v.52h-2.66V94zM132.4 96.82l1.3 2h-.8l-.9-1.56-.9 1.56h-.73l1.28-1.94-1.14-1.74h.77l.77 1.35.78-1.36h.72zM137.12 95.53a2.55 2.55 0 0 1 .33 1.42 2.4 2.4 0 0 1-.38 1.4 1.24 1.24 0 0 1-1.07.53 1.2 1.2 0 0 1-1-.42v1.75l-.64.1v-5.2h.55l.06.5a1.54 1.54 0 0 1 .5-.43 1.27 1.27 0 0 1 .6-.15 1.14 1.14 0 0 1 1.06.5zm-.36 1.47c0-1-.28-1.42-.84-1.42a.87.87 0 0 0-.5.16 1.8 1.8 0 0 0-.4.42v1.8a1.1 1.1 0 0 0 .36.33.93.93 0 0 0 .47.1c.6-.05.9-.52.9-1.4zM140.52 95.06l-.12.63a2 2 0 0 0-.33 0 .7.7 0 0 0-.55.24 1.9 1.9 0 0 0-.33.8v2.1h-.65V95.1h.55l.06.75a1.42 1.42 0 0 1 .4-.62.9.9 0 0 1 .6-.2 2.2 2.2 0 0 1 .36.03zM143.8 97.17h-2.34a1.43 1.43 0 0 0 .3.9.88.88 0 0 0 .7.28 1.5 1.5 0 0 0 .48-.07 2 2 0 0 0 .47-.25l.3.4a2.07 2.07 0 0 1-1.3.45 1.52 1.52 0 0 1-1.2-.5 2.12 2.12 0 0 1-.43-1.4 2.73 2.73 0 0 1 .2-1 1.58 1.58 0 0 1 .52-.7 1.4 1.4 0 0 1 .8-.24 1.36 1.36 0 0 1 1.13.48 2 2 0 0 1 .4 1.34c0 .14 0 .2-.02.3zm-.6-.52a1.32 1.32 0 0 0-.23-.83.76.76 0 0 0-.65-.3c-.53 0-.8.4-.86 1.17h1.73zM146.54 95.13a2 2 0 0 1 .57.3l-.26.42a2.15 2.15 0 0 0-.48-.24 1.5 1.5 0 0 0-.48-.07.9.9 0 0 0-.5.13.45.45 0 0 0 0 .7 2.08 2.08 0 0 0 .62.25 2.13 2.13 0 0 1 .92.43.94.94 0 0 1 .3.73 1 1 0 0 1-.42.83 1.8 1.8 0 0 1-1 .28 2 2 0 0 1-1.4-.48l.35-.4a1.66 1.66 0 0 0 1 .36 1 1 0 0 0 .58-.15.5.5 0 0 0 .22-.4.5.5 0 0 0-.08-.3.6.6 0 0 0-.27-.2 3.93 3.93 0 0 0-.55-.2 1.87 1.87 0 0 1-.85-.4.85.85 0 0 1-.26-.66.8.8 0 0 1 .17-.52 1.1 1.1 0 0 1 .48-.37 1.7 1.7 0 0 1 .7-.13 2.06 2.06 0 0 1 .66.1zM149.73 95.13a2 2 0 0 1 .58.3l-.26.42a2.15 2.15 0 0 0-.48-.24 1.6 1.6 0 0 0-.48-.07.9.9 0 0 0-.5.13.43.43 0 0 0-.18.36.4.4 0 0 0 .17.35 2.08 2.08 0 0 0 .62.24 2.13 2.13 0 0 1 .9.43.93.93 0 0 1 .3.73.94.94 0 0 1-.4.83 1.8 1.8 0 0 1-1 .28 2.07 2.07 0 0 1-1.4-.48l.34-.4a1.64 1.64 0 0 0 1 .36 1 1 0 0 0 .58-.15.48.48 0 0 0 .2-.4.5.5 0 0 0-.06-.3.6.6 0 0 0-.27-.2 3.93 3.93 0 0 0-.56-.2 1.87 1.87 0 0 1-.85-.4.86.86 0 0 1-.28-.66.82.82 0 0 1 .18-.52 1.1 1.1 0 0 1 .47-.37 1.7 1.7 0 0 1 .7-.13 2 2 0 0 1 .66.1zM152 93.46a.44.44 0 0 1 .12.32.43.43 0 0 1-.12.3.48.48 0 0 1-.33.13.44.44 0 0 1-.32-.1.4.4 0 0 1-.13-.32.4.4 0 0 1 .13-.32.44.44 0 0 1 .32-.13.5.5 0 0 1 .33.13zm0 1.65v3.7h-.65v-3.7zM155.9 95.54a2.1 2.1 0 0 1 .42 1.4 2.3 2.3 0 0 1-.2 1 1.48 1.48 0 0 1-1.44.93 1.5 1.5 0 0 1-1.22-.52A2.16 2.16 0 0 1 153 97a2.46 2.46 0 0 1 .2-1 1.57 1.57 0 0 1 .56-.68 1.62 1.62 0 0 1 .9-.24 1.48 1.48 0 0 1 1.23.46zM153.7 97q0 1.4 1 1.4c.63 0 .95-.46.95-1.4s-.32-1.4-.95-1.4-1 .4-1 1.4zM159.9 95.32a1.16 1.16 0 0 1 .3.83v2.64h-.65v-2.56a.8.8 0 0 0-.15-.55.54.54 0 0 0-.43-.17.85.85 0 0 0-.52.16 1.9 1.9 0 0 0-.42.48v2.6h-.65v-3.67h.56l.05.55a1.53 1.53 0 0 1 .48-.46 1.28 1.28 0 0 1 .64-.18 1 1 0 0 1 .8.3zM127.42 107.07a.84.84 0 0 1-.2-.6V102l.64-.08v4.5a.44.44 0 0 0 0 .24.25.25 0 0 0 .18.07.6.6 0 0 0 .24 0l.17.45a1 1 0 0 1-.5.13.77.77 0 0 1-.53-.23zM129.94 101.86a.4.4 0 0 1 .13.32.4.4 0 0 1-.13.3.44.44 0 0 1-.32.13.48.48 0 0 1-.33-.1.43.43 0 0 1-.13-.32.44.44 0 0 1 .12-.32.5.5 0 0 1 .32-.13.44.44 0 0 1 .32.13zm0 1.65v3.7h-.64v-3.7zM133.14 107a1.5 1.5 0 0 1-.83.25 1 1 0 0 1-.72-.27 1.05 1.05 0 0 1-.26-.78V104h-.65v-.5h.65v-.83l.64-.07v.9h.88l-.07.5H132v2.2a.7.7 0 0 0 .1.42.43.43 0 0 0 .34.13 1 1 0 0 0 .5-.15zM135.66 107a1.44 1.44 0 0 1-.82.25 1 1 0 0 1-.73-.27 1.06 1.06 0 0 1-.26-.78V104h-.64v-.5h.64v-.83l.65-.07v.9h.86l-.07.5h-.8v2.2a.7.7 0 0 0 .1.42.43.43 0 0 0 .33.13 1 1 0 0 0 .5-.15zM139 105.57h-2.36a1.43 1.43 0 0 0 .3.9.9.9 0 0 0 .7.28 1.57 1.57 0 0 0 .5-.07 2.72 2.72 0 0 0 .46-.25l.28.4a2.1 2.1 0 0 1-1.3.45 1.5 1.5 0 0 1-1.2-.5 2 2 0 0 1-.42-1.4 2.73 2.73 0 0 1 .18-1 1.6 1.6 0 0 1 .54-.7 1.4 1.4 0 0 1 .8-.24 1.38 1.38 0 0 1 1.14.48 2.1 2.1 0 0 1 .4 1.34c-.02.1-.02.2-.02.3zm-.63-.52a1.4 1.4 0 0 0-.2-.83.8.8 0 0 0-.66-.3c-.52 0-.8.4-.86 1.17h1.73zm-.3-3.46l.28.53-1.48.6-.2-.34zM142 103.46l-.12.63a1.87 1.87 0 0 0-.32 0 .72.72 0 0 0-.56.24 1.9 1.9 0 0 0-.33.8v2.1H140v-3.7h.55l.07.75a1.4 1.4 0 0 1 .4-.63.9.9 0 0 1 .58-.2 2.2 2.2 0 0 1 .4 0zM145.06 106.67a.5.5 0 0 0 .23.16l-.16.45a1.13 1.13 0 0 1-.46-.16.8.8 0 0 1-.26-.4 1.24 1.24 0 0 1-1.1.56 1.16 1.16 0 0 1-.86-.3 1.2 1.2 0 0 1 .1-1.72 2 2 0 0 1 1.2-.3h.58v-.3a.72.72 0 0 0-.2-.55.87.87 0 0 0-.57-.15 3.32 3.32 0 0 0-1 .2l-.16-.48a4 4 0 0 1 1.3-.25 1.33 1.33 0 0 1 1 .32 1.2 1.2 0 0 1 .3.9v1.7a.63.63 0 0 0 .06.33zm-.72-.45v-.84h-.48c-.7 0-1 .25-1 .75a.73.73 0 0 0 .16.5.65.65 0 0 0 .48.17 1 1 0 0 0 .84-.58zM146.4 107.07a.84.84 0 0 1-.2-.6V102l.64-.08v4.5a.35.35 0 0 0 .06.24.2.2 0 0 0 .17.07.6.6 0 0 0 .24 0l.18.45a1 1 0 0 1-.5.13.73.73 0 0 1-.57-.23zM151 105.57h-2.35a1.43 1.43 0 0 0 .3.9.88.88 0 0 0 .7.28 1.5 1.5 0 0 0 .48-.07 2.4 2.4 0 0 0 .47-.25l.28.4a2.07 2.07 0 0 1-1.28.45 1.5 1.5 0 0 1-1.2-.5 2.07 2.07 0 0 1-.44-1.4 2.73 2.73 0 0 1 .2-1 1.58 1.58 0 0 1 .52-.7 1.4 1.4 0 0 1 .82-.24 1.36 1.36 0 0 1 1.12.48 2 2 0 0 1 .4 1.34c-.02.1-.02.2-.02.3zm-.62-.52a1.32 1.32 0 0 0-.22-.83.76.76 0 0 0-.65-.3c-.52 0-.8.4-.85 1.17h1.73zM129.05 110.4a2 2 0 0 1 .5.2l-.23.44a1.92 1.92 0 0 0-.78-.17.73.73 0 0 0-.5.13.53.53 0 0 0-.15.42v.5h2.1v3.67h-.65v-3.2h-1.4v3.2h-.66v-3.2h-.6v-.5h.6v-.48a1 1 0 0 1 .3-.78 1.35 1.35 0 0 1 1-.3 2.2 2.2 0 0 1 .45.07zM133.8 112.12a1.16 1.16 0 0 1 .28.83v2.64h-.64V113a.8.8 0 0 0-.15-.55.54.54 0 0 0-.44-.16.85.85 0 0 0-.52.15 1.9 1.9 0 0 0-.42.5v2.6h-.64v-3.68h.55l.06.54a1.5 1.5 0 0 1 .47-.45 1.28 1.28 0 0 1 .64-.17 1 1 0 0 1 .8.34zM137.94 115.07a.5.5 0 0 0 .23.16l-.15.45a1 1 0 0 1-.46-.16.78.78 0 0 1-.26-.4 1.23 1.23 0 0 1-1.1.56 1.16 1.16 0 0 1-.86-.3 1.2 1.2 0 0 1 .1-1.72 2 2 0 0 1 1.2-.3h.58v-.3a.72.72 0 0 0-.2-.55.87.87 0 0 0-.57-.15 3.32 3.32 0 0 0-1 .2l-.16-.48a4 4 0 0 1 1.27-.25 1.33 1.33 0 0 1 1 .32 1.2 1.2 0 0 1 .32.9v1.7a.63.63 0 0 0 .04.33zm-.72-.45v-.85h-.48c-.7 0-1 .26-1 .76a.73.73 0 0 0 .16.5.65.65 0 0 0 .48.17 1 1 0 0 0 .84-.58zM139.3 115.46a.8.8 0 0 1-.22-.6v-4.44l.64-.08v4.5a.35.35 0 0 0 .06.24.2.2 0 0 0 .17.07.6.6 0 0 0 .24-.05l.16.45a1 1 0 0 1-.5.13.7.7 0 0 1-.57-.22zM143.9 114h-2.35a1.46 1.46 0 0 0 .3.9.9.9 0 0 0 .7.28 1.57 1.57 0 0 0 .5-.07 2.12 2.12 0 0 0 .45-.24l.28.4a2.07 2.07 0 0 1-1.28.45 1.47 1.47 0 0 1-1.2-.5 2 2 0 0 1-.43-1.38 2.73 2.73 0 0 1 .18-1 1.58 1.58 0 0 1 .53-.7 1.42 1.42 0 0 1 .82-.25 1.36 1.36 0 0 1 1.12.48 2 2 0 0 1 .4 1.34c0 .05 0 .16-.02.3zm-.62-.52a1.32 1.32 0 0 0-.22-.83.76.76 0 0 0-.65-.3c-.5 0-.8.4-.85 1.17h1.73z"
     class="cls-1"
     id="path39" />
  <g
     id="_Groupe_6">
    <path
       d="M54.3 105.66h12.88v.5H54.3zM66.8 107.16l2.17-1.25-2.16-1.24v2.5z"
       class="cls-3"
       id="path41" />
  </g>
  <g
     id="_Groupe_7">
    <path
       d="M110.14 105.66h12.88v.5h-12.88zM110.5 104.66l-2.15 1.25 2.16 1.26v-2.5z"
       class="cls-1"
       id="path44" />
  </g>
  <path
     d="M72.7 135.65a2.24 2.24 0 0 1 .67 1.88 2.3 2.3 0 0 1-.66 1.88 2.4 2.4 0 0 1-1.6.56H70v-4.82h1a2.78 2.78 0 0 1 1.7.5zm-2.08 0v3.77h.54a1.5 1.5 0 0 0 1.1-.42 2.06 2.06 0 0 0 .4-1.5 2.53 2.53 0 0 0-.2-1.17 1.1 1.1 0 0 0-.56-.54 2.14 2.14 0 0 0-.8-.15zM76.92 139.43a.4.4 0 0 0 .23.17l-.15.45a1 1 0 0 1-.46-.17.7.7 0 0 1-.26-.4 1.24 1.24 0 0 1-1.1.57 1.2 1.2 0 0 1-.86-.3 1.1 1.1 0 0 1-.32-.82 1.07 1.07 0 0 1 .43-.9 2 2 0 0 1 1.2-.32h.57v-.26a.74.74 0 0 0-.2-.56.87.87 0 0 0-.57-.17 3.26 3.26 0 0 0-1 .2l-.16-.46a3.66 3.66 0 0 1 1.27-.25 1.32 1.32 0 0 1 1 .3 1.22 1.22 0 0 1 .32.9v1.7a.57.57 0 0 0 .06.33zm-.72-.43v-.85h-.5c-.67 0-1 .25-1 .76a.66.66 0 0 0 .17.5.6.6 0 0 0 .48.17 1 1 0 0 0 .85-.57zM80.7 136.5a1.2 1.2 0 0 1 .27.82V140h-.64v-2.55a.83.83 0 0 0-.15-.56.6.6 0 0 0-.44-.17.82.82 0 0 0-.5.17 1.68 1.68 0 0 0-.43.48V140h-.64v-3.7h.55l.07.56a1.35 1.35 0 0 1 .5-.46 1.25 1.25 0 0 1 .63-.17 1 1 0 0 1 .8.26zM83.94 136.3a2.07 2.07 0 0 1 .58.3l-.27.4a2.38 2.38 0 0 0-.5-.22 1.5 1.5 0 0 0-.46-.08.82.82 0 0 0-.5.13.4.4 0 0 0-.2.35.4.4 0 0 0 .18.35 1.8 1.8 0 0 0 .62.25 2.13 2.13 0 0 1 .92.42.93.93 0 0 1 .3.73.94.94 0 0 1-.42.83 1.8 1.8 0 0 1-1 .3 2.08 2.08 0 0 1-1.4-.5l.35-.4a1.64 1.64 0 0 0 1 .37 1 1 0 0 0 .58-.15.48.48 0 0 0 .2-.4.57.57 0 0 0-.06-.32.68.68 0 0 0-.27-.2 4.2 4.2 0 0 0-.55-.2 1.87 1.87 0 0 1-.85-.4.87.87 0 0 1-.27-.66.84.84 0 0 1 .18-.52 1.08 1.08 0 0 1 .48-.36 1.68 1.68 0 0 1 .68-.13 2 2 0 0 1 .68.1zM87.56 139.83a.8.8 0 0 1-.2-.6v-4.44l.64-.1v4.52a.33.33 0 0 0 0 .22c0 .05.1.07.18.07a.6.6 0 0 0 .24 0l.16.46a1.07 1.07 0 0 1-.5.13.75.75 0 0 1-.52-.27zM92.18 138.34h-2.36a1.5 1.5 0 0 0 .3.9.9.9 0 0 0 .7.28 1.3 1.3 0 0 0 .5-.08 2.1 2.1 0 0 0 .46-.24l.28.38a2 2 0 0 1-1.3.47 1.5 1.5 0 0 1-1.2-.5 2 2 0 0 1-.42-1.4 2.66 2.66 0 0 1 .18-1 1.67 1.67 0 0 1 .54-.7 1.32 1.32 0 0 1 .8-.24 1.38 1.38 0 0 1 1.14.5 2.08 2.08 0 0 1 .4 1.33c0 .1 0 .2-.02.3zm-.63-.52a1.4 1.4 0 0 0-.2-.83.76.76 0 0 0-.66-.3c-.54 0-.83.4-.88 1.16h1.73zM94.9 136.3a2 2 0 0 1 .57.3l-.27.4a2.6 2.6 0 0 0-.48-.22 1.5 1.5 0 0 0-.48-.08.8.8 0 0 0-.5.13.4.4 0 0 0-.18.35.4.4 0 0 0 .17.35 2 2 0 0 0 .62.25 2.08 2.08 0 0 1 .92.42.9.9 0 0 1 .3.73.94.94 0 0 1-.4.83 1.84 1.84 0 0 1-1 .3 2 2 0 0 1-1.4-.5l.34-.4a1.68 1.68 0 0 0 1 .37 1 1 0 0 0 .6-.15.48.48 0 0 0 .2-.4.57.57 0 0 0-.08-.32.7.7 0 0 0-.26-.2 3.93 3.93 0 0 0-.56-.2 1.92 1.92 0 0 1-.85-.4.93.93 0 0 1-.1-1.18 1.17 1.17 0 0 1 .5-.36 1.65 1.65 0 0 1 .67-.13 2.07 2.07 0 0 1 .68.1zM101.2 134.8v5.2h-.57l-.06-.5a1.3 1.3 0 0 1-.46.43 1.25 1.25 0 0 1-1.62-.36 2.42 2.42 0 0 1-.37-1.4 2.62 2.62 0 0 1 .2-1 1.44 1.44 0 0 1 .5-.7 1.23 1.23 0 0 1 .76-.24 1.35 1.35 0 0 1 1 .45v-1.93zm-1 4.6a1.6 1.6 0 0 0 .4-.4v-1.82a1.44 1.44 0 0 0-.38-.36.94.94 0 0 0-.47-.12.75.75 0 0 0-.66.36 1.9 1.9 0 0 0-.24 1.06 2.08 2.08 0 0 0 .2 1.06.7.7 0 0 0 .64.36.92.92 0 0 0 .45-.14zM105.12 136.7a2.1 2.1 0 0 1 .43 1.4 2.43 2.43 0 0 1-.2 1 1.48 1.48 0 0 1-.56.7 1.6 1.6 0 0 1-.9.24 1.5 1.5 0 0 1-1.2-.52 2.14 2.14 0 0 1-.44-1.4 2.46 2.46 0 0 1 .2-1 1.53 1.53 0 0 1 .57-.7 1.58 1.58 0 0 1 .9-.23 1.46 1.46 0 0 1 1.2.5zm-2.12 1.42c0 .94.3 1.4 1 1.4s1-.46 1-1.4-.3-1.4-.94-1.4-1.06.46-1.06 1.4zM109.14 136.5a1.16 1.16 0 0 1 .28.82V140h-.64v-2.55a.83.83 0 0 0-.15-.56.57.57 0 0 0-.43-.17.85.85 0 0 0-.52.17 1.68 1.68 0 0 0-.42.48V140h-.64v-3.7h.55l.06.56a1.4 1.4 0 0 1 .48-.46 1.3 1.3 0 0 1 .65-.17 1 1 0 0 1 .8.26zM113.24 136.5a1.16 1.16 0 0 1 .3.82V140h-.66v-2.55a.83.83 0 0 0-.15-.56.57.57 0 0 0-.43-.17.85.85 0 0 0-.52.17 1.68 1.68 0 0 0-.42.48V140h-.64v-3.7h.55l.06.56a1.4 1.4 0 0 1 .48-.46 1.3 1.3 0 0 1 .66-.17 1 1 0 0 1 .78.26zM117.6 138.34h-2.36a1.43 1.43 0 0 0 .3.9.9.9 0 0 0 .7.28 1.26 1.26 0 0 0 .48-.08 1.9 1.9 0 0 0 .47-.24l.27.38a2 2 0 0 1-1.28.47 1.5 1.5 0 0 1-1.22-.5 2.1 2.1 0 0 1-.42-1.4 2.66 2.66 0 0 1 .18-1 1.58 1.58 0 0 1 .53-.7 1.33 1.33 0 0 1 .82-.24 1.36 1.36 0 0 1 1.1.5 2 2 0 0 1 .4 1.33c0 .1 0 .2 0 .3zm-.63-.52a1.32 1.32 0 0 0-.22-.83.74.74 0 0 0-.65-.3c-.53 0-.8.4-.86 1.16H117zm-.3-3.47l.28.54-1.5.6-.18-.35zM121.4 138.34h-2.34a1.43 1.43 0 0 0 .3.9.9.9 0 0 0 .7.28 1.3 1.3 0 0 0 .48-.08 1.9 1.9 0 0 0 .47-.24l.3.38a2 2 0 0 1-1.3.47 1.5 1.5 0 0 1-1.2-.5 2 2 0 0 1-.43-1.4 2.48 2.48 0 0 1 .2-1 1.58 1.58 0 0 1 .52-.7 1.32 1.32 0 0 1 .8-.24 1.38 1.38 0 0 1 1.13.5 2.08 2.08 0 0 1 .4 1.33c0 .1 0 .2-.02.3zm-.6-.52a1.4 1.4 0 0 0-.23-.83.75.75 0 0 0-.65-.3c-.53 0-.82.4-.86 1.16h1.73zM124.13 136.3a2.22 2.22 0 0 1 .58.3l-.27.4a2.6 2.6 0 0 0-.48-.22 1.5 1.5 0 0 0-.48-.08.8.8 0 0 0-.5.13.42.42 0 0 0 0 .7 1.8 1.8 0 0 0 .63.25 2.2 2.2 0 0 1 .92.42.93.93 0 0 1 .3.73.94.94 0 0 1-.42.83 1.84 1.84 0 0 1-1 .3 2 2 0 0 1-1.4-.5l.35-.4a1.68 1.68 0 0 0 1 .37 1 1 0 0 0 .58-.15.48.48 0 0 0 .2-.4.5.5 0 0 0-.07-.32.7.7 0 0 0-.26-.2 4.2 4.2 0 0 0-.55-.2 1.82 1.82 0 0 1-.85-.4.87.87 0 0 1-.27-.66.9.9 0 0 1 .17-.52 1.17 1.17 0 0 1 .48-.36 1.65 1.65 0 0 1 .68-.13 2.07 2.07 0 0 1 .67.1z"
     class="cls-3"
     id="path47" />
  <g
     id="_Groupe_8">
    <path
       d="M97.3 119.6h.5v12.88h-.5zM98.8 119.96l-1.25-2.16-1.25 2.16h2.5z"
       class="cls-3"
       id="path49" />
  </g>
  <path
     d="M52.88 180.9l-.36-1.2H50.7l-.37 1.2h-.68l1.55-4.82h.8l1.54 4.83zm-2-1.74h1.5l-.74-2.53zM54.83 180.16a.42.42 0 0 1 .14.34.47.47 0 0 1-.14.35.48.48 0 0 1-.35.14.48.48 0 0 1-.34-.15.52.52 0 0 1-.14-.35.46.46 0 0 1 .14-.34.44.44 0 0 1 .34-.14.45.45 0 0 1 .35.14zM59.4 180.9h-.88l-2-4.1c0 .33 0 .63.07.9s0 .6 0 1v2.22H56v-4.83h.87l2 4.1q0-.2-.06-.64c0-.3 0-.58 0-.84v-2.63h.63zM63.15 177.58a.48.48 0 0 1 .14.34.5.5 0 0 1-.15.35.45.45 0 0 1-.35.14.44.44 0 0 1-.34-.13.46.46 0 0 1-.14-.35.44.44 0 0 1 .14-.34.48.48 0 0 1 .34-.14.48.48 0 0 1 .35.14zm0 2.58a.46.46 0 0 1 .14.34.52.52 0 0 1-.15.35.48.48 0 0 1-.35.14.48.48 0 0 1-.48-.5.42.42 0 0 1 .14-.34.44.44 0 0 1 .34-.14.45.45 0 0 1 .35.14z"
     class="cls-1"
     id="path52" />
  <path
     d="M116 180.36a.5.5 0 0 1 .14.35.62.62 0 0 1 0 .24c0 .08-.06.2-.1.35l-.45 1.12h-.46l.3-1.28a.48.48 0 0 1-.24-.42.52.52 0 0 1 .14-.36.47.47 0 0 1 .36-.14.42.42 0 0 1 .3.14zM75.66 180.86a1 1 0 0 1 0-.24 1.7 1.7 0 0 1 0-.34c0-.14 0-.32.1-.56s.08-.55.14-.94h-.56a.2.2 0 0 1-.2-.1.28.28 0 0 1 0-.2.4.4 0 0 1 .1-.2.2.2 0 0 1 .16-.08h.6c0-.22.08-.43.12-.62s.07-.36.1-.5.07-.32.1-.5a.3.3 0 0 1 .13-.2.34.34 0 0 1 .18-.06.25.25 0 0 1 .18.08.33.33 0 0 1 .08.24c-.07.3-.13.6-.18.84s-.1.5-.14.72h.7a.24.24 0 0 1 .18.12.4.4 0 0 1 0 .2.36.36 0 0 1-.12.2.26.26 0 0 1-.23.06h-.68a2.33 2.33 0 0 0-.06.35c0 .1 0 .2-.05.3 0 .32-.07.56-.1.73a3.58 3.58 0 0 0 0 .36c0 .07 0 .1 0 .12h.08a.36.36 0 0 0 .17-.08.77.77 0 0 0 .2-.16.15.15 0 0 1 .15 0 .33.33 0 0 1 .14.12.28.28 0 0 1 .05.2.26.26 0 0 1-.13.2 1.18 1.18 0 0 1-.37.24 1 1 0 0 1-.4.1.58.58 0 0 1-.3-.1.4.4 0 0 1-.14-.3zM90.7 179.58a1.27 1.27 0 0 1 .52.5 1.4 1.4 0 0 1 .17.66 1.23 1.23 0 0 1-.27.83 1.4 1.4 0 0 1-.75.43 1.27 1.27 0 0 1 .84.38 1.3 1.3 0 0 1 .33.94 1.6 1.6 0 0 1-.2.82 1.5 1.5 0 0 1-.6.6 1.83 1.83 0 0 1-.88.2 1.8 1.8 0 0 1-.82-.18 1.92 1.92 0 0 1-.67-.55l.43-.35a1.68 1.68 0 0 0 .5.4 1.12 1.12 0 0 0 .55.12.9.9 0 0 0 .7-.3 1.13 1.13 0 0 0 .26-.77 1 1 0 0 0-.25-.76 1.06 1.06 0 0 0-.75-.24h-.33l.08-.53h.23a1 1 0 0 0 .66-.25 1 1 0 0 0 .26-.7.9.9 0 0 0-.22-.64.82.82 0 0 0-.6-.22 1.26 1.26 0 0 0-.52.1 1.83 1.83 0 0 0-.48.36l-.37-.38a1.92 1.92 0 0 1 1.5-.64 1.55 1.55 0 0 1 .7.18zM95.56 182.94v.58H95v1.32h-.68v-1.32h-2.1V183l1.43-3.6.6.22-1.3 3.32h1.37l.08-1.45h.6v1.44zM99.1 180.1a5.48 5.48 0 0 1 0 4.15 1.44 1.44 0 0 1-2.47 0 4.12 4.12 0 0 1-.42-2.08c0-1.85.56-2.77 1.66-2.77a1.35 1.35 0 0 1 1.23.7zm-1.92.37a6.68 6.68 0 0 0 0 3.4.7.7 0 0 0 .68.5.72.72 0 0 0 .68-.5 4.77 4.77 0 0 0 .22-1.7 4.64 4.64 0 0 0-.22-1.7.7.7 0 0 0-1.36 0zM91.13 171.62V177h-.72v-4.6l-1.1.75-.33-.48 1.52-1zM95 172.18h-1.9v1.6a1.5 1.5 0 0 1 .8-.22 1.25 1.25 0 0 1 1 .44 1.9 1.9 0 0 1 .36 1.24 2.12 2.12 0 0 1-.2 1 1.6 1.6 0 0 1-.6.64 1.68 1.68 0 0 1-.9.24 1.7 1.7 0 0 1-.8-.18 2.14 2.14 0 0 1-.66-.52l.42-.38a1.74 1.74 0 0 0 .47.37 1.23 1.23 0 0 0 .54.13.88.88 0 0 0 .72-.32 1.5 1.5 0 0 0 .26-.92c0-.77-.3-1.15-.86-1.15a1.36 1.36 0 0 0-.36 0 2.74 2.74 0 0 0-.36.17h-.52v-2.7h2.66zM99.24 175.08v.57h-.6V177H98v-1.32h-2.1v-.52l1.43-3.6.6.23-1.3 3.3H98l.08-1.45h.6v1.46zM114 176.38a5.36 5.36 0 0 1 0 4.16 1.33 1.33 0 0 1-1.22.7 1.35 1.35 0 0 1-1.23-.7 4.12 4.12 0 0 1-.42-2.08c0-1.85.55-2.77 1.65-2.77a1.33 1.33 0 0 1 1.22.68zm-1.9.38a6.68 6.68 0 0 0 0 3.4.7.7 0 0 0 .68.5.72.72 0 0 0 .68-.5 4.8 4.8 0 0 0 .22-1.7 4.87 4.87 0 0 0-.22-1.7.7.7 0 0 0-1.36 0zM120.18 179.23v.58h-.6v1.33h-.7v-1.32h-2.1v-.5l1.44-3.62.6.23-1.3 3.33h1.38l.07-1.45h.6v1.45zM123.47 176.34h-1.87v1.6a1.5 1.5 0 0 1 .78-.23 1.23 1.23 0 0 1 1 .46 1.82 1.82 0 0 1 .38 1.24 2.08 2.08 0 0 1-.2.95 1.5 1.5 0 0 1-.6.65 1.7 1.7 0 0 1-.9.23 1.86 1.86 0 0 1-.8-.17 2.4 2.4 0 0 1-.67-.52l.42-.4a1.56 1.56 0 0 0 .47.38 1.1 1.1 0 0 0 .54.13.86.86 0 0 0 .72-.33 1.45 1.45 0 0 0 .26-.93q0-1.15-.87-1.15a1.34 1.34 0 0 0-.35.05 1.82 1.82 0 0 0-.36.16h-.52v-2.68h2.66zM126.5 175.87a1.27 1.27 0 0 1 .5.5 1.3 1.3 0 0 1 .17.66 1.23 1.23 0 0 1-.26.83 1.4 1.4 0 0 1-.74.43 1.32 1.32 0 0 1 .85.37 1.34 1.34 0 0 1 .33.94 1.6 1.6 0 0 1-.2.83 1.5 1.5 0 0 1-.6.6 2 2 0 0 1-1.7 0 1.92 1.92 0 0 1-.67-.56l.43-.36a1.82 1.82 0 0 0 .48.4 1.24 1.24 0 0 0 .55.13.9.9 0 0 0 .7-.3 1.13 1.13 0 0 0 .26-.77 1 1 0 0 0-.27-.76 1.06 1.06 0 0 0-.75-.24h-.33l.08-.53h.23a.88.88 0 0 0 .92-1 .9.9 0 0 0-.22-.63.82.82 0 0 0-.6-.22 1.26 1.26 0 0 0-.52.1 1.62 1.62 0 0 0-.48.36l-.37-.38a1.92 1.92 0 0 1 1.43-.64 1.53 1.53 0 0 1 .76.25zM69.88 181.13c-.27 0-.38-.07-.38-.2a.9.9 0 0 1 .1-.34l2.22-5.3.4-.1 2.55 5.93zm1.9-4.63l-1.6 3.83h3.27zM80 177.8v-.37h4.75v.36zm0 1.54V179h4.75v.36zM103.52 177.8v-.37h4.75v.36zm0 1.54V179h4.75v.36zM87.1 178.16h14v.4h-14z"
     class="cls-2"
     id="path54" />
  <path
     d="M127.92 184.17h-11.66v-2.5h.5v2h10.66v-2h.5v2.5z"
     class="cls-4"
     id="path56" />
  <metadata
     id="metadata190">
    <rdf:RDF>
      <cc:Work
         rdf:about="">
        <dc:title>PC2.FMCOMP.INF23</dc:title>
      </cc:Work>
    </rdf:RDF>
  </metadata>
</svg>
