<?xml version="1.0" encoding="UTF-8" standalone="no"?>
<svg
   viewBox="0 0 437.4 96.8"
   version="1.1"
   id="svg14"
   sodipodi:docname="p3.svg"
   inkscape:export-filename="p3.png"
   inkscape:export-xdpi="298.43"
   inkscape:export-ydpi="298.43"
   inkscape:version="1.2 (1:1.2.1+202207142221+cd75a1ee6d)"
   xmlns:inkscape="http://www.inkscape.org/namespaces/inkscape"
   xmlns:sodipodi="http://sodipodi.sourceforge.net/DTD/sodipodi-0.dtd"
   xmlns="http://www.w3.org/2000/svg"
   xmlns:svg="http://www.w3.org/2000/svg">
  <defs
     id="defs18" />
  <sodipodi:namedview
     id="namedview16"
     pagecolor="#ffffff"
     bordercolor="#666666"
     borderopacity="1.0"
     inkscape:showpageshadow="2"
     inkscape:pageopacity="1"
     inkscape:pagecheckerboard="0"
     inkscape:deskcolor="#d1d1d1"
     showgrid="false"
     inkscape:zoom="3.5665295"
     inkscape:cx="218.84019"
     inkscape:cy="48.64673"
     inkscape:window-width="1920"
     inkscape:window-height="1009"
     inkscape:window-x="0"
     inkscape:window-y="34"
     inkscape:window-maximized="1"
     inkscape:current-layer="svg14" />
  <style
     id="style2">.st0{fill:#3a3a39}</style>
  <path
     d="M94.8 58.3c.1-.4.2-.7.3-1.1s.4-.6.6-.9c.2-.3.5-.5.7-.6s.5-.2.8-.2.5.1.7.2.4.3.5.6c.1.3.2.6.3.9s0 .7 0 1.1c-.1.4-.2.7-.3 1.1-.2.3-.3.6-.6.9-.2.2-.5.4-.7.6s-.6.1-.9.1-.5-.1-.7-.2-.4-.3-.5-.6c-.1-.2-.2-.5-.3-.9 0-.3 0-.6.1-1zm.6.1c0 .3-.1.5 0 .8 0 .2.1.4.2.6.1.2.2.3.3.4.1.1.3.2.5.2s.3-.1.5-.2.3-.2.5-.4c.1-.2.3-.4.4-.6.1-.2.2-.5.2-.8s.1-.5 0-.8c0-.3-.1-.5-.2-.7-.1-.2-.2-.4-.3-.5-.1-.1-.3-.2-.5-.2s-.4.1-.5.2c-.2.1-.3.3-.5.5-.1.2-.3.4-.4.7-.1.2-.1.5-.2.8zm6.3.5c-.1-.1-.2-.2-.3-.2s-.2-.1-.3-.1-.2 0-.4.1-.2.1-.3.2c-.1.1-.2.2-.2.3s-.1.2-.1.4l-.2 1.2c0 .1-.1.2-.1.2-.2 0-.3 0-.4 0-.1 0-.2 0-.2-.1s-.1-.1-.1-.3l.5-2.6c0-.1.1-.2.1-.2.1 0 .2-.1.2-.1s.2 0 .2.1c.1 0 .1.1.1.2v.1c.1-.1.3-.2.5-.2s.3-.1.5-.1.5.1.6.2.3.2.4.4c0 .1 0 .1 0 .2s-.1.1-.1.2-.1.2-.2.2-.2-.1-.2-.1zm7.5.9c.1-.3.1-.5.1-.7s0-.3-.1-.4c0-.1-.1-.2-.2-.2s-.1-.1-.2-.1c-.2 0-.4.1-.6.2s-.3.3-.4.5c0 .2 0 .5-.1.7 0 .3-.1.5-.1.8 0 .1-.1.2-.1.2-.1 0-.2.1-.2.1s-.2 0-.2-.1c-.1 0-.1-.1-.1-.2.1-.5.2-.9.2-1.2s0-.5 0-.7-.1-.3-.2-.3-.1-.1-.2-.1-.2 0-.4.1-.2.1-.3.2c-.1.1-.2.2-.2.3s-.1.2-.1.4l-.2 1.2c0 .1-.1.2-.1.2-.1.1-.2.1-.2.1-.1 0-.2 0-.2-.1s-.1-.1-.1-.3l.5-2.6c0-.1.1-.2.1-.2.1 0 .2-.1.2-.1s.2 0 .2.1c.1 0 .1.1.1.2v.1c.1-.1.3-.2.5-.2s.3-.1.5-.1.4 0 .6.1c.1.1.2.2.3.4.1-.1.2-.2.3-.3.1-.1.2-.1.3-.2s.2-.1.3-.1c.1 0 .2 0 .3 0 .4 0 .7.2.8.5s.1.9 0 1.6c0 .1 0 .2 0 .3s0 .1 0 .1.1 0 .1 0 .1 0 .1 0 .1 0 .2-.1.1-.1.2-.2c.1 0 .1 0 .2 0s.1.1.2.1c0 .1.1.1.1.2s0 .2-.1.2c-.1.1-.2.2-.4.3s-.2.1-.4.1c0 0-.1 0-.2 0s-.2-.1-.3-.1-.2-.2-.2-.4-.4 0-.3-.3zm3.6 1.9c0 .1 0 .1 0 .1s-.1.1-.1.1-.1 0-.1 0-.1 0-.1-.1-.1-.1-.2-.2-.1-.1-.2-.1c0 0-.1 0-.1 0-.1 0-.1 0-.1 0s-.1 0-.1.1c0 0-.1.1-.1.1 0 .1 0 .1 0 .1s0 .1.1.1c0 0 .1 0 .1.1.1 0 .1 0 .2 0s.2 0 .3.1.2.1.2.1c.1.1.1.1.1.2s0 .2 0 .3c0 .1-.1.2-.1.3-.1.1-.2.1-.2.2-.1 0-.2.1-.3.1-.1 0-.2 0-.3 0-.1 0-.2 0-.3-.1-.1 0-.2-.1-.2-.1-.1 0-.1-.1-.2-.2 0-.1-.1-.2-.1-.3 0-.1 0-.1.1-.2s.1-.1.1-.1c.1 0 .1 0 .1 0s.1 0 .1.1 0 .1 0 .2c0 0 .1.1.1.1s.1 0 .1.1.1 0 .2 0 .2 0 .3 0c.1 0 .1-.1.2-.1 0-.1 0-.2-.1-.2s-.2-.1-.3-.1c-.1 0-.2 0-.3-.1-.1 0-.2-.1-.3-.1-.1 0-.1-.1-.2-.2 0-.1 0-.2 0-.3 0-.1.1-.2.1-.3.1-.1.1-.1.2-.2s.2-.1.3-.1c.1 0 .2 0 .3 0 .1 0 .3.1.4.1.2.2.3.3.4.5zm.2.6c0-.1.1-.3.1-.4.1-.1.1-.2.2-.3.1-.1.2-.2.3-.2s.2-.1.4-.1.3 0 .4.1c.1.1.2.2.2.3 0 .1.1.3 0 .4 0 .2-.1.3-.1.4-.1.1-.1.2-.2.3-.1.1-.2.2-.3.2-.1.1-.2.1-.4.1s-.2 0-.4-.1-.3-.2-.4-.4.1-.1.2-.3zm.4 0c0 .1 0 .2 0 .4 0 .1.1.2.2.2s.2 0 .2 0c.1 0 .2-.1.2-.1.1-.1.1-.1.2-.2 0-.1.1-.2.1-.2 0-.1 0-.2 0-.2 0-.1 0-.1 0-.2s-.1-.1-.1-.1-.1-.1-.2-.1-.1 0-.2 0-.1.1-.2.1c-.1.1-.1.1-.1.2-.1 0-.1.1-.1.2zm3.1.7c-.2.1-.3.2-.4.3s-.2.1-.3.1c-.2 0-.3 0-.4-.1s-.2-.2-.2-.4 0-.4 0-.6c0-.2.1-.5.1-.8 0-.1 0-.1.1-.2s.1 0 .2 0 .1 0 .1 0 .1.1 0 .1c-.1.3-.1.6-.2.8s0 .3 0 .4.1.2.1.2.1 0 .1 0c.1 0 .2 0 .2 0 .1 0 .1-.1.2-.1s.1-.1.2-.2c0-.1.1-.1.1-.2l.3-.9c0-.1 0-.1.1-.1 0 0 .1 0 .2 0s.1 0 .1.1c0 0 0 .1 0 .1s0 .1 0 .1 0 .2-.1.3c0 .1 0 .2-.1.4 0 .1 0 .2 0 .4 0 .1 0 .2 0 .3s0 .1.1.1c0 0 .1 0 .1-.1 0 0 .1-.1.1-.1s.1 0 .1 0 .1 0 .1.1c0 0 0 .1 0 .1 0 .1 0 .1-.1.1-.1.1-.2.1-.2.2s-.2.1-.3.1c-.1 0-.1 0-.2-.1s0-.3-.1-.4zm2.7 0c-.1.1-.3.2-.4.2-.1 0-.3.1-.4.1s-.2 0-.4-.1-.2-.1-.3-.2c-.1-.1-.1-.2-.1-.3 0-.1 0-.2.1-.4s.2-.3.3-.5c.1-.1.3-.3.4-.3s.3-.2.5-.2c.2-.1.3-.1.5-.1 0-.1 0-.2.1-.4 0-.1.1-.3.1-.4 0-.1.1-.3.1-.4s0-.1 0-.2 0-.1.1-.1.1 0 .1 0 .1 0 .1.1c0 0 .1.1.1.2-.1.5-.2.9-.2 1.2-.1.3-.1.6-.1.8 0 .2-.1.4-.1.5 0 .1 0 .2 0 .3 0 .1 0 .1 0 .1s0 0 .1 0 .1-.1.2-.2c0 0 .1 0 .1 0s.1 0 .1.1c0 0 0 .1 0 .1 0 .1 0 .1-.1.1-.1.1-.2.1-.2.2-.1 0-.2.1-.3.1-.1 0-.1 0-.2-.1s-.1-.1-.2-.2zm-1.1-.5c0 .2 0 .3 0 .4.1.1.2.1.3.1.2 0 .3-.1.4-.2.1-.1.2-.2.3-.4l.1-.7c-.1 0-.3 0-.4.1s-.3.1-.4.2c-.1.1-.2.2-.3.3.1 0 0 .1 0 .2zm3.9.2s.1-.1.1-.1.1 0 .2 0 .1.1.1.1 0 .1 0 .1c-.1.1-.2.2-.4.3-.1.1-.3.1-.4.1-.1 0-.3 0-.4-.1-.1 0-.3-.1-.4-.2-.1-.1-.2-.2-.3-.3-.1-.1-.1-.3-.1-.5 0-.1 0-.3.1-.4s.1-.2.2-.3c.1-.1.2-.2.3-.2.1-.1.3-.1.4-.1.1 0 .3 0 .4.1.1 0 .2.1.2.2.1.1.1.2.1.3 0 .1 0 .2-.1.3-.1.1-.2.2-.3.4-.2.1-.4.2-.6.4 0 0 .1.1.2.1s.2 0 .2 0c.1 0 .2 0 .3-.1 0 0 .1 0 .2-.1zm-.6-1.1c-.1 0-.2.1-.3.1s-.1.1-.2.2c0 .1-.1.2-.1.2 0 .1 0 .2 0 .2.2-.1.4-.1.5-.2s.2-.1.3-.2c.1-.1.1-.1.1-.2s0-.1 0-.1c0-.1-.1-.1-.1-.1-.1.1-.2.1-.2.1zm5.9-2.5c.1 0 .2.1.2.1 0 .1 0 .2 0 .2 0 .1-.1.2-.1.2-.1.1-.1.1-.2.1h-2.1c-.1 0-.2 0-.2-.1s0-.1 0-.2.1-.2.1-.2.1-.1.2-.1h2.1zm.2-1.1c.1 0 .2.1.2.1 0 .1 0 .2 0 .2 0 .1-.1.1-.1.2-.1.1-.1.1-.2.1h-2.1c-.1 0-.2 0-.2-.1s0-.1 0-.2.1-.2.1-.2c.1-.1.1-.1.2-.1h2.1zm4.2-1l-.7 3.8c0 .1-.1.2-.1.2-.1 0-.2.1-.2.1s-.1 0-.2-.1c-.1 0-.1-.1-.1-.2l.8-5c0-.1 0-.1.1-.2s.1-.1.2-.1.1 0 .2 0 .1.1.2.1l1.3 2.1 2.1-2.2c.1-.1.1-.1.2-.1s.2 0 .2 0c.1 0 .1 0 .2.1 0 0 .1.1.1.2l-.8 4.9c0 .1-.1.2-.1.2-.1 0-.2.1-.2.1s-.2 0-.2-.1c-.1 0-.1-.1-.1-.2l.7-4-1.7 1.9c0 .1-.1.1-.2.1s-.1 0-.2 0-.1 0-.2-.1-.1-.1-.1-.1l-1.2-1.4zm6.6 4c.1 0 .2.1.2.1 0 .1 0 .2 0 .2s-.1.2-.1.2-.2.1-.2.1c-.3-.1-.6-.2-.8-.4s-.4-.4-.5-.7c-.1-.3-.2-.6-.2-1s0-.8.1-1.3c.1-.4.2-.7.4-1.1s.3-.7.6-1 .5-.6.8-.8c.3-.2.6-.4 1-.5.1 0 .2 0 .2.1s.1.1.1.2 0 .2-.1.3-.1.1-.3.2c-.3.1-.6.2-.8.4s-.4.4-.6.7c-.2.2-.3.5-.4.8s-.2.6-.2.8c-.1.4-.1.7-.1 1s.1.6.1.8.2.4.3.6.3.3.5.3zm2.6-4l-.6 3.7c0 .1-.1.2-.1.2-.1 0-.2.1-.2.1s-.1 0-.2-.1c-.1 0-.1-.1-.1-.2l.8-5c0-.1.1-.2.1-.2.1 0 .1-.1.2-.1s.2 0 .2 0c.1 0 .1.1.1.1l1.6 3.8.6-3.7c0-.1.1-.2.2-.2s.2-.1.2-.1.2 0 .2.1.1.1.1.2l-.9 4.9c0 .1 0 .1-.1.2-.1 0-.1.1-.2.1s-.1 0-.2 0-.1-.1-.1-.1l-1.6-3.7zm5.2 3.7c-.2.1-.4.2-.5.3-.2 0-.4.1-.5.1-.2 0-.3-.1-.5-.1s-.3-.2-.3-.3-.1-.3-.1-.4c0-.2 0-.4.1-.6.1-.3.3-.5.5-.7.2-.2.4-.4.6-.5.2-.1.5-.3.7-.3s.5-.1.8-.1c.1 0 .3 0 .3.1s.1.2.1.4 0 .4-.1.6c0 .2-.1.4-.1.6 0 .1-.1.2-.1.3 0 .1-.1.2-.1.3s0 .2 0 .2.1 0 .3 0c.1-.1.2-.1.3-.3.1 0 .1 0 .2 0s.1.1.2.1c0 .1.1.1.1.2s0 .2-.1.2c-.1.1-.2.2-.4.3-.1.1-.3.1-.4.1s-.3 0-.4-.1-.5-.3-.6-.4zm-1.4-1c0 .1 0 .2 0 .3s0 .2.1.3.1.1.2.2.2 0 .3 0c.2 0 .3-.1.5-.3s.3-.3.4-.5c.1-.2.2-.4.2-.6.1-.2.1-.4.1-.6-.2 0-.5.1-.7.2-.2.1-.4.2-.5.3s-.3.3-.4.4c-.1.1-.2.2-.2.3zm3.7-1.4c.1-.4.2-.7.3-1.1s.4-.6.6-.9c.2-.3.5-.5.7-.6s.5-.2.8-.2.5.1.7.2.4.3.5.6c.1.3.2.6.3.9s0 .7 0 1.1c-.1.4-.2.7-.3 1.1-.2.3-.3.6-.6.9-.2.2-.5.4-.7.6s-.5.2-.8.2-.5-.1-.7-.2-.4-.3-.5-.6c-.1-.2-.2-.5-.3-.9-.1-.4-.1-.7 0-1.1zm.6.1c0 .3-.1.5 0 .8 0 .2.1.4.2.6.1.2.2.3.3.4.1.1.3.2.5.2s.3-.1.5-.2.3-.2.5-.4c.1-.2.3-.4.4-.6.1-.2.2-.5.2-.8s.1-.5 0-.8c0-.3-.1-.5-.2-.7-.1-.2-.2-.4-.3-.5-.1-.1-.3-.2-.5-.2s-.4.1-.5.2c-.2.1-.3.3-.5.5-.1.2-.3.4-.4.7 0 .2-.1.5-.2.8zm7 .1h-2.2l-.4 2.2c0 .1-.1.2-.1.2-.1 0-.2.1-.2.1-.1 0-.1 0-.2-.1-.1 0-.1-.1-.1-.2l.8-4.9c0-.1.1-.2.2-.2s.2 0 .3 0c.1 0 .2.1.2.1.1.1.1.1 0 .2l-.3 1.9h2.2l.3-2c0-.1.1-.2.2-.2s.2-.1.3 0 .1 0 .2.1.1.1 0 .2l-.8 4.8c0 .1-.1.2-.1.2-.1 0-.2.1-.2.1s-.2 0-.2-.1c-.1 0-.1-.1-.1-.2l.2-2.2zm1.9 2.5c.2 0 .4-.1.5-.2.2-.1.4-.3.5-.6s.3-.5.4-.8c.1-.3.2-.7.3-1 0-.3.1-.5.1-.8s0-.5-.1-.8c-.1-.2-.2-.5-.3-.7-.2-.2-.4-.3-.7-.4-.1 0-.2-.1-.2-.2s0-.2 0-.3c0-.1.1-.2.1-.2.1-.1.1-.1.2-.1.3.1.6.2.9.5.2.2.4.5.5.8.1.3.2.6.2 1s0 .7 0 1.1c-.1.5-.2.9-.3 1.3-.2.4-.3.7-.6 1a3.55 3.55 0 01-1.7 1.1c-.1 0-.2 0-.2-.1s-.1-.1-.1-.2 0-.2.1-.3c.2-.1.3-.1.4-.1zm6.3-3.3c.1.1.2.3.2.4s-.1.3-.2.4c-.1.1-.3.2-.5.2s-.3-.1-.4-.2-.2-.3-.2-.4.1-.3.2-.4.3-.2.4-.2c.3 0 .4.1.5.2zm5.5 2.1c.1-.3.1-.5.1-.7s0-.3-.1-.4c0-.1-.1-.2-.2-.2s-.1-.1-.2-.1c-.2 0-.4.1-.6.2-.2.1-.3.3-.4.5l-.3 1.5c0 .1-.1.2-.1.2-.1.1-.1.1-.2.1s-.1 0-.2-.1-.1-.1-.1-.3l.5-2.6c0-.1.1-.2.1-.2.1 0 .2-.1.2-.1s.2 0 .2.1c.1 0 .1.1.1.2v.2c.2-.1.3-.2.5-.3s.3-.1.4-.1c.4 0 .7.2.8.5.1.3.1.9 0 1.6 0 .1 0 .2 0 .3 0 .1 0 .1 0 .1s.1 0 .1 0 .1 0 .1 0 .1 0 .2-.1.1-.1.2-.2c.1 0 .1 0 .2 0s.1.1.2.1c0 .1.1.1.1.2s0 .2-.1.2c-.1.1-.2.2-.4.3s-.2.1-.4.1c0 0-.1 0-.2 0s-.2-.1-.3-.1-.2-.2-.2-.4-.1-.2 0-.5zm3.6 1.9c0 .1 0 .1 0 .1s-.1.1-.1.1c-.1 0-.1 0-.1 0s-.1 0-.1-.1-.1-.1-.2-.2-.1-.1-.2-.1c0 0-.1 0-.1 0-.1 0-.1 0-.1 0s-.1 0-.1.1-.1.1-.1.1c0 .1 0 .1 0 .1s0 .1.1.1c0 0 .1 0 .1.1.1 0 .1 0 .2 0s.2 0 .3.1c.1 0 .2.1.2.1.1.1.1.1.1.2s0 .2 0 .3c0 .1-.1.2-.1.3-.1.1-.2.1-.2.2-.1 0-.2.1-.3.1-.1 0-.2 0-.3 0-.1 0-.2 0-.2-.1-.1 0-.2-.1-.2-.1-.1 0-.1-.1-.2-.2 0-.1-.1-.2-.1-.3 0-.1 0-.1.1-.2s.1-.1.1-.1c.1 0 .1 0 .1 0s.1 0 .1.1 0 .1 0 .2c0 0 .1.1.1.1s.1 0 .1.1c.1 0 .1 0 .2 0s.2 0 .3 0c.1 0 .1-.1.2-.1 0-.1 0-.2-.1-.2s-.2-.1-.3-.1c-.1 0-.2 0-.3-.1-.1 0-.2-.1-.3-.1-.1 0-.1-.1-.2-.2 0-.1 0-.2 0-.3 0-.1.1-.2.1-.3.1-.1.1-.1.2-.2s.2-.1.3-.1.2 0 .3 0c.1 0 .3.1.4.1.2.2.3.3.3.5zm.2.6c0-.1.1-.3.1-.4.1-.1.1-.2.2-.3.1-.1.2-.2.3-.2.1-.1.2-.1.4-.1s.3 0 .4.1c.1.1.2.2.2.3 0 .1.1.3 0 .4 0 .2-.1.3-.1.4-.1.1-.1.2-.2.3-.1.1-.2.2-.3.2-.1.1-.2.1-.4.1s-.2 0-.4-.1-.3-.2-.4-.4.2-.1.2-.3zm.4 0c0 .1 0 .2 0 .4 0 .1.1.2.2.2s.2 0 .2 0c.1 0 .2-.1.2-.1.1-.1.1-.1.2-.2 0-.1.1-.2.1-.2 0-.1 0-.2 0-.2 0-.1 0-.1 0-.2s-.1-.1-.1-.1-.1-.1-.2-.1-.1 0-.2 0-.1.1-.2.1c-.1.1-.1.1-.1.2-.1 0-.1.1-.1.2zm3.2.7c-.2.1-.3.2-.5.3-.1 0-.2.1-.3.1-.2 0-.3 0-.4-.1s-.2-.2-.2-.4 0-.4 0-.6.1-.5.1-.8c0-.1 0-.1.1-.2.1 0 .1 0 .2 0s.1 0 .1 0 .1.1 0 .1c-.1.3-.1.6-.2.8 0 .2 0 .3 0 .4s.1.2.1.2.1 0 .1 0c.1 0 .2 0 .2 0 .1 0 .1-.1.2-.1.1-.1.1-.1.2-.2s.1-.1.1-.2l.3-.9c0-.1 0-.1.1-.1 0 0 .1 0 .2 0s.1 0 .1.1c0 0 0 .1 0 .1s0 .1 0 .1c0 .1 0 .2-.1.3 0 .1 0 .2-.1.4 0 .1 0 .2 0 .4 0 .1 0 .2 0 .3s0 .1.1.1c0 0 .1 0 .1-.1s.1-.1.1-.1.1 0 .1 0 .1 0 .1.1 0 .1 0 .1c0 .1 0 .1-.1.1-.1.1-.2.1-.2.2s-.2.1-.3.1c-.1 0-.1 0-.2-.1s0-.3 0-.4zm2.7 0c-.1.1-.3.2-.4.2-.1 0-.3.1-.4.1s-.2 0-.4-.1c-.1-.1-.2-.1-.3-.2-.1-.1-.1-.2-.1-.3 0-.1 0-.2.1-.4s.2-.3.3-.5c.1-.1.3-.3.4-.3.2-.1.3-.2.5-.2.2-.1.3-.1.5-.1 0-.1 0-.2.1-.4 0-.1.1-.3.1-.4s.1-.3.1-.4c0-.1 0-.1 0-.2s0-.1.1-.1.1 0 .1 0 .1 0 .1.1.1.1.1.2c-.1.5-.2.9-.2 1.2-.1.3-.1.6-.1.8 0 .2-.1.4-.1.5 0 .1 0 .2 0 .3 0 .1 0 .1 0 .1s0 0 .1 0 .1-.1.2-.2c0 0 .1 0 .1 0s.1 0 .1.1c0 0 0 .1 0 .1 0 .1 0 .1-.1.1-.1.1-.2.1-.2.2-.1 0-.2.1-.3.1-.1 0-.1 0-.2-.1s-.2-.1-.2-.2zm-1.2-.5c0 .2 0 .3 0 .4s.2.1.3.1c.2 0 .3-.1.4-.2s.2-.2.3-.4l.1-.7c-.1 0-.3 0-.4.1-.1.1-.3.1-.4.2-.1.1-.2.2-.3.3.1 0 .1.1 0 .2zm3.9.2s.1-.1.1-.1c.1 0 .1 0 .2 0s.1.1.1.1 0 .1 0 .1c-.1.1-.2.2-.4.3s-.3.1-.4.1c-.1 0-.3 0-.4-.1-.1 0-.3-.1-.4-.2-.1-.1-.2-.2-.2-.3s-.1-.3-.1-.5c0-.1 0-.3.1-.4s.1-.2.2-.3.2-.2.3-.2.3-.1.4-.1c.1 0 .3 0 .4.1s.2.1.2.2c.1.1.1.2.1.3 0 .1 0 .2-.1.3-.1.1-.2.2-.3.4-.2.1-.4.2-.6.4 0 0 .1.1.2.1s.2 0 .2 0c.1 0 .2 0 .3-.1 0 0 0 0 .1-.1zm-.6-1.1c-.1 0-.2.1-.3.1s-.1.1-.2.2-.1.2-.1.2c0 .1 0 .2 0 .2.2-.1.4-.1.5-.2.1-.1.2-.1.3-.2.1-.1.1-.1.1-.2s0-.1 0-.1c0-.1-.1-.1-.1-.1-.1.1-.1.1-.2.1zm1.7-1.2c0-.1 0-.1 0-.2s.1-.1.2-.1.1 0 .2 0 .1.1.2.1c0 .1.1.2.1.3s0 .2 0 .3-.1.2-.1.4-.2.3-.3.4c-.1.1-.2.1-.2.1-.1 0-.2 0-.2 0-.1 0-.1-.1-.1-.2s0-.1.1-.2.2-.2.3-.2c.1-.1.1-.1.1-.2s0-.1 0-.2-.3-.2-.3-.3zm5.9.2c-.2.2-.4.3-.6.4-.2.1-.4.1-.6.1s-.4-.1-.5-.1-.3-.2-.4-.3c-.1-.1-.2-.3-.2-.5s0-.4.1-.6c.1-.3.3-.5.5-.7s.4-.4.6-.5c.2-.2.5-.3.7-.3.3-.1.5-.1.7-.1 0-.2.1-.4.1-.6 0-.2.1-.4.1-.7 0-.2.1-.4.1-.5 0-.2 0-.2 0-.2 0-.1.1-.2.1-.2.1 0 .1-.1.2-.1s.1 0 .2.1.1.1.1.3c-.2.7-.3 1.4-.4 1.9-.1.5-.2.9-.2 1.3-.1.4-.1.6-.1.8s0 .3 0 .4 0 .1.1.1.1 0 .1 0c.1-.1.2-.1.3-.3.1 0 .1 0 .2 0s.1.1.2.1c0 .1.1.1.1.2s0 .2-.1.2c-.1.1-.2.2-.4.3s-.3.1-.4.1c-.1 0-.2 0-.3-.1-.2-.2-.2-.3-.3-.5zm-1.7-.9c-.1.2 0 .4.1.6s.3.2.5.2c.3 0 .5-.1.7-.3.2-.2.3-.4.4-.6l.2-1.2c-.2 0-.4 0-.6.1-.2.1-.4.2-.6.3-.2.1-.3.3-.4.4s-.3.4-.3.5zm4.1-3.6c0-.1.1-.2.2-.2s.2-.1.2-.1.1 0 .2.1.1.1.1.2l-.2 1.1c0 .1-.1.2-.1.2-.1 0-.2.1-.2.1-.1 0-.1 0-.2-.1-.1 0-.1-.1-.1-.2l.1-1.1zm1.2 3.3c0-.2.1-.4.2-.6.1-.2.2-.4.4-.5s.3-.3.5-.3c.2-.1.4-.1.6-.1.3 0 .5.1.7.2.2.1.3.3.3.5.1.2.1.4.1.7 0 .2-.1.5-.2.7-.1.2-.2.4-.3.5s-.3.3-.5.4c-.2.1-.4.2-.5.2-.2 0-.4 0-.6-.1-.3-.1-.4-.3-.5-.6s-.3-.6-.2-1zm.6.1c0 .2 0 .4 0 .5s.1.3.3.3c.1 0 .3 0 .4 0 .1 0 .2-.1.3-.2.1-.1.2-.2.3-.3s.1-.2.1-.4c0-.1 0-.2 0-.4s0-.2-.1-.3c0-.1-.1-.1-.2-.2s-.2-.1-.3-.1c-.1 0-.2 0-.3.1-.1.1-.2.1-.3.2-.1.1-.2.2-.2.3.1.2 0 .3 0 .5zm4.9 1c-.3.2-.5.3-.7.4s-.4.1-.5.1c-.3 0-.5-.1-.7-.2s-.2-.3-.3-.6 0-.6 0-.9c0-.4.1-.8.2-1.2 0-.1.1-.2.2-.2s.2-.1.3-.1c.1 0 .2 0 .2.1.1 0 .1.1.1.2-.1.5-.2 1-.2 1.3 0 .3 0 .5 0 .7 0 .1.1.2.2.3s.1.1.2.1.2 0 .4-.1c.1 0 .2-.1.3-.2.1-.1.2-.2.2-.3s.1-.2.1-.4l.4-1.4c0-.1.1-.2.1-.2.1 0 .2 0 .2 0 .1 0 .1 0 .2.1s.1.1 0 .2c0 0 0 .1 0 .2s-.1.3-.1.4-.1.4-.1.6-.1.4-.1.5c0 .2 0 .3 0 .4 0 .1 0 .1.1.1 0 0 .1-.1.2-.1s.1-.1.2-.2c.1 0 .1 0 .2 0s.1.1.2.1c0 .1.1.1.1.2s0 .2-.1.2c-.1.1-.2.2-.4.3s-.3.1-.4.1c-.1 0-.2-.1-.3-.2-.3 0-.4-.1-.4-.3zm.1-3.6c0 .1.1.1 0 .2 0 .1-.1.1-.1.2s-.1.1-.2.1-.2 0-.2-.1l-.6-.6c-.1-.1-.1-.1-.1-.2s0-.2.1-.2c.1-.1.1-.1.2-.1s.2 0 .2.1l.7.6zm-73.6-29.3c0 .1-.1.1-.2.1s-.2 0-.2 0-.1 0-.2-.1-.1-.1-.1-.1l1-5.1c0-.1.1-.2.1-.2.1 0 .1-.1.2 0 .1 0 .1 0 .2.1s.1.1.1.1c.1 0 .2 0 .4 0s.3 0 .5 0 .3 0 .5.1.3.1.5.2c.1.1.2.2.3.4s.1.4 0 .6c-.1.3-.2.6-.3.8-.2.2-.4.4-.6.6-.2.1-.5.2-.8.3-.3.1-.6.1-1 0l-.4 2.2zm2.4-3.9c0-.1 0-.2-.1-.3s-.2-.2-.3-.2-.3-.1-.5-.1-.5 0-.7.1l-.3 1.7c.2.1.5.1.7 0 .2 0 .4-.1.6-.2s.3-.2.4-.4.2-.3.2-.6zm2.3 3.8c-.2.1-.4.2-.5.3-.2 0-.4.1-.5.1-.2 0-.3-.1-.5-.1s-.3-.2-.3-.3-.1-.3-.1-.4c0-.2 0-.4.1-.6.1-.3.3-.5.5-.7.2-.2.4-.4.6-.5.2-.1.5-.3.7-.3s.5-.1.8-.1c.1 0 .3 0 .3.1s.1.2.1.4 0 .4-.1.6c0 .2-.1.4-.1.6 0 .1-.1.2-.1.3 0 .1-.1.2-.1.3s0 .2 0 .2.1 0 .3 0c.1-.1.2-.1.3-.3.1 0 .1 0 .2 0s.1.1.2.1c0 .1.1.1.1.2s0 .2-.1.2c-.1.1-.2.2-.4.3-.1.1-.3.1-.4.1s-.3 0-.4-.1-.5-.3-.6-.4zm-1.4-1c0 .1 0 .2 0 .3s0 .2.1.3.1.1.2.2.2 0 .3 0c.2 0 .3-.1.5-.3s.3-.3.4-.5c.1-.2.2-.4.2-.6.1-.2.1-.4.1-.6-.2 0-.5.1-.7.2-.2.1-.4.2-.5.3s-.3.3-.4.4c-.1.1-.1.2-.2.3zm6.1-.9c-.1-.1-.2-.2-.3-.2s-.2-.1-.3-.1-.2 0-.4.1-.2.1-.3.2c-.1.1-.2.2-.2.3s-.1.2-.1.4l-.2 1.2c0 .1-.1.2-.1.2-.1.1-.2.1-.2.1-.1 0-.2 0-.2-.1s-.1-.1-.1-.3l.5-2.6c0-.1.1-.2.1-.2.1 0 .2-.1.2-.1s.2 0 .2.1c.1 0 .1.1.1.2v.1c.1-.1.3-.2.5-.2s.3-.1.5-.1.5.1.6.2.3.2.4.4c0 .1 0 .1 0 .2s-.1.1-.1.2-.1.1-.2.1c-.3 0-.4 0-.4-.1zm5.7 1.8c-.2.2-.4.3-.6.4s-.4.1-.6.1-.4-.1-.5-.1-.3-.2-.4-.3c-.1-.1-.2-.3-.2-.5s0-.4.1-.6c.1-.3.3-.5.5-.7s.4-.4.6-.5c.2-.2.5-.3.7-.3.3-.1.5-.1.7-.1 0-.2.1-.4.1-.6s.1-.4.1-.7.1-.4.1-.5 0-.2 0-.2c0-.1.1-.2.1-.2.1 0 .1-.1.2-.1s.1 0 .2.1.1.1.1.3c-.2.7-.3 1.4-.4 1.9s-.2.9-.2 1.3c-.1.4-.1.6-.1.8s0 .3 0 .4 0 .1.1.1.1 0 .1 0c.1-.1.2-.1.3-.3.1 0 .1 0 .2 0s.1.1.2.1c0 .1.1.1.1.2s0 .2-.1.2c-.1.1-.2.2-.4.3s-.3.1-.4.1c-.1 0-.2 0-.3-.1s-.3-.4-.3-.5zm-1.8-.9c-.1.2 0 .4.1.6s.3.2.5.2c.3 0 .5-.1.7-.3.2-.2.3-.4.4-.6l.2-1.2c-.2 0-.4 0-.6.1-.2.1-.4.2-.6.3-.2.1-.3.3-.4.4s-.2.4-.3.5zm6 .3c.1-.1.1-.1.2-.1s.2 0 .2.1.1.1.1.2 0 .1-.1.2c-.2.2-.4.4-.6.5-.2.1-.4.2-.6.2-.2 0-.4 0-.6-.1-.2-.1-.4-.2-.5-.3s-.3-.3-.4-.5-.1-.4-.1-.7c0-.2 0-.4.1-.6.1-.2.2-.4.4-.5.1-.2.3-.3.5-.4s.4-.1.6-.1c.2 0 .4 0 .5.1s.3.2.3.3c.1.1.1.3.1.4s-.1.3-.2.5-.3.4-.5.6c-.2.2-.6.4-1 .5.1.1.2.1.3.2s.2.1.4.1.3 0 .4-.1.4-.3.5-.5zm-.9-1.6c-.2.1-.3.1-.4.2-.1.1-.2.2-.3.3s-.1.2-.1.4 0 .3 0 .4c.3-.1.6-.2.7-.3s.3-.2.4-.3.1-.2.1-.3 0-.1 0-.2-.1-.1-.2-.2c0-.1-.1-.1-.2 0zm.4-2.1c.1-.1.2-.1.3-.1s.1 0 .2.1.1.1.1.2 0 .2-.1.2l-.7.6c-.1.1-.2.1-.2.1-.1 0-.1-.1-.2-.1s-.1-.1-.1-.2 0-.1.1-.2l.6-.6zm2.9 2c-.1.5-.2.9-.2 1.4s-.1.8-.2 1.2c0 0 0 .1-.1.1s-.2.1-.3.1-.2 0-.2 0-.1-.1-.1-.2c0-.2 0-.3.1-.4s0-.3.1-.4c0-.2.1-.4.1-.6s.1-.6.2-.9h-.5c-.1 0-.2 0-.2-.1s0-.1 0-.2.1-.2.1-.2c.1-.1.1-.1.2-.1h.5c.1-.3.2-.6.3-.9s.2-.5.4-.7.3-.3.5-.5.4-.2.6-.2c.2 0 .3 0 .4.1s.2.1.3.2c.1.1.1.2.2.3s.1.2.1.3c0 .1 0 .2 0 .3-.1.1-.1.1-.2.2s-.2 0-.2 0-.1-.1-.2-.2c0-.2-.1-.3-.1-.4s-.4-.3-.5-.3c-.1 0-.2 0-.3.1s-.2.2-.3.3c-.1.1-.2.3-.2.5-.1.2-.1.4-.2.6h1c.1 0 .2.1.2.1s0 .2 0 .2-.1.2-.1.3-.1.1-.2.1l-1-.1zm2.4-.3c0-.1.1-.2.2-.2s.2-.1.2 0 .1 0 .2.1.1.1 0 .2c-.1.2-.2.5-.3.8s-.1.5-.1.8 0 .4 0 .6.1.2.2.2.1-.1.2-.1.1-.1.2-.2c0 0 .1-.1.2 0s.1.1.2.1.1.1.1.2 0 .1-.1.2-.2.2-.4.3-.3.1-.5.1-.4-.1-.5-.2c-.1-.1-.2-.3-.2-.5s0-.4 0-.7.1-.5.1-.7.1-.4.1-.6c.2-.2.2-.3.2-.4zm.2-.9c0-.1.1-.2.2-.3s.2-.1.3-.1.2 0 .3.1.1.2.1.3c0 .1-.1.2-.2.3-.1.1-.2.1-.3.1s-.2 0-.3-.1c-.1-.1-.1-.2-.1-.3zm3.7 2.7c.1-.3.1-.5.1-.7s0-.3-.1-.4c0-.1-.1-.2-.2-.2s-.1-.1-.2-.1c-.2 0-.4.1-.6.2s-.3.3-.4.5l-.3 1.5c0 .1-.1.2-.1.2-.1.1-.1.1-.2.1s-.1 0-.2-.1-.1-.1-.1-.3l.5-2.6c0-.1.1-.2.1-.2.1 0 .2-.1.2-.1s.2 0 .2.1c.1 0 .1.1.1.2v.2c.2-.1.3-.2.5-.3s.3-.1.4-.1c.4 0 .7.2.8.5s.1.9 0 1.6c0 .1 0 .2 0 .3s0 .1 0 .1.1 0 .1 0 .1 0 .1 0 .1 0 .2-.1.1-.1.2-.2c.1 0 .1 0 .2 0s.1.1.2.1c0 .1.1.1.1.2s0 .2-.1.2c-.1.1-.2.2-.4.3s-.2.1-.4.1c0 0-.1 0-.2 0s-.2-.1-.3-.1-.2-.2-.2-.4-.1-.2 0-.5zm2.1-1.8c0-.1.1-.2.2-.2s.2-.1.2 0 .1 0 .2.1.1.1 0 .2c-.1.2-.2.5-.3.8s-.1.5-.1.8 0 .4 0 .6.1.2.2.2.1-.1.2-.1.1-.1.2-.2c0 0 .1-.1.2 0s.1.1.2.1.1.1.1.2 0 .1-.1.2-.2.2-.4.3-.3.1-.5.1-.4-.1-.5-.2c-.1-.1-.2-.3-.2-.5s0-.4 0-.7.1-.5.1-.7.1-.4.1-.6c.2-.2.2-.3.2-.4zm.2-.9c0-.1.1-.2.2-.3s.2-.1.3-.1.2 0 .3.1.1.2.1.3c0 .1-.1.2-.2.3-.1.1-.2.1-.3.1s-.2 0-.3-.1c-.1-.1-.1-.2-.1-.3zm2.1 3.5c0-.1 0-.2 0-.3 0-.1 0-.2 0-.4s.1-.4.1-.6.1-.6.2-1.1h-.6c-.1 0-.2 0-.2-.1s0-.1 0-.2 0-.2.1-.2c.1-.1.1-.1.2-.1h.7c0-.2.1-.5.1-.7s.1-.4.1-.6c0-.2.1-.3.1-.5 0-.1.1-.2.1-.2s.1-.1.2-.1.1 0 .2.1.1.1.1.3c-.1.3-.1.7-.2 1-.1.3-.1.6-.2.8h.8c.1 0 .2.1.2.1s0 .2 0 .2c0 .1-.1.1-.1.2s-.2.1-.3.1h-.8c0 .1-.1.3-.1.4s0 .2-.1.3c-.1.4-.1.6-.1.8s0 .3 0 .4 0 .1 0 .1 0 0 .1 0c0 0 .1 0 .2-.1s.2-.1.2-.2c.1 0 .1 0 .2 0s.1.1.2.1c0 .1.1.1.1.2s0 .2-.1.2c-.1.1-.3.2-.4.3s-.3.1-.4.1c-.1 0-.2 0-.3-.1-.2.1-.3 0-.3-.2zm2.7-2.6c0-.1.1-.2.2-.2s.2-.1.2 0 .1 0 .2.1.1.1 0 .2c-.1.2-.2.5-.3.8s-.1.5-.1.8 0 .4 0 .6.1.2.2.2.1-.1.2-.1.1-.1.2-.2c0 0 .1-.1.2 0s.1.1.2.1.1.1.1.2 0 .1-.1.2-.2.2-.4.3-.3.1-.5.1-.4-.1-.5-.2c-.1-.1-.2-.3-.2-.5s0-.4 0-.7.1-.5.1-.7.1-.4.1-.6c.2-.2.2-.3.2-.4zm.2-.9c0-.1.1-.2.2-.3s.2-.1.3-.1.2 0 .3.1.1.2.1.3c0 .1-.1.2-.2.3-.1.1-.2.1-.3.1s-.2 0-.3-.1c-.1-.1-.1-.2-.1-.3zm1.5 2.3c0-.2.1-.4.2-.6s.2-.4.4-.5.3-.3.5-.3c.2-.1.4-.1.6-.1.3 0 .5.1.7.2s.3.3.3.5c.1.2.1.4.1.7s-.1.5-.2.7c-.1.2-.2.4-.3.5s-.3.3-.5.4c-.2.1-.4.2-.5.2-.2 0-.4 0-.6-.1-.3-.1-.4-.3-.5-.6s-.3-.7-.2-1zm.6 0c0 .2 0 .4 0 .5s.1.3.3.3c.1 0 .3 0 .4 0 .1 0 .2-.1.3-.2.1-.1.2-.2.3-.3s.1-.2.1-.4c0-.1 0-.2 0-.4s0-.2-.1-.3-.1-.1-.2-.2-.2-.1-.3-.1c-.1 0-.2 0-.3.1-.1.1-.2.1-.3.2s-.2.2-.2.3c0 .3 0 .4 0 .5zm4.7.4c.1-.3.1-.5.1-.7s0-.3-.1-.4c0-.1-.1-.2-.2-.2s-.1-.1-.2-.1c-.2 0-.4.1-.6.2s-.3.3-.4.5l-.3 1.5c0 .1-.1.2-.1.2-.1.1-.1.1-.2.1s-.1 0-.2-.1-.1-.1-.1-.3l.5-2.6c0-.1.1-.2.1-.2.1 0 .2-.1.2-.1s.2 0 .2.1c.1 0 .1.1.1.2v.2c.2-.1.3-.2.5-.3s.3-.1.4-.1c.4 0 .7.2.8.5s.1.9 0 1.6c0 .1 0 .2 0 .3s0 .1 0 .1.1 0 .1 0 .1 0 .1 0 .1 0 .2-.1.1-.1.2-.2c.1 0 .1 0 .2 0s.1.1.2.1c0 .1.1.1.1.2s0 .2-.1.2c-.1.1-.2.2-.4.3s-.2.1-.4.1c0 0-.1 0-.2 0s-.2-.1-.3-.1-.2-.2-.2-.4-.1-.2 0-.5zm2.2.6c0-.1 0-.1 0-.2s.1-.1.2-.1.1 0 .2 0 .1.1.2.1c0 .1.1.2.1.3s0 .2 0 .3-.1.2-.1.4-.2.3-.3.4c-.1.1-.2.1-.3.1s-.2 0-.2 0-.1-.1-.1-.2 0-.1.1-.2.2-.2.3-.2.1-.1.1-.2 0-.1 0-.2-.1-.2-.2-.3zm68 .2c-.2.2-.4.3-.6.4s-.4.1-.6.1-.4-.1-.5-.1-.3-.2-.4-.3c-.1-.1-.2-.3-.2-.5s0-.4.1-.6c.1-.3.3-.5.5-.7s.4-.4.6-.5c.2-.2.5-.3.7-.3.3-.1.5-.1.7-.1 0-.2.1-.4.1-.6s.1-.4.1-.7.1-.4.1-.5 0-.2 0-.2c0-.1.1-.2.1-.2.1 0 .1-.1.2-.1s.1 0 .2.1.1.1.1.3c-.2.7-.3 1.4-.4 1.9s-.2.9-.2 1.3c-.1.4-.1.6-.1.8s0 .3 0 .4 0 .1.1.1.1 0 .1 0c.1-.1.2-.1.3-.3.1 0 .1 0 .2 0s.1.1.2.1c0 .1.1.1.1.2s0 .2-.1.2c-.1.1-.2.2-.4.3s-.3.1-.4.1c-.1 0-.2 0-.3-.1s-.2-.4-.3-.5zm-1.7-.9c-.1.2 0 .4.1.6s.3.2.5.2c.3 0 .5-.1.7-.3.2-.2.3-.4.4-.6l.2-1.2c-.2 0-.4 0-.6.1-.2.1-.4.2-.6.3-.2.1-.3.3-.4.4s-.3.3-.3.5zm4.1-3.7c0-.1.1-.2.2-.2s.2-.1.2-.1.1 0 .2.1.1.1.1.2l-.2 1.1c0 .1-.1.2-.1.2-.1 0-.2.1-.2.1s-.1 0-.2-.1c-.1 0-.1-.1-.1-.2l.1-1.1zm1.2 3.4c0-.2.1-.4.2-.6s.2-.4.4-.5.3-.3.5-.3c.2-.1.4-.1.6-.1.3 0 .5.1.7.2s.3.3.3.5c.1.2.1.4.1.7s-.1.5-.2.7c-.1.2-.2.4-.3.5s-.3.3-.5.4c-.2.1-.3.2-.5.2s-.4 0-.6-.1c-.3-.1-.4-.3-.5-.6s-.3-.7-.2-1zm.6 0c0 .2 0 .4 0 .5s.1.3.3.3c.1 0 .3 0 .4 0 .1 0 .2-.1.3-.2.1-.1.2-.2.3-.3s.1-.2.1-.4c0-.1 0-.2 0-.4s0-.2-.1-.3-.1-.1-.2-.2-.2-.1-.3-.1c-.1 0-.2 0-.3.1-.1.1-.2.1-.3.2s-.2.2-.2.3c.1.3 0 .4 0 .5zm4.9 1.1c-.3.2-.5.3-.7.4s-.4.1-.5.1c-.3 0-.5-.1-.7-.2s-.2-.3-.3-.6 0-.6 0-.9.1-.8.2-1.2c0-.1.1-.2.2-.2s.2-.1.3-.1.2 0 .2.1c.1 0 .1.1.1.2-.1.5-.2 1-.2 1.3 0 .3 0 .5 0 .7 0 .1.1.2.2.3s.1.1.2.1.2 0 .4-.1c.1 0 .2-.1.3-.2s.2-.2.2-.3.1-.2.1-.4l.4-1.4c0-.1.1-.2.1-.2.1 0 .2 0 .2 0s.1 0 .2.1.1.1 0 .2c0 0 0 .1 0 .2s-.1.3-.1.4-.1.4-.1.6-.1.4-.1.5c0 .2 0 .3 0 .4s0 .1.1.1c0 0 .1-.1.2-.1s.1-.1.2-.2c.1 0 .1 0 .2 0s.1.1.2.1c0 .1.1.1.1.2s0 .2-.1.2c-.1.1-.2.2-.4.3s-.3.1-.4.1c-.1 0-.2-.1-.3-.2-.3 0-.4-.2-.4-.3zm.1-3.6c0 .1.1.1 0 .2 0 .1-.1.1-.1.2s-.1.1-.2.1-.2 0-.2-.1l-.6-.6c-.1-.1-.1-.1-.1-.2s0-.2.1-.2c.1-.1.1-.1.2-.1s.2 0 .2.1l.7.6zm6 2.9c.1-.3.1-.5.1-.7s0-.3-.1-.4c0-.1-.1-.2-.2-.2s-.1-.1-.2-.1c-.2 0-.4.1-.6.2s-.3.3-.4.5l-.3 1.5c0 .1-.1.2-.1.2-.1.1-.1.1-.2.1s-.1 0-.2-.1-.1-.1-.1-.3l.5-2.6c0-.1.1-.2.1-.2.1 0 .2-.1.2-.1s.2 0 .2.1c.1 0 .1.1.1.2v.2c.2-.1.3-.2.5-.3s.3-.1.4-.1c.4 0 .7.2.8.5s.1.9 0 1.6c0 .1 0 .2 0 .3s0 .1 0 .1.1 0 .1 0 .1 0 .1 0 .1 0 .2-.1.1-.1.2-.2c.1 0 .1 0 .2 0s.1.1.2.1c0 .1.1.1.1.2s0 .2-.1.2c-.1.1-.2.2-.4.3s-.2.1-.4.1c0 0-.1 0-.2 0s-.2-.1-.3-.1-.2-.2-.2-.4 0-.2 0-.5zm3.7 1.9c0 .1 0 .1 0 .1s-.1.1-.1.1c-.1 0-.1 0-.1 0s-.1 0-.1-.1-.1-.1-.2-.2-.1-.1-.2-.1c0 0-.1 0-.1 0-.1 0-.1 0-.1 0s-.1 0-.1.1-.1.1-.1.1c0 .1 0 .1 0 .1s0 .1.1.1c0 0 .1 0 .1.1.1 0 .1 0 .2 0s.2 0 .3.1c.1 0 .2.1.2.1.1.1.1.1.1.2s0 .2 0 .3c0 .1-.1.2-.1.3-.1.1-.2.1-.2.2-.1 0-.2.1-.3.1-.1 0-.2 0-.3 0-.1 0-.2 0-.2-.1-.1 0-.2-.1-.2-.1-.1 0-.1-.1-.2-.2 0-.1-.1-.2-.1-.3 0-.1 0-.1.1-.2 0 0 .1-.1.1-.1.1 0 .1 0 .1 0s.1 0 .1.1 0 .1 0 .2c0 0 .1.1.1.1s.1 0 .1.1c.1 0 .1 0 .2 0s.2 0 .3 0c.1 0 .1-.1.2-.1 0-.1 0-.2-.1-.2s-.2-.1-.3-.1c-.1 0-.2 0-.3-.1-.1 0-.2-.1-.3-.1s-.1-.1-.2-.2c0-.1 0-.2 0-.3 0-.1.1-.2.1-.3.1-.1.1-.1.2-.2s.2-.1.3-.1.2 0 .3 0c.1 0 .3.1.4.1.1.2.2.3.3.5zm.2.6c0-.1.1-.3.1-.4.1-.1.1-.2.2-.3.1-.1.2-.2.3-.2.1-.1.2-.1.4-.1s.3 0 .4.1c.1.1.2.2.2.3 0 .1.1.3 0 .4 0 .2-.1.3-.1.4-.1.1-.1.2-.2.3s-.2.2-.3.2c-.1.1-.2.1-.4.1-.1 0-.2 0-.4-.1s-.3-.2-.3-.4 0-.1.1-.3zm.3 0c0 .1 0 .2 0 .4 0 .1.1.2.2.2s.2 0 .2 0c.1 0 .2-.1.2-.1.1-.1.1-.1.2-.2 0-.1.1-.2.1-.2 0-.1 0-.2 0-.2 0-.1 0-.1 0-.2s-.1-.1-.1-.1-.1-.1-.2-.1-.1 0-.2 0-.1.1-.2.1c-.1.1-.1.1-.1.2 0 0 0 .1-.1.2zm3.2.6c-.2.1-.3.2-.5.3-.1 0-.2.1-.3.1-.2 0-.3 0-.4-.1s-.2-.2-.2-.4 0-.4 0-.6.1-.5.1-.8c0-.1 0-.1.1-.2.1 0 .1 0 .2 0s.1 0 .1 0 .1.1 0 .1c-.1.3-.1.6-.2.8 0 .2 0 .3 0 .4 0 .1.1.2.1.2s.1 0 .1 0c.1 0 .2 0 .2 0 .1 0 .1-.1.2-.1s.1-.1.2-.2c0-.1.1-.1.1-.2l.3-.9c0-.1 0-.1.1-.1 0 0 .1 0 .2 0s.1 0 .1.1c0 0 0 .1 0 .1s0 .1 0 .1c0 .1 0 .2-.1.3 0 .1 0 .2-.1.4 0 .1 0 .2 0 .4 0 .1 0 .2 0 .3s0 .1.1.1c0 0 .1 0 .1-.1s.1-.1.1-.1.1 0 .1 0 .1 0 .1.1 0 .1 0 .1c0 .1 0 .1-.1.1-.1.1-.2.1-.2.2-.1 0-.2.1-.3.1-.1 0-.1 0-.2-.1s0-.3 0-.4zm2.7.1c-.1.1-.3.2-.4.2-.1 0-.3.1-.4.1s-.2 0-.4-.1-.2-.1-.3-.2c-.1-.1-.1-.2-.1-.3 0-.1 0-.2.1-.4s.2-.3.3-.5.3-.3.4-.3c.2-.1.3-.2.5-.2.2-.1.3-.1.5-.1 0-.1 0-.2.1-.4 0-.1.1-.3.1-.4 0-.1.1-.3.1-.4 0-.1 0-.1 0-.2s0-.1.1-.1c0 0 .1 0 .1 0s.1 0 .1.1.1.1.1.2c-.1.5-.2.9-.2 1.2-.1.3-.1.6-.1.8 0 .2-.1.4-.1.5s0 .2 0 .3c0 .1 0 .1 0 .1s0 0 .1 0 .1-.1.2-.2c0 0 .1 0 .1 0s.1 0 .1.1 0 .1 0 .1c0 .1 0 .1-.1.1-.1.1-.2.1-.2.2-.1 0-.2.1-.3.1-.1 0-.1 0-.2-.1s-.2-.1-.2-.2zm-1.1-.6c0 .2 0 .3 0 .4s.2.1.3.1c.2 0 .3-.1.4-.2s.2-.2.3-.4l.1-.7c-.1 0-.3 0-.4.1s-.3.1-.4.2c-.1.1-.2.2-.3.3 0 .1 0 .2 0 .2zm3.8.3s.1-.1.1-.1c.1 0 .1 0 .2 0 0 0 .1.1.1.1s0 .1 0 .1c-.1.1-.2.2-.4.3-.1.1-.3.1-.4.1-.1 0-.3 0-.4-.1-.1 0-.3-.1-.4-.2-.1-.1-.2-.2-.3-.3s-.1-.3-.1-.5c0-.1 0-.3.1-.4.1-.1.1-.2.2-.3.1-.1.2-.2.3-.2.1-.1.3-.1.4-.1.1 0 .3 0 .4.1s.2.1.2.2c.1.1.1.2.1.3 0 .1 0 .2-.1.3-.1.1-.2.2-.3.4-.2.1-.4.2-.6.4 0 0 .1.1.2.1s.2 0 .2 0c.1 0 .2 0 .3-.1.1 0 .2 0 .2-.1zm-.5-1.1c-.1 0-.2.1-.3.1s-.1.1-.2.2c0 .1-.1.2-.1.2 0 .1 0 .2 0 .2.2-.1.4-.1.5-.2.1-.1.2-.1.3-.2s.1-.1.1-.2 0-.1 0-.1c0-.1-.1-.1-.1-.1-.1.1-.2.1-.2.1zm5.9-2.5c.1 0 .2.1.2.1 0 .1 0 .2 0 .2 0 .1-.1.2-.1.2-.1.1-.1.1-.2.1h-2.1c-.1 0-.2 0-.2-.1s0-.1 0-.2.1-.2.1-.2.1-.1.2-.1h2.1zm.2-1.1c.1 0 .2.1.2.1 0 .1 0 .2 0 .2 0 .1-.1.1-.1.2-.1.1-.1.1-.2.1h-2.1c-.1 0-.2 0-.2-.1s0-.1 0-.2.1-.2.1-.2c.1-.1.1-.1.2-.1h2.1zm5.8 1.3c.1-.1.1-.2.2-.2s.2 0 .2 0c.1 0 .1.1.1.2s0 .2-.1.3c-.1.2-.2.4-.4.5-.1.2-.3.3-.5.4-.2.1-.3.2-.5.3s-.3.1-.5.1c-.3 0-.5-.1-.7-.2s-.4-.3-.5-.6-.2-.5-.3-.9 0-.7 0-1.1c.1-.4.2-.7.3-1.1s.4-.6.6-.9a1.88 1.88 0 011.5-.8c.4 0 .7.1.9.3s.4.5.5 1c0 .1 0 .1 0 .2s-.1.1-.2.2c-.1 0-.2.1-.3 0-.1 0-.1-.1-.2-.2-.1-.3-.2-.5-.3-.6s-.3-.2-.6-.2c-.2 0-.4.1-.5.2s-.3.3-.5.5c-.1.2-.3.4-.4.7-.1.3-.2.5-.2.8s-.1.5 0 .8c0 .2.1.4.2.6s.2.3.3.4.3.1.5.1.5-.1.7-.3.5-.2.7-.5zm3.1 2.4c0 .1 0 .1 0 .1s-.1.1-.1.1c-.1 0-.1 0-.1 0s-.1 0-.1-.1-.1-.1-.2-.2-.1-.1-.2-.1c0 0-.1 0-.1 0-.1 0-.1 0-.1 0s-.1 0-.1.1c0 0-.1.1-.1.1 0 .1 0 .1 0 .1s0 .1.1.1c0 0 .1 0 .1.1.1 0 .1 0 .2 0s.2 0 .3.1c.1 0 .2.1.2.1.1.1.1.1.1.2s0 .2 0 .3c0 .1-.1.2-.1.3-.1.1-.2.1-.2.2-.1 0-.2.1-.3.1-.1 0-.2 0-.3 0-.1 0-.2 0-.3-.1-.1 0-.2-.1-.2-.1-.1 0-.1-.1-.2-.2 0-.1-.1-.2-.1-.3 0-.1 0-.1.1-.2 0 0 .1-.1.1-.1.1 0 .1 0 .1 0s.1 0 .1.1 0 .1 0 .2c0 0 .1.1.1.1s.1 0 .1.1c.1 0 .1 0 .2 0s.2 0 .3 0c.1 0 .1-.1.2-.1 0-.1 0-.2-.1-.2s-.2-.1-.3-.1c-.1 0-.2 0-.3-.1-.1 0-.2-.1-.3-.1-.1 0-.1-.1-.2-.2 0-.1 0-.2 0-.3 0-.1.1-.2.1-.3.1-.1.1-.1.2-.2s.2-.1.3-.1c.1 0 .2 0 .3 0 .1 0 .3.1.4.1s.3.3.4.5zm.1.6c0-.1.1-.3.1-.4.1-.1.1-.2.2-.3.1-.1.2-.2.3-.2.1-.1.2-.1.4-.1s.3 0 .4.1c.1.1.2.2.2.3 0 .1.1.3 0 .4 0 .2-.1.3-.1.4-.1.1-.1.2-.2.3-.1.1-.2.2-.3.2-.1.1-.2.1-.3.1-.1 0-.2 0-.4-.1s-.3-.2-.4-.4.1-.1.1-.3zm.4 0c0 .1 0 .2 0 .4 0 .1.1.2.2.2s.2 0 .2 0c.1 0 .2-.1.2-.1.1-.1.1-.1.2-.2 0-.1.1-.2.1-.2 0-.1 0-.2 0-.2 0-.1 0-.1 0-.2s-.1-.1-.1-.1-.1-.1-.2-.1-.1 0-.2 0-.1.1-.2.1c-.1.1-.1.1-.1.2 0 0-.1.1-.1.2zm3.2.6c-.2.1-.3.2-.4.3-.1 0-.2.1-.3.1-.2 0-.3 0-.4-.1s-.2-.2-.2-.4 0-.4 0-.6c0-.2.1-.5.1-.8 0-.1 0-.1.1-.2.1 0 .1 0 .2 0s.1 0 .1 0 .1.1 0 .1c-.1.3-.1.6-.2.8 0 .2 0 .3 0 .4 0 .1.1.2.1.2s.1 0 .1 0c.1 0 .2 0 .2 0s.1-.1.2-.1.1-.1.2-.2.1-.1.1-.2l.3-.9c0-.1 0-.1.1-.1 0 0 .1 0 .2 0s.1 0 .1.1c0 0 0 .1 0 .1s0 .1 0 .1c0 .1 0 .2-.1.3 0 .1 0 .2-.1.4 0 .1 0 .2 0 .4s0 .2 0 .3 0 .1.1.1c0 0 .1 0 .1-.1 0 0 .1-.1.1-.1s.1 0 .1 0 .1 0 .1.1c0 0 0 .1 0 .1 0 .1 0 .1-.1.1-.1.1-.2.1-.2.2-.1 0-.2.1-.3.1-.1 0-.1 0-.2-.1s-.1-.3-.1-.4zm2.7.1c-.1.1-.3.2-.4.2-.1 0-.3.1-.4.1s-.2 0-.4-.1-.2-.1-.3-.2c-.1-.1-.1-.2-.1-.3 0-.1 0-.2.1-.4s.2-.3.3-.5c.1-.1.3-.3.4-.3.2-.1.3-.2.5-.2.2-.1.3-.1.5-.1 0-.1 0-.2.1-.4 0-.1.1-.3.1-.4s.1-.3.1-.4c0-.1 0-.1 0-.2s0-.1.1-.1c0 0 .1 0 .1 0s.1 0 .1.1c0 0 .1.1.1.2-.1.5-.2.9-.2 1.2-.1.3-.1.6-.1.8 0 .2-.1.4-.1.5 0 .1 0 .2 0 .3 0 .1 0 .1 0 .1s0 0 .1 0 .1-.1.2-.2c0 0 .1 0 .1 0s.1 0 .1.1c0 0 0 .1 0 .1 0 .1 0 .1-.1.1-.1.1-.2.1-.2.2-.1 0-.2.1-.3.1-.1 0-.1 0-.2-.1s-.2-.1-.2-.2zm-1.1-.6c0 .2 0 .3 0 .4.1.1.2.1.3.1.2 0 .3-.1.4-.2.1-.1.2-.2.3-.4l.1-.7c-.1 0-.3 0-.4.1s-.3.1-.4.2c-.1.1-.2.2-.3.3 0 .1 0 .2 0 .2zm3.8.3s.1-.1.1-.1c.1 0 .1 0 .2 0 0 0 .1.1.1.1s0 .1 0 .1c-.1.1-.2.2-.4.3s-.3.1-.4.1c-.1 0-.3 0-.4-.1-.1 0-.3-.1-.4-.2-.1-.1-.2-.2-.2-.3-.1-.1-.1-.3-.1-.5 0-.1 0-.3.1-.4.1-.1.1-.2.2-.3s.2-.2.3-.2.3-.1.4-.1c.1 0 .3 0 .4.1.1 0 .2.1.2.2.1.1.1.2.1.3 0 .1 0 .2-.1.3-.1.1-.2.2-.3.4-.2.1-.4.2-.6.4 0 0 .1.1.2.1s.2 0 .2 0c.1 0 .2 0 .3-.1 0 0 0 0 .1-.1zm-.6-1.1c-.1 0-.2.1-.3.1s-.1.1-.2.2-.1.2-.1.2c0 .1 0 .2 0 .2.2-.1.4-.1.5-.2.1-.1.2-.1.3-.2.1-.1.1-.1.1-.2s0-.1 0-.1c0-.1-.1-.1-.1-.1-.1.1-.1.1-.2.1zm4-3.9c.1.1.2.3.2.4s-.1.3-.2.4c-.1.1-.3.2-.5.2s-.3-.1-.4-.2-.2-.3-.2-.4.1-.3.2-.4.3-.2.4-.2c.2 0 .3 0 .5.2zm4.8 3.2c-.1.1-.1.2-.2.2s-.1 0-.2 0-.1 0-.2-.1c-.1 0-.1-.1-.1-.2l-.8-4.9c0-.1 0-.1.1-.2s.1-.1.2-.1.2 0 .2 0 .1.1.1.2l.7 4.1 2.1-4.1c.1-.1.1-.2.2-.2s.2 0 .2 0 .1.1.2.1 0 .1 0 .2l-2.5 5zm4.8.8c0 .1 0 .1 0 .1s-.1.1-.1.1c-.1 0-.1 0-.1 0s-.1 0-.1-.1-.1-.1-.2-.2-.1-.1-.2-.1c0 0-.1 0-.1 0-.1 0-.1 0-.1 0s-.1 0-.1.1-.1.1-.1.1c0 .1 0 .1 0 .1s0 .1.1.1c0 0 .1 0 .1.1.1 0 .1 0 .2 0s.2 0 .3.1c.1 0 .2.1.2.1.1.1.1.1.1.2s0 .2 0 .3c0 .1-.1.2-.1.3-.1.1-.2.1-.2.2-.1 0-.2.1-.3.1-.1 0-.2 0-.3 0-.1 0-.2 0-.2-.1-.1 0-.2-.1-.2-.1-.1 0-.1-.1-.2-.2 0-.1-.1-.2-.1-.3 0-.1 0-.1.1-.2s.1-.1.1-.1c.1 0 .1 0 .1 0s.1 0 .1.1 0 .1 0 .2c0 0 .1.1.1.1s.1 0 .1.1c.1 0 .1 0 .2 0s.2 0 .3 0c.1 0 .1-.1.2-.1 0-.1 0-.2-.1-.2s-.2-.1-.3-.1c-.1 0-.2 0-.3-.1-.1 0-.2-.1-.3-.1-.1 0-.1-.1-.2-.2 0-.1 0-.2 0-.3 0-.1.1-.2.1-.3.1-.1.1-.1.2-.2s.2-.1.3-.1.2 0 .3 0c.1 0 .3.1.4.1.2.2.3.3.3.5zm.2.6c0-.1.1-.3.1-.4.1-.1.1-.2.2-.3.1-.1.2-.2.3-.2.1-.1.2-.1.4-.1s.3 0 .4.1c.1.1.2.2.2.3 0 .1.1.3 0 .4 0 .2-.1.3-.1.4-.1.1-.1.2-.2.3-.1.1-.2.2-.3.2-.1.1-.2.1-.4.1s-.2 0-.4-.1-.3-.2-.4-.4.2-.1.2-.3zm.4 0c0 .1 0 .2 0 .4 0 .1.1.2.2.2s.2 0 .2 0c.1 0 .2-.1.2-.1.1-.1.1-.1.2-.2 0-.1.1-.2.1-.2 0-.1 0-.2 0-.2 0-.1 0-.1 0-.2s-.1-.1-.1-.1-.1-.1-.2-.1-.1 0-.2 0-.1.1-.2.1c-.1.1-.1.1-.1.2-.1 0-.1.1-.1.2zm1.7.7c0-.1 0-.2 0-.4s0-.4.1-.6.1-.5.1-.7c0-.2.1-.5.1-.7 0-.2.1-.4.1-.5s0-.2 0-.2c0-.1 0-.1.1-.1 0 0 .1 0 .1 0s.1 0 .1.1.1.1.1.2c-.1.5-.2.9-.2 1.2-.1.3-.1.6-.1.8 0 .2-.1.4-.1.5 0 .1 0 .2 0 .3 0 .1 0 .1 0 .1s0 0 .1 0c0 0 .1 0 .1-.1s.1-.1.1-.1.1 0 .1 0 .1 0 .1.1 0 .1 0 .1c0 .1 0 .1-.1.1-.1.1-.2.1-.2.2-.1 0-.2.1-.3.1-.1 0-.1 0-.2-.1s-.1-.2-.1-.3zm2.6-.1c-.2.1-.3.2-.5.3-.1 0-.2.1-.3.1-.2 0-.3 0-.4-.1s-.2-.2-.2-.4 0-.4 0-.6.1-.5.1-.8c0-.1 0-.1.1-.2.1 0 .1 0 .2 0s.1 0 .1 0 .1.1 0 .1c-.1.3-.1.6-.2.8 0 .2 0 .3 0 .4s.1.2.1.2.1 0 .1 0c.1 0 .2 0 .2 0 .1 0 .1-.1.2-.1.1-.1.1-.1.2-.2s.1-.1.1-.2l.3-.9c0-.1 0-.1.1-.1 0 0 .1 0 .2 0s.1 0 .1.1c0 0 0 .1 0 .1s0 .1 0 .1c0 .1 0 .2-.1.3 0 .1 0 .2-.1.4 0 .1 0 .2 0 .4 0 .1 0 .2 0 .3s0 .1.1.1c0 0 .1 0 .1-.1s.1-.1.1-.1.1 0 .1 0 .1 0 .1.1 0 .1 0 .1c0 .1 0 .1-.1.1-.1.1-.2.1-.2.2s-.2.1-.3.1c-.1 0-.1 0-.2-.1s0-.3 0-.4zm1.5.1c0-.1 0-.1 0-.2s0-.1 0-.2 0-.2.1-.4.1-.4.1-.7h-.4c-.1 0-.1 0-.1-.1s0-.1 0-.1c0-.1 0-.1.1-.1s.1-.1.1-.1h.5c0-.2.1-.3.1-.5s.1-.3.1-.4c0-.1 0-.2.1-.4 0-.1 0-.1.1-.1 0 0 .1 0 .1 0s.1 0 .1.1.1.1.1.2c0 .2-.1.4-.1.6 0 .2-.1.4-.1.5h.5c.1 0 .1 0 .1.1 0 0 0 .1 0 .2s0 .1-.1.1c0 0-.1.1-.2 0h-.6c0 .1 0 .2 0 .3 0 .1 0 .2 0 .2 0 .2-.1.4-.1.5 0 .1 0 .2 0 .3 0 .1 0 .1 0 .1s0 0 .1 0c0 0 .1 0 .1-.1.1 0 .1-.1.1-.1s.1 0 .1 0 .1 0 .1.1c0 0 0 .1 0 .1 0 .1 0 .1-.1.1-.1.1-.2.1-.3.2-.1 0-.2.1-.3.1-.1 0-.1 0-.2-.1s-.1-.1-.1-.2zm1.8-1.6c0-.1.1-.1.1-.1.1 0 .1 0 .2 0s.1 0 .1.1c0 0 0 .1 0 .1-.1.2-.1.3-.2.5 0 .2-.1.3-.1.5s0 .3 0 .4c0 .1.1.1.1.1s.1 0 .1-.1.1-.1.1-.1.1 0 .1 0 .1 0 .1.1 0 .1.1.1c0 0 0 .1 0 .1-.1.1-.1.2-.2.2-.1.1-.2.1-.3.1-.2 0-.3 0-.3-.1-.1-.1-.1-.2-.1-.3s0-.3 0-.4c0-.2 0-.3.1-.4s.1-.3.1-.4 0-.4 0-.4zm.1-.6c0-.1 0-.1.1-.2.1 0 .1-.1.2-.1s.1 0 .2.1c0 0 .1.1 0 .2 0 .1 0 .1-.1.2-.1 0-.1.1-.2.1s-.1 0-.2-.1c0-.1 0-.1 0-.2zm.9 1.5c0-.1.1-.3.1-.4.1-.1.1-.2.2-.3.1-.1.2-.2.3-.2.1-.1.2-.1.4-.1s.3 0 .4.1c.1.1.2.2.2.3 0 .1.1.3 0 .4 0 .2-.1.3-.1.4-.1.1-.1.2-.2.3-.1.1-.2.2-.3.2-.1.1-.2.1-.4.1s-.2 0-.4-.1-.3-.2-.4-.4.2-.1.2-.3zm.4 0c0 .1 0 .2 0 .4 0 .1.1.2.2.2s.2 0 .2 0c.1 0 .2-.1.2-.1.1-.1.1-.1.2-.2 0-.1.1-.2.1-.2 0-.1 0-.2 0-.2 0-.1 0-.1 0-.2s-.1-.1-.1-.1-.1-.1-.2-.1-.1 0-.2 0-.1.1-.2.1c-.1.1-.1.1-.1.2 0 0 0 .1-.1.2zm3.1.2c0-.2.1-.3.1-.4s0-.2 0-.3-.1-.1-.1-.1-.1 0-.1 0c-.1 0-.3 0-.4.1-.1.1-.2.2-.3.3l-.2 1c0 .1 0 .1-.1.1 0 0-.1.1-.1.1s-.1 0-.1 0-.1-.1-.1-.2l.3-1.7c0-.1 0-.1.1-.2 0 0 .1 0 .2 0s.1 0 .1 0 .1.1 0 .1v.1c.1-.1.2-.1.3-.2.1 0 .2-.1.3-.1.3 0 .4.1.5.3.1.2.1.6 0 1 0 .1 0 .1 0 .2 0 0 0 .1 0 .1s0 0 .1 0c0 0 .1 0 .1-.1 0 0 .1-.1.1-.1s.1 0 .1 0 .1 0 .1.1 0 .1 0 .1c0 .1 0 .1-.1.1-.1.1-.2.1-.2.2-.1 0-.2.1-.2.1s0 0-.1 0-.1 0-.2-.1c-.1 0-.1-.1-.1-.2-.1 0-.1-.1 0-.3zm-132-3.3c.1-.1.1-.2.2-.2s.2 0 .2 0c.1 0 .1.1.1.2s0 .2-.1.3c-.1.2-.2.4-.4.5-.1.2-.3.3-.5.4-.2.1-.3.2-.5.3s-.3.1-.5.1c-.3 0-.5-.1-.7-.2s-.4-.3-.5-.6-.2-.5-.3-.9 0-.7 0-1.1c.1-.4.2-.7.3-1.1s.4-.6.6-.9a1.88 1.88 0 011.5-.8c.4 0 .7.1.9.3s.4.5.5 1c0 .1 0 .1 0 .2s-.1.1-.2.2c-.1 0-.2.1-.3 0-.1 0-.1-.1-.2-.2-.1-.3-.2-.5-.3-.6s-.3-.2-.6-.2c-.2 0-.4.1-.5.2s-.3.3-.5.5c-.1.2-.3.4-.4.7-.1.3-.2.5-.2.8s-.1.5 0 .8c0 .2.1.4.2.6s.2.3.3.4.3.1.5.1.5-.1.7-.3.5-.2.7-.5zm3 2.3c0 .1 0 .1 0 .1s-.1.1-.1.1-.1 0-.1 0-.1 0-.1-.1-.1-.1-.2-.2-.1-.1-.2-.1c0 0-.1 0-.1 0-.1 0-.1 0-.1 0s-.1 0-.1.1c0 0-.1.1-.1.1 0 .1 0 .1 0 .1s0 .1.1.1c0 0 .1 0 .1.1.1 0 .1 0 .2 0s.2 0 .3.1.2.1.2.1c.1.1.1.1.1.2s0 .2 0 .3c0 .1-.1.2-.1.3-.1.1-.2.1-.2.2-.1 0-.2.1-.3.1-.1 0-.2 0-.3 0-.1 0-.2 0-.3-.1-.1 0-.2-.1-.2-.1-.1 0-.1-.1-.2-.2 0-.1-.1-.2-.1-.3 0-.1 0-.1.1-.2s.1-.1.1-.1c.1 0 .1 0 .1 0s.1 0 .1.1 0 .1 0 .2c0 0 .1.1.1.1s.1 0 .1.1.1 0 .2 0 .2 0 .3 0c.1 0 .1-.1.2-.1 0-.1 0-.2-.1-.2s-.2-.1-.3-.1c-.1 0-.2 0-.3-.1-.1 0-.2-.1-.3-.1-.1 0-.1-.1-.2-.2 0-.1 0-.2 0-.3 0-.1.1-.2.1-.3.1-.1.1-.1.2-.2s.2-.1.3-.1c.1 0 .2 0 .3 0 .1 0 .3.1.4.1.3.3.4.4.4.5zm.2.7c0-.1.1-.3.1-.4.1-.1.1-.2.2-.3.1-.1.2-.2.3-.2s.2-.1.4-.1.3 0 .4.1c.1.1.2.2.2.3 0 .1.1.3 0 .4 0 .2-.1.3-.1.4-.1.1-.1.2-.2.3-.1.1-.2.2-.3.2-.1.1-.2.1-.4.1s-.2 0-.4-.1-.3-.2-.4-.4.2-.1.2-.3zm.4 0c0 .1 0 .2 0 .4 0 .1.1.2.2.2s.2 0 .2 0c.1 0 .2-.1.2-.1.1-.1.1-.1.2-.2 0-.1.1-.2.1-.2 0-.1 0-.2 0-.2 0-.1 0-.1 0-.2s-.1-.1-.1-.1-.1-.1-.2-.1-.1 0-.2 0-.1.1-.2.1c-.1.1-.1.1-.1.2-.1 0-.1.1-.1.2zm3.2.6c-.2.1-.3.2-.4.3s-.2.1-.3.1c-.2 0-.3 0-.4-.1s-.2-.2-.2-.4 0-.4 0-.6c0-.2.1-.5.1-.8 0-.1 0-.1.1-.2s.1 0 .2 0 .1 0 .1 0 .1.1 0 .1c-.1.3-.1.6-.2.8s0 .3 0 .4.1.2.1.2.1 0 .1 0c.1 0 .2 0 .2 0 .1 0 .1-.1.2-.1s.1-.1.2-.2c0-.1.1-.1.1-.2l.3-.9c0-.1 0-.1.1-.1 0 0 .1 0 .2 0s.1 0 .1.1c0 0 0 .1 0 .1s0 .1 0 .1 0 .2-.1.3c0 .1 0 .2-.1.4 0 .1 0 .2 0 .4 0 .1 0 .2 0 .3s0 .1.1.1c0 0 .1 0 .1-.1 0 0 .1-.1.1-.1s.1 0 .1 0 .1 0 .1.1c0 0 0 .1 0 .1 0 .1 0 .1-.1.1-.1.1-.2.1-.2.2s-.2.1-.3.1c-.1 0-.1 0-.2-.1s-.1-.3-.1-.4zm2.7.1c-.1.1-.3.2-.4.2-.1 0-.3.1-.4.1s-.2 0-.4-.1-.2-.1-.3-.2c-.1-.1-.1-.2-.1-.3 0-.1 0-.2.1-.4s.2-.3.3-.5c.1-.1.3-.3.4-.3s.3-.2.5-.2c.2-.1.3-.1.5-.1 0-.1 0-.2.1-.4 0-.1.1-.3.1-.4 0-.1.1-.3.1-.4s0-.1 0-.2 0-.1.1-.1.1 0 .1 0 .1 0 .1.1c0 0 .1.1.1.2-.1.5-.2.9-.2 1.2-.1.3-.1.6-.1.8 0 .2-.1.4-.1.5 0 .1 0 .2 0 .3 0 .1 0 .1 0 .1s0 0 .1 0 .1-.1.2-.2c0 0 .1 0 .1 0s.1 0 .1.1c0 0 0 .1 0 .1 0 .1 0 .1-.1.1-.1.1-.2.1-.2.2-.1 0-.2.1-.3.1-.1 0-.1 0-.2-.1s-.2-.1-.2-.2zm-1.2-.6c0 .2 0 .3 0 .4.1.1.2.1.3.1.2 0 .3-.1.4-.2.1-.1.2-.2.3-.4l.1-.7c-.1 0-.3 0-.4.1s-.3.1-.4.2c-.1.1-.2.2-.3.3.1.1.1.1 0 .2zm3.9.3s.1-.1.1-.1.1 0 .2 0 .1.1.1.1 0 .1 0 .1c-.1.1-.2.2-.4.3-.1.1-.3.1-.4.1-.1 0-.3 0-.4-.1-.1 0-.3-.1-.4-.2-.1-.1-.2-.2-.3-.3-.1-.1-.1-.3-.1-.5 0-.1 0-.3.1-.4s.1-.2.2-.3c.1-.1.2-.2.3-.2.1-.1.3-.1.4-.1.1 0 .3 0 .4.1.1 0 .2.1.2.2.1.1.1.2.1.3 0 .1 0 .2-.1.3-.1.1-.2.2-.3.4-.2.1-.4.2-.6.4 0 0 .1.1.2.1s.2 0 .2 0c.1 0 .2 0 .3-.1.1 0 .1-.1.2-.1zm-.6-1.1c-.1 0-.2.1-.3.1s-.1.1-.2.2c0 .1-.1.2-.1.2 0 .1 0 .2 0 .2.2-.1.4-.1.5-.2s.2-.1.3-.2c.1-.1.1-.1.1-.2s0-.1 0-.1c0-.1-.1-.1-.1-.1-.1.1-.1.1-.2.1zm5-2.5c.1 0 .2.1.2.1 0 .1 0 .2 0 .2 0 .1-.1.2-.1.2-.1.1-.1.1-.2.1h-2.1c-.1 0-.2 0-.2-.1s0-.1 0-.2.1-.2.1-.2.1-.1.2-.1h2.1zm.2-1.2c.1 0 .2.1.2.1 0 .1 0 .2 0 .2 0 .1-.1.1-.1.2-.1.1-.1.1-.2.1h-2.1c-.1 0-.2 0-.2-.1s0-.1 0-.2.1-.2.1-.2c.1-.1.1-.1.2-.1h2.1zm6.5-5.7c.1-.3.1-.5.1-.7s0-.3-.1-.4c0-.1-.1-.2-.2-.2s-.1-.1-.2-.1c-.2 0-.4.1-.6.2-.2.1-.3.3-.4.5l-.3 1.5c0 .1-.1.2-.1.2s-.1.1-.2.1-.1 0-.2-.1-.1-.1-.1-.3l.5-2.6c0-.1.1-.2.1-.2s.2-.1.2-.1.2 0 .2.1.1.1.1.2v.2c.2-.1.3-.2.5-.3s.3-.1.4-.1c.4 0 .7.2.8.5.1.3.1.9 0 1.6 0 .1 0 .2 0 .3 0 .1 0 .1 0 .1s.1 0 .1 0 .1 0 .1 0 .1 0 .2-.1.1-.1.2-.2c.1 0 .1 0 .2 0s.1.1.2.1.1.1.1.2 0 .2-.1.2c-.1.1-.2.2-.4.3s-.2.1-.4.1c0 0-.1 0-.2 0s-.2-.1-.3-.1-.2-.2-.2-.4-.1-.2 0-.5zm3.6 1.9c0 .1 0 .1 0 .1s-.1.1-.1.1c-.1 0-.1 0-.1 0s-.1 0-.1-.1-.1-.1-.2-.2-.1-.1-.2-.1c0 0-.1 0-.1 0-.1 0-.1 0-.1 0s-.1 0-.1.1c0 0-.1.1-.1.1 0 .1 0 .1 0 .1s0 .1.1.1c0 0 .1 0 .1.1.1 0 .1 0 .2 0s.2 0 .3.1c.1 0 .2.1.2.1s.1.1.1.2 0 .2 0 .3c0 .1-.1.2-.1.3-.1.1-.2.1-.2.2-.1 0-.2.1-.3.1-.1 0-.2 0-.3 0-.1 0-.2 0-.2-.1-.1 0-.2-.1-.2-.1s-.1-.1-.2-.2c0-.1-.1-.2-.1-.3 0-.1 0-.1.1-.2s.1-.1.1-.1c.1 0 .1 0 .1 0s.1 0 .1.1 0 .1 0 .2c0 0 .1.1.1.1s.1 0 .1.1c.1 0 .1 0 .2 0s.2 0 .3 0c.1 0 .1-.1.2-.1 0-.1 0-.2-.1-.2s-.2-.1-.3-.1c-.1 0-.2 0-.3-.1-.1 0-.2-.1-.3-.1-.1 0-.1-.1-.2-.2 0-.1 0-.2 0-.3 0-.1.1-.2.1-.3s.1-.1.2-.2.2-.1.3-.1.2 0 .3 0c.1 0 .3.1.4.1.2.2.3.3.3.5zm.2.6c0-.1.1-.3.1-.4.1-.1.1-.2.2-.3.1-.1.2-.2.3-.2.1-.1.2-.1.4-.1s.3 0 .4.1.2.2.2.3c0 .1.1.3 0 .4 0 .2-.1.3-.1.4-.1.1-.1.2-.2.3-.1.1-.2.2-.3.3-.1.1-.2.1-.4.1s-.2 0-.4-.1-.3-.2-.4-.4c.2 0 .2-.2.2-.4zm.4 0c0 .1 0 .2 0 .4 0 .1.1.2.2.2s.2 0 .2 0c.1 0 .2-.1.2-.1.1-.1.1-.1.2-.2 0-.1.1-.2.1-.2 0-.1 0-.2 0-.2s0-.1 0-.2-.1-.1-.1-.1-.1-.1-.2-.1-.1 0-.2 0-.1.1-.2.1c-.1.1-.1.1-.1.2-.1 0-.1.1-.1.2zm3.1.7c-.2.1-.3.2-.5.3-.1 0-.2.1-.3.1-.2 0-.3 0-.4-.1s-.2-.2-.2-.4 0-.4 0-.6.1-.5.1-.8c0-.1 0-.1.1-.2.1 0 .1 0 .2 0s.1 0 .1 0 .1.1 0 .1c-.1.3-.1.6-.2.8 0 .2 0 .3 0 .4s.1.2.1.2.1 0 .1 0c.1 0 .2 0 .2 0 .1 0 .1-.1.2-.1.1-.1.1-.1.2-.2 0-.1.1-.1.1-.2l.3-.9c0-.1 0-.1.1-.1 0 0 .1 0 .2 0s.1 0 .1.1 0 .1 0 .1 0 .1 0 .1c0 .1 0 .2-.1.3 0 .1 0 .2-.1.4 0 .1 0 .2 0 .4 0 .1 0 .2 0 .3s0 .1.1.1c0 0 .1 0 .1-.1s.1-.1.1-.1.1 0 .1 0 .1 0 .1.1c0 0 0 .1 0 .1 0 .1 0 .1-.1.1-.1.1-.2.1-.2.2s-.2.1-.3.1c-.1 0-.1 0-.2-.1s.1-.3 0-.4zm2.7 0c-.1.1-.3.2-.4.2-.1 0-.3.1-.4.1-.1 0-.2 0-.4-.1-.1-.1-.2-.1-.3-.2s-.1-.2-.1-.3c0-.1 0-.2.1-.4s.2-.3.3-.5c.1-.1.3-.3.4-.4.2-.1.3-.2.5-.2s.3-.1.5-.1c0-.1 0-.2.1-.4s.1-.3.1-.4.1-.3.1-.4c0-.1 0-.1 0-.2s0-.1.1-.1.1 0 .1 0 .1 0 .1.1.1.1.1.2c-.1.5-.2.9-.2 1.2-.1.3-.1.6-.1.8 0 .2-.1.4-.1.5 0 .1 0 .2 0 .3 0 .1 0 .1 0 .1s0 0 .1 0 .1-.1.2-.2c0 0 .1 0 .1 0s.1 0 .1.1c0 0 0 .1 0 .1s0 .1-.1.1c-.1.1-.2.1-.2.2-.1 0-.2.1-.3.1-.1 0-.1 0-.2-.1-.1.1-.1 0-.2-.1zm-1.1-.6c0 .2 0 .3 0 .4s.2.1.3.1c.2 0 .3-.1.4-.2.1-.1.2-.2.3-.4l.1-.7c-.1 0-.3 0-.4.1-.1.1-.3.1-.4.2-.1.1-.2.2-.3.3s0 .2 0 .2zm3.9.3s.1-.1.1-.1c.1 0 .1 0 .2 0 0 0 .1.1.1.1s0 .1 0 .1c-.1.1-.2.2-.4.3s-.3.1-.4.1c-.1 0-.3 0-.4-.1-.1 0-.3-.1-.4-.2-.1-.1-.2-.2-.2-.3s-.1-.3-.1-.5c0-.1 0-.3.1-.4.1-.1.1-.2.2-.3.1-.1.2-.2.3-.2.1-.1.3-.1.4-.1.1 0 .3 0 .4.1s.2.1.2.2c.1.1.1.2.1.3 0 .1 0 .2-.1.3-.1.1-.2.2-.3.4-.2.1-.4.2-.6.4 0 0 .1.1.2.1s.2 0 .2 0c.1 0 .2 0 .3-.1-.1 0 0 0 .1-.1zm-.6-1.1c-.1 0-.2.1-.3.1s-.1.1-.2.2c0 .1-.1.2-.1.2 0 .1 0 .2 0 .2.2-.1.4-.1.5-.2.1-.1.2-.1.3-.2.1-.1.1-.1.1-.2s0-.1 0-.1c0-.1-.1-.1-.1-.1s-.2.1-.2.1zm-11.5 12.1c-.1.1-.1.2-.2.2s-.1 0-.2 0-.1 0-.2-.1-.1-.1-.1-.2l-.8-4.9c0-.1 0-.1.1-.2s.1-.1.2-.1.2 0 .2 0 .1.1.1.2l.7 4.1 2.1-4.1c.1-.1.1-.2.2-.2s.2 0 .2 0 .1.1.2.1 0 .1 0 .2l-2.5 5zm4.9.8c0 .1 0 .1 0 .1s-.1.1-.1.1c-.1 0-.1 0-.1 0s-.1 0-.1-.1-.1-.1-.2-.2-.1-.1-.2-.1c0 0-.1 0-.1 0-.1 0-.1 0-.1 0s-.1 0-.1.1c0 0-.1.1-.1.1 0 .1 0 .1 0 .1s0 .1.1.1c0 0 .1 0 .1.1.1 0 .1 0 .2 0s.2 0 .3.1c.1 0 .2.1.2.1s.1.1.1.2 0 .2 0 .3c0 .1-.1.2-.1.3-.1.1-.2.1-.2.2-.1 0-.2.1-.3.1-.1 0-.2 0-.3 0-.1 0-.2 0-.2-.1-.1 0-.2-.1-.2-.1s-.1-.1-.2-.2c0-.1-.1-.2-.1-.3 0-.1 0-.1.1-.2s.1-.1.1-.1c.1 0 .1 0 .1 0s.1 0 .1.1 0 .1 0 .2c0 0 .1.1.1.1s.1 0 .1.1c.1 0 .1 0 .2 0s.2 0 .3 0c.1 0 .1-.1.2-.1 0-.1 0-.2-.1-.2s-.2-.1-.3-.1c-.1 0-.2 0-.3-.1-.1 0-.2-.1-.3-.1-.1 0-.1-.1-.2-.2 0-.1 0-.2 0-.3 0-.1.1-.2.1-.3s.1-.1.2-.2.2-.1.3-.1.2 0 .3 0c.1 0 .3.1.4.1.1.3.2.4.3.5zm.2.6c0-.1.1-.3.1-.4.1-.1.1-.2.2-.3.1-.1.2-.2.3-.2.1-.1.2-.1.4-.1s.3 0 .4.1.2.2.2.3c0 .1.1.3 0 .4 0 .2-.1.3-.1.4-.1.1-.1.2-.2.3-.1.1-.2.2-.3.3-.1.1-.2.1-.4.1s-.2 0-.4-.1-.3-.2-.4-.4c.1 0 .1-.2.2-.4zm.3 0c0 .1 0 .2 0 .4 0 .1.1.2.2.2s.2 0 .2 0c.1 0 .2-.1.2-.1.1-.1.1-.1.2-.2 0-.1.1-.2.1-.2 0-.1 0-.2 0-.2s0-.1 0-.2-.1-.1-.1-.1-.1-.1-.2-.1-.1 0-.2 0-.1.1-.2.1c-.1.1-.1.1-.1.2s0 .1-.1.2zm1.7.8c0-.1 0-.2 0-.4s0-.4.1-.6.1-.5.1-.7c0-.2.1-.5.1-.7 0-.2.1-.4.1-.5s0-.2 0-.2c0-.1 0-.1.1-.1 0 0 .1 0 .1 0s.1 0 .1.1.1.1.1.2c-.1.5-.2.9-.2 1.2-.1.3-.1.6-.1.8 0 .2-.1.4-.1.5 0 .1 0 .2 0 .3 0 .1 0 .1 0 .1s0 0 .1 0c0 0 .1 0 .1-.1s.1-.1.1-.1.1 0 .1 0 .1 0 .1.1c0 0 0 .1 0 .1s0 .1-.1.1c-.1.1-.2.1-.2.2-.1 0-.2.1-.3.1-.1 0-.1 0-.2-.1 0-.2-.1-.2-.1-.3zm2.7-.1c-.2.1-.3.2-.5.3-.1 0-.2.1-.3.1-.2 0-.3 0-.4-.1s-.2-.2-.2-.4 0-.4 0-.6.1-.5.1-.8c0-.1 0-.1.1-.2.1 0 .1 0 .2 0s.1 0 .1 0 .1.1 0 .1c-.1.3-.1.6-.2.8 0 .2 0 .3 0 .4s.1.2.1.2.1 0 .1 0c.1 0 .2 0 .2 0 .1 0 .1-.1.2-.1.1-.1.1-.1.2-.2 0-.1.1-.1.1-.2l.3-.9c0-.1 0-.1.1-.1 0 0 .1 0 .2 0s.1 0 .1.1 0 .1 0 .1 0 .1 0 .1c0 .1 0 .2-.1.3 0 .1 0 .2-.1.4 0 .1 0 .2 0 .4 0 .1 0 .2 0 .3s0 .1.1.1c0 0 .1 0 .1-.1s.1-.1.1-.1.1 0 .1 0 .1 0 .1.1c0 0 0 .1 0 .1 0 .1 0 .1-.1.1-.1.1-.2.1-.2.2s-.2.1-.3.1c-.1 0-.1 0-.2-.1s0-.3 0-.4zm1.5.1c0-.1 0-.1 0-.2s0-.1 0-.2 0-.2.1-.4c0-.2.1-.4.1-.7h-.4c-.1 0-.1 0-.1-.1 0 0 0-.1 0-.1 0-.1 0-.1.1-.1 0 0 .1-.1.1-.1h.5c0-.2.1-.3.1-.5 0-.1.1-.3.1-.4 0-.1 0-.2.1-.4 0-.1 0-.1.1-.1 0 0 .1 0 .1 0s.1 0 .1.1.1.1.1.2c0 .2-.1.4-.1.6 0 .2-.1.4-.1.5h.5c.1 0 .1 0 .1.1s0 .1 0 .2 0 .1-.1.1-.1.1-.2 0h-.5c0 .1 0 .2 0 .3s0 .2 0 .2c0 .2-.1.4-.1.5 0 .1 0 .2 0 .3 0 .1 0 .1 0 .1s0 0 .1 0c0 0 .1 0 .1-.1.1 0 .1-.1.1-.1s.1 0 .1 0 .1 0 .1.1c0 0 0 .1 0 .1 0 .1 0 .1-.1.1-.1.1-.2.1-.3.2s-.2.1-.3.1c-.1 0-.1 0-.2-.1-.2 0-.2-.1-.2-.2zm1.7-1.7c0-.1.1-.1.1-.1.1 0 .1 0 .2 0s.1 0 .1.1 0 .1 0 .1c-.1.2-.1.3-.2.5 0 .2-.1.3-.1.5s0 .3 0 .4c0 .1.1.1.1.1s.1 0 .1-.1c0 0 .1-.1.1-.1s.1 0 .1 0 .1 0 .1.1 0 .1.1.1c0 0 0 .1 0 .1-.1.1-.1.2-.2.2-.1.1-.2.1-.3.1-.2 0-.3 0-.3-.1-.1-.1-.1-.2-.1-.3 0-.1 0-.3 0-.4 0-.2 0-.3.1-.4 0-.1.1-.3.1-.4 0-.3 0-.3 0-.4zm.2-.6c0-.1 0-.1.1-.2.1 0 .1-.1.2-.1s.1 0 .2.1.1.1 0 .2c0 .1 0 .1-.1.2s-.1.1-.2.1-.1 0-.2-.1c0 0 0-.1 0-.2zm.9 1.5c0-.1.1-.3.1-.4.1-.1.1-.2.2-.3.1-.1.2-.2.3-.2.1-.1.2-.1.4-.1s.3 0 .4.1.2.2.2.3c0 .1.1.3 0 .4 0 .2-.1.3-.1.4-.1.1-.1.2-.2.3-.1.1-.2.2-.3.3-.1.1-.2.1-.4.1s-.2 0-.4-.1-.3-.2-.4-.4c.2 0 .2-.2.2-.4zm.4 0c0 .1 0 .2 0 .4 0 .1.1.2.2.2s.2 0 .2 0c.1 0 .2-.1.2-.1.1-.1.1-.1.2-.2 0-.1.1-.2.1-.2 0-.1 0-.2 0-.2s0-.1 0-.2-.1-.1-.1-.1-.1-.1-.2-.1-.1 0-.2 0-.1.1-.2.1c-.1.1-.1.1-.1.2-.1.1-.1.1-.1.2zm3.1.2c0-.2.1-.3.1-.4 0-.1 0-.2 0-.3 0-.1-.1-.1-.1-.1s-.1 0-.1 0c-.1 0-.3 0-.4.1-.1.1-.2.2-.3.3l-.2 1c0 .1 0 .1-.1.1 0 0-.1.1-.1.1s-.1 0-.1 0-.1-.1-.1-.2l.3-1.7c0-.1 0-.1.1-.2 0 0 .1 0 .2 0s.1 0 .1 0 .1.1 0 .1v.1c.1-.1.2-.1.3-.2.1 0 .2-.1.3-.1.3 0 .4.1.5.3s.1.6 0 1c0 .1 0 .1 0 .2 0 0 0 .1 0 .1s0 0 .1 0c0 0 .1 0 .1-.1 0 0 .1-.1.1-.1s.1 0 .1 0 .1 0 .1.1c0 0 0 .1 0 .1s0 .1-.1.1c-.1.1-.2.1-.2.2-.1 0-.2.1-.2.1s0 0-.1 0-.1 0-.2-.1-.1-.1-.1-.2c-.1.1-.1-.1 0-.3zm1.3-8.6h-22.4c-.2 0-.4-.2-.4-.4s.2-.4.4-.4h22.4c.2 0 .4.2.4.4s-.2.4-.4.4z"
     class="st0"
     id="path4" />
  <path
     fill="#fff"
     d="M321.6 68.1H210.2c-2.9 0-5.2-2.3-5.2-5.2v-7.4c0-2.9 2.3-5.2 5.2-5.2h111.4c2.9 0 5.2 2.3 5.2 5.2v7.4c0 2.9-2.3 5.2-5.2 5.2z"
     id="path6" />
  <path
     fill="#7bd3ce"
     d="M321.6 68.4H210.2c-3 0-5.4-2.4-5.4-5.4v-7.4c0-3 2.4-5.4 5.4-5.4h111.4c3 0 5.4 2.4 5.4 5.4V63c.1 2.9-2.4 5.4-5.4 5.4zM210.2 50.6a4.9 4.9 0 00-4.9 4.9v7.4c0 2.7 2.2 4.9 4.9 4.9h111.4c2.7 0 4.9-2.2 4.9-4.9v-7.4c0-2.7-2.2-4.9-4.9-4.9H210.2z"
     id="path8" />
  <path
     d="M217.9 59.8c.1-.3.1-.5.1-.7s0-.3-.1-.4c0-.1-.1-.2-.2-.2s-.1-.1-.2-.1c-.2 0-.4.1-.6.2s-.3.3-.4.5c0 .2 0 .5-.1.7 0 .3-.1.5-.1.8 0 .1-.1.2-.1.2-.1 0-.2.1-.2.1s-.2 0-.2-.1c-.1 0-.1-.1-.1-.2.1-.5.2-.9.2-1.2s0-.5 0-.7-.1-.3-.2-.3-.1-.1-.2-.1-.2 0-.4.1-.2.1-.3.2c-.1.1-.2.2-.2.3s-.1.2-.1.4l-.2 1.2c0 .1-.1.2-.1.2-.1.1-.2.1-.2.1-.1 0-.2 0-.2-.1s-.1-.1-.1-.3l.5-2.6c0-.1.1-.2.1-.2.1 0 .2-.1.2-.1s.2 0 .2.1c.1 0 .1.1.1.2v.1c.1-.1.3-.2.5-.2s.3-.1.5-.1.4 0 .6.1c.1.1.2.2.3.4.1-.1.2-.2.3-.3.1-.1.2-.1.3-.2s.2-.1.3-.1c.1 0 .2 0 .3 0 .4 0 .7.2.8.5s.1.9 0 1.6c0 .1 0 .2 0 .3s0 .1 0 .1.1 0 .1 0 .1 0 .1 0 .1 0 .2-.1.1-.1.2-.2c.1 0 .1 0 .2 0s.1.1.2.1c0 .1.1.1.1.2s0 .2-.1.2c-.1.1-.2.2-.4.3s-.2.1-.4.1c0 0-.1 0-.2 0s-.2-.1-.3-.1-.2-.2-.2-.4-.4 0-.3-.3zm3.6 1.9c0 .1 0 .1 0 .1s-.1.1-.1.1c-.1 0-.1 0-.1 0s-.1 0-.1-.1-.1-.1-.2-.2-.1-.1-.2-.1c0 0-.1 0-.1 0-.1 0-.1 0-.1 0s-.1 0-.1.1c0 0-.1.1-.1.1 0 .1 0 .1 0 .1s0 .1.1.1c0 0 .1 0 .1.1.1 0 .1 0 .2 0s.2 0 .3.1c.1 0 .2.1.2.1.1.1.1.1.1.2s0 .2 0 .3c0 .1-.1.2-.1.3-.1.1-.2.1-.2.2-.1 0-.2.1-.3.1-.1 0-.2 0-.3 0-.1 0-.2 0-.3-.1-.1 0-.2-.1-.2-.1-.1 0-.1-.1-.2-.2 0-.1-.1-.2-.1-.3 0-.1 0-.1.1-.2s.1-.1.1-.1c.1 0 .1 0 .1 0s.1 0 .1.1 0 .1 0 .2c0 0 .1.1.1.1s.1 0 .1.1c.1 0 .1 0 .2 0s.2 0 .3 0c.1 0 .1-.1.2-.1 0-.1 0-.2-.1-.2s-.2-.1-.3-.1c-.1 0-.2 0-.3-.1-.1 0-.2-.1-.3-.1-.1 0-.1-.1-.2-.2 0-.1 0-.2 0-.3 0-.1.1-.2.1-.3.1-.1.1-.1.2-.2s.2-.1.3-.1c.1 0 .2 0 .3 0 .1 0 .3.1.4.1s.3.3.4.5zm.1.6c0-.1.1-.3.1-.4.1-.1.1-.2.2-.3.1-.1.2-.2.3-.2.1-.1.2-.1.4-.1s.3 0 .4.1c.1.1.2.2.2.3 0 .1.1.3 0 .4 0 .2-.1.3-.1.4-.1.1-.1.2-.2.3-.1.1-.2.2-.3.2-.1.1-.2.1-.3.1-.1 0-.2 0-.4-.1s-.3-.2-.4-.4.1-.1.1-.3zm.4 0c0 .1 0 .2 0 .4 0 .1.1.2.2.2s.2 0 .2 0c.1 0 .2-.1.2-.1.1-.1.1-.1.2-.2 0-.1.1-.2.1-.2 0-.1 0-.2 0-.2 0-.1 0-.1 0-.2s-.1-.1-.1-.1-.1-.1-.2-.1-.1 0-.2 0-.1.1-.2.1c-.1.1-.1.1-.1.2 0 0-.1.1-.1.2zm3.2.7c-.2.1-.3.2-.4.3-.1 0-.2.1-.3.1-.2 0-.3 0-.4-.1s-.2-.2-.2-.4 0-.4 0-.6c0-.2.1-.5.1-.8 0-.1 0-.1.1-.2.1 0 .1 0 .2 0s.1 0 .1 0 .1.1 0 .1c-.1.3-.1.6-.2.8 0 .2 0 .3 0 .4 0 .1.1.2.1.2s.1 0 .1 0c.1 0 .2 0 .2 0s.1-.1.2-.1.1-.1.2-.2.1-.1.1-.2l.3-.9c0-.1 0-.1.1-.1 0 0 .1 0 .2 0s.1 0 .1.1c0 0 0 .1 0 .1s0 .1 0 .1c0 .1 0 .2-.1.3 0 .1 0 .2-.1.4 0 .1 0 .2 0 .4s0 .2 0 .3 0 .1.1.1c0 0 .1 0 .1-.1 0 0 .1-.1.1-.1s.1 0 .1 0 .1 0 .1.1c0 0 0 .1 0 .1 0 .1 0 .1-.1.1-.1.1-.2.1-.2.2-.1 0-.2.1-.3.1-.1 0-.1 0-.2-.1s-.1-.3-.1-.4zm2.7 0c-.1.1-.3.2-.4.2-.1 0-.3.1-.4.1s-.2 0-.4-.1-.2-.1-.3-.2c-.1-.1-.1-.2-.1-.3 0-.1 0-.2.1-.4s.2-.3.3-.5c.1-.1.3-.3.4-.3.2-.1.3-.2.5-.2.2-.1.3-.1.5-.1 0-.1 0-.2.1-.4 0-.1.1-.3.1-.4s.1-.3.1-.4c0-.1 0-.1 0-.2s0-.1.1-.1c0 0 .1 0 .1 0s.1 0 .1.1c0 0 .1.1.1.2-.1.5-.2.9-.2 1.2-.1.3-.1.6-.1.8 0 .2-.1.4-.1.5 0 .1 0 .2 0 .3 0 .1 0 .1 0 .1s0 0 .1 0 .1-.1.2-.2c0 0 .1 0 .1 0s.1 0 .1.1c0 0 0 .1 0 .1 0 .1 0 .1-.1.1-.1.1-.2.1-.2.2-.1 0-.2.1-.3.1-.1 0-.1 0-.2-.1s-.2-.1-.2-.2zm-1.1-.5c0 .2 0 .3 0 .4.1.1.2.1.3.1.2 0 .3-.1.4-.2.1-.1.2-.2.3-.4l.1-.7c-.1 0-.3 0-.4.1s-.3.1-.4.2c-.1.1-.2.2-.3.3 0 0 0 .1 0 .2zm3.8.2s.1-.1.1-.1c.1 0 .1 0 .2 0 0 0 .1.1.1.1s0 .1 0 .1c-.1.1-.2.2-.4.3s-.3.1-.4.1c-.1 0-.3 0-.4-.1-.1 0-.3-.1-.4-.2-.1-.1-.2-.2-.2-.3-.1-.1-.1-.3-.1-.5 0-.1 0-.3.1-.4.1-.1.1-.2.2-.3s.2-.2.3-.2.3-.1.4-.1c.1 0 .3 0 .4.1.1 0 .2.1.2.2.1.1.1.2.1.3 0 .1 0 .2-.1.3-.1.1-.2.2-.3.4-.2.1-.4.2-.6.4 0 0 .1.1.2.1s.2 0 .2 0c.1 0 .2 0 .3-.1 0 0 .1 0 .1-.1zm-.6-1.1c-.1 0-.2.1-.3.1s-.1.1-.2.2-.1.2-.1.2c0 .1 0 .2 0 .2.2-.1.4-.1.5-.2.1-.1.2-.1.3-.2.1-.1.1-.1.1-.2s0-.1 0-.1c0-.1-.1-.1-.1-.1 0 .1-.1.1-.2.1zm6-2.5c.1 0 .2.1.2.1 0 .1 0 .2 0 .2 0 .1-.1.2-.1.2-.1.1-.1.1-.2.1h-2.1c-.1 0-.2 0-.2-.1s0-.1 0-.2.1-.2.1-.2.1-.1.2-.1h2.1zm.2-1.1c.1 0 .2.1.2.1 0 .1 0 .2 0 .2 0 .1-.1.1-.1.2-.1.1-.1.1-.2.1H234c-.1 0-.2 0-.2-.1s0-.1 0-.2.1-.2.1-.2c.1-.1.1-.1.2-.1h2.1zm4.2-1l-.7 3.8c0 .1-.1.2-.1.2-.1 0-.2.1-.2.1s-.1 0-.2-.1c-.1 0-.1-.1-.1-.2l.8-5c0-.1 0-.1.1-.2s.1-.1.2-.1.1 0 .2 0 .1.1.2.1l1.3 2.1 2.1-2.2c.1-.1.1-.1.2-.1s.2 0 .2 0c.1 0 .1 0 .2.1 0 0 .1.1.1.2l-.8 4.9c0 .1-.1.2-.1.2-.1 0-.2.1-.2.1s-.2 0-.2-.1c-.1 0-.1-.1-.1-.2l.7-4-1.7 1.9c0 .1-.1.1-.2.1s-.1 0-.2 0-.1 0-.2-.1-.1-.1-.1-.1l-1.2-1.4zm6.5 4c.1 0 .2.1.2.1 0 .1 0 .2 0 .2s-.1.2-.1.2-.2.1-.2.1c-.3-.1-.6-.2-.8-.4s-.4-.4-.5-.7c-.1-.3-.2-.6-.2-1s0-.8.1-1.3c.1-.4.2-.7.4-1.1s.3-.7.6-1 .5-.6.8-.8c.3-.2.6-.4 1-.5.1 0 .2 0 .2.1s.1.1.1.2 0 .2-.1.3-.1.1-.3.2c-.3.1-.6.2-.8.4s-.4.4-.6.7c-.2.2-.3.5-.4.8s-.2.6-.2.8c-.1.4-.1.7-.1 1s.1.6.1.8.2.4.3.6.4.3.5.3zm2.7-4l-.6 3.7c0 .1-.1.2-.1.2-.1 0-.2.1-.2.1s-.1 0-.2-.1c-.1 0-.1-.1-.1-.2l.8-5c0-.1.1-.2.1-.2.1 0 .1-.1.2-.1s.2 0 .2 0c.1 0 .1.1.1.1l1.6 3.8.6-3.7c0-.1.1-.2.2-.2s.2-.1.2-.1.2 0 .2.1.1.1.1.2l-.9 4.9c0 .1 0 .1-.1.2-.1 0-.1.1-.2.1s-.1 0-.2 0-.1-.1-.1-.1l-1.6-3.7zm5.1 3.7c-.2.1-.4.2-.5.3-.2 0-.4.1-.5.1-.2 0-.3-.1-.5-.1s-.3-.2-.3-.3-.1-.3-.1-.4c0-.2 0-.4.1-.6.1-.3.3-.5.5-.7.2-.2.4-.4.6-.5.2-.1.5-.3.7-.3s.5-.1.8-.1c.1 0 .3 0 .3.1s.1.2.1.4 0 .4-.1.6c0 .2-.1.4-.1.6 0 .1-.1.2-.1.3 0 .1-.1.2-.1.3s0 .2 0 .2.1 0 .3 0c.1-.1.2-.1.3-.3.1 0 .1 0 .2 0s.1.1.2.1c0 .1.1.1.1.2s0 .2-.1.2c-.1.1-.2.2-.4.3-.1.1-.3.1-.4.1s-.3 0-.4-.1-.5-.3-.6-.4zm-1.3-1c0 .1 0 .2 0 .3s0 .2.1.3.1.1.2.2.2 0 .3 0c.2 0 .3-.1.5-.3s.3-.3.4-.5c.1-.2.2-.4.2-.6.1-.2.1-.4.1-.6-.2 0-.5.1-.7.2-.2.1-.4.2-.5.3s-.3.3-.4.4c-.1.1-.2.2-.2.3zm3.7-1.4c.1-.4.2-.7.3-1.1s.3-.6.6-.9c.2-.3.5-.5.7-.6s.5-.2.8-.2.5.1.7.2.4.3.5.6c.1.3.2.6.3.9s0 .7 0 1.1c-.1.4-.2.7-.3 1.1-.2.3-.3.6-.6.9-.2.2-.5.4-.7.6s-.5.2-.8.2-.5-.1-.7-.2-.4-.3-.5-.6c-.1-.2-.2-.5-.3-.9-.1-.4-.1-.7 0-1.1zm.6.1c0 .3-.1.5 0 .8 0 .2.1.4.2.6.1.2.2.3.3.4.1.1.3.2.5.2s.3-.1.5-.2.3-.2.5-.4c.1-.2.3-.4.4-.6.1-.2.2-.5.2-.8s.1-.5 0-.8c0-.3-.1-.5-.2-.7-.1-.2-.2-.4-.3-.5-.1-.1-.3-.2-.5-.2s-.3.1-.5.2-.3.3-.5.5c-.1.2-.3.4-.4.7-.1.2-.2.5-.2.8zm7 .1h-2.2l-.4 2.2c0 .1-.1.2-.1.2-.1 0-.2.1-.2.1s-.1 0-.2-.1c-.1 0-.1-.1-.1-.2l.8-4.9c0-.1.1-.2.2-.2s.2 0 .3 0c.1 0 .2.1.2.1.1.1.1.1 0 .2l-.3 1.9h2.2l.3-2c0-.1.1-.2.2-.2s.2-.1.2 0 .1 0 .2.1.1.1 0 .2l-.8 4.8c0 .1-.1.2-.1.2-.1 0-.2.1-.2.1s-.2 0-.2-.1c-.1 0-.1-.1-.1-.2l.3-2.2zm1.8 2.5c.2 0 .4-.1.5-.2s.4-.3.5-.6.3-.5.4-.8c.1-.3.2-.7.3-1 0-.3.1-.5.1-.8s0-.5-.1-.8c-.1-.2-.2-.5-.3-.7s-.4-.3-.7-.4c-.1 0-.2-.1-.2-.2s0-.2 0-.3c0-.1.1-.2.1-.2.1-.1.1-.1.2-.1.3.1.6.2.9.5.2.2.4.5.5.8s.2.6.2 1 0 .7 0 1.1c-.1.5-.2.9-.3 1.3-.1.4-.3.7-.6 1a3.55 3.55 0 01-1.7 1.1c-.1 0-.2 0-.2-.1s-.1-.1-.1-.2 0-.2.1-.3.3-.1.4-.1zm6.4-3.3c.1.1.2.3.2.4s-.1.3-.2.4c-.1.1-.3.2-.5.2s-.3-.1-.4-.2-.2-.3-.2-.4.1-.3.2-.4.3-.2.4-.2c.2 0 .4.1.5.2zm5.6 2.2c.1-.1.1-.1.2-.1s.2 0 .2.1c.1 0 .1.1.1.2s0 .2-.1.3c-.2.2-.4.4-.7.6-.3.1-.5.2-.8.2-.2 0-.4 0-.6-.1-.2-.1-.3-.2-.4-.3-.1-.1-.2-.3-.2-.5s0-.4 0-.6c0-.2.1-.4.2-.6.1-.2.3-.4.4-.5s.3-.3.5-.3c.2-.1.4-.1.6-.1.4 0 .6.1.8.3s.3.3.4.6c0 .1 0 .1-.1.2s-.1.1-.2.1-.2 0-.2 0-.1 0-.1-.1c-.1-.2-.1-.3-.3-.3s-.3-.1-.4-.1c-.1 0-.2 0-.4.1-.1 0-.2.1-.3.2-.1.1-.2.2-.2.3-.1.1-.1.2-.1.4s0 .2 0 .4.1.2.1.3c.1.1.1.2.2.2s.2.1.3.1c.2 0 .3 0 .5-.1s.5-.7.6-.9zm3 1.8c0 .1 0 .1 0 .1s-.1.1-.1.1c-.1 0-.1 0-.1 0s-.1 0-.1-.1-.1-.1-.2-.2-.1-.1-.2-.1c0 0-.1 0-.1 0-.1 0-.1 0-.1 0s-.1 0-.1.1-.1.1-.1.1c0 .1 0 .1 0 .1s0 .1.1.1c0 0 .1 0 .1.1.1 0 .1 0 .2 0s.2 0 .3.1c.1 0 .2.1.2.1.1.1.1.1.1.2s0 .2 0 .3c0 .1-.1.2-.1.3-.1.1-.2.1-.2.2-.1 0-.2.1-.3.1-.1 0-.2 0-.3 0-.1 0-.2 0-.2-.1-.1 0-.2-.1-.2-.1-.1 0-.1-.1-.2-.2 0-.1-.1-.2-.1-.3 0-.1 0-.1.1-.2s.1-.1.1-.1c.1 0 .1 0 .1 0s.1 0 .1.1 0 .1 0 .2c0 0 .1.1.1.1s.1 0 .1.1c.1 0 .1 0 .2 0s.2 0 .3 0c.1 0 .1-.1.2-.1 0-.1 0-.2-.1-.2s-.2-.1-.3-.1c-.1 0-.2 0-.3-.1-.1 0-.2-.1-.3-.1-.1 0-.1-.1-.2-.2 0-.1 0-.2 0-.3 0-.1.1-.2.1-.3.1-.1.1-.1.2-.2s.2-.1.3-.1.2 0 .3 0c.1 0 .3.1.4.1.1.2.2.3.3.5zm.2.6c0-.1.1-.3.1-.4.1-.1.1-.2.2-.3.1-.1.2-.2.3-.2.1-.1.2-.1.4-.1s.3 0 .4.1c.1.1.2.2.2.3 0 .1.1.3 0 .4 0 .2-.1.3-.1.4-.1.1-.1.2-.2.3-.1.1-.2.2-.3.2-.1.1-.2.1-.4.1s-.2 0-.4-.1-.3-.2-.4-.4.1-.1.2-.3zm.4 0c0 .1 0 .2 0 .4 0 .1.1.2.2.2s.2 0 .2 0c.1 0 .2-.1.2-.1.1-.1.1-.1.2-.2 0-.1.1-.2.1-.2 0-.1 0-.2 0-.2 0-.1 0-.1 0-.2s-.1-.1-.1-.1-.1-.1-.2-.1-.1 0-.2 0-.1.1-.2.1c-.1.1-.1.1-.1.2-.1 0-.1.1-.1.2zm3.1.7c-.2.1-.3.2-.5.3-.1 0-.2.1-.3.1-.2 0-.3 0-.4-.1s-.2-.2-.2-.4 0-.4 0-.6.1-.5.1-.8c0-.1 0-.1.1-.2.1 0 .1 0 .2 0s.1 0 .1 0 .1.1 0 .1c-.1.3-.1.6-.2.8 0 .2 0 .3 0 .4s.1.2.1.2.1 0 .1 0c.1 0 .2 0 .2 0 .1 0 .1-.1.2-.1.1-.1.1-.1.2-.2s.1-.1.1-.2l.3-.9c0-.1 0-.1.1-.1 0 0 .1 0 .2 0s.1 0 .1.1c0 0 0 .1 0 .1s0 .1 0 .1c0 .1 0 .2-.1.3 0 .1 0 .2-.1.4 0 .1 0 .2 0 .4 0 .1 0 .2 0 .3s0 .1.1.1c0 0 .1 0 .1-.1s.1-.1.1-.1.1 0 .1 0 .1 0 .1.1 0 .1 0 .1c0 .1 0 .1-.1.1-.1.1-.2.1-.2.2s-.2.1-.3.1c-.1 0-.1 0-.2-.1s0-.3 0-.4zm2.7 0c-.1.1-.3.2-.4.2-.1 0-.3.1-.4.1s-.2 0-.4-.1c-.1-.1-.2-.1-.3-.2-.1-.1-.1-.2-.1-.3 0-.1 0-.2.1-.4s.2-.3.3-.5c.1-.1.3-.3.4-.3.2-.1.3-.2.5-.2.2-.1.3-.1.5-.1 0-.1 0-.2.1-.4 0-.1.1-.3.1-.4s.1-.3.1-.4c0-.1 0-.1 0-.2s0-.1.1-.1.1 0 .1 0 .1 0 .1.1.1.1.1.2c-.1.5-.2.9-.2 1.2-.1.3-.1.6-.1.8 0 .2-.1.4-.1.5 0 .1 0 .2 0 .3 0 .1 0 .1 0 .1s0 0 .1 0 .1-.1.2-.2c0 0 .1 0 .1 0s.1 0 .1.1c0 0 0 .1 0 .1 0 .1 0 .1-.1.1-.1.1-.2.1-.2.2-.1 0-.2.1-.3.1-.1 0-.1 0-.2-.1s-.2-.1-.2-.2zm-1.1-.5c0 .2 0 .3 0 .4s.2.1.3.1c.2 0 .3-.1.4-.2s.2-.2.3-.4l.1-.7c-.1 0-.3 0-.4.1-.1.1-.3.1-.4.2-.1.1-.2.2-.3.3.1 0 0 .1 0 .2zm3.9.2s.1-.1.1-.1c.1 0 .1 0 .2 0s.1.1.1.1 0 .1 0 .1c-.1.1-.2.2-.4.3s-.3.1-.4.1c-.1 0-.3 0-.4-.1-.1 0-.3-.1-.4-.2-.1-.1-.2-.2-.2-.3s-.1-.3-.1-.5c0-.1 0-.3.1-.4s.1-.2.2-.3.2-.2.3-.2.3-.1.4-.1c.1 0 .3 0 .4.1s.2.1.2.2c.1.1.1.2.1.3 0 .1 0 .2-.1.3-.1.1-.2.2-.3.4-.2.1-.4.2-.6.4 0 0 .1.1.2.1s.2 0 .2 0c.1 0 .2 0 .3-.1-.1 0 0 0 .1-.1zm-.6-1.1c-.1 0-.2.1-.3.1s-.1.1-.2.2-.1.2-.1.2c0 .1 0 .2 0 .2.2-.1.4-.1.5-.2.1-.1.2-.1.3-.2.1-.1.1-.1.1-.2s0-.1 0-.1c0-.1-.1-.1-.1-.1-.1.1-.2.1-.2.1zm4.4-2.1c0 .1.1.2.2.3 0 .1.1.2.2.3.1.1.1.1.2.2s.1.1.2.1.2 0 .3-.1c.1 0 .2-.1.2-.2 0 0 .1 0 .2 0s.1.1.2.1.1.1.1.2 0 .2-.1.2c-.1.1-.2.2-.4.3-.1.1-.3.1-.5.1s-.3 0-.4-.1-.2-.1-.3-.2-.2-.2-.3-.3c-.1-.1-.2-.3-.2-.4l-.9.9c0 .1-.1.1-.2.1s-.2 0-.2-.1-.1-.1-.1-.2 0-.2.1-.3l1-1.1-.6-1.2c0-.1 0-.2.1-.3s.1-.1.2-.1.2 0 .3 0 .1.1.1.1l.5.9.8-.9c0-.1.1-.1.2-.1s.2 0 .2 0c.1 0 .1.1.2.1s0 .2 0 .3l-1.3 1.4zm5.8 1.4c-.1.1-.1.2-.2.2s-.1 0-.2 0-.1 0-.2-.1c-.1 0-.1-.1-.1-.2l-.8-4.9c0-.1 0-.1.1-.2s.1-.1.2-.1.2 0 .2 0 .1.1.1.2l.7 4.1 2.1-4.1c.1-.1.1-.2.2-.2s.2 0 .2 0 .1.1.2.1 0 .1 0 .2l-2.5 5zm4.8.8c0 .1 0 .1 0 .1s-.1.1-.1.1c-.1 0-.1 0-.1 0s-.1 0-.1-.1-.1-.1-.2-.2-.1-.1-.2-.1c0 0-.1 0-.1 0-.1 0-.1 0-.1 0s-.1 0-.1.1-.1.1-.1.1c0 .1 0 .1 0 .1s0 .1.1.1c0 0 .1 0 .1.1.1 0 .1 0 .2 0s.2 0 .3.1c.1 0 .2.1.2.1.1.1.1.1.1.2s0 .2 0 .3c0 .1-.1.2-.1.3-.1.1-.2.1-.2.2-.1 0-.2.1-.3.1-.1 0-.2 0-.3 0-.1 0-.2 0-.2-.1-.1 0-.2-.1-.2-.1-.1 0-.1-.1-.2-.2 0-.1-.1-.2-.1-.3 0-.1 0-.1.1-.2s.1-.1.1-.1c.1 0 .1 0 .1 0s.1 0 .1.1 0 .1 0 .2c0 0 .1.1.1.1s.1 0 .1.1c.1 0 .1 0 .2 0s.2 0 .3 0c.1 0 .1-.1.2-.1 0-.1 0-.2-.1-.2s-.2-.1-.3-.1c-.1 0-.2 0-.3-.1-.1 0-.2-.1-.3-.1-.1 0-.1-.1-.2-.2 0-.1 0-.2 0-.3 0-.1.1-.2.1-.3.1-.1.1-.1.2-.2s.2-.1.3-.1.2 0 .3 0c.1 0 .3.1.4.1.2.2.3.3.3.5zm.2.6c0-.1.1-.3.1-.4.1-.1.1-.2.2-.3.1-.1.2-.2.3-.2.1-.1.2-.1.4-.1s.3 0 .4.1c.1.1.2.2.2.3 0 .1.1.3 0 .4 0 .2-.1.3-.1.4-.1.1-.1.2-.2.3-.1.1-.2.2-.3.2-.1.1-.2.1-.4.1s-.2 0-.4-.1-.3-.2-.4-.4.2-.1.2-.3zm.4 0c0 .1 0 .2 0 .4 0 .1.1.2.2.2s.2 0 .2 0c.1 0 .2-.1.2-.1.1-.1.1-.1.2-.2 0-.1.1-.2.1-.2 0-.1 0-.2 0-.2 0-.1 0-.1 0-.2s-.1-.1-.1-.1-.1-.1-.2-.1-.1 0-.2 0-.1.1-.2.1c-.1.1-.1.1-.1.2-.1 0-.1.1-.1.2zm1.7.7c0-.1 0-.2 0-.4s0-.4.1-.6.1-.5.1-.7c0-.2.1-.5.1-.7 0-.2.1-.4.1-.5s0-.2 0-.2c0-.1 0-.1.1-.1 0 0 .1 0 .1 0s.1 0 .1.1.1.1.1.2c-.1.5-.2.9-.2 1.2-.1.3-.1.6-.1.8 0 .2-.1.4-.1.5 0 .1 0 .2 0 .3 0 .1 0 .1 0 .1s0 0 .1 0c0 0 .1 0 .1-.1s.1-.1.1-.1.1 0 .1 0 .1 0 .1.1 0 .1 0 .1c0 .1 0 .1-.1.1-.1.1-.2.1-.2.2-.1 0-.2.1-.3.1-.1 0-.1 0-.2-.1s-.1-.1-.1-.3zm2.6 0c-.2.1-.3.2-.5.3-.1 0-.2.1-.3.1-.2 0-.3 0-.4-.1s-.2-.2-.2-.4 0-.4 0-.6.1-.5.1-.8c0-.1 0-.1.1-.2.1 0 .1 0 .2 0s.1 0 .1 0 .1.1 0 .1c-.1.3-.1.6-.2.8 0 .2 0 .3 0 .4s.1.2.1.2.1 0 .1 0c.1 0 .2 0 .2 0 .1 0 .1-.1.2-.1.1-.1.1-.1.2-.2s.1-.1.1-.2l.3-.9c0-.1 0-.1.1-.1 0 0 .1 0 .2 0s.1 0 .1.1c0 0 0 .1 0 .1s0 .1 0 .1c0 .1 0 .2-.1.3 0 .1 0 .2-.1.4 0 .1 0 .2 0 .4 0 .1 0 .2 0 .3s0 .1.1.1c0 0 .1 0 .1-.1s.1-.1.1-.1.1 0 .1 0 .1 0 .1.1 0 .1 0 .1c0 .1 0 .1-.1.1-.1.1-.2.1-.2.2s-.2.1-.3.1c-.1 0-.1 0-.2-.1s0-.3 0-.4zm1.5.1c0-.1 0-.1 0-.2s0-.1 0-.2 0-.2.1-.4.1-.4.1-.7h-.4c-.1 0-.1 0-.1-.1s0-.1 0-.1c0-.1 0-.1.1-.1s.1-.1.1-.1h.5c0-.2.1-.3.1-.5s.1-.3.1-.4c0-.1 0-.2.1-.4 0-.1 0-.1.1-.1 0 0 .1 0 .1 0s.1 0 .1.1.1.1.1.2c0 .2-.1.4-.1.6 0 .2-.1.4-.1.5h.5c.1 0 .1 0 .1.1 0 0 0 .1 0 .2s0 .1-.1.1c0 0-.1.1-.2 0h-.5c0 .1 0 .2 0 .3 0 .1 0 .2 0 .2 0 .2-.1.4-.1.5 0 .1 0 .2 0 .3 0 .1 0 .1 0 .1s0 0 .1 0c0 0 .1 0 .1-.1.1 0 .1-.1.1-.1s.1 0 .1 0 .1 0 .1.1c0 0 0 .1 0 .1 0 .1 0 .1-.1.1-.1.1-.2.1-.3.2-.1 0-.2.1-.3.1-.1 0-.1 0-.2-.1s-.2-.1-.2-.2zm1.8-1.7c0-.1.1-.1.1-.1.1 0 .1 0 .2 0s.1 0 .1.1c0 0 0 .1 0 .1-.1.2-.1.3-.2.5 0 .2-.1.3-.1.5s0 .3 0 .4c0 .1.1.1.1.1s.1 0 .1-.1.1-.1.1-.1.1 0 .1 0 .1 0 .1.1 0 .1.1.1c0 0 0 .1 0 .1-.1.1-.1.2-.2.2-.1.1-.2.1-.3.1-.2 0-.3 0-.3-.1-.1-.1-.1-.2-.1-.3s0-.3 0-.4c0-.2 0-.3.1-.4s.1-.3.1-.4 0-.3 0-.4zm.1-.6c0-.1 0-.1.1-.2.1 0 .1-.1.2-.1s.1 0 .2.1c0 0 .1.1 0 .2 0 .1 0 .1-.1.2-.1 0-.1.1-.2.1s-.1 0-.2-.1c0 0 0-.1 0-.2zm.9 1.5c0-.1.1-.3.1-.4.1-.1.1-.2.2-.3.1-.1.2-.2.3-.2.1-.1.2-.1.4-.1s.3 0 .4.1c.1.1.2.2.2.3 0 .1.1.3 0 .4 0 .2-.1.3-.1.4-.1.1-.1.2-.2.3-.1.1-.2.2-.3.2-.1.1-.2.1-.4.1s-.2 0-.4-.1-.3-.2-.4-.4.2-.1.2-.3zm.4 0c0 .1 0 .2 0 .4 0 .1.1.2.2.2s.2 0 .2 0c.1 0 .2-.1.2-.1.1-.1.1-.1.2-.2 0-.1.1-.2.1-.2 0-.1 0-.2 0-.2 0-.1 0-.1 0-.2s-.1-.1-.1-.1-.1-.1-.2-.1-.1 0-.2 0-.1.1-.2.1c-.1.1-.1.1-.1.2 0 0-.1.1-.1.2zm3.1.2c0-.2.1-.3.1-.4s0-.2 0-.3-.1-.1-.1-.1-.1 0-.1 0c-.1 0-.3 0-.4.1-.1.1-.2.2-.3.3l-.2 1c0 .1 0 .1-.1.1 0 0-.1.1-.1.1s-.1 0-.1 0-.1-.1-.1-.2l.3-1.7c0-.1 0-.1.1-.2 0 0 .1 0 .2 0s.1 0 .1 0 .1.1 0 .1v.1c.1-.1.2-.1.3-.2.1 0 .2-.1.3-.1.3 0 .4.1.5.3.1.2.1.6 0 1 0 .1 0 .1 0 .2 0 0 0 .1 0 .1s0 0 .1 0c0 0 .1 0 .1-.1 0 0 .1-.1.1-.1s.1 0 .1 0 .1 0 .1.1 0 .1 0 .1c0 .1 0 .1-.1.1-.1.1-.2.1-.2.2-.1 0-.2.1-.2.1s0 0-.1 0-.1 0-.2-.1c-.1 0-.1-.1-.1-.2-.1.1-.1-.1 0-.3z"
     class="st0"
     id="path10" />
  <path
     fill="#ff3932"
     d="M224.7 81.4c.1-.1.1-.1.2-.1s.2 0 .2.1.1.1.1.2 0 .1-.1.2c-.2.2-.3.4-.6.5-.2.1-.4.2-.6.2-.2 0-.4 0-.6-.1-.2-.1-.4-.2-.5-.3s-.3-.3-.4-.5-.1-.4-.1-.7c0-.2 0-.4.1-.6.1-.2.2-.4.4-.5.1-.2.3-.3.5-.4s.4-.1.6-.1c.2 0 .4 0 .5.1s.3.2.3.3c.1.1.1.3.1.4s-.1.3-.2.5-.3.4-.5.6c-.2.2-.6.4-1 .5.1.1.2.1.3.2s.2.1.4.1.3 0 .4-.1.4-.3.5-.5zm-.9-1.7c-.2.1-.3.1-.4.2-.1.1-.2.2-.3.3s-.1.2-.1.4 0 .3 0 .4c.3-.1.6-.2.7-.3s.3-.2.4-.3.1-.2.1-.3 0-.1 0-.2-.1-.1-.2-.2c-.1 0-.2 0-.2 0zm3.7 1.1c0 .1.1.2.2.3s.1.2.2.3c.1.1.1.1.2.2s.1.1.2.1.2 0 .3-.1c.1 0 .2-.1.2-.2 0 0 .1 0 .2 0s.1.1.2.1.1.1.1.2 0 .2-.1.2c-.1.1-.2.2-.4.3-.1.1-.3.1-.5.1s-.3 0-.4-.1-.2-.1-.3-.2-.2-.2-.3-.3-.2-.3-.2-.4l-.9.9c0 .1-.1.1-.2.1s-.2 0-.2-.1-.1-.1-.1-.2 0-.2.1-.3l1-1.1-.6-1.2c0-.1 0-.2.1-.3s.1-.1.2-.1.2 0 .3 0 .1.1.1.1l.5.9.8-.9c0-.1.1-.1.2-.1s.2 0 .3 0c.1 0 .1.1.2.1s0 .2 0 .3l-1.4 1.4zm3.2-1.3c.1-.1.3-.2.5-.2s.3-.1.5-.1.4 0 .6.1c.2.1.3.2.4.3s.2.3.2.5 0 .4 0 .6-.1.4-.2.6-.3.4-.4.5-.4.3-.6.3c-.2.1-.4.1-.6.1-.3 0-.6-.1-.8-.3 0 0 0 .1 0 .2s0 .2-.1.4-.2.5-.2.7-.1.4-.1.5-.1.3-.1.6c0 .1-.1.2-.2.2s-.2.1-.3 0c-.1 0-.2 0-.2-.1s-.1-.1 0-.2l.9-4.7c0-.1.1-.2.1-.2.1 0 .2-.1.2-.1s.1 0 .2.1c.1 0 .1.1.1.2h.1zm1.5 1.3c0-.1 0-.2 0-.4s-.1-.2-.1-.3c-.1-.1-.1-.2-.2-.2s-.2-.1-.3-.1-.2 0-.4.1-.2.1-.3.2c-.1.1-.2.2-.2.3s-.1.2-.1.4 0 .2 0 .4.1.2.1.3.1.1.2.2.2.1.3.1.2 0 .4-.1.2-.1.3-.2.2-.2.2-.3.1-.3.1-.4zm3.6-.6c-.1-.1-.2-.2-.3-.2s-.2-.1-.3-.1-.2 0-.4.1-.2.1-.3.2c-.1.1-.2.2-.2.3s-.1.2-.1.4l-.2 1.2c0 .1-.1.2-.1.2-.1.1-.2.1-.2.1-.1 0-.2 0-.2-.1s-.1-.1-.1-.3l.5-2.6c0-.1.1-.2.1-.2.1 0 .2-.1.2-.1s.2 0 .2.1c.1 0 .1.1.1.2v.1c.1-.1.3-.2.5-.2s.3-.1.5-.1.5.1.6.2.3.2.4.4c0 .1 0 .1 0 .2s-.1.1-.1.2-.1.1-.2.1c-.3 0-.3 0-.4-.1zm3.3 1.2c.1-.1.1-.1.2-.1s.2 0 .2.1.1.1.1.2 0 .1-.1.2c-.2.2-.3.4-.6.5-.2.1-.4.2-.6.2-.2 0-.4 0-.6-.1-.2-.1-.4-.2-.5-.3s-.3-.3-.4-.5-.1-.4-.1-.7c0-.2 0-.4.1-.6.1-.2.2-.4.4-.5.1-.2.3-.3.5-.4s.4-.1.6-.1c.2 0 .4 0 .5.1s.3.2.3.3c.1.1.1.3.1.4s-.1.3-.2.5-.3.4-.5.6c-.2.2-.6.4-1 .5.1.1.2.1.3.2s.2.1.4.1.3 0 .4-.1.4-.3.5-.5zm-.9-1.7c-.2.1-.3.1-.4.2-.1.1-.2.2-.3.3s-.1.2-.1.4 0 .3 0 .4c.3-.1.6-.2.7-.3s.3-.2.4-.3.1-.2.1-.3 0-.1 0-.2-.1-.1-.2-.2c-.1 0-.2 0-.2 0zm4.7.2c0 .1 0 .2 0 .2s-.1.1-.2.1-.2 0-.2 0-.1-.1-.1-.1c-.1-.1-.1-.2-.2-.3s-.2-.1-.3-.1c-.1 0-.1 0-.2 0s-.2 0-.2.1-.1.1-.2.1c0 0-.1.1-.1.1 0 .1 0 .2 0 .2s.1.1.1.1.1.1.2.1.2 0 .3.1c.1 0 .3.1.4.1.1 0 .3.1.4.2.1.1.2.2.2.3s0 .3 0 .5-.1.3-.2.4c-.1.1-.2.2-.4.3-.1.1-.3.1-.5.1s-.3 0-.5 0c-.1 0-.3 0-.4-.1-.1 0-.2-.1-.3-.2s-.2-.2-.2-.3-.1-.2-.1-.4c0-.1 0-.2.1-.3s.1-.1.2-.1.2 0 .2 0 .1.1.1.2 0 .2.1.3.1.1.1.2.1.1.2.1.2 0 .2 0c.2 0 .3 0 .4-.1.1 0 .2-.1.2-.2 0-.2 0-.3-.1-.3s-.2-.1-.4-.1c-.1 0-.3-.1-.4-.1s-.3-.1-.4-.2c-.1-.1-.2-.2-.3-.3s-.1-.3 0-.5c0-.2.1-.3.2-.4s.2-.2.3-.3.3-.1.4-.2.3 0 .5 0 .4.1.6.2.4.3.5.6zm3 0c0 .1 0 .2 0 .2s-.1.1-.2.1-.2 0-.2 0-.1-.1-.1-.1c-.1-.1-.1-.2-.2-.3s-.2-.1-.3-.1c-.1 0-.1 0-.2 0s-.2 0-.2.1-.1.1-.2.1c0 0-.1.1-.1.1 0 .1 0 .2 0 .2s.1.1.1.1.1.1.2.1.2 0 .3.1c.1 0 .3.1.4.1.1 0 .3.1.4.2.1.1.2.2.2.3s0 .3 0 .5-.1.3-.2.4c-.1.1-.2.2-.4.3-.1.1-.3.1-.5.1s-.3 0-.5 0c-.1 0-.3 0-.4-.1-.1 0-.2-.1-.3-.2s-.2-.2-.2-.3-.1-.2-.1-.4c0-.1 0-.2.1-.3s.1-.1.2-.1.2 0 .2 0 .1.1.1.2 0 .2.1.3.1.1.1.2.1.1.2.1.2 0 .2 0c.2 0 .3 0 .4-.1.1 0 .2-.1.2-.2 0-.2 0-.3-.1-.3s-.2-.1-.4-.1c-.1 0-.3-.1-.4-.1s-.3-.1-.4-.2c-.1-.1-.2-.2-.3-.3s-.1-.3 0-.5c0-.2.1-.3.2-.4s.2-.2.3-.3.3-.1.4-.2.3 0 .5 0 .4.1.6.2.4.3.5.6zm.6-.5c0-.1.1-.2.2-.2s.2-.1.2 0 .1 0 .2.1.1.1 0 .2c-.1.2-.2.5-.3.8s-.1.5-.1.8 0 .4 0 .6.1.2.2.2.1-.1.2-.1.1-.1.2-.2c0 0 .1-.1.2 0s.1.1.2.1.1.1.1.2 0 .1-.1.2-.2.2-.4.3-.3.1-.5.1-.4-.1-.5-.2c-.1-.1-.2-.3-.2-.5s0-.4 0-.7.1-.5.1-.7.1-.4.1-.6c.1-.2.2-.3.2-.4zm.2-.9c0-.1.1-.2.2-.3s.2-.1.3-.1.2 0 .3.1.1.2.1.3c0 .1-.1.2-.2.3-.1.1-.2.1-.3.1s-.2 0-.3-.1c-.1-.1-.2-.2-.1-.3zm1.4 2.3c0-.2.1-.4.2-.6s.2-.4.4-.5.3-.3.5-.3c.2-.1.4-.1.6-.1.3 0 .5.1.7.2s.3.3.3.5c.1.2.1.4.1.7s-.1.5-.2.7c-.1.2-.2.4-.3.5s-.3.3-.5.4c-.2.1-.3.2-.5.2s-.4 0-.6-.1c-.3-.1-.4-.3-.5-.6s-.2-.7-.2-1zm.6 0c0 .2 0 .4 0 .5s.1.3.3.3c.1 0 .3 0 .4 0 .1 0 .2-.1.3-.2.1-.1.2-.2.3-.3s.1-.2.1-.4c0-.1 0-.2 0-.4s0-.2-.1-.3 0 0-.1 0-.2-.1-.3-.1c-.1 0-.2 0-.3.1-.1.1-.2.1-.3.2s-.2.2-.2.3c0 .1-.1.2-.1.3zm4.7.3c.1-.3.1-.5.1-.7s0-.3-.1-.4c0-.1-.1-.2-.2-.2s-.1-.1-.2-.1c-.2 0-.4.1-.6.2s-.3.3-.4.5l-.3 1.5c0 .1-.1.2-.1.2-.1.1-.1.1-.2.1s-.1 0-.2-.1-.1-.1-.1-.3l.5-2.6c0-.1.1-.2.1-.2.1 0 .2-.1.2-.1s.2 0 .2.1c.1 0 .1.1.1.2v.2c.2-.1.3-.2.5-.3s.3-.1.4-.1c.4 0 .7.2.8.5s.1.9 0 1.6c0 .1 0 .2 0 .3s0 .1 0 .1.1 0 .1 0 .1 0 .1 0 .1 0 .2-.1.1-.1.2-.2c.1 0 .1 0 .2 0s.1.1.2.1c0 .1.1.1.1.2s0 .2-.1.2c-.1.1-.2.2-.4.3s-.2.1-.4.1c0 0-.1 0-.2 0s-.2-.1-.3-.1-.2-.2-.2-.4 0-.1 0-.5zm4.2.9c0-.1 0-.4 0-.7s.1-.6.1-1c.1-.4.1-.7.2-1.1s.1-.7.2-1 .1-.6.2-.8.1-.3.1-.3c0-.1.1-.2.1-.2.1 0 .1-.1.2-.1s.1 0 .2.1.1.1.1.3c-.2.7-.3 1.4-.4 1.9s-.2.9-.2 1.3c-.1.4-.1.6-.1.8s0 .3 0 .4 0 .1.1.1c0 0 .1 0 .1 0s.1 0 .2-.1.1-.1.2-.2c.1 0 .1 0 .2 0s.1.1.2.1c0 .1.1.1.1.2s0 .2-.1.2c-.1.1-.2.2-.4.3s-.3.1-.4.1c-.1 0-.2 0-.3-.1-.5 0-.6-.1-.6-.2zm2-2.6c0-.1.1-.2.2-.2s.2-.1.2 0 .1 0 .2.1.1.1 0 .2c-.1.2-.2.5-.3.8s-.1.5-.1.8 0 .4 0 .6.1.2.2.2.1-.1.2-.1.1-.1.2-.2c0 0 .1-.1.2 0s.1.1.2.1.1.1.1.2 0 .1-.1.2-.2.2-.4.3-.3.1-.5.1-.4-.1-.5-.2c-.1-.1-.2-.3-.2-.5s0-.4 0-.7.1-.5.1-.7.1-.4.1-.6c.2-.2.2-.3.2-.4zm.2-.9c0-.1.1-.2.2-.3s.2-.1.3-.1.2 0 .3.1.1.2.1.3c0 .1-.1.2-.2.3-.1.1-.2.1-.3.1s-.2 0-.3-.1c-.1-.1-.1-.2-.1-.3zm2.1 3.5c0-.1 0-.2 0-.3 0-.1 0-.2 0-.4s.1-.4.1-.6.1-.6.2-1.1h-.6c-.1 0-.2 0-.2-.1s0-.1 0-.2 0-.2.1-.2c.1-.1.1-.1.2-.1h.7c0-.2.1-.5.1-.7s.1-.4.1-.6c0-.2.1-.3.1-.5 0-.1.1-.2.1-.2s.1-.1.2-.1.1 0 .2.1.1.1.1.3c-.1.3-.1.7-.2 1-.1.3-.1.6-.2.8h.8c.1 0 .2.1.2.1s0 .2 0 .2c0 .1-.1.1-.1.2s-.2.1-.3.1h-.8c0 .1-.1.3-.1.4s0 .2-.1.3c-.1.4-.1.6-.1.8s0 .3 0 .4 0 .1 0 .1 0 0 .1 0c0 0 .1 0 .2-.1s.2-.1.2-.2c.1 0 .1 0 .2 0s.1.1.2.1c0 .1.1.1.1.2s0 .2-.1.2c-.1.1-.3.2-.4.3s-.3.1-.4.1c-.1 0-.2 0-.3-.1-.2.1-.3 0-.3-.2zm3 0c0-.1 0-.2 0-.3 0-.1 0-.2 0-.4s.1-.4.1-.6.1-.6.2-1.1h-.6c-.1 0-.2 0-.2-.1s0-.1 0-.2 0-.2.1-.2c.1-.1.1-.1.2-.1h.7c0-.2.1-.5.1-.7s.1-.4.1-.6c0-.2.1-.3.1-.5 0-.1.1-.2.1-.2s.1-.1.2-.1.1 0 .2.1.1.1.1.3c-.1.3-.1.7-.2 1-.1.3-.1.6-.2.8h.8c.1 0 .2.1.2.1s0 .2 0 .2c0 .1-.1.1-.1.2s-.2.1-.3.1h-.8c0 .1-.1.3-.1.4s0 .2-.1.3c-.1.4-.1.6-.1.8s0 .3 0 .4 0 .1 0 .1 0 0 .1 0c0 0 .1 0 .2-.1s.2-.1.2-.2c.1 0 .1 0 .2 0s.1.1.2.1c0 .1.1.1.1.2s0 .2-.1.2c-.1.1-.3.2-.4.3s-.3.1-.4.1c-.1 0-.2 0-.3-.1-.2.1-.2 0-.3-.2zm4.9-.6c.1-.1.1-.1.2-.1s.2 0 .2.1.1.1.1.2 0 .1-.1.2c-.2.2-.3.4-.6.5-.2.1-.4.2-.6.2-.2 0-.4 0-.6-.1-.2-.1-.4-.2-.5-.3s-.3-.3-.4-.5-.1-.4-.1-.7c0-.2 0-.4.1-.6.1-.2.2-.4.4-.5.1-.2.3-.3.5-.4s.4-.1.6-.1c.2 0 .4 0 .5.1s.3.2.3.3c.1.1.1.3.1.4s-.1.3-.2.5-.3.4-.5.6c-.2.2-.6.4-1 .5.1.1.2.1.3.2s.2.1.4.1.3 0 .4-.1.4-.3.5-.5zm-.9-1.7c-.2.1-.3.1-.4.2-.1.1-.2.2-.3.3s-.1.2-.1.4 0 .3 0 .4c.3-.1.6-.2.7-.3s.3-.2.4-.3.1-.2.1-.3 0-.1 0-.2-.1-.1-.2-.2c-.1 0-.1 0-.2 0zm.4-2c.1-.1.2-.1.3-.1s.1 0 .2.1.1.1.1.2 0 .2-.1.2l-.7.6c-.1.1-.2.1-.2.1-.1 0-.1-.1-.2-.1s-.1-.1-.1-.2 0-.1.1-.2l.6-.6zm4 2.5c-.1-.1-.2-.2-.3-.2s-.2-.1-.3-.1-.2 0-.4.1-.2.1-.3.2c-.1.1-.2.2-.2.3s-.1.2-.1.4l-.2 1.2c0 .1-.1.2-.1.2-.1.1-.2.1-.2.1-.1 0-.2 0-.2-.1s-.1-.1-.1-.3l.5-2.6c0-.1.1-.2.1-.2.1 0 .2-.1.2-.1s.2 0 .2.1c.1 0 .1.1.1.2v.1c.1-.1.3-.2.5-.2s.3-.1.5-.1.5.1.6.2.3.2.4.4c0 .1 0 .1 0 .2s-.1.1-.1.2-.1.1-.2.1c-.3 0-.3 0-.4-.1zm2.8 1.9c-.2.1-.4.2-.5.3-.2 0-.4.1-.5.1-.2 0-.3-.1-.5-.1s-.3-.2-.3-.3-.1-.3-.1-.4c0-.2 0-.4.1-.6.1-.3.3-.5.5-.7.2-.2.4-.4.6-.5.2-.1.5-.3.7-.3s.5-.1.8-.1c.1 0 .3 0 .3.1s.1.2.1.4 0 .4-.1.6c0 .2-.1.4-.1.6 0 .1-.1.2-.1.3 0 .1-.1.2-.1.3s0 .2 0 .2.1 0 .3 0c.1-.1.2-.1.3-.3.1 0 .1 0 .2 0s.1.1.2.1c0 .1.1.1.1.2s0 .2-.1.2c-.1.1-.2.2-.4.3-.1.1-.3.1-.4.1s-.3 0-.4-.1-.5-.3-.6-.4zm-1.4-1c0 .1 0 .2 0 .3s0 .2.1.3.1.1.2.2.2 0 .3 0c.2 0 .3-.1.5-.3s.3-.3.4-.5c.1-.2.2-.4.2-.6.1-.2.1-.4.1-.6-.2 0-.5.1-.7.2-.2.1-.4.2-.5.3s-.3.3-.4.4c-.1.1-.2.2-.2.3zm3.5.9c0-.1 0-.4 0-.7s.1-.6.1-1c.1-.4.1-.7.2-1.1s.1-.7.2-1 .1-.6.2-.8.1-.3.1-.3c0-.1.1-.2.1-.2.1 0 .1-.1.2-.1s.1 0 .2.1.1.1.1.3c-.2.7-.3 1.4-.4 1.9s-.2.9-.2 1.3c-.1.4-.1.6-.1.8s0 .3 0 .4 0 .1.1.1c0 0 .1 0 .1 0s.1 0 .2-.1.1-.1.2-.2c.1 0 .1 0 .2 0s.1.1.2.1c0 .1.1.1.1.2s0 .2-.1.2c-.1.1-.2.2-.4.3s-.3.1-.4.1c-.1 0-.2 0-.3-.1-.5 0-.5-.1-.6-.2zm4.2-.6c.1-.1.1-.1.2-.1s.2 0 .2.1.1.1.1.2 0 .1-.1.2c-.2.2-.4.4-.6.5-.2.1-.4.2-.6.2-.2 0-.4 0-.6-.1-.2-.1-.4-.2-.5-.3s-.3-.3-.4-.5c-.1-.2-.1-.4-.1-.7 0-.2 0-.4.1-.6.1-.2.2-.4.4-.5.1-.2.3-.3.5-.4s.4-.1.6-.1c.2 0 .4 0 .5.1s.3.2.3.3c.1.1.1.3.1.4s-.1.3-.2.5-.3.4-.5.6c-.2.2-.6.4-1 .5.1.1.2.1.3.2.1 0 .2.1.4.1s.3 0 .4-.1c.3-.3.4-.3.5-.5zm-.9-1.7c-.2.1-.3.1-.4.2-.1.1-.2.2-.3.3s-.1.2-.1.4 0 .3 0 .4c.3-.1.6-.2.7-.3s.3-.2.4-.3.1-.2.1-.3 0-.1 0-.2-.1-.1-.2-.2c0 0-.1 0-.2 0zm5.6 0c-.1.5-.2.9-.2 1.4s-.1.8-.2 1.2c0 0 0 .1-.1.1s-.2.1-.3.1c-.1 0-.2 0-.2 0s-.1-.1-.1-.2c0-.2 0-.3.1-.4s0-.3.1-.4c0-.2.1-.4.1-.6 0-.2.1-.6.2-.9h-.5c-.1 0-.2 0-.2-.1s0-.1 0-.2.1-.2.1-.2c.1-.1.1-.1.2-.1h.5c.1-.3.2-.6.3-.9s.2-.5.4-.7.3-.3.5-.5.4-.2.6-.2c.2 0 .3 0 .4.1s.2.1.3.2c.1.1.1.2.2.3s.1.2.1.3c0 .1 0 .2 0 .3-.1.1-.1.1-.2.2-.1 0-.2 0-.2 0s-.1-.1-.2-.2c0-.2-.1-.3-.1-.4s-.2-.1-.3-.1c-.1 0-.2 0-.3.1s-.2.2-.2.3c-.1.1-.2.3-.2.5-.1.2-.1.4-.2.6h1c.1 0 .2.1.2.1s0 .2 0 .2-.1.1-.1.2-.1.1-.2.1l-1.3-.2zm2.4-.3c0-.1.1-.2.2-.2s.2-.1.2 0c.1 0 .1 0 .2.1s.1.1 0 .2c-.1.2-.2.5-.3.8s-.1.5-.1.8 0 .4 0 .6.1.2.2.2.1-.1.2-.1.1-.1.2-.2c0 0 .1-.1.2 0s.1.1.2.1.1.1.1.2 0 .1-.1.2-.2.2-.4.3-.3.1-.5.1-.4-.1-.5-.2c-.1-.1-.2-.3-.2-.5s0-.4 0-.7.1-.5.1-.7.1-.4.1-.6c.1-.2.2-.3.2-.4zm.2-.9c0-.1.1-.2.2-.3.1-.1.2-.1.3-.1s.2 0 .3.1.1.2.1.3c0 .1-.1.2-.2.3-.1.1-.2.1-.3.1s-.2 0-.3-.1c-.1-.1-.2-.2-.1-.3zm3.6 2.6c.1-.3.1-.5.1-.7s0-.3-.1-.4c0-.1-.1-.2-.2-.2s-.1-.1-.2-.1c-.2 0-.4.1-.6.2-.2.1-.3.3-.4.5l-.3 1.5c0 .1-.1.2-.1.2-.1.1-.1.1-.2.1s-.1 0-.2-.1-.1-.1-.1-.3l.5-2.6c0-.1.1-.2.1-.2.1 0 .2-.1.2-.1s.2 0 .2.1c.1 0 .1.1.1.2v.2c.2-.1.3-.2.5-.3s.3-.1.4-.1c.4 0 .7.2.8.5.1.3.1.9 0 1.6 0 .1 0 .2 0 .3 0 .1 0 .1 0 .1s.1 0 .1 0 .1 0 .1 0 .1 0 .2-.1.1-.1.2-.2c.1 0 .1 0 .2 0s.1.1.2.1c0 .1.1.1.1.2s0 .2-.1.2c-.1.1-.2.2-.4.3s-.2.1-.4.1c0 0-.1 0-.2 0s-.2-.1-.3-.1-.2-.2-.2-.4-.1-.1 0-.5zm3.9 1c-.2.1-.4.2-.5.3-.2 0-.4.1-.5.1-.2 0-.3-.1-.5-.1s-.3-.2-.3-.3-.1-.3-.1-.4c0-.2 0-.4.1-.6.1-.3.3-.5.5-.7.2-.2.4-.4.6-.5.2-.1.5-.3.7-.3s.5-.1.8-.1c.1 0 .3 0 .3.1.1.1.1.2.1.4s0 .4-.1.6c0 .2-.1.4-.1.6 0 .1-.1.2-.1.3 0 .1-.1.2-.1.3s0 .2 0 .2.1 0 .3 0c.1-.1.2-.1.3-.3.1 0 .1 0 .2 0s.1.1.2.1c0 .1.1.1.1.2s0 .2-.1.2c-.1.1-.2.2-.4.3-.1.1-.3.1-.4.1-.1 0-.3 0-.4-.1-.4-.2-.5-.3-.6-.4zm-1.3-1c0 .1 0 .2 0 .3 0 .1 0 .2.1.3s.1.1.2.2c.1 0 .2 0 .3 0 .2 0 .3-.1.5-.3.1-.2.3-.3.4-.5.1-.2.2-.4.2-.6.1-.2.1-.4.1-.6-.2 0-.5.1-.7.2-.2.1-.4.2-.5.3-.2.1-.3.3-.4.4-.2.1-.2.2-.2.3zm3.4.9c0-.1 0-.4 0-.7s.1-.6.1-1c.1-.4.1-.7.2-1.1.1-.4.1-.7.2-1s.1-.6.2-.8c0-.2.1-.3.1-.3 0-.1.1-.2.1-.2.1 0 .1-.1.2-.1s.1 0 .2.1.1.1.1.3c-.2.7-.3 1.4-.4 1.9-.1.5-.2.9-.2 1.3-.1.4-.1.6-.1.8 0 .2 0 .3 0 .4 0 .1 0 .1.1.1 0 0 .1 0 .1 0s.1 0 .2-.1.1-.1.2-.2c.1 0 .1 0 .2 0s.1.1.2.1c0 .1.1.1.1.2s0 .2-.1.2c-.1.1-.2.2-.4.3s-.3.1-.4.1c-.1 0-.2 0-.3-.1-.4 0-.5-.1-.6-.2zm4.2-.6c.1-.1.1-.1.2-.1s.2 0 .2.1.1.1.1.2 0 .1-.1.2c-.2.2-.4.4-.6.5-.2.1-.4.2-.6.2-.2 0-.4 0-.6-.1-.2-.1-.4-.2-.5-.3s-.3-.3-.4-.5c-.1-.2-.1-.4-.1-.7 0-.2 0-.4.1-.6.1-.2.2-.4.4-.5.1-.2.3-.3.5-.4s.4-.1.6-.1c.2 0 .4 0 .5.1s.3.2.3.3c.1.1.1.3.1.4s-.1.3-.2.5-.3.4-.5.6c-.2.2-.6.4-1 .5.1.1.2.1.3.2.1 0 .2.1.4.1s.3 0 .4-.1c.3-.3.4-.3.5-.5zm-.9-1.7c-.2.1-.3.1-.4.2-.1.1-.2.2-.3.3s-.1.2-.1.4 0 .3 0 .4c.3-.1.6-.2.7-.3s.3-.2.4-.3.1-.2.1-.3 0-.1 0-.2-.1-.1-.2-.2c0 0-.1 0-.2 0zm1.9 2.2c0-.1.1-.2.2-.3s.2-.1.3-.1.2 0 .3.1.1.2.1.3c0 .1-.1.2-.2.3-.1.1-.2.1-.3.1s-.2 0-.3-.1c-.1-.1-.1-.2-.1-.3z"
     id="path12" />
</svg>
