<?xml version="1.0"?>
<svg xmlns:rdf="http://www.w3.org/1999/02/22-rdf-syntax-ns#" xmlns="http://www.w3.org/2000/svg" xmlns:cc="http://creativecommons.org/ns#" xmlns:dc="http://purl.org/dc/elements/1.1/" xmlns:svg="http://www.w3.org/2000/svg" id="svg2" viewBox="0 0 1009.2 1002.2" version="1.1">
  <path id="path2987" d="m45.029 36.796 27.119-16.102 29.661 20.763 0.84746 28.814h30.932" stroke="#000" stroke-linecap="round" stroke-width="11.4" fill="none"/>
  <path id="path2989" d="m96.301 38.914-39.407 23.729-9.7458 23.305-40.678 13.559" stroke="#000" stroke-linecap="round" stroke-width="11.4" fill="none"/>
  <path id="path2991" stroke-linejoin="round" d="m98.843 43.999-31.356 18.644 7.2034 26.695-29.237 21.61" stroke="#000" stroke-linecap="round" stroke-width="11.4" fill="none"/>
  <path id="path2993" stroke-linejoin="round" d="m213.14-645.55a8.4746 8.2627 0 1 1 -16.949 0 8.4746 8.2627 0 1 1 16.949 0z" transform="matrix(1.1233 0 0 1.1233 -103.9 763.83)" stroke="#000" stroke-linecap="round" stroke-width="4.1"/>
  <path id="path3763" stroke="#000" stroke-width="11.4" fill="none" d="m220.03 77.05h135.59"/>
  <path id="path3765" stroke-linejoin="round" d="m264.52 56.711 44.915-22.881 28.39 42.797-5.9322-0.84746-24.576-35.593" stroke="#000" stroke-linecap="round" stroke-width="11.4" fill="none"/>
  <path id="path3767" stroke-linejoin="round" d="m213.14-645.55a8.4746 8.2627 0 1 1 -16.949 0 8.4746 8.2627 0 1 1 16.949 0z" transform="matrix(1.1233 0 0 1.1233 66.015 740.95)" stroke="#000" stroke-linecap="round" stroke-width="4.1"/>
  <path id="path3769" stroke-linejoin="round" d="m213.14-645.55a8.4746 8.2627 0 1 1 -16.949 0 8.4746 8.2627 0 1 1 16.949 0z" transform="matrix(1.1233 0 0 1.1233 275.76 757.05)" stroke="#000" stroke-linecap="round" stroke-width="4.1"/>
  <path id="path3771" stroke-linejoin="round" d="m213.14-645.55a8.4746 8.2627 0 1 1 -16.949 0 8.4746 8.2627 0 1 1 16.949 0z" transform="matrix(1.1233 0 0 1.1233 512.2 751.11)" stroke="#000" stroke-linecap="round" stroke-width="4.1"/>
  <path id="path3773" stroke-linejoin="round" d="m213.14-645.55a8.4746 8.2627 0 1 1 -16.949 0 8.4746 8.2627 0 1 1 16.949 0z" transform="matrix(1.1233 0 0 1.1233 721.95 736.71)" stroke="#000" stroke-linecap="round" stroke-width="4.1"/>
  <path id="path3775" stroke-linejoin="round" d="m213.14-645.55a8.4746 8.2627 0 1 1 -16.949 0 8.4746 8.2627 0 1 1 16.949 0z" transform="matrix(1.1233 0 0 1.1233 738.9 825.69)" stroke="#000" stroke-linecap="round" stroke-width="4.1"/>
  <path id="path3777" stroke-linejoin="round" d="m213.14-645.55a8.4746 8.2627 0 1 1 -16.949 0 8.4746 8.2627 0 1 1 16.949 0z" transform="matrix(.63021 0 0 .63021 648.18 467.99)" stroke="#000" stroke-linecap="round" stroke-width="4.1"/>
  <path id="path3779" stroke-linejoin="round" d="m213.14-645.55a8.4746 8.2627 0 1 1 -16.949 0 8.4746 8.2627 0 1 1 16.949 0z" transform="matrix(1.1233 0 0 1.1233 -151.36 956.62)" stroke="#000" stroke-linecap="round" stroke-width="4.1" fill="#001800"/>
  <path id="path3781" stroke-linejoin="round" d="m213.14-645.55a8.4746 8.2627 0 1 1 -16.949 0 8.4746 8.2627 0 1 1 16.949 0z" transform="matrix(1.1233 0 0 1.1233 14.32 966.79)" stroke="#000" stroke-linecap="round" stroke-width="4.1"/>
  <path id="path3783" stroke-linejoin="round" d="m213.14-645.55a8.4746 8.2627 0 1 1 -16.949 0 8.4746 8.2627 0 1 1 16.949 0z" transform="matrix(1.1233 0 0 1.1233 250.34 979.93)" stroke="#000" stroke-linecap="round" stroke-width="4.1"/>
  <path id="path3785" stroke-linejoin="round" d="m213.14-645.55a8.4746 8.2627 0 1 1 -16.949 0 8.4746 8.2627 0 1 1 16.949 0z" transform="matrix(1.1233 0 0 1.1233 465.17 952.39)" stroke="#000" stroke-linecap="round" stroke-width="4.1"/>
  <path id="path3787" stroke-linejoin="round" d="m213.14-645.55a8.4746 8.2627 0 1 1 -16.949 0 8.4746 8.2627 0 1 1 16.949 0z" transform="matrix(1.1233 0 0 1.1233 688.47 950.69)" stroke="#000" stroke-linecap="round" stroke-width="4.1"/>
  <path id="path3789" stroke-linejoin="round" d="m213.14-645.55a8.4746 8.2627 0 1 1 -16.949 0 8.4746 8.2627 0 1 1 16.949 0z" transform="matrix(1.1233 0 0 1.1233 716.44 1063.8)" stroke="#000" stroke-linecap="round" stroke-width="4.1"/>
  <path id="path3791" stroke-linejoin="round" d="m213.14-645.55a8.4746 8.2627 0 1 1 -16.949 0 8.4746 8.2627 0 1 1 16.949 0z" transform="matrix(.81510 0 0 .81510 769.61 996.89)" stroke="#000" stroke-linecap="round" stroke-width="4.1"/>
  <path id="path3793" stroke-linejoin="round" d="m213.14-645.55a8.4746 8.2627 0 1 1 -16.949 0 8.4746 8.2627 0 1 1 16.949 0z" transform="matrix(.81510 0 0 .81510 774.7 1043.5)" stroke="#000" stroke-linecap="round" stroke-width="4.1"/>
  <path id="path3795" stroke-linejoin="round" d="m213.14-645.55a8.4746 8.2627 0 1 1 -16.949 0 8.4746 8.2627 0 1 1 16.949 0z" transform="matrix(.81510 0 0 .81510 540.8 1003.7)" stroke="#000" stroke-linecap="round" stroke-width="4.1"/>
  <path id="path3797" stroke-linejoin="round" d="m213.14-645.55a8.4746 8.2627 0 1 1 -16.949 0 8.4746 8.2627 0 1 1 16.949 0z" transform="matrix(.81510 0 0 .81510 559.87 1037.1)" stroke="#000" stroke-linecap="round" stroke-width="4.1"/>
  <path id="path3799" stroke-linejoin="round" d="m213.14-645.55a8.4746 8.2627 0 1 1 -16.949 0 8.4746 8.2627 0 1 1 16.949 0z" transform="matrix(1.226 0 0 1.226 216.97 1233.3)" stroke="#000" stroke-linecap="round" stroke-width="4.1"/>
  <path id="path3801" stroke-linejoin="round" d="m213.14-645.55a8.4746 8.2627 0 1 1 -16.949 0 8.4746 8.2627 0 1 1 16.949 0z" transform="matrix(1.1233 0 0 1.1233 293.56 1176.5)" stroke="#000" stroke-linecap="round" stroke-width="4.1"/>
  <path id="path3803" stroke-linejoin="round" d="m213.14-645.55a8.4746 8.2627 0 1 1 -16.949 0 8.4746 8.2627 0 1 1 16.949 0z" transform="matrix(1.1233 0 0 1.1233 58.388 1207.5)" stroke="#000" stroke-linecap="round" stroke-width="4.1"/>
  <path id="path3805" stroke-linejoin="round" d="m213.14-645.55a8.4746 8.2627 0 1 1 -16.949 0 8.4746 8.2627 0 1 1 16.949 0z" transform="matrix(1.1233 0 0 1.1233 -217.04 1210.4)" stroke="#000" stroke-linecap="round" stroke-width="4.1"/>
  <path id="path3807" stroke-linejoin="round" d="m213.14-645.55a8.4746 8.2627 0 1 1 -16.949 0 8.4746 8.2627 0 1 1 16.949 0z" transform="matrix(1.3082 0 0 1.3082 -212.25 1506.7)" stroke="#000" stroke-linecap="round" stroke-width="4.1"/>
  <path id="path3809" stroke-linejoin="round" d="m213.14-645.55a8.4746 8.2627 0 1 1 -16.949 0 8.4746 8.2627 0 1 1 16.949 0z" transform="matrix(1.1672 0 0 1.1672 38.408 1430.3)" stroke="#000" stroke-linecap="round" stroke-width="4.1"/>
  <path id="path3811" stroke-linejoin="round" d="m213.14-645.55a8.4746 8.2627 0 1 1 -16.949 0 8.4746 8.2627 0 1 1 16.949 0z" transform="matrix(1.1672 0 0 1.1672 294.76 1415.5)" stroke="#000" stroke-linecap="round" stroke-width="4.1"/>
  <path id="path3813" stroke-linejoin="round" d="m213.14-645.55a8.4746 8.2627 0 1 1 -16.949 0 8.4746 8.2627 0 1 1 16.949 0z" transform="matrix(1.1672 0 0 1.1672 452.39 1456.2)" stroke="#000" stroke-linecap="round" stroke-width="4.1"/>
  <path id="path3815" stroke-linejoin="round" d="m213.14-645.55a8.4746 8.2627 0 1 1 -16.949 0 8.4746 8.2627 0 1 1 16.949 0z" transform="matrix(1.2905 0 0 1.2905 621.68 1518.4)" stroke="#000" stroke-linecap="round" stroke-width="4.1"/>
  <path id="path3817" stroke-linejoin="round" d="m213.14-645.55a8.4746 8.2627 0 1 1 -16.949 0 8.4746 8.2627 0 1 1 16.949 0z" transform="matrix(1.2905 0 0 1.2905 671.68 1491.7)" stroke="#000" stroke-linecap="round" stroke-width="4.1"/>
  <path id="path3819" stroke-linejoin="round" d="m213.14-645.55a8.4746 8.2627 0 1 1 -16.949 0 8.4746 8.2627 0 1 1 16.949 0z" transform="matrix(1.2905 0 0 1.2905 672.53 1710.3)" stroke="#000" stroke-linecap="round" stroke-width="4.1"/>
  <path id="path3821" stroke-linejoin="round" d="m213.14-645.55a8.4746 8.2627 0 1 1 -16.949 0 8.4746 8.2627 0 1 1 16.949 0z" transform="matrix(1.2905 0 0 1.2905 479.31 1717.1)" stroke="#000" stroke-linecap="round" stroke-width="4.1"/>
  <path id="path3823" stroke-linejoin="round" d="m213.14-645.55a8.4746 8.2627 0 1 1 -16.949 0 8.4746 8.2627 0 1 1 16.949 0z" transform="matrix(1.2905 0 0 1.2905 235.24 1709.5)" stroke="#000" stroke-linecap="round" stroke-width="4.1"/>
  <path id="path3825" stroke-linejoin="round" d="m213.14-645.55a8.4746 8.2627 0 1 1 -16.949 0 8.4746 8.2627 0 1 1 16.949 0z" transform="matrix(1.2905 0 0 1.2905 50.495 1712.9)" stroke="#000" stroke-linecap="round" stroke-width="4.1"/>
  <path id="path3827" stroke-linejoin="round" d="m213.14-645.55a8.4746 8.2627 0 1 1 -16.949 0 8.4746 8.2627 0 1 1 16.949 0z" transform="matrix(1.2905 0 0 1.2905 -158.83 1773)" stroke="#000" stroke-linecap="round" stroke-width="4.1"/>
  <path id="path3829" stroke-linejoin="round" d="m275.75 76.75c1.1985-0.29962 21.872-10.187 21.872-10.187l10.187 9.5879" stroke="#000" stroke-linecap="round" stroke-width="11.4" fill="none"/>
  <path id="path3831" stroke-linejoin="round" d="m288.04 78.548 32.06 27.865-0.59924 10.187 8.0898 6.8913 10.786-11.685-7.4905-5.9924-10.786 0.59924z" stroke="#000" stroke-linecap="round" stroke-width="2.6"/>
  <path id="path3833" stroke-linejoin="round" d="m459.12 2.4442 0.29963 14.082 11.985-5.3932-7.1909 2.6966-4.4943-2.9962 0.89886 4.1947" stroke="#000" stroke-linecap="round" stroke-width="2.7" fill="#008000"/>
  <path id="path3835" stroke-linejoin="round" d="m484.59 52.181 19.775 18.277 49.438-53.033" stroke="#000" stroke-linecap="round" stroke-width="11.4" fill="none"/>
  <path id="path3837" stroke-linejoin="round" d="m526.84 48.885c16.756 22.837 24.398 48.502 29.663 74.905" stroke="#000" stroke-linecap="round" stroke-width="11.4" fill="none"/>
  <path id="path3839" stroke-linejoin="round" d="m506.16 118.1c10.54-10.48 21.02-21.009 35.06-28.766l-18.58-33.557" stroke="#000" stroke-linecap="round" stroke-width="11.4" fill="none"/>
  <path id="path3841" stroke="#000" stroke-width="2.6" d="m481.29 55.477-11.386 22.472c12.836 16.596-6.0339 34.92-14.681 32.359-10.844-3.2107-8.5982-34.446 13.783-32.958z"/>
  <path id="path3843" stroke-linejoin="round" d="m882.79 123.79 28.164-31.76 6.8913-26.666 29.363-32.659 32.659 4.1947 18.577 19.176" stroke="#000" stroke-linecap="round" stroke-width="11.4" fill="none"/>
  <path id="path3845" stroke-linejoin="round" d="m962.19 83.342c-2.0974-1.1985-19.775-17.977-19.775-17.977l-0.4817-16.786 6.1745-11.378-25.468 28.764 15.58 21.273 1.1985 36.853" stroke="#000" stroke-linecap="round" stroke-width="11.4" fill="none"/>
  <path id="path3847" stroke-linejoin="round" d="m701.22 41.994 4.794 15.281 20.974-11.985-2.0974 37.752-26.367 12.884 7.4905 24.869" stroke="#000" stroke-linecap="round" stroke-width="11.4" fill="none"/>
  <path id="path3849" stroke-linejoin="round" d="m776.12 123.79c-2.9962-0.89886-46.441-41.647-46.441-41.647l2.2438 0.6421 1.2019-24.462 9.7377-8.2396-15.58-4.7939-21.123 11.236" stroke="#000" stroke-linecap="round" stroke-width="11.4" fill="none"/>
  <path id="path3851" stroke="#000" stroke-width="1px" d="m700.02 41.695-31.16-37.453c-4.3038-5.1728-8.7586 1.5596-5.6928 4.4943l35.056 33.558z"/>
  <path id="path3853" stroke="#000" stroke-width="11.4" fill="none" d="m51.636 336.22 44.943-44.943-6.292-19.775-26.367 0.89887"/>
  <path id="path3855" stroke="#000" stroke-width="11.4" fill="none" d="m118.15 338.02c-1.1985-0.29962-17.977-27.266-17.977-27.266l1.4981-22.172-16.18-34.756-52.733 0.89887 45.243-0.29963v-1.4981l8.3894-0.59925 4.4943 12.884"/>
  <path id="path3857" stroke-linejoin="round" d="m213.14-645.55a8.4746 8.2627 0 1 1 -16.949 0 8.4746 8.2627 0 1 1 16.949 0z" transform="matrix(.73708 0 0 .75626 -117.41 743.76)" stroke="#000" stroke-linecap="round" stroke-width="4.1"/>
  <path id="path3859" stroke-linejoin="round" d="m213.14-645.55a8.4746 8.2627 0 1 1 -16.949 0 8.4746 8.2627 0 1 1 16.949 0z" transform="matrix(.73708 0 0 .75626 -90.448 760.84)" stroke="#000" stroke-linecap="round" stroke-width="4.1"/>
  <path id="path3861" stroke="#000" stroke-width="2" fill="none" d="m1 274.2h137.23"/>
  <path id="path3863" stroke="#000" stroke-width="2" fill="none" d="m1 286.19h137.23"/>
  <path id="path3865" stroke="#000" stroke-width="2" fill="none" d="m1 297.57h137.23"/>
  <path id="path3867" stroke-linejoin="round" d="m213.14-645.55a8.4746 8.2627 0 1 1 -16.949 0 8.4746 8.2627 0 1 1 16.949 0z" transform="matrix(3.3337 0 0 3.3337 -432.07 2457.7)" stroke="#000" stroke-linecap="round" stroke-width="1.5056" fill="none"/>
  <path id="path3871" stroke-linejoin="round" d="m213.14-645.55a8.4746 8.2627 0 1 1 -16.949 0 8.4746 8.2627 0 1 1 16.949 0z" transform="matrix(3.3337 0 0 3.3337 -356.26 2457.7)" stroke="#000" stroke-linecap="round" stroke-width="1.5056" fill="none"/>
  <path id="path3873" stroke-linejoin="round" d="m247.89 295.47 17.078-14.981-0.29962-32.06 63.52 0.89887-26.067 34.157 15.58 32.958" stroke="#000" stroke-linecap="round" stroke-width="11.4" fill="none"/>
  <path id="path3875" stroke-linejoin="round" d="m267.36 254.73 51.235 0.59924-20.075 0.29962-14.382 15.88 4.1947 26.067" stroke="#000" stroke-linecap="round" stroke-width="11.4" fill="none"/>
  <path id="path3879" stroke-linejoin="round" d="m473.8 291.58 15.281-10.786 11.985-20.674 33.558 20.674-28.464 15.281 15.88 19.176" stroke="#000" stroke-linecap="round" stroke-width="11.4" fill="none"/>
  <path id="path3881" stroke-linejoin="round" d="m500.17 265.51 25.468 15.58" stroke="#000" stroke-linecap="round" stroke-width="11.4" fill="none"/>
  <path id="path3883" stroke-linejoin="round" d="m463.32 268.36c15.994 11.409 60.353 19.182 106.96 26.666" stroke="#000" stroke-linecap="round" stroke-width="2" fill="none"/>
  <path id="path3885" stroke-linejoin="round" d="m673.65 345.81v-32.359l16.779-20.674-0.29963-41.348-28.464 20.974 7.7902 14.382" stroke="#000" stroke-linecap="round" stroke-width="11.4" fill="none"/>
  <path id="path3887" stroke-linejoin="round" d="m741.36 345.81c0-1.4981-7.7902-32.659-7.7902-32.659l-35.955-20.374 2.7616-1.2046 0.2378-40.293-8.2428-0.14941h12.135l24.569 15.281 28.164-7.7902" stroke="#000" stroke-linecap="round" stroke-width="11.4" fill="none"/>
  <path id="path3889" stroke-linejoin="round" d="m797.39 245.14-37.153 12.884" stroke="#000" stroke-linecap="round" stroke-width="2.2" fill="none"/>
  <path id="path3891" stroke-linejoin="round" d="m878.29 269.11 61.123-28.164 26.966 6.5917 12.584 27.565" stroke="#000" stroke-linecap="round" stroke-width="11.4" fill="none"/>
  <path id="path3893" stroke-linejoin="round" d="m925.33 346.71c0-2.0974 2.9962-35.655 2.9962-35.655l11.386-32.659-14.082-24.569 8.9887-4.4943 32.06 52.733 35.655 2.397" stroke="#000" stroke-linecap="round" stroke-width="11.4" fill="none"/>
  <path id="path3895" stroke-linejoin="round" d="m52.161 441.84-27.223 65.43 12.895 55.401" stroke="#000" stroke-linecap="round" stroke-width="11.4" fill="none"/>
  <path id="path3897" stroke-linejoin="round" d="m91.801 438.97-27.223 75.46-28.189-19.757-2.693 9.4709 28.971 19.361h68.296" stroke="#000" stroke-linecap="round" stroke-width="11.4" fill="none"/>
  <path id="path3899" stroke-linejoin="round" d="m248.93 467.63 32.054 33.812 7.8427 1.3241 7.9014-1.245 29.094-35.324" stroke="#000" stroke-linecap="round" stroke-width="11.4" fill="none"/>
  <path id="path3901" stroke-linejoin="round" d="m251.79 561.71 0.95519-41.073 26.745 17.193 3.3654-0.16898 0.45533-30.397 11.462 0.95519 0.95518 28.744-6.0584-21.645-7.1452 22.291 19.295-0.0294 17.788-16.466 8.5967 39.163" stroke="#000" stroke-linecap="round" stroke-width="11.4" fill="none"/>
  <path id="path3903" stroke="#000" stroke-width="3" fill="none" d="m230.78 464.28h112.71"/>
  <path id="path3905" stroke-linejoin="round" d="m459.55 460.94 17.671 28.178 28.656-16.238 23.88 1.4328 48.237 19.581" stroke="#000" stroke-linecap="round" stroke-width="11.4" fill="none"/>
  <path id="path3907" stroke-linejoin="round" d="m457.64 561.24 34.864-19.581 21.492-27.7-0.47759-31.999h11.462l-1.4328 33.431 24.835 20.059-24.357 23.402" stroke="#000" stroke-linecap="round" stroke-width="11.4" fill="none"/>
  <path id="path3909" stroke-linejoin="round" d="m650.58 535.45 18.626-15.283 0.95519-16.716 22.447-20.536 7.6415 19.104 15.283-7.1639" stroke="#000" stroke-linecap="round" stroke-width="7.7" fill="none"/>
  <path id="path3911" stroke-linejoin="round" d="m693.09 490.07-18.149 15.283 3.8207-2.8656 10.985 10.507-1.4328 24.357" stroke="#000" stroke-linecap="round" stroke-width="7.7" fill="none"/>
  <path id="path3913" stroke-linejoin="round" d="m728.43 474.31 15.761 31.999v10.507l29.611 19.104" stroke="#000" stroke-linecap="round" stroke-width="7.7" fill="none"/>
  <path id="path3915" stroke-linejoin="round" d="m800.55 475.75c-1.9104 0-33.431 31.999-33.431 31.999l-20.536 0.95519-0.47759-5.7311 20.059-0.4776-22.447-45.371" stroke="#000" stroke-linecap="round" stroke-width="7.7" fill="none"/>
  <path id="path3917" stroke-linejoin="round" d="m876.96 531.62h28.178l-11.462-16.716 34.387-0.47759-3.3432 4.2983-24.835-0.47759 22.924-1.4328v17.193h17.193" stroke="#000" stroke-linecap="round" stroke-width="7.7" fill="none"/>
  <path id="path3919" stroke-linejoin="round" d="m929.02 500.1 19.104-10.507v-9.5518l6.2087-10.029 26.268 24.357-6.2087-0.47759-19.581-16.716 18.148 16.716-14.328 12.417-0.4776 28.656" stroke="#000" stroke-linecap="round" stroke-width="7.7" fill="none"/>
  <path id="path3921" stroke-linejoin="round" d="m1005 531.15c-3.8207-0.47759-21.969-16.238-21.969-16.238l-1.9104-20.536-11.462-7.6415" stroke="#000" stroke-linecap="round" stroke-width="7.7" fill="none"/>
  <path id="path3923" stroke-linejoin="round" d="m893.68 708.33 57.789-25.79 12.895 76.415 39.163 3.8208" stroke="#000" stroke-linecap="round" stroke-width="11.4" fill="none"/>
  <path id="path3925" stroke-linejoin="round" d="m881.26 768.03 67.341-38.207-6.2087-39.163 5.2535-1.4328 4.7759 34.387" stroke="#000" stroke-linecap="round" stroke-width="11.4" fill="none"/>
  <path id="path3927" stroke-linejoin="round" d="m739.01 648.23c9.6614 18.323 22.663 31.475 9.9765 84.384 54.434-17.055 22.538-50.655-9.9765-84.384z" stroke="#000" stroke-linecap="round" stroke-width="8.6168"/>
  <path id="path3929" stroke="#000" stroke-width="1px" d="m731.3 741.77-13.035 12.415-23.13-5.529-20.669-0.19961-7.6415-13.85z"/>
  <path id="path3931" stroke-linejoin="round" d="m684.49 735.08 0.47759-15.283 46.804 3.3432-43.939 0.71638 8.1191-0.71638-0.77174 16.61-4.4818 0.10609" stroke="#000" stroke-linecap="round" stroke-width="11.4" fill="none"/>
  <path id="path3933" stroke-linejoin="round" d="m465.76 706.42 16.238-24.357 38.685 2.8656 14.328 28.178 24.357-13.85" stroke="#000" stroke-linecap="round" stroke-width="11.4" fill="none"/>
  <path id="path3935" stroke-linejoin="round" d="m444.74 769.47 37.252-17.671 6.6863-28.656 19.581-30.566 10.029 1.4328-17.671 28.656 17.193 18.149-0.95518 39.64" stroke="#000" stroke-linecap="round" stroke-width="11.4" fill="none"/>
  <path id="path3937" stroke-linejoin="round" d="m320.81 654.6c11.116 30.101 18.069 60.692-2.8656 94.563" stroke="#000" stroke-linecap="round" stroke-width="3.5" fill="none"/>
  <path id="path3939" stroke-linejoin="round" d="m253.71 690.66-2.388 16.716v-9.0743l70.206-0.47759-40.595 0.95518-1.4328 33.431 30.088 44.894" stroke="#000" stroke-linecap="round" stroke-width="11.4" fill="none"/>
  <path id="path3941" stroke-linejoin="round" d="m247.5 779.02 24.357-45.849v-30.088" stroke="#000" stroke-linecap="round" stroke-width="11.4" fill="none"/>
  <path id="path3943" stroke-linejoin="round" d="m94.883 778.71-39.85-56.735-31.745 57.411" stroke="#000" stroke-linecap="round" stroke-width="11.4" fill="none"/>
  <path id="path3945" stroke-linejoin="round" d="m53.007 716.57c-6.0788-4.0525-22.964-20.263-22.964-20.263l12.833-7.4296h60.112" stroke="#000" stroke-linecap="round" stroke-width="11.4" fill="none"/>
  <path id="path3947" stroke-linejoin="round" d="m48.757 729.72-0.47759-37.456h10.807l0.35469 34.181" stroke="#000" stroke-linecap="round" stroke-width="11.4" fill="none"/>
  <path id="path3949" stroke-linejoin="round" d="m123.8 678.32-15.889-0.0434-0.1815 11.335" stroke="#000" stroke-linecap="round" stroke-width="5.43" fill="none"/>
  <path id="path3951" stroke="#00f" stroke-width="1px" fill="none" d="m658.18 769.59c29.414-13.414 45.139-0.81847 66.529 1.0131 20.656-4.1451 41.405-7.4941 63.827 3.3771"/>
  <path id="path3953" stroke-linejoin="round" d="m658.18 769.59c29.414-13.414 45.139-0.81847 66.529 1.0131 20.656-4.1451 41.405-7.4941 63.827 3.3771" stroke="#000" stroke-linecap="round" stroke-width="2" fill="none"/>
  <path id="path3955" stroke-linejoin="round" d="m658.86 754.06c29.414-13.414 45.139-0.81847 66.529 1.0131 20.656-4.1452 41.405-7.4941 63.827 3.3771" stroke="#000" stroke-linecap="round" stroke-width="2" fill="none"/>
  <path id="path3957" stroke-linejoin="round" d="m658.86 761.46c29.414-13.414 45.139-0.81847 66.529 1.0131 20.656-4.1451 41.405-7.4941 63.827 3.3771" stroke="#000" stroke-linecap="round" stroke-width="2" fill="none"/>
  <rect id="rect3959" stroke-linejoin="round" height="32.444" width="9.4628" stroke="#000" stroke-linecap="round" y="447.63" x="219.38" stroke-width="11.4"/>
  <rect id="rect3961" stroke-linejoin="round" height="32.444" width="9.4628" stroke="#000" stroke-linecap="round" y="447.63" x="346.45" stroke-width="11.4"/>
  <path id="path3973" stroke="#00f" stroke-width="1px" fill="none" d="m4.9099 957.84c29.414-13.414 45.139-0.81847 66.529 1.0131 20.656-4.1452 41.405-7.4941 63.827 3.3771"/>
  <path id="path3975" stroke-linejoin="round" d="m4.9099 957.84c29.414-13.414 45.139-0.81847 66.529 1.0131 20.656-4.1452 41.405-7.4941 63.827 3.3771" stroke="#000" stroke-linecap="round" stroke-width="2" fill="none"/>
  <path id="path3977" stroke-linejoin="round" d="m5.5853 942.3c29.414-13.414 45.139-0.81847 66.529 1.0131 20.656-4.1451 41.405-7.4941 63.827 3.3771" stroke="#000" stroke-linecap="round" stroke-width="2" fill="none"/>
  <path id="path3979" stroke-linejoin="round" d="m5.5853 949.7c29.414-13.414 45.139-0.81847 66.529 1.0131 20.656-4.1451 41.405-7.4941 63.827 3.3771" stroke="#000" stroke-linecap="round" stroke-width="2" fill="none"/>
  <path id="path3981" stroke-linejoin="round" d="m111.57 916.71h-36.499l9.6318 27.881-30.923-0.50693 30.198 5.2388 0.725-4.5629" stroke="#000" stroke-linecap="round" stroke-width="11.4" fill="none"/>
  <path id="path3983" stroke-linejoin="round" d="m246.08 924.82 15.884-25.347 35.823 2.7037 14.87 27.713 26.699-12.842" stroke="#000" stroke-linecap="round" stroke-width="11.4" fill="none"/>
  <path id="path3985" stroke-linejoin="round" d="m292.72 907.93-24.671 36.837-9.1248 27.037-31.768 15.208" stroke="#000" stroke-linecap="round" stroke-width="11.4" fill="none"/>
  <path id="path3987" stroke-linejoin="round" d="m297.11 996.13-1.3518-42.245-16.56-15.546 16.898-26.699" stroke="#000" stroke-linecap="round" stroke-width="11.4" fill="none"/>
  <path id="path3989" stroke-linejoin="round" d="m534.36 897.11c-1.3518 1.0139-17.236 18.926-17.236 18.926l-27.375-19.939-16.898 21.629 17.236 13.856 0.0183 6.5421 0.0936-16.893-8.7546-4.5436 10.693-10.765 9.8226 4.4046-20.322 21.593-19.602 63.198 15.884-51.708 71.309 0.67592" stroke="#000" stroke-linecap="round" stroke-width="11.4" fill="none"/>
  <path id="path3991" stroke-linejoin="round" d="m702.32 921.44 26.023-14.194h27.375l26.361 21.291-26.361-21.291h-9.1249l0.67592 35.148 19.939 14.87 12.166 32.106-12.842-31.768-20.277-15.208-0.33796-33.796-8.7869-0.33796 0.33796 35.148-31.092 46.638" stroke="#000" stroke-linecap="round" stroke-width="11.4" fill="none"/>
  <path id="path3993" stroke-linejoin="round" d="m699.28 919.42-16.22-14.87c8.8729-20.833-16.821-27.281-19.939-22.981-8.6823 11.971 6.0145 28.848 20.277 22.643z" stroke="#000" stroke-linecap="round" stroke-width="2.8"/>
  <path id="path3995" stroke-linejoin="round" d="m213.14-645.55a8.4746 8.2627 0 1 1 -16.949 0 8.4746 8.2627 0 1 1 16.949 0z" transform="matrix(.47167 0 0 .47167 684.17 1247.5)" stroke="#000" stroke-linecap="round" stroke-width="4.1"/>
  <path id="path3997" stroke-linejoin="round" d="m213.14-645.55a8.4746 8.2627 0 1 1 -16.949 0 8.4746 8.2627 0 1 1 16.949 0z" transform="matrix(.23084 0 0 .23084 868.48 1076.7)" stroke="#000" stroke-linecap="round" stroke-width="4.1"/>
  <path id="path3999" stroke-linejoin="round" d="m908.81 987.01 12.166-26.023 18.926-18.25-1.6898-40.893-35.148 12.504 32.444-12.504 23.319 0.67591 31.768 24.333-32.106-24.333s-10.815-0.33795-10.815 1.0139 2.0277 38.189 2.0277 38.189h-9.1249l10.815 0.33796 23.657 17.912 13.18 36.499" stroke="#000" stroke-linecap="round" stroke-width="11.4" fill="none"/>
  <path id="path4001" stroke-linejoin="round" d="m898.67 913.16-7.773-4.7314c3.355-11.833-9.492-13.112-11.997-9.9698-2.7377 3.4335 1.848 14.286 11.829 9.9698z" stroke="#000" stroke-linecap="round" stroke-width="1px"/>
  <metadata>
    <rdf:RDF>
      <cc:Work>
        <dc:format>image/svg+xml</dc:format>
        <dc:type rdf:resource="http://purl.org/dc/dcmitype/StillImage"/>
        <cc:license rdf:resource="http://creativecommons.org/licenses/publicdomain/"/>
        <dc:publisher>
          <cc:Agent rdf:about="http://openclipart.org/">
            <dc:title>Openclipart</dc:title>
          </cc:Agent>
        </dc:publisher>
        <dc:title>Sports Symbols</dc:title>
        <dc:date>2012-08-02T09:06:45</dc:date>
        <dc:description>Several sports symbols - Symboles sports\n-----------------------\nEN: racing, canoeing, badminton, baseball, basketball, boxing, cycling, horseback riding, foil fencing, football, gymnastics, weightlifting, volleyball, judo, Greco-Roman, shooting, archery, marathon, sailing, volleyball, swimming, karate , tennis, table tennis\n-----------------------\nFR : course, canoe, badmington, baseball, basketball, boxe, cyclisme, &#xC3;&#xA9;quitation, fleuret, football, gymnastique, halt&#xC3;&#xA9;rophilie, volleyball, judo, lutte greco-romaine, tir, tir &#xC3;&#xA0; l'arc, marathon, voile, volleyball, natation, karate, tennis, ping-pong</dc:description>
        <dc:source>http://openclipart.org/detail/171405/sports-by-cyberscooty-171405</dc:source>
        <dc:creator>
          <cc:Agent>
            <dc:title>cyberscooty</dc:title>
          </cc:Agent>
        </dc:creator>
        <dc:subject>
          <rdf:Bag>
            <rdf:li>Greco-Roman</rdf:li>
            <rdf:li>archery</rdf:li>
            <rdf:li>badmington</rdf:li>
            <rdf:li>badminton</rdf:li>
            <rdf:li>baseball</rdf:li>
            <rdf:li>basketball</rdf:li>
            <rdf:li>boxe</rdf:li>
            <rdf:li>boxing</rdf:li>
            <rdf:li>canoe</rdf:li>
            <rdf:li>canoeing</rdf:li>
            <rdf:li>clip art</rdf:li>
            <rdf:li>clipart</rdf:li>
            <rdf:li>course</rdf:li>
            <rdf:li>cycling</rdf:li>
            <rdf:li>cyclisme</rdf:li>
            <rdf:li>fleuret</rdf:li>
            <rdf:li>foil fencing</rdf:li>
            <rdf:li>football</rdf:li>
            <rdf:li>gymnastics</rdf:li>
            <rdf:li>gymnastique</rdf:li>
            <rdf:li>halt&#xC3;&#xA9;rophilie</rdf:li>
            <rdf:li>horseback riding</rdf:li>
            <rdf:li>icon</rdf:li>
            <rdf:li>icons</rdf:li>
            <rdf:li>ic&#xC3;&#xB4;ne</rdf:li>
            <rdf:li>ic&#xC3;&#xB4;nes</rdf:li>
            <rdf:li>judo</rdf:li>
            <rdf:li>karate</rdf:li>
            <rdf:li>lutte greco-romaine</rdf:li>
            <rdf:li>marathon</rdf:li>
            <rdf:li>natation</rdf:li>
            <rdf:li>ping-pong</rdf:li>
            <rdf:li>racing</rdf:li>
            <rdf:li>sailing</rdf:li>
            <rdf:li>shooting</rdf:li>
            <rdf:li>sport</rdf:li>
            <rdf:li>sports</rdf:li>
            <rdf:li>sports2010</rdf:li>
            <rdf:li>swimming</rdf:li>
            <rdf:li>symbol</rdf:li>
            <rdf:li>symbole</rdf:li>
            <rdf:li>symboles</rdf:li>
            <rdf:li>symbols</rdf:li>
            <rdf:li>table tennis</rdf:li>
            <rdf:li>tennis</rdf:li>
            <rdf:li>tir</rdf:li>
            <rdf:li>tir &#xC3;&#xA0; l'arc</rdf:li>
            <rdf:li>voile</rdf:li>
            <rdf:li>volleyball</rdf:li>
            <rdf:li>weightlifting</rdf:li>
            <rdf:li>&#xC3;&#xA9;quitation</rdf:li>
          </rdf:Bag>
        </dc:subject>
      </cc:Work>
      <cc:License rdf:about="http://creativecommons.org/licenses/publicdomain/">
        <cc:permits rdf:resource="http://creativecommons.org/ns#Reproduction"/>
        <cc:permits rdf:resource="http://creativecommons.org/ns#Distribution"/>
        <cc:permits rdf:resource="http://creativecommons.org/ns#DerivativeWorks"/>
      </cc:License>
    </rdf:RDF>
  </metadata>
</svg>
