<?xml version="1.0"?>
<svg xmlns:rdf="http://www.w3.org/1999/02/22-rdf-syntax-ns#" xmlns="http://www.w3.org/2000/svg" xmlns:cc="http://web.resource.org/cc/" xmlns:dc="http://purl.org/dc/elements/1.1/" xmlns:svg="http://www.w3.org/2000/svg" id="svg2" viewBox="0 0 386.78 217.34" version="1.0">
  <g id="layer10" transform="translate(-68.688 -173.08)">
    <path id="path4172" d="m278.41 173.09c-0.93 0.19-0.7 1.86-1.1 2.75-3.56 1.52-7.96 2.49-10.9 5.6-6.21 2.5-11.01 7.52-16.69 10.97-5.37 3.14-10.39 7.01-15.38 10.68-0.97 2.11-2.66 3.51-4.59 4.6-3.59 3.3-8.49 3.54-12.59 5.84 0.07-2.79 1-7.83 0.43-11.44 0.69-7.45-4.12-17.58-12.93-16.12-6.05 0.47-12.57-1.09-18.38 0.75-2.55 0.86-2.65 4.2-4.72 5.25-1.82 3.12-3 6.86-3.03 10.53-0.62 2.57 2.55 4.1 1.38 6.38-0.83 2.41 1.65 5.29-0.32 7.09-0.87 3.44-4.86 3.85-6.87 6.47-2.67-0.2-4.87 1.31-7.34 1.78-3.1 2.29-5.73 5.52-7.19 9.12-2.15 1.91-4.26 4.1-5 6.94-0.45 4.92-5.22 7.45-7.22 11.78-0.99 3.62-2.12 7.25-3.78 10.53-1.31 2.18-3.14 4.42-4.35 6.69-2.15 3.9-5.42 7.63-6.25 12.13-1.38 2.08-1.07 5.07-2.84 6.81-2.05 3.96-2.29 9.15-5.56 12.34-3.1 1.61-3.48 4.92-3.44 7.94-0.4 3.39-0.64 9.35 4 9.72 1.71-0.71 3.27-1.46 4.91-2.34 1.47-4.07 5.12-7.14 6.78-11.19 1.91-2.42 3.01-5.29 5.53-7.35 2.61-2.37 4.31-5.47 5.94-8.46 1.82-4.16 5.12-7.58 6.9-11.76-0.32-3.21 2.4-5.34 3.25-8.09 2.58-1.91 4.35-4.56 6.41-7.03 0.86 3.07 2.72 6.34 0.41 9.38-0.49 3.14-1.64 6.09-2.13 9.21-0.5 2.7-1.05 5.2-2.22 7.6-1.88 1.97-3.11 4.46-4.25 6.93-0.86 1.29-1.73 2.71-2.25 4.26-0.55 3.22-1.35 6.54-4.65 8.28-4.87 5.82-10.1 11.61-15.38 17.12-2.73 0.17-5.3 1.94-6.53 4.5-2.58 0.37-4.63 2.81-7.22 3.22-2.47 2.62-5.44 4.61-8.44 6.72-3.05 1.85-5.36 4.69-7.62 7.37-2.52 2.94-4.83 6.06-7.378 8.94-3.807 2.28-4.664 7.16-8.531 9.41-2.89-0.82-4.731 1.46-6.031 3.65-2.418 1.16-2.677 3.96-5.031 5.03-3.072 1.97-7.308 4.42-7.531 8.79 0.712 3.66 6.23 4.45 9.531 3.47 3.054 1.58 7.194 1.9 10.312 0.31 0.739-1.83 1.88-3.09 2.5-4.85 4.606-5.56 9.949-10.77 15.469-15.59 4.26-2.48 7.93-5.95 12.19-8.22 3.02-3.9 6.97-8.04 12.53-6.65 2.03-1.43 4.69-2.49 6.78-4.32 3.9-1.73 6.96-4.65 10.78-6.65 7.07-4.07 13.75-8.06 20.63-12.29 6.16-1.61 11.5-6.64 18.34-5.5 8.88 0.28 17.51 2.6 26.31 3.82 5.13 1.26 10.41 2.04 15.91 1.22 1.92 0.94 4.65 0.77 5.94 2.65 0.84 6.69 0.13 13.93 3.59 19.88 2.03 7.35 3.5 14.9 4.56 22.43-2.12 4.39-2.54 9.52-2.65 14.44-0.55 4.15 4.35 2.99 7.12 3.16 5.84-0.43 12.2 1.44 17.78-0.38 5.54-1.26 12.23 3.64 17.07-0.87 2.84-4.27-2.67-9.06-7-8.81-3.74-3.29-8.29-5.84-12.07-9.19-0.88-1.61-2.15-4.66-4.78-3.85-1.69-6.9-1.4-14.11-1.78-21.24 0.11-8.24-2.56-15.95-2.69-24.13 0.54-5.13-1.78-10.44-6.56-12.81-3.86-0.83-6.62-3.39-10.44-4.38-8.32-4.24-17.85-5.88-26.9-8.15-3.19-0.08 0.28-3.38 1.09-4.63 2.94-3.05 2.05-7.18 1.56-10.9-1.39-5.51-1.65-11.22-1.34-16.94 0.55-6.92 1.83-13.89 3.31-20.63 5.63-3.53 9.93-9.31 16.03-12 4.98-3.96 10.83-6.35 15.16-11.03 2.12-1.14 1.35-3.88 3.03-5.37 4.57-1.44 6.06-6.67 9.62-9.47 2.86-1.53 4.12-4.61 6.66-6.69 1.84-4.74 7.51-4.19 11.69-4.5 2.26 1 4.86 0.45 6.62-1.41 1.19-2.4 2.93-4.95 3.32-7.65 99.92-1.06 145.73 1.47 167.31 2.72-0.37-2.82 0.1 0.98 0.25-1.25-31.1-2.01-164.72-4.81-167.78-4.88 0.45-4.61-3.67-9.02-8.44-8.03-0.36-0.14-0.63-0.2-0.84-0.16z"/>
  </g>
  <metadata>
    <rdf:RDF>
      <cc:Work>
        <dc:format>image/svg+xml</dc:format>
        <dc:type rdf:resource="http://purl.org/dc/dcmitype/StillImage"/>
        <cc:license rdf:resource="http://creativecommons.org/licenses/publicdomain/"/>
        <dc:publisher>
          <cc:Agent rdf:about="http://openclipart.org/">
            <dc:title>Openclipart</dc:title>
          </cc:Agent>
        </dc:publisher>
        <dc:title>fencing 1</dc:title>
        <dc:date>2008-01-06T11:02:32</dc:date>
        <dc:description>clip art, clipart, escrime, escrime, fencing, fencing, image, media, public domain, silhouette, silhouette, svg, </dc:description>
        <dc:source>http://openclipart.org/detail/10737/fencing-1-by-steren</dc:source>
        <dc:creator>
          <cc:Agent>
            <dc:title>Steren</dc:title>
          </cc:Agent>
        </dc:creator>
        <dc:subject>
          <rdf:Bag>
            <rdf:li>clip art</rdf:li>
            <rdf:li>clipart</rdf:li>
            <rdf:li>escrime</rdf:li>
            <rdf:li>fencing</rdf:li>
            <rdf:li>image</rdf:li>
            <rdf:li>media</rdf:li>
            <rdf:li>public domain</rdf:li>
            <rdf:li>silhouette</rdf:li>
            <rdf:li>svg</rdf:li>
          </rdf:Bag>
        </dc:subject>
      </cc:Work>
      <cc:License rdf:about="http://creativecommons.org/licenses/publicdomain/">
        <cc:permits rdf:resource="http://creativecommons.org/ns#Reproduction"/>
        <cc:permits rdf:resource="http://creativecommons.org/ns#Distribution"/>
        <cc:permits rdf:resource="http://creativecommons.org/ns#DerivativeWorks"/>
      </cc:License>
    </rdf:RDF>
  </metadata>
</svg>
