<?xml version="1.0" encoding="UTF-8" standalone="no"?>
<svg
   xmlns:dc="http://purl.org/dc/elements/1.1/"
   xmlns:cc="http://creativecommons.org/ns#"
   xmlns:rdf="http://www.w3.org/1999/02/22-rdf-syntax-ns#"
   xmlns:svg="http://www.w3.org/2000/svg"
   xmlns="http://www.w3.org/2000/svg"
   id="svg42432"
   viewBox="0 0 276 371.339"
   height="371.33899"
   width="276"
   y="0"
   x="0"
   version="1.1">
  <metadata
     id="metadata42438">
    <rdf:RDF>
      <cc:Work
         rdf:about="">
        <dc:format>image/svg+xml</dc:format>
        <dc:type
           rdf:resource="http://purl.org/dc/dcmitype/StillImage" />
        <dc:title></dc:title>
      </cc:Work>
    </rdf:RDF>
  </metadata>
  <defs
     id="defs42436" />
  <g
     id="Background" />
  <g
     id="Layer_1">
    <path
       style="fill:#666666"
       id="path42331"
       d="m 166.492,308.968 -0.129,-0.013 -0.689,0.042 -1.356,-6.661 -0.009,-2.848 z m -74.493,1.397 c 0.125,-0.343 0.249,-0.696 0.374,-1.058 1.699,0.674 3.899,0.782 4.399,0.798 l -0.001,0.004 c -0.433,0.004 -2.274,0.04 -4.772,0.256 m 31.29,-81.302 -17.415,2.488 c 0,0 0.013,0.033 0.034,0.081 l -7.302,0.868 -0.004,1.191 c -5.066,0.542 -9.407,3.034 -9.407,3.034 0,0 -2.658,-7.475 -6.132,-16.135 11.877,4.505 25.457,6.204 40.632,4.183 z m -25.088,74.019 c -1.425,-0.256 -2.742,-0.283 -3.891,-0.046 1.454,-5.173 2.854,-11.135 4.102,-16.945 l -0.058,16.245 z m 126.244,-30.221 c 9.815,-9.49 18.323,-27.423 6.295,-39.601 -4.797,-4.858 9.297,-22.797 -0.873,-39.338 -7.527,-12.24 -19.558,-14.205 -28.713,-13.559 0.323,-1.601 0.265,-3.414 -0.508,-5.377 -0.315,-0.799 -0.736,-1.489 -1.212,-2.101 4.233,-7.471 7.623,-16.294 8.785,-26.361 0.056,-0.489 0.101,-0.967 0.155,-1.453 4.37,-4.585 5.767,-10.529 4.198,-18.075 -0.662,-3.185 -1.674,-5.769 -2.929,-7.867 -1.23,-74.934 -47.987,-110.66 -106.15,-108.844 -5.182,0.162 -9.996,0.489 -14.466,0.957 -62.162,6.516 -58.022,40.482 -58.022,40.482 -17.888,2.059 -38.237,55.082 -17.906,101.273 1.465,3.331 2.977,6.505 4.526,9.544 0.053,1.5 0.234,3.102 0.594,4.834 1.61,7.747 5.407,12.705 11.516,15.104 11.429,15.723 24.221,25.796 37.339,31.866 3.88,13.001 9.548,30.604 9.548,30.604 -5.744,8.563 -0.634,18.844 6.913,24.455 -5.005,13.26 -11.738,31.916 -12.078,37.123 -0.304,4.693 0.583,7.929 2.106,10.067 -1.258,1.482 -1.855,3.306 -1.418,5.545 1.024,5.257 10.339,8.607 20.287,9.297 l -11.124,54.664 -3.261,-0.049 -5.763,37.156 c 0.485,0.106 0.957,0.187 1.421,0.257 l -11.37,55.87 H 89.77 c 5.106,30.065 18.801,123.609 18.801,123.609 0,0 -1.437,4.543 -0.05,7.155 l 1.388,2.613 c 0,0 -3.894,2.578 -1.448,5.844 2.449,3.269 0.512,2.119 0.513,2.119 0.223,1.363 6.523,0.24 6.523,0.24 l 0.927,0.006 c -4.994,0.741 -10.427,2.568 -13.66,6.781 -1.726,2.25 -2.599,4.031 -2.989,5.429 l -0.004,0.003 c -2.995,5.432 -0.713,7.689 -0.713,7.689 l 28.877,-0.25 v -19.841 c 0,0 -0.074,-0.01 -0.208,-0.026 -0.008,-0.355 -0.022,-1.031 -0.039,-2.01 0.21,-0.002 0.371,-0.002 0.455,-0.002 1.054,0.008 1.088,-4.869 0.037,-5.203 -0.267,-0.086 -0.464,-0.398 -0.611,-0.82 -0.03,-1.57 -0.063,-3.336 -0.103,-5.279 0.212,-1.393 0.451,-3.283 0.437,-4.637 -0.022,-2.143 -0.529,-5.109 -0.64,-5.734 -0.556,-28.353 -2.091,-104.035 -2.369,-117.686 h 12.885 c -0.278,13.651 -1.815,89.333 -2.369,117.686 -0.112,0.625 -0.618,3.591 -0.642,5.734 -0.013,1.354 0.226,3.244 0.438,4.637 -0.039,1.943 -0.073,3.709 -0.104,5.279 -0.146,0.422 -0.343,0.734 -0.609,0.82 -1.052,0.334 -1.016,5.211 0.038,5.203 0.084,0 0.243,0 0.455,0.002 -0.02,0.979 -0.033,1.655 -0.039,2.01 -0.136,0.016 -0.209,0.026 -0.209,0.026 v 19.841 l 28.875,0.25 c 0,0 2.283,-2.257 -0.711,-7.689 l -0.006,-0.003 c -0.389,-1.398 -1.262,-3.179 -2.988,-5.429 -3.233,-4.213 -8.666,-6.04 -13.659,-6.781 l 0.926,-0.006 c 0,0 6.3,1.123 6.524,-0.24 0,0 -1.935,1.15 0.513,-2.119 2.446,-3.266 -1.448,-5.844 -1.448,-5.844 l 1.386,-2.613 c 1.387,-2.612 -0.048,-7.155 -0.048,-7.155 0,0 13.694,-93.544 18.8,-123.609 h 27.435 l -11.37,-55.87 c 0.465,-0.07 0.935,-0.151 1.422,-0.257 l -5.763,-37.156 -3.263,0.049 -11.967,-58.809 c 9.055,-0.138 15.836,-0.538 17.155,-1.385 4.666,-3 0.73,-14.908 0.73,-14.908 -5.441,-20.369 -16.511,-75.758 -21.897,-78.457 -0.372,-0.186 -2.573,-0.377 -5.681,-0.559 l -3.105,-0.37 c 0.015,-0.036 0.026,-0.061 0.026,-0.061 l -17.416,-2.488 -0.698,-7.357 c 11.329,-3.202 20.918,-8.042 28.888,-14.125 -3.934,18.716 6.049,34.278 15.051,36.773 10.134,2.808 9.067,23.33 16.563,37.916 7.495,14.59 28.418,13.088 28.418,13.088 0,0 -10.664,-15.071 -2.985,-22.497" />
    <path
       style="fill-opacity:0;stroke:#666666;stroke-width:8;stroke-linecap:round;stroke-linejoin:round"
       id="path42333"
       d="m 166.492,308.968 -0.129,-0.013 -0.689,0.042 -1.356,-6.661 -0.009,-2.848 z m -74.493,1.397 c 0.125,-0.343 0.249,-0.696 0.374,-1.058 1.699,0.674 3.899,0.782 4.399,0.798 l -0.001,0.004 c -0.433,0.004 -2.274,0.04 -4.772,0.256 z m 31.29,-81.302 -17.415,2.488 c 0,0 0.013,0.033 0.034,0.081 l -7.302,0.868 -0.004,1.191 c -5.066,0.542 -9.407,3.034 -9.407,3.034 0,0 -2.658,-7.475 -6.132,-16.135 11.877,4.505 25.457,6.204 40.632,4.183 z m -25.088,74.019 c -1.425,-0.256 -2.742,-0.283 -3.891,-0.046 1.454,-5.173 2.854,-11.135 4.102,-16.945 l -0.058,16.245 z m 126.244,-30.221 c 9.815,-9.49 18.323,-27.423 6.295,-39.601 -4.797,-4.858 9.297,-22.797 -0.873,-39.338 -7.527,-12.24 -19.558,-14.205 -28.713,-13.559 0.323,-1.601 0.265,-3.414 -0.508,-5.377 -0.315,-0.799 -0.736,-1.489 -1.212,-2.101 4.233,-7.471 7.623,-16.294 8.785,-26.361 0.056,-0.489 0.101,-0.967 0.155,-1.453 4.37,-4.585 5.767,-10.529 4.198,-18.075 -0.662,-3.185 -1.674,-5.769 -2.929,-7.867 -1.23,-74.934 -47.987,-110.66 -106.15,-108.844 -5.182,0.162 -9.996,0.489 -14.466,0.957 -62.162,6.516 -58.022,40.482 -58.022,40.482 -17.888,2.059 -38.237,55.082 -17.906,101.273 1.465,3.331 2.977,6.505 4.526,9.544 0.053,1.5 0.234,3.102 0.594,4.834 1.61,7.747 5.407,12.705 11.516,15.104 11.429,15.723 24.221,25.796 37.339,31.866 3.88,13.001 9.548,30.604 9.548,30.604 -5.744,8.563 -0.634,18.844 6.913,24.455 -5.005,13.26 -11.738,31.916 -12.078,37.123 -0.304,4.693 0.583,7.929 2.106,10.067 -1.258,1.482 -1.855,3.306 -1.418,5.545 1.024,5.257 10.339,8.607 20.287,9.297 l -11.124,54.664 -3.261,-0.049 -5.763,37.156 c 0.485,0.106 0.957,0.187 1.421,0.257 l -11.37,55.87 H 89.77 c 5.106,30.065 18.801,123.609 18.801,123.609 0,0 -1.437,4.543 -0.05,7.155 l 1.388,2.613 c 0,0 -3.894,2.578 -1.448,5.844 2.449,3.269 0.512,2.119 0.513,2.119 0.223,1.363 6.523,0.24 6.523,0.24 l 0.927,0.006 c -4.994,0.741 -10.427,2.568 -13.66,6.781 -1.726,2.25 -2.599,4.031 -2.989,5.429 l -0.004,0.003 c -2.995,5.432 -0.713,7.689 -0.713,7.689 l 28.877,-0.25 v -19.841 c 0,0 -0.074,-0.01 -0.208,-0.026 -0.008,-0.355 -0.022,-1.031 -0.039,-2.01 0.21,-0.002 0.371,-0.002 0.455,-0.002 1.054,0.008 1.088,-4.869 0.037,-5.203 -0.267,-0.086 -0.464,-0.398 -0.611,-0.82 -0.03,-1.57 -0.063,-3.336 -0.103,-5.279 0.212,-1.393 0.451,-3.283 0.437,-4.637 -0.022,-2.143 -0.529,-5.109 -0.64,-5.734 -0.556,-28.353 -2.091,-104.035 -2.369,-117.686 h 12.885 c -0.278,13.651 -1.815,89.333 -2.369,117.686 -0.112,0.625 -0.618,3.591 -0.642,5.734 -0.013,1.354 0.226,3.244 0.438,4.637 -0.039,1.943 -0.073,3.709 -0.104,5.279 -0.146,0.422 -0.343,0.734 -0.609,0.82 -1.052,0.334 -1.016,5.211 0.038,5.203 0.084,0 0.243,0 0.455,0.002 -0.02,0.979 -0.033,1.655 -0.039,2.01 -0.136,0.016 -0.209,0.026 -0.209,0.026 v 19.841 l 28.875,0.25 c 0,0 2.283,-2.257 -0.711,-7.689 l -0.006,-0.003 c -0.389,-1.398 -1.262,-3.179 -2.988,-5.429 -3.233,-4.213 -8.666,-6.04 -13.659,-6.781 l 0.926,-0.006 c 0,0 6.3,1.123 6.524,-0.24 0,0 -1.935,1.15 0.513,-2.119 2.446,-3.266 -1.448,-5.844 -1.448,-5.844 l 1.386,-2.613 c 1.387,-2.612 -0.048,-7.155 -0.048,-7.155 0,0 13.694,-93.544 18.8,-123.609 h 27.435 l -11.37,-55.87 c 0.465,-0.07 0.935,-0.151 1.422,-0.257 l -5.763,-37.156 -3.263,0.049 -11.967,-58.809 c 9.055,-0.138 15.836,-0.538 17.155,-1.385 4.666,-3 0.73,-14.908 0.73,-14.908 -5.441,-20.369 -16.511,-75.758 -21.897,-78.457 -0.372,-0.186 -2.573,-0.377 -5.681,-0.559 l -3.105,-0.37 c 0.015,-0.036 0.026,-0.061 0.026,-0.061 l -17.416,-2.488 -0.698,-7.357 c 11.329,-3.202 20.918,-8.042 28.888,-14.125 -3.934,18.716 6.049,34.278 15.051,36.773 10.134,2.808 9.067,23.33 16.563,37.916 7.495,14.59 28.418,13.088 28.418,13.088 0,0 -10.664,-15.071 -2.985,-22.497 z" />
    <path
       style="fill-opacity:0;stroke:#919ed0;stroke-width:6;stroke-linecap:round;stroke-linejoin:round"
       id="path42335"
       d="m 230.753,56.414 c 0,0 -3.883,-15.064 6.552,-22.033 11.578,-7.732 39.578,3.602 33.578,23.936 -6,20.332 -28.911,15.398 -28.911,15.398 l -2.727,13.404" />
    <path
       style="fill-opacity:0;stroke:#919ed0;stroke-width:6;stroke-linecap:round;stroke-linejoin:round"
       id="path42337"
       d="m 235.49,102.721 -0.333,2.334" />
    <path
       style="fill:#bd7253"
       id="path42339"
       d="m 188.499,183.01 c 0,0 27.902,-10.99 41.368,10.912 10.171,16.541 -3.923,34.48 0.873,39.338 12.029,12.178 3.52,30.111 -6.294,39.601 -7.68,7.426 2.985,22.497 2.985,22.497 0,0 -20.923,1.502 -28.418,-13.088 -7.496,-14.586 -6.429,-35.108 -16.563,-37.916 -10.133,-2.809 -21.524,-22.168 -12.892,-43.95 8.63,-21.781 18.941,-17.394 18.941,-17.394" />
    <path
       style="fill-opacity:0;stroke:#666666;stroke-width:4;stroke-linecap:round;stroke-linejoin:round"
       id="path42341"
       d="m 188.499,183.01 c 0,0 27.902,-10.99 41.368,10.912 10.171,16.541 -3.923,34.48 0.873,39.338 12.029,12.178 3.52,30.111 -6.294,39.601 -7.68,7.426 2.985,22.497 2.985,22.497 0,0 -20.923,1.502 -28.418,-13.088 -7.496,-14.586 -6.429,-35.108 -16.563,-37.916 -10.133,-2.809 -21.524,-22.168 -12.892,-43.95 8.63,-21.781 18.941,-17.394 18.941,-17.394 z" />
    <path
       style="fill:#bd7253"
       id="path42343"
       d="m 31.005,51.724 c 0,0 -4.14,-33.966 58.022,-40.482 4.47,-0.468 9.284,-0.795 14.466,-0.957 64.851,-2.025 115.534,42.612 104.726,136.239 -4.03,34.914 -34.809,54.961 -34.809,54.961 0,0 -107.908,70.576 -160.311,-48.488 C -7.232,106.806 13.117,53.783 31.005,51.724" />
    <path
       style="fill-opacity:0;stroke:#666666;stroke-width:4;stroke-linecap:round;stroke-linejoin:round"
       id="path42345"
       d="m 31.005,51.724 c 0,0 -4.14,-33.966 58.022,-40.482 4.47,-0.468 9.284,-0.795 14.466,-0.957 64.851,-2.025 115.534,42.612 104.726,136.239 -4.03,34.914 -34.809,54.961 -34.809,54.961 0,0 -107.908,70.576 -160.311,-48.488 C -7.232,106.806 13.117,53.783 31.005,51.724 Z" />
    <path
       style="fill:#ed9aaf"
       id="path42347"
       d="m 166.534,205.467 c 0,0 2.248,7.365 11.387,4.346 6.817,-2.254 7.579,-6.918 7.579,-6.918 0,0 6.483,0.867 10.911,-6.018 3.017,-4.687 0.232,-9.424 0.232,-9.424 0,0 6.859,-5.213 4.003,-12.467 -2.043,-5.185 -8.238,-6.169 -8.238,-6.169 z" />
    <path
       style="fill-opacity:0;stroke:#666666;stroke-width:4;stroke-linecap:round;stroke-linejoin:round"
       id="path42349"
       d="m 166.534,205.467 c 0,0 2.248,7.365 11.387,4.346 6.817,-2.254 7.579,-6.918 7.579,-6.918 0,0 6.483,0.867 10.911,-6.018 3.017,-4.687 0.232,-9.424 0.232,-9.424 0,0 6.859,-5.213 4.003,-12.467 -2.043,-5.185 -8.238,-6.169 -8.238,-6.169 z" />
    <path
       style="fill:#ffe073"
       id="path42351"
       d="m 177.282,317.998 c 8.346,-0.096 10,-7 10,-7 -5.442,-20.369 -16.512,-75.758 -21.897,-78.457 -1.539,-0.771 -34.136,-1.615 -34.136,-1.615 v -1 c 0,0 -15.602,-0.627 -25.348,4.785 -5.266,2.926 -8.638,5.107 -13.648,20.822 l 7.567,23.766 c 0.642,-4.611 6.303,-10.998 6.303,-10.998 l -1.812,30.283 -20.019,82.385 38.572,1.992 h 10e-4 0.006 l 0.411,0.022 c 1.234,0.023 4.943,-0.227 6.841,-3.932 0.726,-1.416 1.198,-3.455 1.506,-5.586 0.307,2.186 0.784,4.289 1.526,5.738 1.899,3.705 5.608,3.955 6.842,3.932 l 0.41,-0.022 h 0.006 0.002 l 38.572,-1.992 -20.02,-82.385 -1.812,-30.283 9.657,41.899 c 0,0 2.124,7.74 10.47,7.646" />
    <path
       style="fill-opacity:0;stroke:#666666;stroke-width:4;stroke-linecap:round;stroke-linejoin:round"
       id="path42353"
       d="m 177.282,317.998 c 8.346,-0.096 10,-7 10,-7 -5.442,-20.369 -16.512,-75.758 -21.897,-78.457 -1.539,-0.771 -34.136,-1.615 -34.136,-1.615 v -1 c 0,0 -15.602,-0.627 -25.348,4.785 -5.266,2.926 -8.638,5.107 -13.648,20.822 l 7.567,23.766 c 0.642,-4.611 6.303,-10.998 6.303,-10.998 l -1.812,30.283 -20.019,82.385 38.572,1.992 h 10e-4 0.006 l 0.411,0.022 c 1.234,0.023 4.943,-0.227 6.841,-3.932 0.726,-1.416 1.198,-3.455 1.506,-5.586 0.307,2.186 0.784,4.289 1.526,5.738 1.899,3.705 5.608,3.955 6.842,3.932 l 0.41,-0.022 h 0.006 0.002 l 38.572,-1.992 -20.02,-82.385 -1.812,-30.283 9.657,41.899 c 0,0 2.124,7.74 10.47,7.646 z" />
    <path
       style="fill:#ffe073"
       id="path42355"
       d="m 103.373,259.988 -14.459,-4.552 c 0,0 -16.916,42.761 -17.457,51.091 -1.099,16.93 13.284,14.963 17.247,10.463 6.554,-7.441 14.669,-57.002 14.669,-57.002" />
    <path
       style="fill-opacity:0;stroke:#666666;stroke-width:4;stroke-linecap:round;stroke-linejoin:round"
       id="path42357"
       d="m 103.373,259.988 -14.459,-4.552 c 0,0 -16.916,42.761 -17.457,51.091 -1.099,16.93 13.284,14.963 17.247,10.463 6.554,-7.441 14.669,-57.002 14.669,-57.002 z" />
    <path
       style="fill:#ffecd0"
       id="path42359"
       d="m 139.207,229.063 -1.469,-15.518 -6.49,-4.219 -6.49,4.219 -1.469,15.518 -17.415,2.488 c 0,0 4.248,11.525 25.374,11.525 21.127,0 25.375,-11.525 25.375,-11.525 z" />
    <path
       style="fill-opacity:0;stroke:#666666;stroke-width:4;stroke-linecap:round;stroke-linejoin:round"
       id="path42361"
       d="m 139.207,229.063 -1.469,-15.518 -6.49,-4.219 -6.49,4.219 -1.469,15.518 -17.415,2.488 c 0,0 4.248,11.525 25.374,11.525 21.127,0 25.375,-11.525 25.375,-11.525 z" />
    <path
       style="fill:#8197b5"
       id="path42363"
       d="m 131.423,433.791 0.464,-65.961 -41.913,-0.295 c 0,0 -12.003,18.307 -9.75,35.157 0.438,3.273 2.041,13.529 4.337,27.927 0.985,16.565 2.352,36.129 3.504,39.787 2.062,6.555 20.506,132.537 20.506,132.537 0,0 -1.437,4.543 -0.05,7.155 l 1.388,2.613 c 0,0 -3.894,2.578 -1.448,5.844 2.449,3.269 0.512,2.119 0.513,2.119 0.223,1.363 6.523,0.24 6.523,0.24 l 12.234,0.084 c 0,0 -0.016,-0.805 -0.043,-2.303 0.21,-0.002 0.371,-0.002 0.455,-0.002 1.054,0.008 1.088,-4.869 0.037,-5.203 -0.267,-0.086 -0.464,-0.398 -0.611,-0.82 -0.03,-1.57 -0.063,-3.336 -0.103,-5.279 0.212,-1.393 0.451,-3.283 0.437,-4.637 -0.022,-2.143 -0.529,-5.109 -0.64,-5.734 -0.612,-31.217 -2.413,-119.817 -2.413,-119.817 -0.323,-15.25 -0.859,-26.345 -0.966,-29.314 -0.451,-12.649 7.539,-14.098 7.539,-14.098" />
    <path
       style="fill-opacity:0;stroke:#666666;stroke-width:4;stroke-linecap:round;stroke-linejoin:round"
       id="path42365"
       d="m 131.423,433.791 0.464,-65.961 -41.913,-0.295 c 0,0 -12.003,18.307 -9.75,35.157 0.438,3.273 2.041,13.529 4.337,27.927 0.985,16.565 2.352,36.129 3.504,39.787 2.062,6.555 20.506,132.537 20.506,132.537 0,0 -1.437,4.543 -0.05,7.155 l 1.388,2.613 c 0,0 -3.894,2.578 -1.448,5.844 2.449,3.269 0.512,2.119 0.513,2.119 0.223,1.363 6.523,0.24 6.523,0.24 l 12.234,0.084 c 0,0 -0.016,-0.805 -0.043,-2.303 0.21,-0.002 0.371,-0.002 0.455,-0.002 1.054,0.008 1.088,-4.869 0.037,-5.203 -0.267,-0.086 -0.464,-0.398 -0.611,-0.82 -0.03,-1.57 -0.063,-3.336 -0.103,-5.279 0.212,-1.393 0.451,-3.283 0.437,-4.637 -0.022,-2.143 -0.529,-5.109 -0.64,-5.734 -0.612,-31.217 -2.413,-119.817 -2.413,-119.817 -0.323,-15.25 -0.859,-26.345 -0.966,-29.314 -0.451,-12.649 7.539,-14.098 7.539,-14.098 z" />
    <path
       style="fill:#8197b5"
       id="path42367"
       d="m 131.249,433.791 -0.463,-65.961 41.912,-0.295 c 0,0 12.004,18.307 9.75,35.157 -0.438,3.273 -2.04,13.529 -4.336,27.927 -0.984,16.565 -2.352,36.129 -3.505,39.787 -2.061,6.555 -20.505,132.537 -20.505,132.537 0,0 1.436,4.543 0.049,7.155 l -1.386,2.613 c 0,0 3.893,2.578 1.447,5.844 -2.448,3.269 -0.512,2.119 -0.513,2.119 -0.223,1.363 -6.523,0.24 -6.523,0.24 l -12.235,0.084 c 0,0 0.016,-0.805 0.045,-2.303 -0.211,-0.002 -0.371,-0.002 -0.455,-0.002 -1.054,0.008 -1.089,-4.869 -0.038,-5.203 0.267,-0.086 0.464,-0.398 0.61,-0.82 0.03,-1.57 0.065,-3.336 0.103,-5.279 -0.211,-1.393 -0.45,-3.283 -0.437,-4.637 0.024,-2.143 0.529,-5.109 0.641,-5.734 0.611,-31.217 2.413,-119.817 2.413,-119.817 0.322,-15.25 0.86,-26.345 0.966,-29.314 0.451,-12.649 -7.54,-14.098 -7.54,-14.098" />
    <path
       style="fill-opacity:0;stroke:#666666;stroke-width:4;stroke-linecap:round;stroke-linejoin:round"
       id="path42369"
       d="m 131.249,433.791 -0.463,-65.961 41.912,-0.295 c 0,0 12.004,18.307 9.75,35.157 -0.438,3.273 -2.04,13.529 -4.336,27.927 -0.984,16.565 -2.352,36.129 -3.505,39.787 -2.061,6.555 -20.505,132.537 -20.505,132.537 0,0 1.436,4.543 0.049,7.155 l -1.386,2.613 c 0,0 3.893,2.578 1.447,5.844 -2.448,3.269 -0.512,2.119 -0.513,2.119 -0.223,1.363 -6.523,0.24 -6.523,0.24 l -12.235,0.084 c 0,0 0.016,-0.805 0.045,-2.303 -0.211,-0.002 -0.371,-0.002 -0.455,-0.002 -1.054,0.008 -1.089,-4.869 -0.038,-5.203 0.267,-0.086 0.464,-0.398 0.61,-0.82 0.03,-1.57 0.065,-3.336 0.103,-5.279 -0.211,-1.393 -0.45,-3.283 -0.437,-4.637 0.024,-2.143 0.529,-5.109 0.641,-5.734 0.611,-31.217 2.413,-119.817 2.413,-119.817 0.322,-15.25 0.86,-26.345 0.966,-29.314 0.451,-12.649 -7.54,-14.098 -7.54,-14.098 z" />
    <path
       style="fill:#f59e91"
       id="path42371"
       d="m 164.319,302.336 -0.255,-69.836 -7.979,-0.949 -5.748,18.973 h -38.001 l -5.748,-18.973 -7.981,0.949 -0.253,69.836 -36.018,176.998 h 138.001 z" />
    <path
       style="fill-opacity:0;stroke:#666666;stroke-width:4;stroke-linecap:round;stroke-linejoin:round"
       id="path42373"
       d="m 164.319,302.336 -0.255,-69.836 -7.979,-0.949 -5.748,18.973 h -38.001 l -5.748,-18.973 -7.981,0.949 -0.253,69.836 -36.018,176.998 h 138.001 z" />
    <path
       style="fill:#ffe073"
       id="path42375"
       d="m 187.282,310.998 c 0,0 3.935,11.908 -0.731,14.908 -4.668,3 -77.887,0.395 -77.887,0.395 l -1.014,-13.77 58.713,-3.576" />
    <path
       style="fill-opacity:0;stroke:#666666;stroke-width:4;stroke-linecap:round;stroke-linejoin:round"
       id="path42377"
       d="m 187.282,310.998 c 0,0 3.935,11.908 -0.731,14.908 -4.668,3 -77.887,0.395 -77.887,0.395 l -1.014,-13.77 58.713,-3.576" />
    <path
       style="fill:#ffecd0"
       id="path42379"
       d="m 41.779,142.427 c 0,0 -28.735,0.038 -23.559,24.948 3.045,14.656 13.912,19.338 33.472,15.565" />
    <path
       style="fill-opacity:0;stroke:#666666;stroke-width:4;stroke-linecap:round;stroke-linejoin:round"
       id="path42381"
       d="m 41.779,142.427 c 0,0 -28.735,0.038 -23.559,24.948 3.045,14.656 13.912,19.338 33.472,15.565" />
    <path
       style="fill:#ffecd0"
       id="path42383"
       d="m 28.999,166.543 c 0,0 3.266,-2.418 6.711,-3.111" />
    <path
       style="fill-opacity:0;stroke:#666666;stroke-width:4;stroke-linecap:round;stroke-linejoin:round"
       id="path42385"
       d="m 28.999,166.543 c 0,0 3.266,-2.418 6.711,-3.111" />
    <path
       style="fill:#ffecd0"
       id="path42387"
       d="m 181.025,113.496 c 0,0 26.371,-11.412 31.548,13.5 3.045,14.655 -5.058,23.28 -24.502,27.61" />
    <path
       style="fill-opacity:0;stroke:#666666;stroke-width:4;stroke-linecap:round;stroke-linejoin:round"
       id="path42389"
       d="m 181.025,113.496 c 0,0 26.371,-11.412 31.548,13.5 3.045,14.655 -5.058,23.28 -24.502,27.61" />
    <path
       style="fill:#ffecd0"
       id="path42391"
       d="m 202.353,130.526 c 0,0 -3.959,-0.917 -7.396,-0.181" />
    <path
       style="fill-opacity:0;stroke:#666666;stroke-width:4;stroke-linecap:round;stroke-linejoin:round"
       id="path42393"
       d="m 202.353,130.526 c 0,0 -3.959,-0.917 -7.396,-0.181" />
    <path
       style="fill:#ffecd0"
       id="path42395"
       d="M 131.249,223.488 C 13.013,248.053 -15.611,52.848 91.185,30.658 197.98,8.47 249.484,198.922 131.249,223.488" />
    <path
       style="fill-opacity:0;stroke:#666666;stroke-width:4;stroke-linecap:round;stroke-linejoin:round"
       id="path42397"
       d="M 131.249,223.488 C 13.013,248.053 -15.611,52.848 91.185,30.658 197.98,8.47 249.484,198.922 131.249,223.488 Z" />
    <path
       style="fill-opacity:0;stroke:#666666;stroke-width:4;stroke-linecap:round;stroke-linejoin:round"
       id="path42399"
       d="m 115.101,165.029 c 0,0 -0.085,6.147 4.99,4.752" />
    <path
       style="fill:#f09a96"
       id="path42401"
       d="m 121.347,178.713 c 9.139,-1.9 15.426,29.162 7.021,30.908 -8.407,1.746 -16.16,-29.01 -7.021,-30.908" />
    <path
       style="fill-opacity:0;stroke:#666666;stroke-width:4;stroke-linecap:round;stroke-linejoin:round"
       id="path42403"
       d="m 121.347,178.713 c 9.139,-1.9 15.426,29.162 7.021,30.908 -8.407,1.746 -16.16,-29.01 -7.021,-30.908 z" />
    <path
       style="fill:#ffecd0"
       id="path42405"
       d="m 76.622,244.949 c 0,0 -8.843,-27.461 -12.001,-39.117 -3.155,-11.658 6.53,-11.775 12.406,0.711 5.877,12.486 12.168,30.182 12.168,30.182 0,0 13.451,-7.735 20.635,1.076 11.698,14.346 3,30 -11.507,35.146 -11.889,4.219 -30.993,-14.146 -21.701,-27.998" />
    <path
       style="fill-opacity:0;stroke:#666666;stroke-width:4;stroke-linecap:round;stroke-linejoin:round"
       id="path42407"
       d="m 76.622,244.949 c 0,0 -8.843,-27.461 -12.001,-39.117 -3.155,-11.658 6.53,-11.775 12.406,0.711 5.877,12.486 12.168,30.182 12.168,30.182 0,0 13.451,-7.735 20.635,1.076 11.698,14.346 3,30 -11.507,35.146 -11.889,4.219 -30.993,-14.146 -21.701,-27.998 z" />
    <path
       style="fill:#bd7253"
       id="path42409"
       d="m 33.518,60.949 c 0,0 5.626,23.184 53.419,24.124 0,0 71.18,-7.444 86.559,-19.719 11.251,-8.981 1.19,-16.608 1.19,-16.608 0,0 -29.405,-37.482 -83.371,-23.631 C 85.567,26.59 79.54,28.649 73.241,31.396 39.915,45.93 33.518,60.949 33.518,60.949" />
    <path
       style="fill-opacity:0;stroke:#666666;stroke-width:4;stroke-linecap:round;stroke-linejoin:round"
       id="path42411"
       d="m 33.164,58.337 c 0,0 10.167,28.323 53.773,26.736" />
    <path
       style="fill-opacity:0;stroke:#666666;stroke-width:4;stroke-linecap:round;stroke-linejoin:round"
       id="path42413"
       d="m 57.13,48.485 c 0,0 7.558,29.593 54.627,32.03" />
    <path
       style="fill-opacity:0;stroke:#666666;stroke-width:4;stroke-linecap:round;stroke-linejoin:round"
       id="path42415"
       d="m 91.501,56.867 c 0,0 19.706,22.725 51.993,17.586" />
    <path
       style="fill-opacity:0;stroke:#666666;stroke-width:4;stroke-linecap:round;stroke-linejoin:round"
       id="path42417"
       d="m 117.834,53.608 c 0,0 13.484,12.925 47.087,14.322" />
    <path
       style="fill-opacity:0;stroke:#666666;stroke-width:4;stroke-linecap:round;stroke-linejoin:round"
       id="path42419"
       d="m 129.287,79.93 c 0,0 2.006,-5.524 9.068,-6.99 5.079,-1.057 11.602,4.226 11.602,4.226" />
    <path
       style="fill:#666666"
       id="path42421"
       d="m 153.21,123.151 c 1.552,7.468 0.325,14.037 -2.741,14.673 -3.065,0.637 -6.807,-4.9 -8.36,-12.367 -1.55,-7.468 -0.323,-14.036 2.742,-14.674 3.065,-0.636 6.807,4.901 8.359,12.368" />
    <path
       style="fill-opacity:0;stroke:#666666;stroke-width:4;stroke-linecap:round;stroke-linejoin:round"
       id="path42423"
       d="m 75.864,91.029 c 0,0 -4.042,-4.267 -11.103,-2.799 -5.079,1.055 -8.958,8.499 -8.958,8.499" />
    <path
       style="fill:#666666"
       id="path42425"
       d="m 71.137,140.203 c 1.551,7.467 5.294,13.004 8.359,12.367 3.066,-0.636 4.292,-7.206 2.74,-14.673 -1.551,-7.467 -5.294,-13.004 -8.358,-12.368 -3.065,0.637 -4.293,7.206 -2.741,14.674" />
    <path
       style="fill:#ffecd0"
       id="path42427"
       d="m 114.678,326.139 c 0,0 3.573,-10.897 -4.653,-17.266 -7.409,-5.744 -16.439,-8.349 -19.246,-3.404 -2.569,4.525 6.099,4.639 6.099,4.639 0,0 -27.059,0.087 -24.733,12.031 1.541,7.906 21.836,11.51 34.828,8.211 5.852,-1.485 7.705,-4.211 7.705,-4.211" />
    <path
       style="fill-opacity:0;stroke:#666666;stroke-width:4;stroke-linecap:round;stroke-linejoin:round"
       id="path42429"
       d="m 114.678,326.139 c 0,0 3.573,-10.897 -4.653,-17.266 -7.409,-5.744 -16.439,-8.349 -19.246,-3.404 -2.569,4.525 6.099,4.639 6.099,4.639 0,0 -27.059,0.087 -24.733,12.031 1.541,7.906 21.836,11.51 34.828,8.211 5.852,-1.485 7.705,-4.211 7.705,-4.211 z" />
  </g>
</svg>
